<svg width="1349" height="193" viewBox="0 0 1349 193" fill="none" xmlns="http://www.w3.org/2000/svg">
<g filter="url(#filter0_ddd_70_2981)">
<path d="M8 9C8 7.89543 8.89543 7 10 7H412.333C413.438 7 414.333 7.89543 414.333 9V182C414.333 183.105 413.438 184 412.333 184H10C8.89544 184 8 183.105 8 182V9Z" fill="white"/>
<path d="M67.6621 120.547V152H63.6875V125.51L55.6738 128.432V124.844L67.0391 120.547H67.6621ZM85.1504 134.404H87.9863C89.3757 134.404 90.5215 134.175 91.4238 133.717C92.3405 133.244 93.0208 132.607 93.4648 131.805C93.9232 130.988 94.1523 130.072 94.1523 129.055C94.1523 127.852 93.9518 126.842 93.5508 126.025C93.1497 125.209 92.5482 124.593 91.7461 124.178C90.944 123.762 89.9271 123.555 88.6953 123.555C87.5781 123.555 86.5898 123.777 85.7305 124.221C84.8854 124.65 84.2194 125.266 83.7324 126.068C83.2598 126.87 83.0234 127.816 83.0234 128.904H79.0488C79.0488 127.314 79.4499 125.868 80.252 124.564C81.054 123.261 82.1784 122.223 83.625 121.449C85.0859 120.676 86.776 120.289 88.6953 120.289C90.5859 120.289 92.2402 120.626 93.6582 121.299C95.0762 121.958 96.179 122.946 96.9668 124.264C97.7546 125.567 98.1484 127.193 98.1484 129.141C98.1484 129.928 97.9622 130.773 97.5898 131.676C97.2318 132.564 96.666 133.395 95.8926 134.168C95.1335 134.941 94.1452 135.579 92.9277 136.08C91.7103 136.567 90.2493 136.811 88.5449 136.811H85.1504V134.404ZM85.1504 137.67V135.285H88.5449C90.5358 135.285 92.1829 135.521 93.4863 135.994C94.7897 136.467 95.8138 137.097 96.5586 137.885C97.3177 138.673 97.8477 139.539 98.1484 140.484C98.4635 141.415 98.6211 142.346 98.6211 143.277C98.6211 144.738 98.3704 146.035 97.8691 147.166C97.3822 148.298 96.6875 149.257 95.7852 150.045C94.8971 150.833 93.8516 151.427 92.6484 151.828C91.4453 152.229 90.1348 152.43 88.7168 152.43C87.3561 152.43 86.0742 152.236 84.8711 151.85C83.6823 151.463 82.6296 150.904 81.7129 150.174C80.7962 149.429 80.0801 148.52 79.5645 147.445C79.0488 146.357 78.791 145.118 78.791 143.729H82.7656C82.7656 144.817 83.002 145.77 83.4746 146.586C83.9616 147.402 84.6491 148.04 85.5371 148.498C86.4395 148.942 87.4993 149.164 88.7168 149.164C89.9342 149.164 90.9798 148.956 91.8535 148.541C92.7415 148.111 93.4219 147.467 93.8945 146.607C94.3815 145.748 94.625 144.667 94.625 143.363C94.625 142.06 94.3529 140.993 93.8086 140.162C93.2643 139.317 92.4909 138.694 91.4883 138.293C90.5 137.878 89.3327 137.67 87.9863 137.67H85.1504ZM109.127 137.111L105.947 136.295L107.516 120.719H123.564V124.393H110.889L109.943 132.9C110.516 132.571 111.24 132.263 112.113 131.977C113.001 131.69 114.018 131.547 115.164 131.547C116.611 131.547 117.907 131.798 119.053 132.299C120.199 132.786 121.173 133.488 121.975 134.404C122.791 135.321 123.414 136.424 123.844 137.713C124.273 139.002 124.488 140.441 124.488 142.031C124.488 143.535 124.281 144.917 123.865 146.178C123.464 147.438 122.855 148.541 122.039 149.486C121.223 150.417 120.191 151.141 118.945 151.656C117.714 152.172 116.26 152.43 114.584 152.43C113.324 152.43 112.128 152.258 110.996 151.914C109.879 151.556 108.876 151.019 107.988 150.303C107.115 149.572 106.398 148.67 105.84 147.596C105.296 146.507 104.952 145.232 104.809 143.771H108.59C108.762 144.946 109.105 145.934 109.621 146.736C110.137 147.538 110.81 148.147 111.641 148.562C112.486 148.964 113.467 149.164 114.584 149.164C115.529 149.164 116.367 148.999 117.098 148.67C117.828 148.34 118.444 147.868 118.945 147.252C119.447 146.636 119.826 145.891 120.084 145.018C120.356 144.144 120.492 143.163 120.492 142.074C120.492 141.086 120.356 140.169 120.084 139.324C119.812 138.479 119.404 137.742 118.859 137.111C118.329 136.481 117.678 135.994 116.904 135.65C116.131 135.292 115.243 135.113 114.24 135.113C112.908 135.113 111.898 135.292 111.211 135.65C110.538 136.008 109.843 136.495 109.127 137.111Z" fill="#DCB73D"/>
<path d="M46.3281 52.6699H48.9531C48.8164 53.9277 48.4564 55.0534 47.873 56.0469C47.2897 57.0404 46.4648 57.8288 45.3984 58.4121C44.332 58.9863 43.0013 59.2734 41.4062 59.2734C40.2396 59.2734 39.1777 59.0547 38.2207 58.6172C37.2728 58.1797 36.457 57.5599 35.7734 56.7578C35.0898 55.9466 34.5612 54.9759 34.1875 53.8457C33.8229 52.7064 33.6406 51.4395 33.6406 50.0449V48.0625C33.6406 46.668 33.8229 45.4056 34.1875 44.2754C34.5612 43.1361 35.0944 42.1608 35.7871 41.3496C36.4889 40.5384 37.332 39.9141 38.3164 39.4766C39.3008 39.0391 40.4082 38.8203 41.6387 38.8203C43.1426 38.8203 44.4141 39.1029 45.4531 39.668C46.4922 40.2331 47.2988 41.0169 47.873 42.0195C48.4564 43.013 48.8164 44.166 48.9531 45.4785H46.3281C46.2005 44.5488 45.9635 43.7513 45.6172 43.0859C45.2708 42.4115 44.7786 41.8919 44.1406 41.5273C43.5026 41.1628 42.6686 40.9805 41.6387 40.9805C40.7546 40.9805 39.9753 41.1491 39.3008 41.4863C38.6354 41.8236 38.0749 42.3021 37.6191 42.9219C37.1725 43.5417 36.8353 44.2845 36.6074 45.1504C36.3796 46.0163 36.2656 46.9779 36.2656 48.0352V50.0449C36.2656 51.0202 36.3659 51.9362 36.5664 52.793C36.776 53.6497 37.0905 54.4017 37.5098 55.0488C37.929 55.696 38.4622 56.2064 39.1094 56.5801C39.7565 56.9447 40.5221 57.127 41.4062 57.127C42.5273 57.127 43.4206 56.9492 44.0859 56.5938C44.7513 56.2383 45.2526 55.7279 45.5898 55.0625C45.9362 54.3971 46.1823 53.5996 46.3281 52.6699ZM54.9141 38V59H52.3711V38H54.9141ZM61.7227 44.207V59H59.1797V44.207H61.7227ZM58.9883 40.2832C58.9883 39.873 59.1113 39.5267 59.3574 39.2441C59.6126 38.9616 59.9863 38.8203 60.4785 38.8203C60.9616 38.8203 61.3307 38.9616 61.5859 39.2441C61.8503 39.5267 61.9824 39.873 61.9824 40.2832C61.9824 40.6751 61.8503 41.0124 61.5859 41.2949C61.3307 41.5684 60.9616 41.7051 60.4785 41.7051C59.9863 41.7051 59.6126 41.5684 59.3574 41.2949C59.1113 41.0124 58.9883 40.6751 58.9883 40.2832ZM71.9219 59.2734C70.8919 59.2734 69.9577 59.1003 69.1191 58.7539C68.2897 58.3984 67.5742 57.9017 66.9727 57.2637C66.3802 56.6257 65.9245 55.8691 65.6055 54.9941C65.2865 54.1191 65.127 53.1621 65.127 52.123V51.5488C65.127 50.3457 65.3047 49.2747 65.6602 48.3359C66.0156 47.388 66.4987 46.5859 67.1094 45.9297C67.7201 45.2734 68.4128 44.7767 69.1875 44.4395C69.9622 44.1022 70.7643 43.9336 71.5938 43.9336C72.651 43.9336 73.5625 44.1159 74.3281 44.4805C75.1029 44.8451 75.7363 45.3555 76.2285 46.0117C76.7207 46.6589 77.0853 47.4245 77.3223 48.3086C77.5592 49.1836 77.6777 50.1406 77.6777 51.1797V52.3145H66.6309V50.25H75.1484V50.0586C75.112 49.4023 74.9753 48.7643 74.7383 48.1445C74.5104 47.5247 74.1458 47.0143 73.6445 46.6133C73.1432 46.2122 72.4596 46.0117 71.5938 46.0117C71.0195 46.0117 70.4909 46.1348 70.0078 46.3809C69.5247 46.6178 69.11 46.9733 68.7637 47.4473C68.4173 47.9212 68.1484 48.5 67.957 49.1836C67.7656 49.8672 67.6699 50.6556 67.6699 51.5488V52.123C67.6699 52.8249 67.7656 53.4857 67.957 54.1055C68.1576 54.7161 68.4447 55.2539 68.8184 55.7188C69.2012 56.1836 69.6615 56.5482 70.1992 56.8125C70.7461 57.0768 71.3659 57.209 72.0586 57.209C72.9518 57.209 73.7083 57.0267 74.3281 56.6621C74.9479 56.2975 75.4902 55.8099 75.9551 55.1992L77.4863 56.416C77.1673 56.8991 76.7617 57.3594 76.2695 57.7969C75.7773 58.2344 75.1712 58.5898 74.4512 58.8633C73.7402 59.1367 72.8971 59.2734 71.9219 59.2734ZM83.1602 47.3652V59H80.6309V44.207H83.0234L83.1602 47.3652ZM82.5586 51.043L81.5059 51.002C81.515 49.9902 81.6654 49.056 81.957 48.1992C82.2487 47.3333 82.6589 46.5814 83.1875 45.9434C83.7161 45.3053 84.3451 44.8132 85.0742 44.4668C85.8125 44.1113 86.6283 43.9336 87.5215 43.9336C88.2507 43.9336 88.9069 44.0339 89.4902 44.2344C90.0736 44.4258 90.5703 44.7357 90.9805 45.1641C91.3997 45.5924 91.7188 46.1484 91.9375 46.832C92.1562 47.5065 92.2656 48.3314 92.2656 49.3066V59H89.7227V49.2793C89.7227 48.5046 89.6087 47.8848 89.3809 47.4199C89.153 46.946 88.8203 46.6042 88.3828 46.3945C87.9453 46.1758 87.4076 46.0664 86.7695 46.0664C86.1406 46.0664 85.5664 46.1986 85.0469 46.4629C84.5365 46.7272 84.0944 47.0918 83.7207 47.5566C83.3561 48.0215 83.069 48.5547 82.8594 49.1562C82.6589 49.7487 82.5586 50.3776 82.5586 51.043ZM102.301 44.207V46.1484H94.3027V44.207H102.301ZM97.0098 40.6113H99.5391V55.3359C99.5391 55.8372 99.6165 56.2155 99.7715 56.4707C99.9264 56.7259 100.127 56.8945 100.373 56.9766C100.619 57.0586 100.883 57.0996 101.166 57.0996C101.376 57.0996 101.594 57.0814 101.822 57.0449C102.059 56.9993 102.237 56.9629 102.355 56.9355L102.369 59C102.169 59.0638 101.904 59.123 101.576 59.1777C101.257 59.2415 100.87 59.2734 100.414 59.2734C99.7943 59.2734 99.2246 59.1504 98.7051 58.9043C98.1855 58.6582 97.7708 58.248 97.4609 57.6738C97.1602 57.0905 97.0098 56.3066 97.0098 55.3223V40.6113ZM111.406 59.2734C110.376 59.2734 109.442 59.1003 108.604 58.7539C107.774 58.3984 107.059 57.9017 106.457 57.2637C105.865 56.6257 105.409 55.8691 105.09 54.9941C104.771 54.1191 104.611 53.1621 104.611 52.123V51.5488C104.611 50.3457 104.789 49.2747 105.145 48.3359C105.5 47.388 105.983 46.5859 106.594 45.9297C107.204 45.2734 107.897 44.7767 108.672 44.4395C109.447 44.1022 110.249 43.9336 111.078 43.9336C112.135 43.9336 113.047 44.1159 113.812 44.4805C114.587 44.8451 115.221 45.3555 115.713 46.0117C116.205 46.6589 116.57 47.4245 116.807 48.3086C117.044 49.1836 117.162 50.1406 117.162 51.1797V52.3145H106.115V50.25H114.633V50.0586C114.596 49.4023 114.46 48.7643 114.223 48.1445C113.995 47.5247 113.63 47.0143 113.129 46.6133C112.628 46.2122 111.944 46.0117 111.078 46.0117C110.504 46.0117 109.975 46.1348 109.492 46.3809C109.009 46.6178 108.594 46.9733 108.248 47.4473C107.902 47.9212 107.633 48.5 107.441 49.1836C107.25 49.8672 107.154 50.6556 107.154 51.5488V52.123C107.154 52.8249 107.25 53.4857 107.441 54.1055C107.642 54.7161 107.929 55.2539 108.303 55.7188C108.686 56.1836 109.146 56.5482 109.684 56.8125C110.23 57.0768 110.85 57.209 111.543 57.209C112.436 57.209 113.193 57.0267 113.812 56.6621C114.432 56.2975 114.975 55.8099 115.439 55.1992L116.971 56.416C116.652 56.8991 116.246 57.3594 115.754 57.7969C115.262 58.2344 114.656 58.5898 113.936 58.8633C113.225 59.1367 112.382 59.2734 111.406 59.2734ZM128.729 55.0762C128.729 54.7116 128.646 54.3743 128.482 54.0645C128.327 53.7454 128.004 53.4583 127.512 53.2031C127.029 52.9388 126.299 52.7109 125.324 52.5195C124.504 52.3464 123.761 52.1413 123.096 51.9043C122.439 51.6673 121.879 51.3802 121.414 51.043C120.958 50.7057 120.607 50.3092 120.361 49.8535C120.115 49.3978 119.992 48.8646 119.992 48.2539C119.992 47.6706 120.12 47.1191 120.375 46.5996C120.639 46.0801 121.008 45.6198 121.482 45.2188C121.965 44.8177 122.544 44.5033 123.219 44.2754C123.893 44.0475 124.645 43.9336 125.475 43.9336C126.66 43.9336 127.671 44.1432 128.51 44.5625C129.348 44.9818 129.991 45.5423 130.438 46.2441C130.884 46.9368 131.107 47.707 131.107 48.5547H128.578C128.578 48.1445 128.455 47.748 128.209 47.3652C127.972 46.9733 127.621 46.6497 127.156 46.3945C126.701 46.1393 126.14 46.0117 125.475 46.0117C124.773 46.0117 124.203 46.1211 123.766 46.3398C123.337 46.5495 123.023 46.8184 122.822 47.1465C122.631 47.4746 122.535 47.821 122.535 48.1855C122.535 48.459 122.581 48.7051 122.672 48.9238C122.772 49.1335 122.945 49.3294 123.191 49.5117C123.438 49.6849 123.784 49.849 124.23 50.0039C124.677 50.1589 125.247 50.3138 125.939 50.4688C127.152 50.7422 128.15 51.0703 128.934 51.4531C129.717 51.8359 130.301 52.3053 130.684 52.8613C131.066 53.4173 131.258 54.0918 131.258 54.8848C131.258 55.5319 131.121 56.1243 130.848 56.6621C130.583 57.1999 130.196 57.6647 129.686 58.0566C129.184 58.4395 128.583 58.7402 127.881 58.959C127.188 59.1686 126.409 59.2734 125.543 59.2734C124.24 59.2734 123.137 59.041 122.234 58.5762C121.332 58.1113 120.648 57.5098 120.184 56.7715C119.719 56.0332 119.486 55.2539 119.486 54.4336H122.029C122.066 55.1263 122.266 55.6777 122.631 56.0879C122.995 56.4889 123.442 56.776 123.971 56.9492C124.499 57.1133 125.023 57.1953 125.543 57.1953C126.236 57.1953 126.814 57.1042 127.279 56.9219C127.753 56.7396 128.113 56.4889 128.359 56.1699C128.605 55.8509 128.729 55.4863 128.729 55.0762ZM150.248 56.4707V48.8555C150.248 48.2721 150.13 47.7663 149.893 47.3379C149.665 46.9004 149.318 46.5632 148.854 46.3262C148.389 46.0892 147.814 45.9707 147.131 45.9707C146.493 45.9707 145.932 46.0801 145.449 46.2988C144.975 46.5176 144.602 46.8047 144.328 47.1602C144.064 47.5156 143.932 47.8984 143.932 48.3086H141.402C141.402 47.7799 141.539 47.2559 141.812 46.7363C142.086 46.2168 142.478 45.7474 142.988 45.3281C143.508 44.8997 144.128 44.5625 144.848 44.3164C145.577 44.0612 146.388 43.9336 147.281 43.9336C148.357 43.9336 149.305 44.1159 150.125 44.4805C150.954 44.8451 151.602 45.3965 152.066 46.1348C152.54 46.8639 152.777 47.7799 152.777 48.8828V55.7734C152.777 56.2656 152.818 56.7897 152.9 57.3457C152.992 57.9017 153.124 58.3802 153.297 58.7812V59H150.658C150.531 58.7083 150.43 58.321 150.357 57.8379C150.285 57.3457 150.248 56.89 150.248 56.4707ZM150.686 50.0312L150.713 51.8086H148.156C147.436 51.8086 146.794 51.8678 146.229 51.9863C145.663 52.0957 145.189 52.2643 144.807 52.4922C144.424 52.7201 144.132 53.0072 143.932 53.3535C143.731 53.6908 143.631 54.0872 143.631 54.543C143.631 55.0078 143.736 55.4316 143.945 55.8145C144.155 56.1973 144.469 56.5026 144.889 56.7305C145.317 56.9492 145.841 57.0586 146.461 57.0586C147.236 57.0586 147.919 56.8945 148.512 56.5664C149.104 56.2383 149.574 55.8372 149.92 55.3633C150.275 54.8893 150.467 54.429 150.494 53.9824L151.574 55.1992C151.51 55.582 151.337 56.0059 151.055 56.4707C150.772 56.9355 150.394 57.3822 149.92 57.8105C149.455 58.2298 148.899 58.5807 148.252 58.8633C147.614 59.1367 146.894 59.2734 146.092 59.2734C145.089 59.2734 144.21 59.0775 143.453 58.6855C142.706 58.2936 142.122 57.7695 141.703 57.1133C141.293 56.4479 141.088 55.7051 141.088 54.8848C141.088 54.0918 141.243 53.3945 141.553 52.793C141.863 52.1823 142.309 51.6764 142.893 51.2754C143.476 50.8652 144.178 50.5553 144.998 50.3457C145.818 50.1361 146.734 50.0312 147.746 50.0312H150.686ZM162.949 44.207V46.1484H154.951V44.207H162.949ZM157.658 40.6113H160.188V55.3359C160.188 55.8372 160.265 56.2155 160.42 56.4707C160.575 56.7259 160.775 56.8945 161.021 56.9766C161.268 57.0586 161.532 57.0996 161.814 57.0996C162.024 57.0996 162.243 57.0814 162.471 57.0449C162.708 56.9993 162.885 56.9629 163.004 56.9355L163.018 59C162.817 59.0638 162.553 59.123 162.225 59.1777C161.906 59.2415 161.518 59.2734 161.062 59.2734C160.443 59.2734 159.873 59.1504 159.354 58.9043C158.834 58.6582 158.419 58.248 158.109 57.6738C157.809 57.0905 157.658 56.3066 157.658 55.3223V40.6113ZM168.664 44.207V59H166.121V44.207H168.664ZM165.93 40.2832C165.93 39.873 166.053 39.5267 166.299 39.2441C166.554 38.9616 166.928 38.8203 167.42 38.8203C167.903 38.8203 168.272 38.9616 168.527 39.2441C168.792 39.5267 168.924 39.873 168.924 40.2832C168.924 40.6751 168.792 41.0124 168.527 41.2949C168.272 41.5684 167.903 41.7051 167.42 41.7051C166.928 41.7051 166.554 41.5684 166.299 41.2949C166.053 41.0124 165.93 40.6751 165.93 40.2832ZM177.223 56.7168L181.27 44.207H183.854L178.535 59H176.84L177.223 56.7168ZM173.846 44.207L178.016 56.7852L178.303 59H176.607L171.248 44.207H173.846ZM185.398 51.7676V51.4531C185.398 50.3867 185.553 49.3978 185.863 48.4863C186.173 47.5658 186.62 46.7682 187.203 46.0938C187.786 45.4102 188.493 44.8815 189.322 44.5078C190.152 44.125 191.081 43.9336 192.111 43.9336C193.15 43.9336 194.085 44.125 194.914 44.5078C195.753 44.8815 196.464 45.4102 197.047 46.0938C197.639 46.7682 198.09 47.5658 198.4 48.4863C198.71 49.3978 198.865 50.3867 198.865 51.4531V51.7676C198.865 52.834 198.71 53.8229 198.4 54.7344C198.09 55.6458 197.639 56.4434 197.047 57.127C196.464 57.8014 195.757 58.3301 194.928 58.7129C194.107 59.0866 193.178 59.2734 192.139 59.2734C191.1 59.2734 190.165 59.0866 189.336 58.7129C188.507 58.3301 187.796 57.8014 187.203 57.127C186.62 56.4434 186.173 55.6458 185.863 54.7344C185.553 53.8229 185.398 52.834 185.398 51.7676ZM187.928 51.4531V51.7676C187.928 52.5059 188.014 53.2031 188.188 53.8594C188.361 54.5065 188.62 55.0807 188.967 55.582C189.322 56.0833 189.764 56.4798 190.293 56.7715C190.822 57.054 191.437 57.1953 192.139 57.1953C192.831 57.1953 193.438 57.054 193.957 56.7715C194.486 56.4798 194.923 56.0833 195.27 55.582C195.616 55.0807 195.876 54.5065 196.049 53.8594C196.231 53.2031 196.322 52.5059 196.322 51.7676V51.4531C196.322 50.724 196.231 50.0358 196.049 49.3887C195.876 48.7324 195.611 48.1536 195.256 47.6523C194.91 47.1419 194.472 46.7409 193.943 46.4492C193.424 46.1576 192.813 46.0117 192.111 46.0117C191.419 46.0117 190.808 46.1576 190.279 46.4492C189.76 46.7409 189.322 47.1419 188.967 47.6523C188.62 48.1536 188.361 48.7324 188.188 49.3887C188.014 50.0358 187.928 50.724 187.928 51.4531ZM210.65 55.0762C210.65 54.7116 210.568 54.3743 210.404 54.0645C210.249 53.7454 209.926 53.4583 209.434 53.2031C208.951 52.9388 208.221 52.7109 207.246 52.5195C206.426 52.3464 205.683 52.1413 205.018 51.9043C204.361 51.6673 203.801 51.3802 203.336 51.043C202.88 50.7057 202.529 50.3092 202.283 49.8535C202.037 49.3978 201.914 48.8646 201.914 48.2539C201.914 47.6706 202.042 47.1191 202.297 46.5996C202.561 46.0801 202.93 45.6198 203.404 45.2188C203.887 44.8177 204.466 44.5033 205.141 44.2754C205.815 44.0475 206.567 43.9336 207.396 43.9336C208.581 43.9336 209.593 44.1432 210.432 44.5625C211.27 44.9818 211.913 45.5423 212.359 46.2441C212.806 46.9368 213.029 47.707 213.029 48.5547H210.5C210.5 48.1445 210.377 47.748 210.131 47.3652C209.894 46.9733 209.543 46.6497 209.078 46.3945C208.622 46.1393 208.062 46.0117 207.396 46.0117C206.695 46.0117 206.125 46.1211 205.688 46.3398C205.259 46.5495 204.945 46.8184 204.744 47.1465C204.553 47.4746 204.457 47.821 204.457 48.1855C204.457 48.459 204.503 48.7051 204.594 48.9238C204.694 49.1335 204.867 49.3294 205.113 49.5117C205.359 49.6849 205.706 49.849 206.152 50.0039C206.599 50.1589 207.169 50.3138 207.861 50.4688C209.074 50.7422 210.072 51.0703 210.855 51.4531C211.639 51.8359 212.223 52.3053 212.605 52.8613C212.988 53.4173 213.18 54.0918 213.18 54.8848C213.18 55.5319 213.043 56.1243 212.77 56.6621C212.505 57.1999 212.118 57.6647 211.607 58.0566C211.106 58.4395 210.505 58.7402 209.803 58.959C209.11 59.1686 208.331 59.2734 207.465 59.2734C206.161 59.2734 205.059 59.041 204.156 58.5762C203.254 58.1113 202.57 57.5098 202.105 56.7715C201.641 56.0332 201.408 55.2539 201.408 54.4336H203.951C203.988 55.1263 204.188 55.6777 204.553 56.0879C204.917 56.4889 205.364 56.776 205.893 56.9492C206.421 57.1133 206.945 57.1953 207.465 57.1953C208.158 57.1953 208.736 57.1042 209.201 56.9219C209.675 56.7396 210.035 56.4889 210.281 56.1699C210.527 55.8509 210.65 55.4863 210.65 55.0762Z" fill="#414141"/>
</g>
<g filter="url(#filter1_ddd_70_2981)">
<path d="M471.333 9C471.333 7.89543 472.229 7 473.333 7H875.667C876.771 7 877.667 7.89543 877.667 9V182C877.667 183.105 876.771 184 875.667 184H473.334C472.229 184 471.333 183.105 471.333 182V9Z" fill="white"/>
<path d="M538.15 120.719V122.953L525.195 152H521.005L533.939 123.984H517.009V120.719H538.15ZM562.406 143.535C562.406 145.44 561.962 147.059 561.074 148.391C560.2 149.708 559.011 150.711 557.507 151.398C556.018 152.086 554.335 152.43 552.458 152.43C550.582 152.43 548.892 152.086 547.388 151.398C545.884 150.711 544.695 149.708 543.822 148.391C542.948 147.059 542.511 145.44 542.511 143.535C542.511 142.289 542.748 141.15 543.22 140.119C543.707 139.074 544.388 138.164 545.261 137.391C546.149 136.617 547.195 136.023 548.398 135.607C549.615 135.178 550.955 134.963 552.416 134.963C554.335 134.963 556.046 135.335 557.55 136.08C559.054 136.811 560.236 137.82 561.095 139.109C561.969 140.398 562.406 141.874 562.406 143.535ZM558.41 143.449C558.41 142.289 558.159 141.265 557.658 140.377C557.156 139.475 556.455 138.773 555.552 138.271C554.65 137.77 553.604 137.52 552.416 137.52C551.198 137.52 550.145 137.77 549.257 138.271C548.384 138.773 547.703 139.475 547.216 140.377C546.729 141.265 546.486 142.289 546.486 143.449C546.486 144.652 546.722 145.684 547.195 146.543C547.682 147.388 548.369 148.04 549.257 148.498C550.16 148.942 551.227 149.164 552.458 149.164C553.69 149.164 554.75 148.942 555.638 148.498C556.526 148.04 557.207 147.388 557.679 146.543C558.166 145.684 558.41 144.652 558.41 143.449ZM561.675 128.861C561.675 130.38 561.274 131.747 560.472 132.965C559.67 134.182 558.574 135.142 557.185 135.844C555.796 136.546 554.22 136.896 552.458 136.896C550.668 136.896 549.071 136.546 547.667 135.844C546.278 135.142 545.19 134.182 544.402 132.965C543.614 131.747 543.22 130.38 543.22 128.861C543.22 127.042 543.614 125.495 544.402 124.221C545.204 122.946 546.3 121.972 547.689 121.299C549.078 120.626 550.661 120.289 552.437 120.289C554.227 120.289 555.817 120.626 557.207 121.299C558.596 121.972 559.684 122.946 560.472 124.221C561.274 125.495 561.675 127.042 561.675 128.861ZM557.701 128.926C557.701 127.88 557.479 126.956 557.035 126.154C556.591 125.352 555.975 124.722 555.187 124.264C554.399 123.791 553.483 123.555 552.437 123.555C551.391 123.555 550.475 123.777 549.687 124.221C548.914 124.65 548.305 125.266 547.861 126.068C547.431 126.87 547.216 127.823 547.216 128.926C547.216 130 547.431 130.938 547.861 131.74C548.305 132.542 548.921 133.165 549.708 133.609C550.496 134.053 551.413 134.275 552.458 134.275C553.504 134.275 554.414 134.053 555.187 133.609C555.975 133.165 556.591 132.542 557.035 131.74C557.479 130.938 557.701 130 557.701 128.926Z" fill="#DCB73D"/>
<path d="M588.515 141H587.563V136.926C587.563 136.067 587.437 135.442 587.185 135.05C586.933 134.649 586.537 134.448 585.995 134.448C585.622 134.448 585.253 134.541 584.889 134.728C584.525 134.905 584.203 135.153 583.923 135.47C583.653 135.778 583.457 136.133 583.335 136.534V141H582.383V133.706H583.251V135.358C583.447 135.003 583.704 134.695 584.021 134.434C584.339 134.163 584.698 133.953 585.099 133.804C585.501 133.655 585.916 133.58 586.345 133.58C586.747 133.58 587.087 133.655 587.367 133.804C587.647 133.953 587.871 134.168 588.039 134.448C588.207 134.719 588.329 135.05 588.403 135.442C588.478 135.825 588.515 136.254 588.515 136.73V141ZM593.934 141.14C593.411 141.14 592.926 141.042 592.478 140.846C592.039 140.641 591.656 140.365 591.33 140.02C591.012 139.665 590.765 139.264 590.588 138.816C590.41 138.359 590.322 137.878 590.322 137.374C590.322 136.851 590.41 136.366 590.588 135.918C590.765 135.461 591.017 135.059 591.344 134.714C591.67 134.359 592.053 134.084 592.492 133.888C592.94 133.683 593.425 133.58 593.948 133.58C594.47 133.58 594.951 133.683 595.39 133.888C595.828 134.084 596.211 134.359 596.538 134.714C596.864 135.059 597.116 135.461 597.294 135.918C597.471 136.366 597.56 136.851 597.56 137.374C597.56 137.878 597.471 138.359 597.294 138.816C597.116 139.264 596.864 139.665 596.538 140.02C596.22 140.365 595.838 140.641 595.39 140.846C594.951 141.042 594.466 141.14 593.934 141.14ZM591.288 137.388C591.288 137.929 591.404 138.424 591.638 138.872C591.88 139.311 592.202 139.661 592.604 139.922C593.005 140.174 593.448 140.3 593.934 140.3C594.419 140.3 594.862 140.169 595.264 139.908C595.665 139.647 595.987 139.292 596.23 138.844C596.472 138.387 596.594 137.892 596.594 137.36C596.594 136.819 596.472 136.324 596.23 135.876C595.987 135.428 595.665 135.073 595.264 134.812C594.862 134.551 594.419 134.42 593.934 134.42C593.448 134.42 593.005 134.555 592.604 134.826C592.212 135.097 591.894 135.456 591.652 135.904C591.409 136.343 591.288 136.837 591.288 137.388ZM601.356 141L598.402 133.706H599.396L601.888 140.048L604.394 133.706H605.332L602.378 141H601.356ZM606.165 138.9C606.165 138.443 606.295 138.051 606.557 137.724C606.818 137.388 607.177 137.131 607.635 136.954C608.101 136.767 608.638 136.674 609.245 136.674C609.599 136.674 609.968 136.702 610.351 136.758C610.733 136.814 611.074 136.898 611.373 137.01V136.394C611.373 135.778 611.191 135.288 610.827 134.924C610.463 134.56 609.959 134.378 609.315 134.378C608.923 134.378 608.535 134.453 608.153 134.602C607.779 134.742 607.387 134.952 606.977 135.232L606.613 134.56C607.089 134.233 607.555 133.991 608.013 133.832C608.47 133.664 608.937 133.58 609.413 133.58C610.309 133.58 611.018 133.837 611.541 134.35C612.063 134.863 612.325 135.573 612.325 136.478V139.852C612.325 139.983 612.353 140.081 612.409 140.146C612.465 140.202 612.553 140.235 612.675 140.244V141C612.572 141.009 612.483 141.019 612.409 141.028C612.334 141.037 612.278 141.037 612.241 141.028C612.007 141.019 611.83 140.944 611.709 140.804C611.587 140.664 611.522 140.515 611.513 140.356L611.499 139.824C611.172 140.244 610.747 140.571 610.225 140.804C609.702 141.028 609.17 141.14 608.629 141.14C608.162 141.14 607.737 141.042 607.355 140.846C606.981 140.641 606.687 140.37 606.473 140.034C606.267 139.689 606.165 139.311 606.165 138.9ZM611.051 139.46C611.153 139.329 611.233 139.203 611.289 139.082C611.345 138.961 611.373 138.853 611.373 138.76V137.696C611.055 137.575 610.724 137.481 610.379 137.416C610.043 137.351 609.702 137.318 609.357 137.318C608.675 137.318 608.125 137.453 607.705 137.724C607.285 137.995 607.075 138.363 607.075 138.83C607.075 139.101 607.145 139.357 607.285 139.6C607.425 139.833 607.63 140.029 607.901 140.188C608.171 140.337 608.489 140.412 608.853 140.412C609.31 140.412 609.735 140.323 610.127 140.146C610.528 139.969 610.836 139.74 611.051 139.46ZM617.056 141.14C616.458 141.14 615.903 141.042 615.39 140.846C614.876 140.65 614.433 140.351 614.06 139.95L614.452 139.278C614.862 139.661 615.273 139.941 615.684 140.118C616.104 140.286 616.547 140.37 617.014 140.37C617.583 140.37 618.045 140.258 618.4 140.034C618.754 139.801 618.932 139.469 618.932 139.04C618.932 138.751 618.843 138.531 618.666 138.382C618.498 138.223 618.25 138.097 617.924 138.004C617.606 137.901 617.224 137.794 616.776 137.682C616.272 137.542 615.847 137.397 615.502 137.248C615.166 137.089 614.909 136.893 614.732 136.66C614.564 136.417 614.48 136.105 614.48 135.722C614.48 135.246 614.596 134.854 614.83 134.546C615.072 134.229 615.399 133.991 615.81 133.832C616.23 133.664 616.696 133.58 617.21 133.58C617.77 133.58 618.264 133.669 618.694 133.846C619.123 134.023 619.473 134.271 619.744 134.588L619.282 135.232C619.02 134.933 618.708 134.714 618.344 134.574C617.989 134.425 617.592 134.35 617.154 134.35C616.855 134.35 616.57 134.392 616.3 134.476C616.029 134.551 615.805 134.681 615.628 134.868C615.46 135.045 615.376 135.293 615.376 135.61C615.376 135.871 615.441 136.077 615.572 136.226C615.702 136.366 615.898 136.487 616.16 136.59C616.421 136.683 616.743 136.786 617.126 136.898C617.676 137.047 618.157 137.201 618.568 137.36C618.978 137.509 619.296 137.705 619.52 137.948C619.744 138.191 619.856 138.531 619.856 138.97C619.856 139.651 619.599 140.183 619.086 140.566C618.572 140.949 617.896 141.14 617.056 141.14ZM624.97 138.9C624.97 138.443 625.1 138.051 625.362 137.724C625.623 137.388 625.982 137.131 626.44 136.954C626.906 136.767 627.443 136.674 628.05 136.674C628.404 136.674 628.773 136.702 629.156 136.758C629.538 136.814 629.879 136.898 630.178 137.01V136.394C630.178 135.778 629.996 135.288 629.632 134.924C629.268 134.56 628.764 134.378 628.12 134.378C627.728 134.378 627.34 134.453 626.958 134.602C626.584 134.742 626.192 134.952 625.782 135.232L625.418 134.56C625.894 134.233 626.36 133.991 626.818 133.832C627.275 133.664 627.742 133.58 628.218 133.58C629.114 133.58 629.823 133.837 630.346 134.35C630.868 134.863 631.13 135.573 631.13 136.478V139.852C631.13 139.983 631.158 140.081 631.214 140.146C631.27 140.202 631.358 140.235 631.48 140.244V141C631.377 141.009 631.288 141.019 631.214 141.028C631.139 141.037 631.083 141.037 631.046 141.028C630.812 141.019 630.635 140.944 630.514 140.804C630.392 140.664 630.327 140.515 630.318 140.356L630.304 139.824C629.977 140.244 629.552 140.571 629.03 140.804C628.507 141.028 627.975 141.14 627.434 141.14C626.967 141.14 626.542 141.042 626.16 140.846C625.786 140.641 625.492 140.37 625.278 140.034C625.072 139.689 624.97 139.311 624.97 138.9ZM629.856 139.46C629.958 139.329 630.038 139.203 630.094 139.082C630.15 138.961 630.178 138.853 630.178 138.76V137.696C629.86 137.575 629.529 137.481 629.184 137.416C628.848 137.351 628.507 137.318 628.162 137.318C627.48 137.318 626.93 137.453 626.51 137.724C626.09 137.995 625.88 138.363 625.88 138.83C625.88 139.101 625.95 139.357 626.09 139.6C626.23 139.833 626.435 140.029 626.706 140.188C626.976 140.337 627.294 140.412 627.658 140.412C628.115 140.412 628.54 140.323 628.932 140.146C629.333 139.969 629.641 139.74 629.856 139.46ZM636.912 140.65C636.837 140.678 636.721 140.729 636.562 140.804C636.403 140.879 636.212 140.944 635.988 141C635.764 141.056 635.521 141.084 635.26 141.084C634.989 141.084 634.733 141.033 634.49 140.93C634.257 140.827 634.07 140.673 633.93 140.468C633.79 140.253 633.72 139.992 633.72 139.684V134.462H632.712V133.706H633.72V131.242H634.672V133.706H636.352V134.462H634.672V139.418C634.691 139.679 634.784 139.875 634.952 140.006C635.129 140.137 635.33 140.202 635.554 140.202C635.815 140.202 636.053 140.16 636.268 140.076C636.483 139.983 636.613 139.917 636.66 139.88L636.912 140.65ZM638.311 137.99V133.706H639.263V137.822C639.263 138.653 639.403 139.273 639.683 139.684C639.973 140.095 640.397 140.3 640.957 140.3C641.331 140.3 641.69 140.221 642.035 140.062C642.39 139.894 642.703 139.661 642.973 139.362C643.244 139.054 643.449 138.699 643.589 138.298V133.706H644.541V139.852C644.541 139.983 644.569 140.081 644.625 140.146C644.681 140.202 644.765 140.235 644.877 140.244V141C644.765 141.009 644.677 141.014 644.611 141.014C644.546 141.023 644.485 141.028 644.429 141.028C644.243 141.009 644.079 140.935 643.939 140.804C643.809 140.673 643.739 140.515 643.729 140.328L643.701 139.348C643.384 139.908 642.95 140.347 642.399 140.664C641.858 140.981 641.27 141.14 640.635 141.14C639.87 141.14 639.291 140.874 638.899 140.342C638.507 139.81 638.311 139.026 638.311 137.99ZM646.386 138.9C646.386 138.443 646.516 138.051 646.778 137.724C647.039 137.388 647.398 137.131 647.856 136.954C648.322 136.767 648.859 136.674 649.466 136.674C649.82 136.674 650.189 136.702 650.572 136.758C650.954 136.814 651.295 136.898 651.594 137.01V136.394C651.594 135.778 651.412 135.288 651.048 134.924C650.684 134.56 650.18 134.378 649.536 134.378C649.144 134.378 648.756 134.453 648.374 134.602C648 134.742 647.608 134.952 647.198 135.232L646.834 134.56C647.31 134.233 647.776 133.991 648.234 133.832C648.691 133.664 649.158 133.58 649.634 133.58C650.53 133.58 651.239 133.837 651.762 134.35C652.284 134.863 652.546 135.573 652.546 136.478V139.852C652.546 139.983 652.574 140.081 652.63 140.146C652.686 140.202 652.774 140.235 652.896 140.244V141C652.793 141.009 652.704 141.019 652.63 141.028C652.555 141.037 652.499 141.037 652.462 141.028C652.228 141.019 652.051 140.944 651.93 140.804C651.808 140.664 651.743 140.515 651.734 140.356L651.72 139.824C651.393 140.244 650.968 140.571 650.446 140.804C649.923 141.028 649.391 141.14 648.85 141.14C648.383 141.14 647.958 141.042 647.576 140.846C647.202 140.641 646.908 140.37 646.694 140.034C646.488 139.689 646.386 139.311 646.386 138.9ZM651.272 139.46C651.374 139.329 651.454 139.203 651.51 139.082C651.566 138.961 651.594 138.853 651.594 138.76V137.696C651.276 137.575 650.945 137.481 650.6 137.416C650.264 137.351 649.923 137.318 649.578 137.318C648.896 137.318 648.346 137.453 647.926 137.724C647.506 137.995 647.296 138.363 647.296 138.83C647.296 139.101 647.366 139.357 647.506 139.6C647.646 139.833 647.851 140.029 648.122 140.188C648.392 140.337 648.71 140.412 649.074 140.412C649.531 140.412 649.956 140.323 650.348 140.146C650.749 139.969 651.057 139.74 651.272 139.46ZM654.925 130.78H655.877V139.348C655.877 139.712 655.942 139.95 656.073 140.062C656.203 140.174 656.362 140.23 656.549 140.23C656.717 140.23 656.885 140.211 657.053 140.174C657.221 140.137 657.365 140.099 657.487 140.062L657.655 140.832C657.477 140.907 657.258 140.967 656.997 141.014C656.745 141.061 656.525 141.084 656.339 141.084C655.909 141.084 655.564 140.958 655.303 140.706C655.051 140.454 654.925 140.109 654.925 139.67V130.78ZM658.977 141V133.706H659.929V141H658.977ZM658.977 132.18V130.78H659.929V132.18H658.977ZM661.69 140.356L666.576 134.42H661.802V133.706H667.654V134.35L662.796 140.286H667.64V141H661.69V140.356ZM668.889 138.9C668.889 138.443 669.019 138.051 669.281 137.724C669.542 137.388 669.901 137.131 670.359 136.954C670.825 136.767 671.362 136.674 671.969 136.674C672.323 136.674 672.692 136.702 673.075 136.758C673.457 136.814 673.798 136.898 674.097 137.01V136.394C674.097 135.778 673.915 135.288 673.551 134.924C673.187 134.56 672.683 134.378 672.039 134.378C671.647 134.378 671.259 134.453 670.877 134.602C670.503 134.742 670.111 134.952 669.701 135.232L669.337 134.56C669.813 134.233 670.279 133.991 670.737 133.832C671.194 133.664 671.661 133.58 672.137 133.58C673.033 133.58 673.742 133.837 674.265 134.35C674.787 134.863 675.049 135.573 675.049 136.478V139.852C675.049 139.983 675.077 140.081 675.133 140.146C675.189 140.202 675.277 140.235 675.399 140.244V141C675.296 141.009 675.207 141.019 675.133 141.028C675.058 141.037 675.002 141.037 674.965 141.028C674.731 141.019 674.554 140.944 674.433 140.804C674.311 140.664 674.246 140.515 674.237 140.356L674.223 139.824C673.896 140.244 673.471 140.571 672.949 140.804C672.426 141.028 671.894 141.14 671.353 141.14C670.886 141.14 670.461 141.042 670.079 140.846C669.705 140.641 669.411 140.37 669.197 140.034C668.991 139.689 668.889 139.311 668.889 138.9ZM673.775 139.46C673.877 139.329 673.957 139.203 674.013 139.082C674.069 138.961 674.097 138.853 674.097 138.76V137.696C673.779 137.575 673.448 137.481 673.103 137.416C672.767 137.351 672.426 137.318 672.081 137.318C671.399 137.318 670.849 137.453 670.429 137.724C670.009 137.995 669.799 138.363 669.799 138.83C669.799 139.101 669.869 139.357 670.009 139.6C670.149 139.833 670.354 140.029 670.625 140.188C670.895 140.337 671.213 140.412 671.577 140.412C672.034 140.412 672.459 140.323 672.851 140.146C673.252 139.969 673.56 139.74 673.775 139.46ZM680.55 141.14C680.018 141.14 679.528 141.042 679.08 140.846C678.641 140.641 678.254 140.361 677.918 140.006C677.591 139.651 677.334 139.245 677.148 138.788C676.97 138.331 676.882 137.845 676.882 137.332C676.882 136.641 677.036 136.011 677.344 135.442C677.652 134.873 678.081 134.42 678.632 134.084C679.182 133.748 679.817 133.58 680.536 133.58C681.217 133.58 681.819 133.739 682.342 134.056C682.864 134.364 683.252 134.784 683.504 135.316L682.58 135.61C682.374 135.237 682.085 134.947 681.712 134.742C681.348 134.527 680.942 134.42 680.494 134.42C680.008 134.42 679.565 134.546 679.164 134.798C678.762 135.05 678.44 135.395 678.198 135.834C677.964 136.273 677.848 136.772 677.848 137.332C677.848 137.883 677.969 138.382 678.212 138.83C678.454 139.278 678.776 139.637 679.178 139.908C679.579 140.169 680.022 140.3 680.508 140.3C680.825 140.3 681.128 140.244 681.418 140.132C681.716 140.02 681.973 139.871 682.188 139.684C682.412 139.488 682.561 139.278 682.636 139.054L683.574 139.334C683.443 139.679 683.224 139.992 682.916 140.272C682.617 140.543 682.262 140.757 681.852 140.916C681.45 141.065 681.016 141.14 680.55 141.14ZM680.382 143.52C680.148 143.52 679.887 143.487 679.598 143.422C679.318 143.357 679.047 143.259 678.786 143.128L679.066 142.582C679.262 142.675 679.448 142.75 679.626 142.806C679.803 142.862 680.004 142.89 680.228 142.89C680.536 142.89 680.774 142.829 680.942 142.708C681.11 142.596 681.194 142.419 681.194 142.176C681.194 141.933 681.11 141.719 680.942 141.532C680.774 141.355 680.531 141.177 680.214 141L680.62 140.734C680.984 140.958 681.278 141.187 681.502 141.42C681.726 141.663 681.838 141.966 681.838 142.33C681.838 142.703 681.707 142.993 681.446 143.198C681.184 143.413 680.83 143.52 680.382 143.52ZM688.389 141.14C687.866 141.14 687.381 141.042 686.933 140.846C686.494 140.641 686.111 140.365 685.785 140.02C685.467 139.665 685.22 139.264 685.043 138.816C684.865 138.359 684.777 137.878 684.777 137.374C684.777 136.851 684.865 136.366 685.043 135.918C685.22 135.461 685.472 135.059 685.799 134.714C686.125 134.359 686.508 134.084 686.947 133.888C687.395 133.683 687.88 133.58 688.403 133.58C688.925 133.58 689.406 133.683 689.845 133.888C690.283 134.084 690.666 134.359 690.993 134.714C691.319 135.059 691.571 135.461 691.749 135.918C691.926 136.366 692.015 136.851 692.015 137.374C692.015 137.878 691.926 138.359 691.749 138.816C691.571 139.264 691.319 139.665 690.993 140.02C690.675 140.365 690.293 140.641 689.845 140.846C689.406 141.042 688.921 141.14 688.389 141.14ZM685.743 137.388C685.743 137.929 685.859 138.424 686.093 138.872C686.335 139.311 686.657 139.661 687.059 139.922C687.46 140.174 687.903 140.3 688.389 140.3C688.874 140.3 689.317 140.169 689.719 139.908C690.12 139.647 690.442 139.292 690.685 138.844C690.927 138.387 691.049 137.892 691.049 137.36C691.049 136.819 690.927 136.324 690.685 135.876C690.442 135.428 690.12 135.073 689.719 134.812C689.317 134.551 688.874 134.42 688.389 134.42C687.903 134.42 687.46 134.555 687.059 134.826C686.667 135.097 686.349 135.456 686.107 135.904C685.864 136.343 685.743 136.837 685.743 137.388ZM689.243 132.068C688.963 132.068 688.725 132.021 688.529 131.928C688.333 131.835 688.155 131.741 687.997 131.648C687.838 131.555 687.656 131.508 687.451 131.508C687.245 131.508 687.091 131.559 686.989 131.662C686.895 131.755 686.83 131.858 686.793 131.97C686.765 132.082 686.751 132.152 686.751 132.18H686.163C686.163 132.133 686.177 132.04 686.205 131.9C686.242 131.76 686.307 131.615 686.401 131.466C686.494 131.307 686.62 131.172 686.779 131.06C686.947 130.939 687.166 130.878 687.437 130.878C687.698 130.878 687.917 130.929 688.095 131.032C688.281 131.125 688.459 131.223 688.627 131.326C688.804 131.419 689.005 131.466 689.229 131.466C689.471 131.466 689.649 131.415 689.761 131.312C689.873 131.2 689.943 131.088 689.971 130.976C690.008 130.864 690.027 130.799 690.027 130.78H690.615C690.615 130.827 690.596 130.92 690.559 131.06C690.521 131.191 690.451 131.335 690.349 131.494C690.255 131.653 690.115 131.788 689.929 131.9C689.751 132.012 689.523 132.068 689.243 132.068ZM697.037 141.14C696.514 141.14 696.029 141.042 695.581 140.846C695.133 140.641 694.746 140.365 694.419 140.02C694.092 139.665 693.836 139.259 693.649 138.802C693.472 138.345 693.383 137.855 693.383 137.332C693.383 136.651 693.537 136.025 693.845 135.456C694.162 134.887 694.596 134.434 695.147 134.098C695.698 133.753 696.323 133.58 697.023 133.58C697.742 133.58 698.367 133.753 698.899 134.098C699.44 134.443 699.865 134.901 700.173 135.47C700.481 136.03 700.635 136.646 700.635 137.318C700.635 137.393 700.635 137.467 700.635 137.542C700.635 137.607 700.63 137.659 700.621 137.696H694.377C694.424 138.219 694.568 138.685 694.811 139.096C695.063 139.497 695.385 139.819 695.777 140.062C696.178 140.295 696.612 140.412 697.079 140.412C697.555 140.412 698.003 140.291 698.423 140.048C698.852 139.805 699.151 139.488 699.319 139.096L700.145 139.32C699.996 139.665 699.767 139.978 699.459 140.258C699.151 140.538 698.787 140.757 698.367 140.916C697.956 141.065 697.513 141.14 697.037 141.14ZM694.349 137.01H699.739C699.702 136.478 699.557 136.011 699.305 135.61C699.062 135.209 698.74 134.896 698.339 134.672C697.947 134.439 697.513 134.322 697.037 134.322C696.561 134.322 696.127 134.439 695.735 134.672C695.343 134.896 695.021 135.213 694.769 135.624C694.526 136.025 694.386 136.487 694.349 137.01ZM704.778 141.14C704.18 141.14 703.625 141.042 703.112 140.846C702.598 140.65 702.155 140.351 701.782 139.95L702.174 139.278C702.584 139.661 702.995 139.941 703.406 140.118C703.826 140.286 704.269 140.37 704.736 140.37C705.305 140.37 705.767 140.258 706.122 140.034C706.476 139.801 706.654 139.469 706.654 139.04C706.654 138.751 706.565 138.531 706.388 138.382C706.22 138.223 705.972 138.097 705.646 138.004C705.328 137.901 704.946 137.794 704.498 137.682C703.994 137.542 703.569 137.397 703.224 137.248C702.888 137.089 702.631 136.893 702.454 136.66C702.286 136.417 702.202 136.105 702.202 135.722C702.202 135.246 702.318 134.854 702.552 134.546C702.794 134.229 703.121 133.991 703.532 133.832C703.952 133.664 704.418 133.58 704.932 133.58C705.492 133.58 705.986 133.669 706.416 133.846C706.845 134.023 707.195 134.271 707.466 134.588L707.004 135.232C706.742 134.933 706.43 134.714 706.066 134.574C705.711 134.425 705.314 134.35 704.876 134.35C704.577 134.35 704.292 134.392 704.022 134.476C703.751 134.551 703.527 134.681 703.35 134.868C703.182 135.045 703.098 135.293 703.098 135.61C703.098 135.871 703.163 136.077 703.294 136.226C703.424 136.366 703.62 136.487 703.882 136.59C704.143 136.683 704.465 136.786 704.848 136.898C705.398 137.047 705.879 137.201 706.29 137.36C706.7 137.509 707.018 137.705 707.242 137.948C707.466 138.191 707.578 138.531 707.578 138.97C707.578 139.651 707.321 140.183 706.808 140.566C706.294 140.949 705.618 141.14 704.778 141.14Z" fill="#414141"/>
<path d="M504.986 51.1934H499.667V49.0469H504.986C506.016 49.0469 506.85 48.8828 507.488 48.5547C508.126 48.2266 508.591 47.7708 508.882 47.1875C509.183 46.6042 509.333 45.9388 509.333 45.1914C509.333 44.5078 509.183 43.8652 508.882 43.2637C508.591 42.6621 508.126 42.179 507.488 41.8145C506.85 41.4408 506.016 41.2539 504.986 41.2539H500.283V59H497.644V39.0938H504.986C506.49 39.0938 507.761 39.3535 508.8 39.873C509.839 40.3926 510.628 41.1126 511.166 42.0332C511.703 42.9447 511.972 43.9883 511.972 45.1641C511.972 46.4401 511.703 47.5293 511.166 48.4316C510.628 49.334 509.839 50.0221 508.8 50.4961C507.761 50.9609 506.49 51.1934 504.986 51.1934ZM517.455 46.5312V59H514.925V44.207H517.386L517.455 46.5312ZM522.076 44.125L522.062 46.4766C521.852 46.431 521.652 46.4036 521.46 46.3945C521.278 46.3763 521.069 46.3672 520.832 46.3672C520.248 46.3672 519.733 46.4583 519.287 46.6406C518.84 46.8229 518.462 47.0781 518.152 47.4062C517.842 47.7344 517.596 48.1263 517.414 48.582C517.24 49.0286 517.126 49.5208 517.072 50.0586L516.361 50.4688C516.361 49.5755 516.447 48.737 516.621 47.9531C516.803 47.1693 517.081 46.4766 517.455 45.875C517.828 45.2643 518.302 44.7904 518.876 44.4531C519.46 44.1068 520.153 43.9336 520.955 43.9336C521.137 43.9336 521.347 43.9564 521.583 44.002C521.82 44.0384 521.985 44.0794 522.076 44.125ZM523.47 51.7676V51.4531C523.47 50.3867 523.625 49.3978 523.935 48.4863C524.245 47.5658 524.692 46.7682 525.275 46.0938C525.858 45.4102 526.565 44.8815 527.394 44.5078C528.223 44.125 529.153 43.9336 530.183 43.9336C531.222 43.9336 532.156 44.125 532.986 44.5078C533.824 44.8815 534.535 45.4102 535.119 46.0938C535.711 46.7682 536.162 47.5658 536.472 48.4863C536.782 49.3978 536.937 50.3867 536.937 51.4531V51.7676C536.937 52.834 536.782 53.8229 536.472 54.7344C536.162 55.6458 535.711 56.4434 535.119 57.127C534.535 57.8014 533.829 58.3301 533 58.7129C532.179 59.0866 531.25 59.2734 530.21 59.2734C529.171 59.2734 528.237 59.0866 527.408 58.7129C526.578 58.3301 525.867 57.8014 525.275 57.127C524.692 56.4434 524.245 55.6458 523.935 54.7344C523.625 53.8229 523.47 52.834 523.47 51.7676ZM526 51.4531V51.7676C526 52.5059 526.086 53.2031 526.259 53.8594C526.432 54.5065 526.692 55.0807 527.039 55.582C527.394 56.0833 527.836 56.4798 528.365 56.7715C528.893 57.054 529.509 57.1953 530.21 57.1953C530.903 57.1953 531.509 57.054 532.029 56.7715C532.557 56.4798 532.995 56.0833 533.341 55.582C533.688 55.0807 533.947 54.5065 534.121 53.8594C534.303 53.2031 534.394 52.5059 534.394 51.7676V51.4531C534.394 50.724 534.303 50.0358 534.121 49.3887C533.947 48.7324 533.683 48.1536 533.328 47.6523C532.981 47.1419 532.544 46.7409 532.015 46.4492C531.496 46.1576 530.885 46.0117 530.183 46.0117C529.49 46.0117 528.88 46.1576 528.351 46.4492C527.832 46.7409 527.394 47.1419 527.039 47.6523C526.692 48.1536 526.432 48.7324 526.259 49.3887C526.086 50.0358 526 50.724 526 51.4531ZM549.433 56.1289V38H551.976V59H549.652L549.433 56.1289ZM539.48 51.7676V51.4805C539.48 50.3503 539.617 49.3249 539.89 48.4043C540.173 47.4746 540.569 46.6771 541.08 46.0117C541.599 45.3464 542.214 44.8359 542.925 44.4805C543.645 44.1159 544.447 43.9336 545.332 43.9336C546.261 43.9336 547.072 44.0977 547.765 44.4258C548.467 44.7448 549.059 45.2142 549.542 45.834C550.035 46.4447 550.422 47.1829 550.705 48.0488C550.987 48.9147 551.183 49.8945 551.292 50.9883V52.2461C551.192 53.3307 550.996 54.306 550.705 55.1719C550.422 56.0378 550.035 56.776 549.542 57.3867C549.059 57.9974 548.467 58.4668 547.765 58.7949C547.063 59.1139 546.243 59.2734 545.304 59.2734C544.438 59.2734 543.645 59.0866 542.925 58.7129C542.214 58.3392 541.599 57.8151 541.08 57.1406C540.569 56.4661 540.173 55.6732 539.89 54.7617C539.617 53.8411 539.48 52.8431 539.48 51.7676ZM542.023 51.4805V51.7676C542.023 52.5059 542.096 53.1986 542.242 53.8457C542.397 54.4928 542.634 55.0625 542.953 55.5547C543.272 56.0469 543.677 56.4342 544.169 56.7168C544.662 56.9902 545.25 57.127 545.933 57.127C546.772 57.127 547.46 56.9492 547.998 56.5938C548.544 56.2383 548.982 55.7689 549.31 55.1855C549.638 54.6022 549.893 53.9688 550.076 53.2852V49.9902C549.966 49.4889 549.807 49.0059 549.597 48.541C549.397 48.0671 549.132 47.6478 548.804 47.2832C548.485 46.9095 548.089 46.6133 547.615 46.3945C547.15 46.1758 546.598 46.0664 545.96 46.0664C545.268 46.0664 544.671 46.2122 544.169 46.5039C543.677 46.7865 543.272 47.1784 542.953 47.6797C542.634 48.1719 542.397 48.7461 542.242 49.4023C542.096 50.0495 542.023 50.7422 542.023 51.4805ZM564.964 55.582V44.207H567.507V59H565.087L564.964 55.582ZM565.443 52.4648L566.496 52.4375C566.496 53.4219 566.391 54.3333 566.181 55.1719C565.981 56.0013 565.653 56.7214 565.197 57.332C564.741 57.9427 564.144 58.4212 563.406 58.7676C562.667 59.1048 561.77 59.2734 560.712 59.2734C559.992 59.2734 559.332 59.1686 558.73 58.959C558.138 58.7493 557.627 58.4258 557.199 57.9883C556.77 57.5508 556.438 56.9811 556.201 56.2793C555.973 55.5775 555.859 54.7344 555.859 53.75V44.207H558.388V53.7773C558.388 54.4427 558.461 54.9941 558.607 55.4316C558.762 55.86 558.967 56.2018 559.222 56.457C559.486 56.7031 559.778 56.8763 560.097 56.9766C560.425 57.0768 560.763 57.127 561.109 57.127C562.184 57.127 563.037 56.9219 563.666 56.5117C564.294 56.0924 564.746 55.5319 565.019 54.8301C565.302 54.1191 565.443 53.3307 565.443 52.4648ZM577.556 44.207V46.1484H569.558V44.207H577.556ZM572.265 40.6113H574.794V55.3359C574.794 55.8372 574.872 56.2155 575.027 56.4707C575.182 56.7259 575.382 56.8945 575.628 56.9766C575.875 57.0586 576.139 57.0996 576.421 57.0996C576.631 57.0996 576.85 57.0814 577.078 57.0449C577.315 56.9993 577.492 56.9629 577.611 56.9355L577.625 59C577.424 59.0638 577.16 59.123 576.832 59.1777C576.513 59.2415 576.125 59.2734 575.669 59.2734C575.05 59.2734 574.48 59.1504 573.96 58.9043C573.441 58.6582 573.026 58.248 572.716 57.6738C572.416 57.0905 572.265 56.3066 572.265 55.3223V40.6113ZM579.58 51.7676V51.4531C579.58 50.3867 579.735 49.3978 580.044 48.4863C580.354 47.5658 580.801 46.7682 581.384 46.0938C581.968 45.4102 582.674 44.8815 583.503 44.5078C584.333 44.125 585.263 43.9336 586.292 43.9336C587.332 43.9336 588.266 44.125 589.095 44.5078C589.934 44.8815 590.645 45.4102 591.228 46.0938C591.82 46.7682 592.272 47.5658 592.582 48.4863C592.891 49.3978 593.046 50.3867 593.046 51.4531V51.7676C593.046 52.834 592.891 53.8229 592.582 54.7344C592.272 55.6458 591.82 56.4434 591.228 57.127C590.645 57.8014 589.938 58.3301 589.109 58.7129C588.289 59.0866 587.359 59.2734 586.32 59.2734C585.281 59.2734 584.347 59.0866 583.517 58.7129C582.688 58.3301 581.977 57.8014 581.384 57.127C580.801 56.4434 580.354 55.6458 580.044 54.7344C579.735 53.8229 579.58 52.834 579.58 51.7676ZM582.109 51.4531V51.7676C582.109 52.5059 582.195 53.2031 582.369 53.8594C582.542 54.5065 582.802 55.0807 583.148 55.582C583.503 56.0833 583.945 56.4798 584.474 56.7715C585.003 57.054 585.618 57.1953 586.32 57.1953C587.013 57.1953 587.619 57.054 588.138 56.7715C588.667 56.4798 589.104 56.0833 589.451 55.582C589.797 55.0807 590.057 54.5065 590.23 53.8594C590.412 53.2031 590.503 52.5059 590.503 51.7676V51.4531C590.503 50.724 590.412 50.0358 590.23 49.3887C590.057 48.7324 589.792 48.1536 589.437 47.6523C589.091 47.1419 588.653 46.7409 588.125 46.4492C587.605 46.1576 586.994 46.0117 586.292 46.0117C585.6 46.0117 584.989 46.1576 584.46 46.4492C583.941 46.7409 583.503 47.1419 583.148 47.6523C582.802 48.1536 582.542 48.7324 582.369 49.3887C582.195 50.0358 582.109 50.724 582.109 51.4531ZM604.832 55.0762C604.832 54.7116 604.75 54.3743 604.585 54.0645C604.431 53.7454 604.107 53.4583 603.615 53.2031C603.132 52.9388 602.403 52.7109 601.427 52.5195C600.607 52.3464 599.864 52.1413 599.199 51.9043C598.542 51.6673 597.982 51.3802 597.517 51.043C597.061 50.7057 596.71 50.3092 596.464 49.8535C596.218 49.3978 596.095 48.8646 596.095 48.2539C596.095 47.6706 596.223 47.1191 596.478 46.5996C596.742 46.0801 597.111 45.6198 597.585 45.2188C598.069 44.8177 598.647 44.5033 599.322 44.2754C599.996 44.0475 600.748 43.9336 601.578 43.9336C602.763 43.9336 603.774 44.1432 604.613 44.5625C605.451 44.9818 606.094 45.5423 606.541 46.2441C606.987 46.9368 607.21 47.707 607.21 48.5547H604.681C604.681 48.1445 604.558 47.748 604.312 47.3652C604.075 46.9733 603.724 46.6497 603.259 46.3945C602.804 46.1393 602.243 46.0117 601.578 46.0117C600.876 46.0117 600.306 46.1211 599.869 46.3398C599.44 46.5495 599.126 46.8184 598.925 47.1465C598.734 47.4746 598.638 47.821 598.638 48.1855C598.638 48.459 598.684 48.7051 598.775 48.9238C598.875 49.1335 599.048 49.3294 599.294 49.5117C599.541 49.6849 599.887 49.849 600.333 50.0039C600.78 50.1589 601.35 50.3138 602.042 50.4688C603.255 50.7422 604.253 51.0703 605.037 51.4531C605.82 51.8359 606.404 52.3053 606.787 52.8613C607.169 53.4173 607.361 54.0918 607.361 54.8848C607.361 55.5319 607.224 56.1243 606.951 56.6621C606.686 57.1999 606.299 57.6647 605.789 58.0566C605.287 58.4395 604.686 58.7402 603.984 58.959C603.291 59.1686 602.512 59.2734 601.646 59.2734C600.343 59.2734 599.24 59.041 598.337 58.5762C597.435 58.1113 596.751 57.5098 596.287 56.7715C595.822 56.0332 595.589 55.2539 595.589 54.4336H598.132C598.169 55.1263 598.369 55.6777 598.734 56.0879C599.098 56.4889 599.545 56.776 600.074 56.9492C600.602 57.1133 601.126 57.1953 601.646 57.1953C602.339 57.1953 602.917 57.1042 603.382 56.9219C603.856 56.7396 604.216 56.4889 604.462 56.1699C604.708 55.8509 604.832 55.4863 604.832 55.0762ZM616.958 51.7676V51.4531C616.958 50.3867 617.113 49.3978 617.423 48.4863C617.733 47.5658 618.18 46.7682 618.763 46.0938C619.347 45.4102 620.053 44.8815 620.882 44.5078C621.712 44.125 622.641 43.9336 623.671 43.9336C624.71 43.9336 625.645 44.125 626.474 44.5078C627.313 44.8815 628.024 45.4102 628.607 46.0938C629.199 46.7682 629.651 47.5658 629.96 48.4863C630.27 49.3978 630.425 50.3867 630.425 51.4531V51.7676C630.425 52.834 630.27 53.8229 629.96 54.7344C629.651 55.6458 629.199 56.4434 628.607 57.127C628.024 57.8014 627.317 58.3301 626.488 58.7129C625.667 59.0866 624.738 59.2734 623.699 59.2734C622.66 59.2734 621.725 59.0866 620.896 58.7129C620.067 58.3301 619.356 57.8014 618.763 57.127C618.18 56.4434 617.733 55.6458 617.423 54.7344C617.113 53.8229 616.958 52.834 616.958 51.7676ZM619.488 51.4531V51.7676C619.488 52.5059 619.574 53.2031 619.748 53.8594C619.921 54.5065 620.181 55.0807 620.527 55.582C620.882 56.0833 621.324 56.4798 621.853 56.7715C622.382 57.054 622.997 57.1953 623.699 57.1953C624.391 57.1953 624.998 57.054 625.517 56.7715C626.046 56.4798 626.483 56.0833 626.83 55.582C627.176 55.0807 627.436 54.5065 627.609 53.8594C627.791 53.2031 627.882 52.5059 627.882 51.7676V51.4531C627.882 50.724 627.791 50.0358 627.609 49.3887C627.436 48.7324 627.171 48.1536 626.816 47.6523C626.47 47.1419 626.032 46.7409 625.503 46.4492C624.984 46.1576 624.373 46.0117 623.671 46.0117C622.979 46.0117 622.368 46.1576 621.839 46.4492C621.32 46.7409 620.882 47.1419 620.527 47.6523C620.181 48.1536 619.921 48.7324 619.748 49.3887C619.574 50.0358 619.488 50.724 619.488 51.4531ZM637.371 59H634.841V42.6484C634.841 41.582 635.033 40.6842 635.416 39.9551C635.807 39.2168 636.368 38.6608 637.097 38.2871C637.826 37.9043 638.692 37.7129 639.695 37.7129C639.986 37.7129 640.278 37.7311 640.57 37.7676C640.871 37.804 641.162 37.8587 641.445 37.9316L641.308 39.9961C641.117 39.9505 640.898 39.9186 640.652 39.9004C640.415 39.8822 640.178 39.873 639.941 39.873C639.403 39.873 638.938 39.9824 638.546 40.2012C638.164 40.4108 637.872 40.7207 637.671 41.1309C637.471 41.541 637.371 42.0469 637.371 42.6484V59ZM640.515 44.207V46.1484H632.503V44.207H640.515ZM649.142 59.2734C648.112 59.2734 647.178 59.1003 646.339 58.7539C645.51 58.3984 644.794 57.9017 644.193 57.2637C643.6 56.6257 643.145 55.8691 642.826 54.9941C642.507 54.1191 642.347 53.1621 642.347 52.123V51.5488C642.347 50.3457 642.525 49.2747 642.88 48.3359C643.236 47.388 643.719 46.5859 644.33 45.9297C644.94 45.2734 645.633 44.7767 646.408 44.4395C647.182 44.1022 647.985 43.9336 648.814 43.9336C649.871 43.9336 650.783 44.1159 651.548 44.4805C652.323 44.8451 652.957 45.3555 653.449 46.0117C653.941 46.6589 654.306 47.4245 654.542 48.3086C654.779 49.1836 654.898 50.1406 654.898 51.1797V52.3145H643.851V50.25H652.369V50.0586C652.332 49.4023 652.195 48.7643 651.958 48.1445C651.731 47.5247 651.366 47.0143 650.865 46.6133C650.363 46.2122 649.68 46.0117 648.814 46.0117C648.24 46.0117 647.711 46.1348 647.228 46.3809C646.745 46.6178 646.33 46.9733 645.984 47.4473C645.638 47.9212 645.369 48.5 645.177 49.1836C644.986 49.8672 644.89 50.6556 644.89 51.5488V52.123C644.89 52.8249 644.986 53.4857 645.177 54.1055C645.378 54.7161 645.665 55.2539 646.039 55.7188C646.421 56.1836 646.882 56.5482 647.419 56.8125C647.966 57.0768 648.586 57.209 649.279 57.209C650.172 57.209 650.929 57.0267 651.548 56.6621C652.168 56.2975 652.71 55.8099 653.175 55.1992L654.707 56.416C654.388 56.8991 653.982 57.3594 653.49 57.7969C652.998 58.2344 652.391 58.5898 651.671 58.8633C650.96 59.1367 650.117 59.2734 649.142 59.2734ZM660.38 46.5312V59H657.851V44.207H660.312L660.38 46.5312ZM665.001 44.125L664.988 46.4766C664.778 46.431 664.578 46.4036 664.386 46.3945C664.204 46.3763 663.994 46.3672 663.757 46.3672C663.174 46.3672 662.659 46.4583 662.212 46.6406C661.766 46.8229 661.388 47.0781 661.078 47.4062C660.768 47.7344 660.522 48.1263 660.339 48.582C660.166 49.0286 660.052 49.5208 659.998 50.0586L659.287 50.4688C659.287 49.5755 659.373 48.737 659.546 47.9531C659.729 47.1693 660.007 46.4766 660.38 45.875C660.754 45.2643 661.228 44.7904 661.802 44.4531C662.386 44.1068 663.078 43.9336 663.88 43.9336C664.063 43.9336 664.272 43.9564 664.509 44.002C664.746 44.0384 664.91 44.0794 665.001 44.125ZM674.216 44.207V46.1484H666.218V44.207H674.216ZM668.925 40.6113H671.455V55.3359C671.455 55.8372 671.532 56.2155 671.687 56.4707C671.842 56.7259 672.042 56.8945 672.289 56.9766C672.535 57.0586 672.799 57.0996 673.082 57.0996C673.291 57.0996 673.51 57.0814 673.738 57.0449C673.975 56.9993 674.153 56.9629 674.271 56.9355L674.285 59C674.084 59.0638 673.82 59.123 673.492 59.1777C673.173 59.2415 672.785 59.2734 672.33 59.2734C671.71 59.2734 671.14 59.1504 670.621 58.9043C670.101 58.6582 669.686 58.248 669.376 57.6738C669.076 57.0905 668.925 56.3066 668.925 55.3223V40.6113ZM685.906 56.4707V48.8555C685.906 48.2721 685.787 47.7663 685.55 47.3379C685.322 46.9004 684.976 46.5632 684.511 46.3262C684.046 46.0892 683.472 45.9707 682.789 45.9707C682.151 45.9707 681.59 46.0801 681.107 46.2988C680.633 46.5176 680.259 46.8047 679.986 47.1602C679.722 47.5156 679.589 47.8984 679.589 48.3086H677.06C677.06 47.7799 677.197 47.2559 677.47 46.7363C677.744 46.2168 678.136 45.7474 678.646 45.3281C679.166 44.8997 679.785 44.5625 680.505 44.3164C681.235 44.0612 682.046 43.9336 682.939 43.9336C684.014 43.9336 684.962 44.1159 685.783 44.4805C686.612 44.8451 687.259 45.3965 687.724 46.1348C688.198 46.8639 688.435 47.7799 688.435 48.8828V55.7734C688.435 56.2656 688.476 56.7897 688.558 57.3457C688.649 57.9017 688.781 58.3802 688.955 58.7812V59H686.316C686.188 58.7083 686.088 58.321 686.015 57.8379C685.942 57.3457 685.906 56.89 685.906 56.4707ZM686.343 50.0312L686.371 51.8086H683.814C683.094 51.8086 682.451 51.8678 681.886 51.9863C681.321 52.0957 680.847 52.2643 680.464 52.4922C680.082 52.7201 679.79 53.0072 679.589 53.3535C679.389 53.6908 679.289 54.0872 679.289 54.543C679.289 55.0078 679.393 55.4316 679.603 55.8145C679.813 56.1973 680.127 56.5026 680.546 56.7305C680.975 56.9492 681.499 57.0586 682.119 57.0586C682.893 57.0586 683.577 56.8945 684.169 56.5664C684.762 56.2383 685.231 55.8372 685.578 55.3633C685.933 54.8893 686.125 54.429 686.152 53.9824L687.232 55.1992C687.168 55.582 686.995 56.0059 686.712 56.4707C686.43 56.9355 686.052 57.3822 685.578 57.8105C685.113 58.2298 684.557 58.5807 683.91 58.8633C683.272 59.1367 682.552 59.2734 681.75 59.2734C680.747 59.2734 679.867 59.0775 679.111 58.6855C678.363 58.2936 677.78 57.7695 677.361 57.1133C676.951 56.4479 676.746 55.7051 676.746 54.8848C676.746 54.0918 676.901 53.3945 677.21 52.793C677.52 52.1823 677.967 51.6764 678.55 51.2754C679.134 50.8652 679.835 50.5553 680.656 50.3457C681.476 50.1361 682.392 50.0312 683.404 50.0312H686.343ZM701.738 56.1289V38H704.281V59H701.957L701.738 56.1289ZM691.785 51.7676V51.4805C691.785 50.3503 691.921 49.3249 692.195 48.4043C692.477 47.4746 692.874 46.6771 693.384 46.0117C693.904 45.3464 694.519 44.8359 695.23 44.4805C695.95 44.1159 696.752 43.9336 697.636 43.9336C698.566 43.9336 699.377 44.0977 700.07 44.4258C700.772 44.7448 701.364 45.2142 701.847 45.834C702.339 46.4447 702.727 47.1829 703.009 48.0488C703.292 48.9147 703.488 49.8945 703.597 50.9883V52.2461C703.497 53.3307 703.301 54.306 703.009 55.1719C702.727 56.0378 702.339 56.776 701.847 57.3867C701.364 57.9974 700.772 58.4668 700.07 58.7949C699.368 59.1139 698.548 59.2734 697.609 59.2734C696.743 59.2734 695.95 59.0866 695.23 58.7129C694.519 58.3392 693.904 57.8151 693.384 57.1406C692.874 56.4661 692.477 55.6732 692.195 54.7617C691.921 53.8411 691.785 52.8431 691.785 51.7676ZM694.328 51.4805V51.7676C694.328 52.5059 694.401 53.1986 694.546 53.8457C694.701 54.4928 694.938 55.0625 695.257 55.5547C695.576 56.0469 695.982 56.4342 696.474 56.7168C696.966 56.9902 697.554 57.127 698.238 57.127C699.076 57.127 699.764 56.9492 700.302 56.5938C700.849 56.2383 701.287 55.7689 701.615 55.1855C701.943 54.6022 702.198 53.9688 702.38 53.2852V49.9902C702.271 49.4889 702.111 49.0059 701.902 48.541C701.701 48.0671 701.437 47.6478 701.109 47.2832C700.79 46.9095 700.393 46.6133 699.919 46.3945C699.455 46.1758 698.903 46.0664 698.265 46.0664C697.572 46.0664 696.975 46.2122 696.474 46.5039C695.982 46.7865 695.576 47.1784 695.257 47.6797C694.938 48.1719 694.701 48.7461 694.546 49.4023C694.401 50.0495 694.328 50.7422 694.328 51.4805ZM707.548 51.7676V51.4531C707.548 50.3867 707.703 49.3978 708.013 48.4863C708.323 47.5658 708.77 46.7682 709.353 46.0938C709.936 45.4102 710.643 44.8815 711.472 44.5078C712.302 44.125 713.231 43.9336 714.261 43.9336C715.3 43.9336 716.235 44.125 717.064 44.5078C717.903 44.8815 718.613 45.4102 719.197 46.0938C719.789 46.7682 720.24 47.5658 720.55 48.4863C720.86 49.3978 721.015 50.3867 721.015 51.4531V51.7676C721.015 52.834 720.86 53.8229 720.55 54.7344C720.24 55.6458 719.789 56.4434 719.197 57.127C718.613 57.8014 717.907 58.3301 717.078 58.7129C716.257 59.0866 715.328 59.2734 714.289 59.2734C713.25 59.2734 712.315 59.0866 711.486 58.7129C710.656 58.3301 709.945 57.8014 709.353 57.127C708.77 56.4434 708.323 55.6458 708.013 54.7344C707.703 53.8229 707.548 52.834 707.548 51.7676ZM710.078 51.4531V51.7676C710.078 52.5059 710.164 53.2031 710.337 53.8594C710.511 54.5065 710.77 55.0807 711.117 55.582C711.472 56.0833 711.914 56.4798 712.443 56.7715C712.972 57.054 713.587 57.1953 714.289 57.1953C714.981 57.1953 715.587 57.054 716.107 56.7715C716.636 56.4798 717.073 56.0833 717.419 55.582C717.766 55.0807 718.026 54.5065 718.199 53.8594C718.381 53.2031 718.472 52.5059 718.472 51.7676V51.4531C718.472 50.724 718.381 50.0358 718.199 49.3887C718.026 48.7324 717.761 48.1536 717.406 47.6523C717.059 47.1419 716.622 46.7409 716.093 46.4492C715.574 46.1576 714.963 46.0117 714.261 46.0117C713.569 46.0117 712.958 46.1576 712.429 46.4492C711.91 46.7409 711.472 47.1419 711.117 47.6523C710.77 48.1536 710.511 48.7324 710.337 49.3887C710.164 50.0358 710.078 50.724 710.078 51.4531ZM732.8 55.0762C732.8 54.7116 732.718 54.3743 732.554 54.0645C732.399 53.7454 732.076 53.4583 731.583 53.2031C731.1 52.9388 730.371 52.7109 729.396 52.5195C728.576 52.3464 727.833 52.1413 727.167 51.9043C726.511 51.6673 725.951 51.3802 725.486 51.043C725.03 50.7057 724.679 50.3092 724.433 49.8535C724.187 49.3978 724.064 48.8646 724.064 48.2539C724.064 47.6706 724.192 47.1191 724.447 46.5996C724.711 46.0801 725.08 45.6198 725.554 45.2188C726.037 44.8177 726.616 44.5033 727.291 44.2754C727.965 44.0475 728.717 43.9336 729.546 43.9336C730.731 43.9336 731.743 44.1432 732.582 44.5625C733.42 44.9818 734.063 45.5423 734.509 46.2441C734.956 46.9368 735.179 47.707 735.179 48.5547H732.65C732.65 48.1445 732.527 47.748 732.281 47.3652C732.044 46.9733 731.693 46.6497 731.228 46.3945C730.772 46.1393 730.212 46.0117 729.546 46.0117C728.845 46.0117 728.275 46.1211 727.837 46.3398C727.409 46.5495 727.095 46.8184 726.894 47.1465C726.703 47.4746 726.607 47.821 726.607 48.1855C726.607 48.459 726.653 48.7051 726.744 48.9238C726.844 49.1335 727.017 49.3294 727.263 49.5117C727.509 49.6849 727.856 49.849 728.302 50.0039C728.749 50.1589 729.319 50.3138 730.011 50.4688C731.223 50.7422 732.222 51.0703 733.005 51.4531C733.789 51.8359 734.373 52.3053 734.755 52.8613C735.138 53.4173 735.33 54.0918 735.33 54.8848C735.33 55.5319 735.193 56.1243 734.919 56.6621C734.655 57.1999 734.268 57.6647 733.757 58.0566C733.256 58.4395 732.654 58.7402 731.953 58.959C731.26 59.1686 730.481 59.2734 729.615 59.2734C728.311 59.2734 727.208 59.041 726.306 58.5762C725.404 58.1113 724.72 57.5098 724.255 56.7715C723.791 56.0332 723.558 55.2539 723.558 54.4336H726.101C726.138 55.1263 726.338 55.6777 726.703 56.0879C727.067 56.4889 727.514 56.776 728.042 56.9492C728.571 57.1133 729.095 57.1953 729.615 57.1953C730.307 57.1953 730.886 57.1042 731.351 56.9219C731.825 56.7396 732.185 56.4889 732.431 56.1699C732.677 55.8509 732.8 55.4863 732.8 55.0762Z" fill="#414141"/>
</g>
<g filter="url(#filter2_ddd_70_2981)">
<path d="M934.667 9C934.667 7.89543 935.562 7 936.667 7H1339C1340.1 7 1341 7.89543 1341 9V182C1341 183.105 1340.1 184 1339 184H936.667C935.562 184 934.667 183.105 934.667 182V9Z" fill="white"/>
<path d="M986.293 137.111L983.114 136.295L984.682 120.719H1000.73V124.393H988.055L987.11 132.9C987.683 132.571 988.406 132.263 989.28 131.977C990.168 131.69 991.185 131.547 992.331 131.547C993.777 131.547 995.073 131.798 996.219 132.299C997.365 132.786 998.339 133.488 999.141 134.404C999.958 135.321 1000.58 136.424 1001.01 137.713C1001.44 139.002 1001.65 140.441 1001.65 142.031C1001.65 143.535 1001.45 144.917 1001.03 146.178C1000.63 147.438 1000.02 148.541 999.206 149.486C998.389 150.417 997.358 151.141 996.112 151.656C994.88 152.172 993.426 152.43 991.75 152.43C990.49 152.43 989.294 152.258 988.163 151.914C987.045 151.556 986.043 151.019 985.155 150.303C984.281 149.572 983.565 148.67 983.006 147.596C982.462 146.507 982.118 145.232 981.975 143.771H985.756C985.928 144.946 986.272 145.934 986.788 146.736C987.303 147.538 987.976 148.147 988.807 148.562C989.652 148.964 990.633 149.164 991.75 149.164C992.696 149.164 993.534 148.999 994.264 148.67C994.995 148.34 995.611 147.868 996.112 147.252C996.613 146.636 996.993 145.891 997.25 145.018C997.523 144.144 997.659 143.163 997.659 142.074C997.659 141.086 997.523 140.169 997.25 139.324C996.978 138.479 996.57 137.742 996.026 137.111C995.496 136.481 994.844 135.994 994.071 135.65C993.297 135.292 992.409 135.113 991.407 135.113C990.075 135.113 989.065 135.292 988.377 135.65C987.704 136.008 987.01 136.495 986.293 137.111ZM1011.04 137.111L1007.86 136.295L1009.43 120.719H1025.48V124.393H1012.81L1011.86 132.9C1012.43 132.571 1013.16 132.263 1014.03 131.977C1014.92 131.69 1015.93 131.547 1017.08 131.547C1018.53 131.547 1019.82 131.798 1020.97 132.299C1022.12 132.786 1023.09 133.488 1023.89 134.404C1024.71 135.321 1025.33 136.424 1025.76 137.713C1026.19 139.002 1026.4 140.441 1026.4 142.031C1026.4 143.535 1026.2 144.917 1025.78 146.178C1025.38 147.438 1024.77 148.541 1023.96 149.486C1023.14 150.417 1022.11 151.141 1020.86 151.656C1019.63 152.172 1018.18 152.43 1016.5 152.43C1015.24 152.43 1014.04 152.258 1012.91 151.914C1011.8 151.556 1010.79 151.019 1009.9 150.303C1009.03 149.572 1008.31 148.67 1007.76 147.596C1007.21 146.507 1006.87 145.232 1006.73 143.771H1010.51C1010.68 144.946 1011.02 145.934 1011.54 146.736C1012.05 147.538 1012.73 148.147 1013.56 148.562C1014.4 148.964 1015.38 149.164 1016.5 149.164C1017.45 149.164 1018.28 148.999 1019.01 148.67C1019.74 148.34 1020.36 147.868 1020.86 147.252C1021.36 146.636 1021.74 145.891 1022 145.018C1022.27 144.144 1022.41 143.163 1022.41 142.074C1022.41 141.086 1022.27 140.169 1022 139.324C1021.73 138.479 1021.32 137.742 1020.78 137.111C1020.25 136.481 1019.59 135.994 1018.82 135.65C1018.05 135.292 1017.16 135.113 1016.16 135.113C1014.82 135.113 1013.81 135.292 1013.13 135.65C1012.45 136.008 1011.76 136.495 1011.04 137.111Z" fill="#DCB73D"/>
<path d="M976.29 39.0938V59H973.637L963.616 43.6465V59H960.977V39.0938H963.616L973.678 54.4883V39.0938H976.29ZM979.913 51.7676V51.4531C979.913 50.3867 980.068 49.3978 980.377 48.4863C980.687 47.5658 981.134 46.7682 981.717 46.0938C982.301 45.4102 983.007 44.8815 983.836 44.5078C984.666 44.125 985.596 43.9336 986.625 43.9336C987.665 43.9336 988.599 44.125 989.428 44.5078C990.267 44.8815 990.978 45.4102 991.561 46.0938C992.153 46.7682 992.605 47.5658 992.915 48.4863C993.224 49.3978 993.379 50.3867 993.379 51.4531V51.7676C993.379 52.834 993.224 53.8229 992.915 54.7344C992.605 55.6458 992.153 56.4434 991.561 57.127C990.978 57.8014 990.271 58.3301 989.442 58.7129C988.622 59.0866 987.692 59.2734 986.653 59.2734C985.614 59.2734 984.68 59.0866 983.85 58.7129C983.021 58.3301 982.31 57.8014 981.717 57.127C981.134 56.4434 980.687 55.6458 980.377 54.7344C980.068 53.8229 979.913 52.834 979.913 51.7676ZM982.442 51.4531V51.7676C982.442 52.5059 982.528 53.2031 982.702 53.8594C982.875 54.5065 983.135 55.0807 983.481 55.582C983.836 56.0833 984.278 56.4798 984.807 56.7715C985.336 57.054 985.951 57.1953 986.653 57.1953C987.346 57.1953 987.952 57.054 988.471 56.7715C989 56.4798 989.437 56.0833 989.784 55.582C990.13 55.0807 990.39 54.5065 990.563 53.8594C990.745 53.2031 990.836 52.5059 990.836 51.7676V51.4531C990.836 50.724 990.745 50.0358 990.563 49.3887C990.39 48.7324 990.125 48.1536 989.77 47.6523C989.424 47.1419 988.986 46.7409 988.458 46.4492C987.938 46.1576 987.327 46.0117 986.625 46.0117C985.933 46.0117 985.322 46.1576 984.793 46.4492C984.274 46.7409 983.836 47.1419 983.481 47.6523C983.135 48.1536 982.875 48.7324 982.702 49.3887C982.528 50.0358 982.442 50.724 982.442 51.4531ZM1000.83 56.7168L1004.88 44.207H1007.46L1002.14 59H1000.45L1000.83 56.7168ZM997.454 44.207L1001.62 56.7852L1001.91 59H1000.22L994.856 44.207H997.454ZM1009.01 51.7676V51.4531C1009.01 50.3867 1009.16 49.3978 1009.47 48.4863C1009.78 47.5658 1010.23 46.7682 1010.81 46.0938C1011.39 45.4102 1012.1 44.8815 1012.93 44.5078C1013.76 44.125 1014.69 43.9336 1015.72 43.9336C1016.76 43.9336 1017.69 44.125 1018.52 44.5078C1019.36 44.8815 1020.07 45.4102 1020.65 46.0938C1021.25 46.7682 1021.7 47.5658 1022.01 48.4863C1022.32 49.3978 1022.47 50.3867 1022.47 51.4531V51.7676C1022.47 52.834 1022.32 53.8229 1022.01 54.7344C1021.7 55.6458 1021.25 56.4434 1020.65 57.127C1020.07 57.8014 1019.37 58.3301 1018.54 58.7129C1017.72 59.0866 1016.79 59.2734 1015.75 59.2734C1014.71 59.2734 1013.77 59.0866 1012.94 58.7129C1012.11 58.3301 1011.4 57.8014 1010.81 57.127C1010.23 56.4434 1009.78 55.6458 1009.47 54.7344C1009.16 53.8229 1009.01 52.834 1009.01 51.7676ZM1011.54 51.4531V51.7676C1011.54 52.5059 1011.62 53.2031 1011.8 53.8594C1011.97 54.5065 1012.23 55.0807 1012.57 55.582C1012.93 56.0833 1013.37 56.4798 1013.9 56.7715C1014.43 57.054 1015.04 57.1953 1015.75 57.1953C1016.44 57.1953 1017.05 57.054 1017.56 56.7715C1018.09 56.4798 1018.53 56.0833 1018.88 55.582C1019.22 55.0807 1019.48 54.5065 1019.66 53.8594C1019.84 53.2031 1019.93 52.5059 1019.93 51.7676V51.4531C1019.93 50.724 1019.84 50.0358 1019.66 49.3887C1019.48 48.7324 1019.22 48.1536 1018.86 47.6523C1018.52 47.1419 1018.08 46.7409 1017.55 46.4492C1017.03 46.1576 1016.42 46.0117 1015.72 46.0117C1015.03 46.0117 1014.42 46.1576 1013.89 46.4492C1013.37 46.7409 1012.93 47.1419 1012.57 47.6523C1012.23 48.1536 1011.97 48.7324 1011.8 49.3887C1011.62 50.0358 1011.54 50.724 1011.54 51.4531ZM1034.26 55.0762C1034.26 54.7116 1034.18 54.3743 1034.01 54.0645C1033.86 53.7454 1033.53 53.4583 1033.04 53.2031C1032.56 52.9388 1031.83 52.7109 1030.85 52.5195C1030.03 52.3464 1029.29 52.1413 1028.63 51.9043C1027.97 51.6673 1027.41 51.3802 1026.94 51.043C1026.49 50.7057 1026.14 50.3092 1025.89 49.8535C1025.65 49.3978 1025.52 48.8646 1025.52 48.2539C1025.52 47.6706 1025.65 47.1191 1025.9 46.5996C1026.17 46.0801 1026.54 45.6198 1027.01 45.2188C1027.5 44.8177 1028.07 44.5033 1028.75 44.2754C1029.42 44.0475 1030.17 43.9336 1031 43.9336C1032.19 43.9336 1033.2 44.1432 1034.04 44.5625C1034.88 44.9818 1035.52 45.5423 1035.97 46.2441C1036.41 46.9368 1036.64 47.707 1036.64 48.5547H1034.11C1034.11 48.1445 1033.98 47.748 1033.74 47.3652C1033.5 46.9733 1033.15 46.6497 1032.69 46.3945C1032.23 46.1393 1031.67 46.0117 1031 46.0117C1030.3 46.0117 1029.73 46.1211 1029.3 46.3398C1028.87 46.5495 1028.55 46.8184 1028.35 47.1465C1028.16 47.4746 1028.06 47.821 1028.06 48.1855C1028.06 48.459 1028.11 48.7051 1028.2 48.9238C1028.3 49.1335 1028.48 49.3294 1028.72 49.5117C1028.97 49.6849 1029.31 49.849 1029.76 50.0039C1030.21 50.1589 1030.78 50.3138 1031.47 50.4688C1032.68 50.7422 1033.68 51.0703 1034.46 51.4531C1035.25 51.8359 1035.83 52.3053 1036.21 52.8613C1036.6 53.4173 1036.79 54.0918 1036.79 54.8848C1036.79 55.5319 1036.65 56.1243 1036.38 56.6621C1036.11 57.1999 1035.73 57.6647 1035.22 58.0566C1034.71 58.4395 1034.11 58.7402 1033.41 58.959C1032.72 59.1686 1031.94 59.2734 1031.07 59.2734C1029.77 59.2734 1028.67 59.041 1027.76 58.5762C1026.86 58.1113 1026.18 57.5098 1025.71 56.7715C1025.25 56.0332 1025.02 55.2539 1025.02 54.4336H1027.56C1027.6 55.1263 1027.8 55.6777 1028.16 56.0879C1028.53 56.4889 1028.97 56.776 1029.5 56.9492C1030.03 57.1133 1030.55 57.1953 1031.07 57.1953C1031.77 57.1953 1032.34 57.1042 1032.81 56.9219C1033.28 56.7396 1033.64 56.4889 1033.89 56.1699C1034.14 55.8509 1034.26 55.4863 1034.26 55.0762ZM1049.58 46.5312V59H1047.06V44.207H1049.52L1049.58 46.5312ZM1054.21 44.125L1054.19 46.4766C1053.98 46.431 1053.78 46.4036 1053.59 46.3945C1053.41 46.3763 1053.2 46.3672 1052.96 46.3672C1052.38 46.3672 1051.86 46.4583 1051.42 46.6406C1050.97 46.8229 1050.59 47.0781 1050.28 47.4062C1049.97 47.7344 1049.73 48.1263 1049.54 48.582C1049.37 49.0286 1049.26 49.5208 1049.2 50.0586L1048.49 50.4688C1048.49 49.5755 1048.58 48.737 1048.75 47.9531C1048.93 47.1693 1049.21 46.4766 1049.58 45.875C1049.96 45.2643 1050.43 44.7904 1051.01 44.4531C1051.59 44.1068 1052.28 43.9336 1053.08 43.9336C1053.27 43.9336 1053.48 43.9564 1053.71 44.002C1053.95 44.0384 1054.11 44.0794 1054.21 44.125ZM1062.41 59.2734C1061.38 59.2734 1060.44 59.1003 1059.61 58.7539C1058.78 58.3984 1058.06 57.9017 1057.46 57.2637C1056.87 56.6257 1056.41 55.8691 1056.09 54.9941C1055.77 54.1191 1055.61 53.1621 1055.61 52.123V51.5488C1055.61 50.3457 1055.79 49.2747 1056.15 48.3359C1056.5 47.388 1056.99 46.5859 1057.6 45.9297C1058.21 45.2734 1058.9 44.7767 1059.67 44.4395C1060.45 44.1022 1061.25 43.9336 1062.08 43.9336C1063.14 43.9336 1064.05 44.1159 1064.81 44.4805C1065.59 44.8451 1066.22 45.3555 1066.72 46.0117C1067.21 46.6589 1067.57 47.4245 1067.81 48.3086C1068.05 49.1836 1068.16 50.1406 1068.16 51.1797V52.3145H1057.12V50.25H1065.64V50.0586C1065.6 49.4023 1065.46 48.7643 1065.23 48.1445C1065 47.5247 1064.63 47.0143 1064.13 46.6133C1063.63 46.2122 1062.95 46.0117 1062.08 46.0117C1061.51 46.0117 1060.98 46.1348 1060.49 46.3809C1060.01 46.6178 1059.6 46.9733 1059.25 47.4473C1058.9 47.9212 1058.64 48.5 1058.44 49.1836C1058.25 49.8672 1058.16 50.6556 1058.16 51.5488V52.123C1058.16 52.8249 1058.25 53.4857 1058.44 54.1055C1058.64 54.7161 1058.93 55.2539 1059.31 55.7188C1059.69 56.1836 1060.15 56.5482 1060.69 56.8125C1061.23 57.0768 1061.85 57.209 1062.55 57.209C1063.44 57.209 1064.2 57.0267 1064.81 56.6621C1065.43 56.2975 1065.98 55.8099 1066.44 55.1992L1067.97 56.416C1067.65 56.8991 1067.25 57.3594 1066.76 57.7969C1066.26 58.2344 1065.66 58.5898 1064.94 58.8633C1064.23 59.1367 1063.38 59.2734 1062.41 59.2734ZM1080.7 44.207H1083V58.6855C1083 59.9889 1082.73 61.1009 1082.21 62.0215C1081.68 62.9421 1080.94 63.6393 1079.99 64.1133C1079.05 64.5964 1077.97 64.8379 1076.74 64.8379C1076.23 64.8379 1075.62 64.7559 1074.93 64.5918C1074.25 64.4368 1073.57 64.168 1072.91 63.7852C1072.25 63.4115 1071.7 62.9056 1071.25 62.2676L1072.58 60.7637C1073.2 61.5111 1073.85 62.0306 1074.52 62.3223C1075.21 62.6139 1075.88 62.7598 1076.55 62.7598C1077.35 62.7598 1078.04 62.6094 1078.62 62.3086C1079.21 62.0078 1079.66 61.5612 1079.98 60.9688C1080.31 60.3854 1080.47 59.6654 1080.47 58.8086V47.4609L1080.7 44.207ZM1070.52 51.7676V51.4805C1070.52 50.3503 1070.65 49.3249 1070.91 48.4043C1071.19 47.4746 1071.57 46.6771 1072.07 46.0117C1072.59 45.3464 1073.2 44.8359 1073.92 44.4805C1074.64 44.1159 1075.45 43.9336 1076.35 43.9336C1077.28 43.9336 1078.09 44.0977 1078.79 44.4258C1079.49 44.7448 1080.08 45.2142 1080.56 45.834C1081.06 46.4447 1081.44 47.1829 1081.73 48.0488C1082.01 48.9147 1082.21 49.8945 1082.31 50.9883V52.2461C1082.21 53.3307 1082.02 54.306 1081.73 55.1719C1081.44 56.0378 1081.06 56.776 1080.56 57.3867C1080.08 57.9974 1079.49 58.4668 1078.79 58.7949C1078.09 59.1139 1077.27 59.2734 1076.33 59.2734C1075.44 59.2734 1074.64 59.0866 1073.92 58.7129C1073.21 58.3392 1072.6 57.8151 1072.09 57.1406C1071.58 56.4661 1071.19 55.6732 1070.91 54.7617C1070.65 53.8411 1070.52 52.8431 1070.52 51.7676ZM1073.05 51.4805V51.7676C1073.05 52.5059 1073.12 53.1986 1073.26 53.8457C1073.42 54.4928 1073.65 55.0625 1073.96 55.5547C1074.28 56.0469 1074.69 56.4342 1075.18 56.7168C1075.67 56.9902 1076.26 57.127 1076.94 57.127C1077.78 57.127 1078.47 56.9492 1079.02 56.5938C1079.57 56.2383 1080 55.7689 1080.32 55.1855C1080.65 54.6022 1080.9 53.9688 1081.08 53.2852V49.9902C1080.98 49.4889 1080.83 49.0059 1080.62 48.541C1080.42 48.0671 1080.15 47.6478 1079.83 47.2832C1079.51 46.9095 1079.11 46.6133 1078.64 46.3945C1078.16 46.1758 1077.61 46.0664 1076.97 46.0664C1076.28 46.0664 1075.68 46.2122 1075.18 46.5039C1074.69 46.7865 1074.28 47.1784 1073.96 47.6797C1073.65 48.1719 1073.42 48.7461 1073.26 49.4023C1073.12 50.0495 1073.05 50.7422 1073.05 51.4805ZM1089.59 44.207V59H1087.05V44.207H1089.59ZM1086.85 40.2832C1086.85 39.873 1086.98 39.5267 1087.22 39.2441C1087.48 38.9616 1087.85 38.8203 1088.34 38.8203C1088.83 38.8203 1089.2 38.9616 1089.45 39.2441C1089.72 39.5267 1089.85 39.873 1089.85 40.2832C1089.85 40.6751 1089.72 41.0124 1089.45 41.2949C1089.2 41.5684 1088.83 41.7051 1088.34 41.7051C1087.85 41.7051 1087.48 41.5684 1087.22 41.2949C1086.98 41.0124 1086.85 40.6751 1086.85 40.2832ZM1102.26 55.0762C1102.26 54.7116 1102.18 54.3743 1102.02 54.0645C1101.86 53.7454 1101.54 53.4583 1101.05 53.2031C1100.56 52.9388 1099.83 52.7109 1098.86 52.5195C1098.04 52.3464 1097.29 52.1413 1096.63 51.9043C1095.97 51.6673 1095.41 51.3802 1094.95 51.043C1094.49 50.7057 1094.14 50.3092 1093.9 49.8535C1093.65 49.3978 1093.53 48.8646 1093.53 48.2539C1093.53 47.6706 1093.65 47.1191 1093.91 46.5996C1094.17 46.0801 1094.54 45.6198 1095.02 45.2188C1095.5 44.8177 1096.08 44.5033 1096.75 44.2754C1097.43 44.0475 1098.18 43.9336 1099.01 43.9336C1100.19 43.9336 1101.2 44.1432 1102.04 44.5625C1102.88 44.9818 1103.52 45.5423 1103.97 46.2441C1104.42 46.9368 1104.64 47.707 1104.64 48.5547H1102.11C1102.11 48.1445 1101.99 47.748 1101.74 47.3652C1101.51 46.9733 1101.15 46.6497 1100.69 46.3945C1100.23 46.1393 1099.67 46.0117 1099.01 46.0117C1098.31 46.0117 1097.74 46.1211 1097.3 46.3398C1096.87 46.5495 1096.56 46.8184 1096.36 47.1465C1096.16 47.4746 1096.07 47.821 1096.07 48.1855C1096.07 48.459 1096.11 48.7051 1096.21 48.9238C1096.31 49.1335 1096.48 49.3294 1096.73 49.5117C1096.97 49.6849 1097.32 49.849 1097.76 50.0039C1098.21 50.1589 1098.78 50.3138 1099.47 50.4688C1100.69 50.7422 1101.68 51.0703 1102.47 51.4531C1103.25 51.8359 1103.83 52.3053 1104.22 52.8613C1104.6 53.4173 1104.79 54.0918 1104.79 54.8848C1104.79 55.5319 1104.65 56.1243 1104.38 56.6621C1104.12 57.1999 1103.73 57.6647 1103.22 58.0566C1102.72 58.4395 1102.12 58.7402 1101.41 58.959C1100.72 59.1686 1099.94 59.2734 1099.08 59.2734C1097.77 59.2734 1096.67 59.041 1095.77 58.5762C1094.87 58.1113 1094.18 57.5098 1093.72 56.7715C1093.25 56.0332 1093.02 55.2539 1093.02 54.4336H1095.56C1095.6 55.1263 1095.8 55.6777 1096.16 56.0879C1096.53 56.4889 1096.98 56.776 1097.5 56.9492C1098.03 57.1133 1098.56 57.1953 1099.08 57.1953C1099.77 57.1953 1100.35 57.1042 1100.81 56.9219C1101.29 56.7396 1101.65 56.4889 1101.89 56.1699C1102.14 55.8509 1102.26 55.4863 1102.26 55.0762ZM1114.31 44.207V46.1484H1106.31V44.207H1114.31ZM1109.02 40.6113H1111.55V55.3359C1111.55 55.8372 1111.62 56.2155 1111.78 56.4707C1111.93 56.7259 1112.13 56.8945 1112.38 56.9766C1112.63 57.0586 1112.89 57.0996 1113.17 57.0996C1113.38 57.0996 1113.6 57.0814 1113.83 57.0449C1114.07 56.9993 1114.24 56.9629 1114.36 56.9355L1114.38 59C1114.17 59.0638 1113.91 59.123 1113.58 59.1777C1113.26 59.2415 1112.88 59.2734 1112.42 59.2734C1111.8 59.2734 1111.23 59.1504 1110.71 58.9043C1110.19 58.6582 1109.78 58.248 1109.47 57.6738C1109.17 57.0905 1109.02 56.3066 1109.02 55.3223V40.6113ZM1119.8 46.5312V59H1117.27V44.207H1119.73L1119.8 46.5312ZM1124.42 44.125L1124.41 46.4766C1124.2 46.431 1124 46.4036 1123.81 46.3945C1123.63 46.3763 1123.42 46.3672 1123.18 46.3672C1122.6 46.3672 1122.08 46.4583 1121.64 46.6406C1121.19 46.8229 1120.81 47.0781 1120.5 47.4062C1120.19 47.7344 1119.94 48.1263 1119.76 48.582C1119.59 49.0286 1119.48 49.5208 1119.42 50.0586L1118.71 50.4688C1118.71 49.5755 1118.8 48.737 1118.97 47.9531C1119.15 47.1693 1119.43 46.4766 1119.8 45.875C1120.18 45.2643 1120.65 44.7904 1121.23 44.4531C1121.81 44.1068 1122.5 43.9336 1123.3 43.9336C1123.49 43.9336 1123.7 43.9564 1123.93 44.002C1124.17 44.0384 1124.33 44.0794 1124.42 44.125ZM1125.82 51.7676V51.4531C1125.82 50.3867 1125.97 49.3978 1126.28 48.4863C1126.59 47.5658 1127.04 46.7682 1127.62 46.0938C1128.21 45.4102 1128.91 44.8815 1129.74 44.5078C1130.57 44.125 1131.5 43.9336 1132.53 43.9336C1133.57 43.9336 1134.51 44.125 1135.33 44.5078C1136.17 44.8815 1136.88 45.4102 1137.47 46.0938C1138.06 46.7682 1138.51 47.5658 1138.82 48.4863C1139.13 49.3978 1139.29 50.3867 1139.29 51.4531V51.7676C1139.29 52.834 1139.13 53.8229 1138.82 54.7344C1138.51 55.6458 1138.06 56.4434 1137.47 57.127C1136.88 57.8014 1136.18 58.3301 1135.35 58.7129C1134.53 59.0866 1133.6 59.2734 1132.56 59.2734C1131.52 59.2734 1130.59 59.0866 1129.76 58.7129C1128.93 58.3301 1128.22 57.8014 1127.62 57.127C1127.04 56.4434 1126.59 55.6458 1126.28 54.7344C1125.97 53.8229 1125.82 52.834 1125.82 51.7676ZM1128.35 51.4531V51.7676C1128.35 52.5059 1128.43 53.2031 1128.61 53.8594C1128.78 54.5065 1129.04 55.0807 1129.39 55.582C1129.74 56.0833 1130.18 56.4798 1130.71 56.7715C1131.24 57.054 1131.86 57.1953 1132.56 57.1953C1133.25 57.1953 1133.86 57.054 1134.38 56.7715C1134.91 56.4798 1135.34 56.0833 1135.69 55.582C1136.04 55.0807 1136.3 54.5065 1136.47 53.8594C1136.65 53.2031 1136.74 52.5059 1136.74 51.7676V51.4531C1136.74 50.724 1136.65 50.0358 1136.47 49.3887C1136.3 48.7324 1136.03 48.1536 1135.68 47.6523C1135.33 47.1419 1134.89 46.7409 1134.36 46.4492C1133.84 46.1576 1133.23 46.0117 1132.53 46.0117C1131.84 46.0117 1131.23 46.1576 1130.7 46.4492C1130.18 46.7409 1129.74 47.1419 1129.39 47.6523C1129.04 48.1536 1128.78 48.7324 1128.61 49.3887C1128.43 50.0358 1128.35 50.724 1128.35 51.4531ZM1151.07 55.0762C1151.07 54.7116 1150.99 54.3743 1150.82 54.0645C1150.67 53.7454 1150.35 53.4583 1149.85 53.2031C1149.37 52.9388 1148.64 52.7109 1147.67 52.5195C1146.85 52.3464 1146.1 52.1413 1145.44 51.9043C1144.78 51.6673 1144.22 51.3802 1143.76 51.043C1143.3 50.7057 1142.95 50.3092 1142.7 49.8535C1142.46 49.3978 1142.33 48.8646 1142.33 48.2539C1142.33 47.6706 1142.46 47.1191 1142.72 46.5996C1142.98 46.0801 1143.35 45.6198 1143.82 45.2188C1144.31 44.8177 1144.89 44.5033 1145.56 44.2754C1146.24 44.0475 1146.99 43.9336 1147.82 43.9336C1149 43.9336 1150.01 44.1432 1150.85 44.5625C1151.69 44.9818 1152.33 45.5423 1152.78 46.2441C1153.23 46.9368 1153.45 47.707 1153.45 48.5547H1150.92C1150.92 48.1445 1150.8 47.748 1150.55 47.3652C1150.31 46.9733 1149.96 46.6497 1149.5 46.3945C1149.04 46.1393 1148.48 46.0117 1147.82 46.0117C1147.12 46.0117 1146.55 46.1211 1146.11 46.3398C1145.68 46.5495 1145.37 46.8184 1145.16 47.1465C1144.97 47.4746 1144.88 47.821 1144.88 48.1855C1144.88 48.459 1144.92 48.7051 1145.01 48.9238C1145.11 49.1335 1145.29 49.3294 1145.53 49.5117C1145.78 49.6849 1146.13 49.849 1146.57 50.0039C1147.02 50.1589 1147.59 50.3138 1148.28 50.4688C1149.49 50.7422 1150.49 51.0703 1151.28 51.4531C1152.06 51.8359 1152.64 52.3053 1153.03 52.8613C1153.41 53.4173 1153.6 54.0918 1153.6 54.8848C1153.6 55.5319 1153.46 56.1243 1153.19 56.6621C1152.93 57.1999 1152.54 57.6647 1152.03 58.0566C1151.53 58.4395 1150.92 58.7402 1150.22 58.959C1149.53 59.1686 1148.75 59.2734 1147.89 59.2734C1146.58 59.2734 1145.48 59.041 1144.58 58.5762C1143.67 58.1113 1142.99 57.5098 1142.53 56.7715C1142.06 56.0332 1141.83 55.2539 1141.83 54.4336H1144.37C1144.41 55.1263 1144.61 55.6777 1144.97 56.0879C1145.34 56.4889 1145.78 56.776 1146.31 56.9492C1146.84 57.1133 1147.37 57.1953 1147.89 57.1953C1148.58 57.1953 1149.16 57.1042 1149.62 56.9219C1150.1 56.7396 1150.46 56.4889 1150.7 56.1699C1150.95 55.8509 1151.07 55.4863 1151.07 55.0762Z" fill="#414141"/>
</g>
<defs>
<filter id="filter0_ddd_70_2981" x="0" y="0" width="422.333" height="193" filterUnits="userSpaceOnUse" color-interpolation-filters="sRGB">
<feFlood flood-opacity="0" result="BackgroundImageFix"/>
<feColorMatrix in="SourceAlpha" type="matrix" values="0 0 0 0 0 0 0 0 0 0 0 0 0 0 0 0 0 0 127 0" result="hardAlpha"/>
<feOffset dy="1"/>
<feGaussianBlur stdDeviation="4"/>
<feColorMatrix type="matrix" values="0 0 0 0 0 0 0 0 0 0 0 0 0 0 0 0 0 0 0.12 0"/>
<feBlend mode="normal" in2="BackgroundImageFix" result="effect1_dropShadow_70_2981"/>
<feColorMatrix in="SourceAlpha" type="matrix" values="0 0 0 0 0 0 0 0 0 0 0 0 0 0 0 0 0 0 127 0" result="hardAlpha"/>
<feOffset dy="3"/>
<feGaussianBlur stdDeviation="2"/>
<feColorMatrix type="matrix" values="0 0 0 0 0 0 0 0 0 0 0 0 0 0 0 0 0 0 0.14 0"/>
<feBlend mode="normal" in2="effect1_dropShadow_70_2981" result="effect2_dropShadow_70_2981"/>
<feColorMatrix in="SourceAlpha" type="matrix" values="0 0 0 0 0 0 0 0 0 0 0 0 0 0 0 0 0 0 127 0" result="hardAlpha"/>
<feMorphology radius="2" operator="erode" in="SourceAlpha" result="effect3_dropShadow_70_2981"/>
<feOffset dy="3"/>
<feGaussianBlur stdDeviation="1.5"/>
<feColorMatrix type="matrix" values="0 0 0 0 0 0 0 0 0 0 0 0 0 0 0 0 0 0 0.2 0"/>
<feBlend mode="normal" in2="effect2_dropShadow_70_2981" result="effect3_dropShadow_70_2981"/>
<feBlend mode="normal" in="SourceGraphic" in2="effect3_dropShadow_70_2981" result="shape"/>
</filter>
<filter id="filter1_ddd_70_2981" x="463.333" y="0" width="422.333" height="193" filterUnits="userSpaceOnUse" color-interpolation-filters="sRGB">
<feFlood flood-opacity="0" result="BackgroundImageFix"/>
<feColorMatrix in="SourceAlpha" type="matrix" values="0 0 0 0 0 0 0 0 0 0 0 0 0 0 0 0 0 0 127 0" result="hardAlpha"/>
<feOffset dy="1"/>
<feGaussianBlur stdDeviation="4"/>
<feColorMatrix type="matrix" values="0 0 0 0 0 0 0 0 0 0 0 0 0 0 0 0 0 0 0.12 0"/>
<feBlend mode="normal" in2="BackgroundImageFix" result="effect1_dropShadow_70_2981"/>
<feColorMatrix in="SourceAlpha" type="matrix" values="0 0 0 0 0 0 0 0 0 0 0 0 0 0 0 0 0 0 127 0" result="hardAlpha"/>
<feOffset dy="3"/>
<feGaussianBlur stdDeviation="2"/>
<feColorMatrix type="matrix" values="0 0 0 0 0 0 0 0 0 0 0 0 0 0 0 0 0 0 0.14 0"/>
<feBlend mode="normal" in2="effect1_dropShadow_70_2981" result="effect2_dropShadow_70_2981"/>
<feColorMatrix in="SourceAlpha" type="matrix" values="0 0 0 0 0 0 0 0 0 0 0 0 0 0 0 0 0 0 127 0" result="hardAlpha"/>
<feMorphology radius="2" operator="erode" in="SourceAlpha" result="effect3_dropShadow_70_2981"/>
<feOffset dy="3"/>
<feGaussianBlur stdDeviation="1.5"/>
<feColorMatrix type="matrix" values="0 0 0 0 0 0 0 0 0 0 0 0 0 0 0 0 0 0 0.2 0"/>
<feBlend mode="normal" in2="effect2_dropShadow_70_2981" result="effect3_dropShadow_70_2981"/>
<feBlend mode="normal" in="SourceGraphic" in2="effect3_dropShadow_70_2981" result="shape"/>
</filter>
<filter id="filter2_ddd_70_2981" x="926.667" y="0" width="422.333" height="193" filterUnits="userSpaceOnUse" color-interpolation-filters="sRGB">
<feFlood flood-opacity="0" result="BackgroundImageFix"/>
<feColorMatrix in="SourceAlpha" type="matrix" values="0 0 0 0 0 0 0 0 0 0 0 0 0 0 0 0 0 0 127 0" result="hardAlpha"/>
<feOffset dy="1"/>
<feGaussianBlur stdDeviation="4"/>
<feColorMatrix type="matrix" values="0 0 0 0 0 0 0 0 0 0 0 0 0 0 0 0 0 0 0.12 0"/>
<feBlend mode="normal" in2="BackgroundImageFix" result="effect1_dropShadow_70_2981"/>
<feColorMatrix in="SourceAlpha" type="matrix" values="0 0 0 0 0 0 0 0 0 0 0 0 0 0 0 0 0 0 127 0" result="hardAlpha"/>
<feOffset dy="3"/>
<feGaussianBlur stdDeviation="2"/>
<feColorMatrix type="matrix" values="0 0 0 0 0 0 0 0 0 0 0 0 0 0 0 0 0 0 0.14 0"/>
<feBlend mode="normal" in2="effect1_dropShadow_70_2981" result="effect2_dropShadow_70_2981"/>
<feColorMatrix in="SourceAlpha" type="matrix" values="0 0 0 0 0 0 0 0 0 0 0 0 0 0 0 0 0 0 127 0" result="hardAlpha"/>
<feMorphology radius="2" operator="erode" in="SourceAlpha" result="effect3_dropShadow_70_2981"/>
<feOffset dy="3"/>
<feGaussianBlur stdDeviation="1.5"/>
<feColorMatrix type="matrix" values="0 0 0 0 0 0 0 0 0 0 0 0 0 0 0 0 0 0 0.2 0"/>
<feBlend mode="normal" in2="effect2_dropShadow_70_2981" result="effect3_dropShadow_70_2981"/>
<feBlend mode="normal" in="SourceGraphic" in2="effect3_dropShadow_70_2981" result="shape"/>
</filter>
</defs>
</svg>
