<svg width="427" height="326" viewBox="0 0 427 326" fill="none" xmlns="http://www.w3.org/2000/svg">
<g filter="url(#filter0_ddd_70_3723)">
<rect x="10" y="9" width="407" height="306" rx="4" fill="white"/>
</g>
<path d="M37.7798 264H35.1079L35.1255 262.62H37.7798C38.6938 262.62 39.4556 262.43 40.0649 262.049C40.6743 261.662 41.1313 261.123 41.436 260.432C41.7466 259.734 41.9019 258.92 41.9019 257.988V257.206C41.9019 256.474 41.814 255.823 41.6382 255.255C41.4624 254.681 41.2046 254.197 40.8647 253.805C40.5249 253.406 40.1089 253.104 39.6167 252.899C39.1304 252.694 38.5708 252.592 37.938 252.592H35.0552V251.203H37.938C38.7759 251.203 39.5405 251.344 40.2319 251.625C40.9233 251.9 41.5181 252.302 42.0161 252.829C42.52 253.351 42.9067 253.983 43.1763 254.728C43.4458 255.466 43.5806 256.298 43.5806 257.224V257.988C43.5806 258.914 43.4458 259.749 43.1763 260.493C42.9067 261.231 42.5171 261.861 42.0073 262.383C41.5034 262.904 40.894 263.306 40.1792 263.587C39.4702 263.862 38.6704 264 37.7798 264ZM36.0132 251.203V264H34.3169V251.203H36.0132ZM49.8296 264.176C49.1675 264.176 48.5669 264.064 48.0278 263.842C47.4946 263.613 47.0347 263.294 46.6479 262.884C46.2671 262.474 45.9741 261.987 45.769 261.425C45.564 260.862 45.4614 260.247 45.4614 259.579V259.21C45.4614 258.437 45.5757 257.748 45.8042 257.145C46.0327 256.535 46.3433 256.02 46.7358 255.598C47.1284 255.176 47.5737 254.856 48.0718 254.64C48.5698 254.423 49.0854 254.314 49.6187 254.314C50.2983 254.314 50.8843 254.432 51.3765 254.666C51.8745 254.9 52.2817 255.229 52.5981 255.65C52.9146 256.066 53.1489 256.559 53.3013 257.127C53.4536 257.689 53.5298 258.305 53.5298 258.973V259.702H46.4282V258.375H51.9038V258.252C51.8804 257.83 51.7925 257.42 51.6401 257.021C51.4937 256.623 51.2593 256.295 50.937 256.037C50.6147 255.779 50.1753 255.65 49.6187 255.65C49.2495 255.65 48.9097 255.729 48.5991 255.888C48.2886 256.04 48.022 256.269 47.7993 256.573C47.5767 256.878 47.4038 257.25 47.2808 257.689C47.1577 258.129 47.0962 258.636 47.0962 259.21V259.579C47.0962 260.03 47.1577 260.455 47.2808 260.854C47.4097 261.246 47.5942 261.592 47.8345 261.891C48.0806 262.189 48.3765 262.424 48.7222 262.594C49.0737 262.764 49.4722 262.849 49.9175 262.849C50.4917 262.849 50.978 262.731 51.3765 262.497C51.7749 262.263 52.1235 261.949 52.4224 261.557L53.4067 262.339C53.2017 262.649 52.9409 262.945 52.6245 263.227C52.3081 263.508 51.9185 263.736 51.4556 263.912C50.9985 264.088 50.4565 264.176 49.8296 264.176ZM60.9653 261.478C60.9653 261.243 60.9126 261.026 60.8071 260.827C60.7075 260.622 60.4995 260.438 60.1831 260.273C59.8726 260.104 59.4038 259.957 58.7769 259.834C58.2495 259.723 57.772 259.591 57.3442 259.438C56.9224 259.286 56.562 259.102 56.2632 258.885C55.9702 258.668 55.7446 258.413 55.5864 258.12C55.4282 257.827 55.3491 257.484 55.3491 257.092C55.3491 256.717 55.4312 256.362 55.5952 256.028C55.7651 255.694 56.0024 255.398 56.3071 255.141C56.6177 254.883 56.9897 254.681 57.4233 254.534C57.8569 254.388 58.3403 254.314 58.8735 254.314C59.6353 254.314 60.2856 254.449 60.8247 254.719C61.3638 254.988 61.7769 255.349 62.064 255.8C62.3511 256.245 62.4946 256.74 62.4946 257.285H60.8687C60.8687 257.021 60.7896 256.767 60.6313 256.521C60.479 256.269 60.2534 256.061 59.9546 255.896C59.6616 255.732 59.3013 255.65 58.8735 255.65C58.4224 255.65 58.0562 255.721 57.7749 255.861C57.4995 255.996 57.2974 256.169 57.1685 256.38C57.0454 256.591 56.9839 256.813 56.9839 257.048C56.9839 257.224 57.0132 257.382 57.0718 257.522C57.1362 257.657 57.2476 257.783 57.4058 257.9C57.564 258.012 57.7866 258.117 58.0737 258.217C58.3608 258.316 58.7271 258.416 59.1724 258.516C59.9517 258.691 60.5933 258.902 61.0972 259.148C61.6011 259.395 61.9761 259.696 62.2222 260.054C62.4683 260.411 62.5913 260.845 62.5913 261.354C62.5913 261.771 62.5034 262.151 62.3276 262.497C62.1577 262.843 61.9087 263.142 61.5806 263.394C61.2583 263.64 60.8716 263.833 60.4204 263.974C59.9751 264.108 59.4741 264.176 58.9175 264.176C58.0796 264.176 57.3706 264.026 56.7905 263.728C56.2104 263.429 55.771 263.042 55.4722 262.567C55.1733 262.093 55.0239 261.592 55.0239 261.064H56.6587C56.6821 261.51 56.811 261.864 57.0454 262.128C57.2798 262.386 57.5669 262.57 57.9067 262.682C58.2466 262.787 58.5835 262.84 58.9175 262.84C59.3628 262.84 59.7349 262.781 60.0337 262.664C60.3384 262.547 60.5698 262.386 60.728 262.181C60.8862 261.976 60.9653 261.741 60.9653 261.478ZM68.6733 264.176C68.0112 264.176 67.4106 264.064 66.8716 263.842C66.3384 263.613 65.8784 263.294 65.4917 262.884C65.1108 262.474 64.8179 261.987 64.6128 261.425C64.4077 260.862 64.3052 260.247 64.3052 259.579V259.21C64.3052 258.437 64.4194 257.748 64.6479 257.145C64.8765 256.535 65.187 256.02 65.5796 255.598C65.9722 255.176 66.4175 254.856 66.9155 254.64C67.4136 254.423 67.9292 254.314 68.4624 254.314C69.1421 254.314 69.728 254.432 70.2202 254.666C70.7183 254.9 71.1255 255.229 71.4419 255.65C71.7583 256.066 71.9927 256.559 72.145 257.127C72.2974 257.689 72.3735 258.305 72.3735 258.973V259.702H65.272V258.375H70.7476V258.252C70.7241 257.83 70.6362 257.42 70.4839 257.021C70.3374 256.623 70.103 256.295 69.7808 256.037C69.4585 255.779 69.019 255.65 68.4624 255.65C68.0933 255.65 67.7534 255.729 67.4429 255.888C67.1323 256.04 66.8657 256.269 66.6431 256.573C66.4204 256.878 66.2476 257.25 66.1245 257.689C66.0015 258.129 65.9399 258.636 65.9399 259.21V259.579C65.9399 260.03 66.0015 260.455 66.1245 260.854C66.2534 261.246 66.438 261.592 66.6782 261.891C66.9243 262.189 67.2202 262.424 67.5659 262.594C67.9175 262.764 68.3159 262.849 68.7612 262.849C69.3354 262.849 69.8218 262.731 70.2202 262.497C70.6187 262.263 70.9673 261.949 71.2661 261.557L72.2505 262.339C72.0454 262.649 71.7847 262.945 71.4683 263.227C71.1519 263.508 70.7622 263.736 70.2993 263.912C69.8423 264.088 69.3003 264.176 68.6733 264.176ZM75.8892 256.38V264H74.2544V254.49H75.8013L75.8892 256.38ZM75.5552 258.885L74.7993 258.858C74.8052 258.208 74.8901 257.607 75.0542 257.057C75.2183 256.5 75.4614 256.017 75.7837 255.606C76.106 255.196 76.5073 254.88 76.9878 254.657C77.4683 254.429 78.0249 254.314 78.6577 254.314C79.103 254.314 79.5132 254.379 79.8882 254.508C80.2632 254.631 80.5884 254.827 80.8638 255.097C81.1392 255.366 81.353 255.712 81.5054 256.134C81.6577 256.556 81.7339 257.065 81.7339 257.663V264H80.1079V257.742C80.1079 257.244 80.0229 256.846 79.853 256.547C79.689 256.248 79.4546 256.031 79.1499 255.896C78.8452 255.756 78.4878 255.686 78.0776 255.686C77.5972 255.686 77.1958 255.771 76.8735 255.94C76.5513 256.11 76.2935 256.345 76.1001 256.644C75.9067 256.942 75.7661 257.285 75.6782 257.672C75.5962 258.053 75.5552 258.457 75.5552 258.885ZM81.7163 257.988L80.6265 258.322C80.6323 257.801 80.7173 257.3 80.8813 256.819C81.0513 256.339 81.2944 255.911 81.6108 255.536C81.9331 255.161 82.3286 254.865 82.7974 254.648C83.2661 254.426 83.8022 254.314 84.4058 254.314C84.9155 254.314 85.3667 254.382 85.7593 254.517C86.1577 254.651 86.4917 254.859 86.7612 255.141C87.0366 255.416 87.2446 255.771 87.3853 256.204C87.5259 256.638 87.5962 257.153 87.5962 257.751V264H85.9614V257.733C85.9614 257.2 85.8765 256.787 85.7065 256.494C85.5425 256.195 85.3081 255.987 85.0034 255.87C84.7046 255.747 84.3472 255.686 83.9312 255.686C83.5737 255.686 83.2573 255.747 82.9819 255.87C82.7065 255.993 82.4751 256.163 82.2876 256.38C82.1001 256.591 81.9565 256.834 81.8569 257.109C81.7632 257.385 81.7163 257.678 81.7163 257.988ZM91.6831 256.318V267.656H90.0483V254.49H91.5425L91.6831 256.318ZM98.0903 259.166V259.351C98.0903 260.042 98.0083 260.684 97.8442 261.275C97.6802 261.861 97.4399 262.371 97.1235 262.805C96.813 263.238 96.4292 263.575 95.9722 263.815C95.5151 264.056 94.9907 264.176 94.3989 264.176C93.7954 264.176 93.2622 264.076 92.7993 263.877C92.3364 263.678 91.9438 263.388 91.6216 263.007C91.2993 262.626 91.0415 262.169 90.8481 261.636C90.6606 261.103 90.5317 260.502 90.4614 259.834V258.85C90.5317 258.146 90.6636 257.517 90.8569 256.96C91.0503 256.403 91.3052 255.929 91.6216 255.536C91.9438 255.138 92.3335 254.836 92.7905 254.631C93.2476 254.42 93.7749 254.314 94.3726 254.314C94.9702 254.314 95.5005 254.432 95.9634 254.666C96.4263 254.895 96.8159 255.223 97.1323 255.65C97.4487 256.078 97.686 256.591 97.8442 257.188C98.0083 257.78 98.0903 258.439 98.0903 259.166ZM96.4556 259.351V259.166C96.4556 258.691 96.4058 258.246 96.3062 257.83C96.2065 257.408 96.0513 257.039 95.8403 256.723C95.6353 256.4 95.3716 256.148 95.0493 255.967C94.7271 255.779 94.3433 255.686 93.8979 255.686C93.4878 255.686 93.1304 255.756 92.8257 255.896C92.5269 256.037 92.272 256.228 92.061 256.468C91.8501 256.702 91.6772 256.972 91.5425 257.276C91.4136 257.575 91.3169 257.886 91.2524 258.208V260.484C91.3696 260.895 91.5337 261.281 91.7446 261.645C91.9556 262.002 92.2368 262.292 92.5884 262.515C92.9399 262.731 93.3823 262.84 93.9155 262.84C94.355 262.84 94.7329 262.749 95.0493 262.567C95.3716 262.38 95.6353 262.125 95.8403 261.803C96.0513 261.48 96.2065 261.111 96.3062 260.695C96.4058 260.273 96.4556 259.825 96.4556 259.351ZM104.111 264.176C103.449 264.176 102.848 264.064 102.309 263.842C101.776 263.613 101.316 263.294 100.929 262.884C100.548 262.474 100.255 261.987 100.05 261.425C99.8452 260.862 99.7427 260.247 99.7427 259.579V259.21C99.7427 258.437 99.8569 257.748 100.085 257.145C100.314 256.535 100.625 256.02 101.017 255.598C101.41 255.176 101.855 254.856 102.353 254.64C102.851 254.423 103.367 254.314 103.9 254.314C104.58 254.314 105.166 254.432 105.658 254.666C106.156 254.9 106.563 255.229 106.879 255.65C107.196 256.066 107.43 256.559 107.583 257.127C107.735 257.689 107.811 258.305 107.811 258.973V259.702H100.709V258.375H106.185V258.252C106.162 257.83 106.074 257.42 105.921 257.021C105.775 256.623 105.541 256.295 105.218 256.037C104.896 255.779 104.457 255.65 103.9 255.65C103.531 255.65 103.191 255.729 102.88 255.888C102.57 256.04 102.303 256.269 102.081 256.573C101.858 256.878 101.685 257.25 101.562 257.689C101.439 258.129 101.377 258.636 101.377 259.21V259.579C101.377 260.03 101.439 260.455 101.562 260.854C101.691 261.246 101.875 261.592 102.116 261.891C102.362 262.189 102.658 262.424 103.003 262.594C103.355 262.764 103.753 262.849 104.199 262.849C104.773 262.849 105.259 262.731 105.658 262.497C106.056 262.263 106.405 261.949 106.704 261.557L107.688 262.339C107.483 262.649 107.222 262.945 106.906 263.227C106.589 263.508 106.2 263.736 105.737 263.912C105.28 264.088 104.738 264.176 104.111 264.176ZM111.335 256.521V264H109.709V254.49H111.248L111.335 256.521ZM110.949 258.885L110.272 258.858C110.278 258.208 110.375 257.607 110.562 257.057C110.75 256.5 111.013 256.017 111.353 255.606C111.693 255.196 112.097 254.88 112.566 254.657C113.041 254.429 113.565 254.314 114.139 254.314C114.608 254.314 115.03 254.379 115.405 254.508C115.78 254.631 116.099 254.83 116.363 255.105C116.632 255.381 116.837 255.738 116.978 256.178C117.119 256.611 117.189 257.142 117.189 257.769V264H115.554V257.751C115.554 257.253 115.481 256.854 115.334 256.556C115.188 256.251 114.974 256.031 114.693 255.896C114.412 255.756 114.066 255.686 113.656 255.686C113.251 255.686 112.882 255.771 112.548 255.94C112.22 256.11 111.936 256.345 111.696 256.644C111.461 256.942 111.277 257.285 111.142 257.672C111.013 258.053 110.949 258.457 110.949 258.885ZM121.285 250.5V264H119.659V250.5H121.285ZM120.898 258.885L120.221 258.858C120.227 258.208 120.324 257.607 120.511 257.057C120.699 256.5 120.962 256.017 121.302 255.606C121.642 255.196 122.046 254.88 122.515 254.657C122.99 254.429 123.514 254.314 124.088 254.314C124.557 254.314 124.979 254.379 125.354 254.508C125.729 254.631 126.048 254.83 126.312 255.105C126.582 255.381 126.787 255.738 126.927 256.178C127.068 256.611 127.138 257.142 127.138 257.769V264H125.503V257.751C125.503 257.253 125.43 256.854 125.284 256.556C125.137 256.251 124.923 256.031 124.642 255.896C124.361 255.756 124.015 255.686 123.605 255.686C123.201 255.686 122.832 255.771 122.498 255.94C122.169 256.11 121.885 256.345 121.645 256.644C121.411 256.942 121.226 257.285 121.091 257.672C120.962 258.053 120.898 258.457 120.898 258.885ZM129.142 259.351V259.148C129.142 258.463 129.242 257.827 129.441 257.241C129.64 256.649 129.927 256.137 130.302 255.703C130.677 255.264 131.131 254.924 131.665 254.684C132.198 254.438 132.795 254.314 133.458 254.314C134.125 254.314 134.726 254.438 135.259 254.684C135.798 254.924 136.255 255.264 136.63 255.703C137.011 256.137 137.301 256.649 137.5 257.241C137.7 257.827 137.799 258.463 137.799 259.148V259.351C137.799 260.036 137.7 260.672 137.5 261.258C137.301 261.844 137.011 262.356 136.63 262.796C136.255 263.229 135.801 263.569 135.268 263.815C134.741 264.056 134.143 264.176 133.475 264.176C132.807 264.176 132.207 264.056 131.673 263.815C131.14 263.569 130.683 263.229 130.302 262.796C129.927 262.356 129.64 261.844 129.441 261.258C129.242 260.672 129.142 260.036 129.142 259.351ZM130.768 259.148V259.351C130.768 259.825 130.824 260.273 130.935 260.695C131.046 261.111 131.213 261.48 131.436 261.803C131.665 262.125 131.949 262.38 132.289 262.567C132.628 262.749 133.024 262.84 133.475 262.84C133.92 262.84 134.31 262.749 134.644 262.567C134.984 262.38 135.265 262.125 135.488 261.803C135.71 261.48 135.877 261.111 135.989 260.695C136.106 260.273 136.165 259.825 136.165 259.351V259.148C136.165 258.68 136.106 258.237 135.989 257.821C135.877 257.399 135.708 257.027 135.479 256.705C135.256 256.377 134.975 256.119 134.635 255.932C134.301 255.744 133.909 255.65 133.458 255.65C133.012 255.65 132.62 255.744 132.28 255.932C131.946 256.119 131.665 256.377 131.436 256.705C131.213 257.027 131.046 257.399 130.935 257.821C130.824 258.237 130.768 258.68 130.768 259.148ZM150.297 262.154V250.5H151.932V264H150.438L150.297 262.154ZM143.899 259.351V259.166C143.899 258.439 143.987 257.78 144.163 257.188C144.344 256.591 144.599 256.078 144.927 255.65C145.261 255.223 145.657 254.895 146.114 254.666C146.577 254.432 147.092 254.314 147.661 254.314C148.258 254.314 148.78 254.42 149.225 254.631C149.676 254.836 150.057 255.138 150.368 255.536C150.684 255.929 150.933 256.403 151.115 256.96C151.296 257.517 151.422 258.146 151.493 258.85V259.658C151.428 260.355 151.302 260.982 151.115 261.539C150.933 262.096 150.684 262.57 150.368 262.963C150.057 263.355 149.676 263.657 149.225 263.868C148.774 264.073 148.247 264.176 147.643 264.176C147.086 264.176 146.577 264.056 146.114 263.815C145.657 263.575 145.261 263.238 144.927 262.805C144.599 262.371 144.344 261.861 144.163 261.275C143.987 260.684 143.899 260.042 143.899 259.351ZM145.534 259.166V259.351C145.534 259.825 145.581 260.271 145.674 260.687C145.774 261.103 145.926 261.469 146.131 261.785C146.336 262.102 146.597 262.351 146.914 262.532C147.23 262.708 147.608 262.796 148.047 262.796C148.586 262.796 149.029 262.682 149.375 262.453C149.726 262.225 150.007 261.923 150.218 261.548C150.429 261.173 150.593 260.766 150.71 260.326V258.208C150.64 257.886 150.538 257.575 150.403 257.276C150.274 256.972 150.104 256.702 149.893 256.468C149.688 256.228 149.433 256.037 149.128 255.896C148.83 255.756 148.475 255.686 148.065 255.686C147.62 255.686 147.236 255.779 146.914 255.967C146.597 256.148 146.336 256.4 146.131 256.723C145.926 257.039 145.774 257.408 145.674 257.83C145.581 258.246 145.534 258.691 145.534 259.166ZM154.033 259.351V259.148C154.033 258.463 154.132 257.827 154.332 257.241C154.531 256.649 154.818 256.137 155.193 255.703C155.568 255.264 156.022 254.924 156.555 254.684C157.088 254.438 157.686 254.314 158.348 254.314C159.016 254.314 159.617 254.438 160.15 254.684C160.689 254.924 161.146 255.264 161.521 255.703C161.902 256.137 162.192 256.649 162.391 257.241C162.59 257.827 162.69 258.463 162.69 259.148V259.351C162.69 260.036 162.59 260.672 162.391 261.258C162.192 261.844 161.902 262.356 161.521 262.796C161.146 263.229 160.692 263.569 160.159 263.815C159.631 264.056 159.034 264.176 158.366 264.176C157.698 264.176 157.097 264.056 156.564 263.815C156.031 263.569 155.574 263.229 155.193 262.796C154.818 262.356 154.531 261.844 154.332 261.258C154.132 260.672 154.033 260.036 154.033 259.351ZM155.659 259.148V259.351C155.659 259.825 155.714 260.273 155.826 260.695C155.937 261.111 156.104 261.48 156.327 261.803C156.555 262.125 156.839 262.38 157.179 262.567C157.519 262.749 157.915 262.84 158.366 262.84C158.811 262.84 159.201 262.749 159.535 262.567C159.875 262.38 160.156 262.125 160.378 261.803C160.601 261.48 160.768 261.111 160.879 260.695C160.997 260.273 161.055 259.825 161.055 259.351V259.148C161.055 258.68 160.997 258.237 160.879 257.821C160.768 257.399 160.598 257.027 160.37 256.705C160.147 256.377 159.866 256.119 159.526 255.932C159.192 255.744 158.799 255.65 158.348 255.65C157.903 255.65 157.51 255.744 157.17 255.932C156.836 256.119 156.555 256.377 156.327 256.705C156.104 257.027 155.937 257.399 155.826 257.821C155.714 258.237 155.659 258.68 155.659 259.148ZM170.266 261.478C170.266 261.243 170.213 261.026 170.108 260.827C170.008 260.622 169.8 260.438 169.484 260.273C169.173 260.104 168.705 259.957 168.078 259.834C167.55 259.723 167.073 259.591 166.645 259.438C166.223 259.286 165.863 259.102 165.564 258.885C165.271 258.668 165.045 258.413 164.887 258.12C164.729 257.827 164.65 257.484 164.65 257.092C164.65 256.717 164.732 256.362 164.896 256.028C165.066 255.694 165.303 255.398 165.608 255.141C165.918 254.883 166.291 254.681 166.724 254.534C167.158 254.388 167.641 254.314 168.174 254.314C168.936 254.314 169.586 254.449 170.125 254.719C170.665 254.988 171.078 255.349 171.365 255.8C171.652 256.245 171.795 256.74 171.795 257.285H170.169C170.169 257.021 170.09 256.767 169.932 256.521C169.78 256.269 169.554 256.061 169.255 255.896C168.962 255.732 168.602 255.65 168.174 255.65C167.723 255.65 167.357 255.721 167.076 255.861C166.8 255.996 166.598 256.169 166.469 256.38C166.346 256.591 166.285 256.813 166.285 257.048C166.285 257.224 166.314 257.382 166.373 257.522C166.437 257.657 166.548 257.783 166.707 257.9C166.865 258.012 167.087 258.117 167.375 258.217C167.662 258.316 168.028 258.416 168.473 258.516C169.252 258.691 169.894 258.902 170.398 259.148C170.902 259.395 171.277 259.696 171.523 260.054C171.769 260.411 171.892 260.845 171.892 261.354C171.892 261.771 171.804 262.151 171.628 262.497C171.458 262.843 171.209 263.142 170.881 263.394C170.559 263.64 170.172 263.833 169.721 263.974C169.276 264.108 168.775 264.176 168.218 264.176C167.38 264.176 166.671 264.026 166.091 263.728C165.511 263.429 165.072 263.042 164.773 262.567C164.474 262.093 164.325 261.592 164.325 261.064H165.959C165.983 261.51 166.112 261.864 166.346 262.128C166.581 262.386 166.868 262.57 167.208 262.682C167.547 262.787 167.884 262.84 168.218 262.84C168.664 262.84 169.036 262.781 169.334 262.664C169.639 262.547 169.871 262.386 170.029 262.181C170.187 261.976 170.266 261.741 170.266 261.478ZM180.259 254.49V264H178.625V254.49H180.259ZM178.501 251.968C178.501 251.704 178.581 251.481 178.739 251.3C178.903 251.118 179.143 251.027 179.459 251.027C179.77 251.027 180.007 251.118 180.171 251.3C180.341 251.481 180.426 251.704 180.426 251.968C180.426 252.22 180.341 252.437 180.171 252.618C180.007 252.794 179.77 252.882 179.459 252.882C179.143 252.882 178.903 252.794 178.739 252.618C178.581 252.437 178.501 252.22 178.501 251.968ZM184.496 256.521V264H182.87V254.49H184.408L184.496 256.521ZM184.109 258.885L183.432 258.858C183.438 258.208 183.535 257.607 183.722 257.057C183.91 256.5 184.173 256.017 184.513 255.606C184.853 255.196 185.257 254.88 185.726 254.657C186.201 254.429 186.725 254.314 187.299 254.314C187.768 254.314 188.19 254.379 188.565 254.508C188.94 254.631 189.259 254.83 189.523 255.105C189.792 255.381 189.998 255.738 190.138 256.178C190.279 256.611 190.349 257.142 190.349 257.769V264H188.714V257.751C188.714 257.253 188.641 256.854 188.495 256.556C188.348 256.251 188.134 256.031 187.853 255.896C187.572 255.756 187.226 255.686 186.816 255.686C186.412 255.686 186.042 255.771 185.708 255.94C185.38 256.11 185.096 256.345 184.856 256.644C184.622 256.942 184.437 257.285 184.302 257.672C184.173 258.053 184.109 258.457 184.109 258.885ZM195.71 262.532L198.312 254.49H199.973L196.554 264H195.464L195.71 262.532ZM193.54 254.49L196.22 262.576L196.405 264H195.315L191.87 254.49H193.54ZM205.361 264.176C204.699 264.176 204.098 264.064 203.559 263.842C203.026 263.613 202.566 263.294 202.179 262.884C201.798 262.474 201.505 261.987 201.3 261.425C201.095 260.862 200.993 260.247 200.993 259.579V259.21C200.993 258.437 201.107 257.748 201.335 257.145C201.564 256.535 201.875 256.02 202.267 255.598C202.66 255.176 203.105 254.856 203.603 254.64C204.101 254.423 204.617 254.314 205.15 254.314C205.83 254.314 206.416 254.432 206.908 254.666C207.406 254.9 207.813 255.229 208.129 255.65C208.446 256.066 208.68 256.559 208.833 257.127C208.985 257.689 209.061 258.305 209.061 258.973V259.702H201.959V258.375H207.435V258.252C207.412 257.83 207.324 257.42 207.171 257.021C207.025 256.623 206.791 256.295 206.468 256.037C206.146 255.779 205.707 255.65 205.15 255.65C204.781 255.65 204.441 255.729 204.13 255.888C203.82 256.04 203.553 256.269 203.331 256.573C203.108 256.878 202.935 257.25 202.812 257.689C202.689 258.129 202.627 258.636 202.627 259.21V259.579C202.627 260.03 202.689 260.455 202.812 260.854C202.941 261.246 203.125 261.592 203.366 261.891C203.612 262.189 203.908 262.424 204.253 262.594C204.605 262.764 205.003 262.849 205.449 262.849C206.023 262.849 206.509 262.731 206.908 262.497C207.306 262.263 207.655 261.949 207.954 261.557L208.938 262.339C208.733 262.649 208.472 262.945 208.156 263.227C207.839 263.508 207.45 263.736 206.987 263.912C206.53 264.088 205.988 264.176 205.361 264.176ZM216.497 261.478C216.497 261.243 216.444 261.026 216.338 260.827C216.239 260.622 216.031 260.438 215.714 260.273C215.404 260.104 214.935 259.957 214.308 259.834C213.781 259.723 213.303 259.591 212.875 259.438C212.454 259.286 212.093 259.102 211.794 258.885C211.501 258.668 211.276 258.413 211.118 258.12C210.959 257.827 210.88 257.484 210.88 257.092C210.88 256.717 210.962 256.362 211.126 256.028C211.296 255.694 211.534 255.398 211.838 255.141C212.149 254.883 212.521 254.681 212.955 254.534C213.388 254.388 213.872 254.314 214.405 254.314C215.167 254.314 215.817 254.449 216.356 254.719C216.895 254.988 217.308 255.349 217.595 255.8C217.882 256.245 218.026 256.74 218.026 257.285H216.4C216.4 257.021 216.321 256.767 216.163 256.521C216.01 256.269 215.785 256.061 215.486 255.896C215.193 255.732 214.833 255.65 214.405 255.65C213.954 255.65 213.587 255.721 213.306 255.861C213.031 255.996 212.829 256.169 212.7 256.38C212.577 256.591 212.515 256.813 212.515 257.048C212.515 257.224 212.544 257.382 212.603 257.522C212.667 257.657 212.779 257.783 212.937 257.9C213.095 258.012 213.318 258.117 213.605 258.217C213.892 258.316 214.258 258.416 214.704 258.516C215.483 258.691 216.125 258.902 216.628 259.148C217.132 259.395 217.507 259.696 217.753 260.054C218 260.411 218.123 260.845 218.123 261.354C218.123 261.771 218.035 262.151 217.859 262.497C217.689 262.843 217.44 263.142 217.112 263.394C216.79 263.64 216.403 263.833 215.952 263.974C215.506 264.108 215.005 264.176 214.449 264.176C213.611 264.176 212.902 264.026 212.322 263.728C211.742 263.429 211.302 263.042 211.003 262.567C210.705 262.093 210.555 261.592 210.555 261.064H212.19C212.213 261.51 212.342 261.864 212.577 262.128C212.811 262.386 213.098 262.57 213.438 262.682C213.778 262.787 214.115 262.84 214.449 262.84C214.894 262.84 215.266 262.781 215.565 262.664C215.87 262.547 216.101 262.386 216.259 262.181C216.417 261.976 216.497 261.741 216.497 261.478ZM224.24 254.49V255.738H219.098V254.49H224.24ZM220.838 252.179H222.464V261.645C222.464 261.967 222.514 262.21 222.614 262.374C222.713 262.538 222.842 262.646 223 262.699C223.159 262.752 223.329 262.778 223.51 262.778C223.645 262.778 223.786 262.767 223.932 262.743C224.084 262.714 224.199 262.69 224.275 262.673L224.284 264C224.155 264.041 223.985 264.079 223.774 264.114C223.569 264.155 223.32 264.176 223.027 264.176C222.628 264.176 222.262 264.097 221.928 263.938C221.594 263.78 221.328 263.517 221.128 263.147C220.935 262.772 220.838 262.269 220.838 261.636V252.179ZM227.914 254.49V264H226.279V254.49H227.914ZM226.156 251.968C226.156 251.704 226.235 251.481 226.393 251.3C226.557 251.118 226.797 251.027 227.114 251.027C227.424 251.027 227.662 251.118 227.826 251.3C227.996 251.481 228.081 251.704 228.081 251.968C228.081 252.22 227.996 252.437 227.826 252.618C227.662 252.794 227.424 252.882 227.114 252.882C226.797 252.882 226.557 252.794 226.393 252.618C226.235 252.437 226.156 252.22 226.156 251.968ZM232.141 256.38V264H230.506V254.49H232.053L232.141 256.38ZM231.807 258.885L231.051 258.858C231.057 258.208 231.142 257.607 231.306 257.057C231.47 256.5 231.713 256.017 232.036 255.606C232.358 255.196 232.759 254.88 233.24 254.657C233.72 254.429 234.277 254.314 234.91 254.314C235.355 254.314 235.765 254.379 236.14 254.508C236.515 254.631 236.84 254.827 237.116 255.097C237.391 255.366 237.605 255.712 237.757 256.134C237.91 256.556 237.986 257.065 237.986 257.663V264H236.36V257.742C236.36 257.244 236.275 256.846 236.105 256.547C235.941 256.248 235.707 256.031 235.402 255.896C235.097 255.756 234.74 255.686 234.33 255.686C233.849 255.686 233.448 255.771 233.125 255.94C232.803 256.11 232.545 256.345 232.352 256.644C232.159 256.942 232.018 257.285 231.93 257.672C231.848 258.053 231.807 258.457 231.807 258.885ZM237.968 257.988L236.878 258.322C236.884 257.801 236.969 257.3 237.133 256.819C237.303 256.339 237.546 255.911 237.863 255.536C238.185 255.161 238.581 254.865 239.049 254.648C239.518 254.426 240.054 254.314 240.658 254.314C241.167 254.314 241.619 254.382 242.011 254.517C242.41 254.651 242.744 254.859 243.013 255.141C243.289 255.416 243.497 255.771 243.637 256.204C243.778 256.638 243.848 257.153 243.848 257.751V264H242.213V257.733C242.213 257.2 242.128 256.787 241.958 256.494C241.794 256.195 241.56 255.987 241.255 255.87C240.957 255.747 240.599 255.686 240.183 255.686C239.826 255.686 239.509 255.747 239.234 255.87C238.958 255.993 238.727 256.163 238.54 256.38C238.352 256.591 238.208 256.834 238.109 257.109C238.015 257.385 237.968 257.678 237.968 257.988ZM250.255 264.176C249.593 264.176 248.993 264.064 248.454 263.842C247.92 263.613 247.46 263.294 247.074 262.884C246.693 262.474 246.4 261.987 246.195 261.425C245.99 260.862 245.887 260.247 245.887 259.579V259.21C245.887 258.437 246.001 257.748 246.23 257.145C246.458 256.535 246.769 256.02 247.162 255.598C247.554 255.176 248 254.856 248.498 254.64C248.996 254.423 249.511 254.314 250.044 254.314C250.724 254.314 251.31 254.432 251.802 254.666C252.3 254.9 252.708 255.229 253.024 255.65C253.34 256.066 253.575 256.559 253.727 257.127C253.879 257.689 253.956 258.305 253.956 258.973V259.702H246.854V258.375H252.33V258.252C252.306 257.83 252.218 257.42 252.066 257.021C251.919 256.623 251.685 256.295 251.363 256.037C251.041 255.779 250.601 255.65 250.044 255.65C249.675 255.65 249.335 255.729 249.025 255.888C248.714 256.04 248.448 256.269 248.225 256.573C248.002 256.878 247.83 257.25 247.707 257.689C247.583 258.129 247.522 258.636 247.522 259.21V259.579C247.522 260.03 247.583 260.455 247.707 260.854C247.835 261.246 248.02 261.592 248.26 261.891C248.506 262.189 248.802 262.424 249.148 262.594C249.5 262.764 249.898 262.849 250.343 262.849C250.917 262.849 251.404 262.731 251.802 262.497C252.201 262.263 252.549 261.949 252.848 261.557L253.833 262.339C253.627 262.649 253.367 262.945 253.05 263.227C252.734 263.508 252.344 263.736 251.881 263.912C251.424 264.088 250.882 264.176 250.255 264.176ZM257.48 256.521V264H255.854V254.49H257.392L257.48 256.521ZM257.093 258.885L256.417 258.858C256.422 258.208 256.519 257.607 256.707 257.057C256.894 256.5 257.158 256.017 257.498 255.606C257.837 255.196 258.242 254.88 258.71 254.657C259.185 254.429 259.709 254.314 260.284 254.314C260.752 254.314 261.174 254.379 261.549 254.508C261.924 254.631 262.244 254.83 262.507 255.105C262.777 255.381 262.982 255.738 263.123 256.178C263.263 256.611 263.333 257.142 263.333 257.769V264H261.699V257.751C261.699 257.253 261.625 256.854 261.479 256.556C261.333 256.251 261.119 256.031 260.837 255.896C260.556 255.756 260.21 255.686 259.8 255.686C259.396 255.686 259.027 255.771 258.693 255.94C258.365 256.11 258.081 256.345 257.84 256.644C257.606 256.942 257.421 257.285 257.287 257.672C257.158 258.053 257.093 258.457 257.093 258.885ZM269.785 254.49V255.738H264.643V254.49H269.785ZM266.383 252.179H268.009V261.645C268.009 261.967 268.059 262.21 268.159 262.374C268.258 262.538 268.387 262.646 268.545 262.699C268.704 262.752 268.874 262.778 269.055 262.778C269.19 262.778 269.331 262.767 269.477 262.743C269.629 262.714 269.744 262.69 269.82 262.673L269.829 264C269.7 264.041 269.53 264.079 269.319 264.114C269.114 264.155 268.865 264.176 268.572 264.176C268.173 264.176 267.807 264.097 267.473 263.938C267.139 263.78 266.873 263.517 266.673 263.147C266.48 262.772 266.383 262.269 266.383 261.636V252.179ZM271.085 259.351V259.148C271.085 258.463 271.185 257.827 271.384 257.241C271.583 256.649 271.871 256.137 272.246 255.703C272.621 255.264 273.075 254.924 273.608 254.684C274.141 254.438 274.739 254.314 275.401 254.314C276.069 254.314 276.669 254.438 277.203 254.684C277.742 254.924 278.199 255.264 278.574 255.703C278.955 256.137 279.245 256.649 279.444 257.241C279.643 257.827 279.743 258.463 279.743 259.148V259.351C279.743 260.036 279.643 260.672 279.444 261.258C279.245 261.844 278.955 262.356 278.574 262.796C278.199 263.229 277.745 263.569 277.211 263.815C276.684 264.056 276.086 264.176 275.418 264.176C274.75 264.176 274.15 264.056 273.617 263.815C273.083 263.569 272.626 263.229 272.246 262.796C271.871 262.356 271.583 261.844 271.384 261.258C271.185 260.672 271.085 260.036 271.085 259.351ZM272.711 259.148V259.351C272.711 259.825 272.767 260.273 272.878 260.695C272.99 261.111 273.157 261.48 273.379 261.803C273.608 262.125 273.892 262.38 274.232 262.567C274.572 262.749 274.967 262.84 275.418 262.84C275.864 262.84 276.253 262.749 276.587 262.567C276.927 262.38 277.208 262.125 277.431 261.803C277.654 261.48 277.821 261.111 277.932 260.695C278.049 260.273 278.108 259.825 278.108 259.351V259.148C278.108 258.68 278.049 258.237 277.932 257.821C277.821 257.399 277.651 257.027 277.422 256.705C277.2 256.377 276.918 256.119 276.579 255.932C276.245 255.744 275.852 255.65 275.401 255.65C274.956 255.65 274.563 255.744 274.223 255.932C273.889 256.119 273.608 256.377 273.379 256.705C273.157 257.027 272.99 257.399 272.878 257.821C272.767 258.237 272.711 258.68 272.711 259.148ZM287.319 261.478C287.319 261.243 287.266 261.026 287.161 260.827C287.061 260.622 286.853 260.438 286.537 260.273C286.226 260.104 285.757 259.957 285.13 259.834C284.603 259.723 284.125 259.591 283.698 259.438C283.276 259.286 282.916 259.102 282.617 258.885C282.324 258.668 282.098 258.413 281.94 258.12C281.782 257.827 281.703 257.484 281.703 257.092C281.703 256.717 281.785 256.362 281.949 256.028C282.119 255.694 282.356 255.398 282.661 255.141C282.971 254.883 283.343 254.681 283.777 254.534C284.21 254.388 284.694 254.314 285.227 254.314C285.989 254.314 286.639 254.449 287.178 254.719C287.717 254.988 288.13 255.349 288.417 255.8C288.705 256.245 288.848 256.74 288.848 257.285H287.222C287.222 257.021 287.143 256.767 286.985 256.521C286.833 256.269 286.607 256.061 286.308 255.896C286.015 255.732 285.655 255.65 285.227 255.65C284.776 255.65 284.41 255.721 284.128 255.861C283.853 255.996 283.651 256.169 283.522 256.38C283.399 256.591 283.337 256.813 283.337 257.048C283.337 257.224 283.367 257.382 283.425 257.522C283.49 257.657 283.601 257.783 283.759 257.9C283.917 258.012 284.14 258.117 284.427 258.217C284.714 258.316 285.081 258.416 285.526 258.516C286.305 258.691 286.947 258.902 287.451 259.148C287.955 259.395 288.33 259.696 288.576 260.054C288.822 260.411 288.945 260.845 288.945 261.354C288.945 261.771 288.857 262.151 288.681 262.497C288.511 262.843 288.262 263.142 287.934 263.394C287.612 263.64 287.225 263.833 286.774 263.974C286.329 264.108 285.828 264.176 285.271 264.176C284.433 264.176 283.724 264.026 283.144 263.728C282.564 263.429 282.125 263.042 281.826 262.567C281.527 262.093 281.377 261.592 281.377 261.064H283.012C283.036 261.51 283.165 261.864 283.399 262.128C283.633 262.386 283.92 262.57 284.26 262.682C284.6 262.787 284.937 262.84 285.271 262.84C285.716 262.84 286.088 262.781 286.387 262.664C286.692 262.547 286.923 262.386 287.082 262.181C287.24 261.976 287.319 261.741 287.319 261.478Z" fill="#2A2A2A"/>
<path d="M34.0775 294V284.06H38.2775C38.7069 284.06 39.0989 284.149 39.4535 284.326C39.8082 284.503 40.1162 284.746 40.3775 285.054C40.6482 285.353 40.8535 285.689 40.9935 286.062C41.1429 286.426 41.2175 286.799 41.2175 287.182C41.2175 287.658 41.1242 288.106 40.9375 288.526C40.7602 288.946 40.5035 289.301 40.1675 289.59C39.8409 289.879 39.4535 290.071 39.0055 290.164L41.4415 294H40.3355L37.9975 290.332H35.0575V294H34.0775ZM35.0575 289.464H38.3055C38.6975 289.464 39.0382 289.357 39.3275 289.142C39.6169 288.927 39.8409 288.647 39.9995 288.302C40.1582 287.947 40.2375 287.574 40.2375 287.182C40.2375 286.781 40.1442 286.412 39.9575 286.076C39.7802 285.731 39.5375 285.455 39.2295 285.25C38.9309 285.035 38.5949 284.928 38.2215 284.928H35.0575V289.464ZM46.2393 294.14C45.7166 294.14 45.2313 294.042 44.7833 293.846C44.3353 293.641 43.9479 293.365 43.6213 293.02C43.2946 292.665 43.0379 292.259 42.8513 291.802C42.6739 291.345 42.5853 290.855 42.5853 290.332C42.5853 289.651 42.7393 289.025 43.0473 288.456C43.3646 287.887 43.7986 287.434 44.3493 287.098C44.8999 286.753 45.5253 286.58 46.2253 286.58C46.9439 286.58 47.5693 286.753 48.1013 287.098C48.6426 287.443 49.0673 287.901 49.3753 288.47C49.6833 289.03 49.8373 289.646 49.8373 290.318C49.8373 290.393 49.8373 290.467 49.8373 290.542C49.8373 290.607 49.8326 290.659 49.8233 290.696H43.5793C43.6259 291.219 43.7706 291.685 44.0133 292.096C44.2653 292.497 44.5873 292.819 44.9793 293.062C45.3806 293.295 45.8146 293.412 46.2813 293.412C46.7573 293.412 47.2053 293.291 47.6253 293.048C48.0546 292.805 48.3533 292.488 48.5213 292.096L49.3473 292.32C49.1979 292.665 48.9693 292.978 48.6613 293.258C48.3533 293.538 47.9893 293.757 47.5693 293.916C47.1586 294.065 46.7153 294.14 46.2393 294.14ZM43.5513 290.01H48.9413C48.9039 289.478 48.7593 289.011 48.5073 288.61C48.2646 288.209 47.9426 287.896 47.5413 287.672C47.1493 287.439 46.7153 287.322 46.2393 287.322C45.7633 287.322 45.3293 287.439 44.9373 287.672C44.5453 287.896 44.2233 288.213 43.9713 288.624C43.7286 289.025 43.5886 289.487 43.5513 290.01ZM53.9801 294.14C53.3827 294.14 52.8274 294.042 52.3141 293.846C51.8007 293.65 51.3574 293.351 50.9841 292.95L51.3761 292.278C51.7867 292.661 52.1974 292.941 52.6081 293.118C53.0281 293.286 53.4714 293.37 53.9381 293.37C54.5074 293.37 54.9694 293.258 55.3241 293.034C55.6787 292.801 55.8561 292.469 55.8561 292.04C55.8561 291.751 55.7674 291.531 55.5901 291.382C55.4221 291.223 55.1747 291.097 54.8481 291.004C54.5307 290.901 54.1481 290.794 53.7001 290.682C53.1961 290.542 52.7714 290.397 52.4261 290.248C52.0901 290.089 51.8334 289.893 51.6561 289.66C51.4881 289.417 51.4041 289.105 51.4041 288.722C51.4041 288.246 51.5207 287.854 51.7541 287.546C51.9967 287.229 52.3234 286.991 52.7341 286.832C53.1541 286.664 53.6207 286.58 54.1341 286.58C54.6941 286.58 55.1887 286.669 55.6181 286.846C56.0474 287.023 56.3974 287.271 56.6681 287.588L56.2061 288.232C55.9447 287.933 55.6321 287.714 55.2681 287.574C54.9134 287.425 54.5167 287.35 54.0781 287.35C53.7794 287.35 53.4947 287.392 53.2241 287.476C52.9534 287.551 52.7294 287.681 52.5521 287.868C52.3841 288.045 52.3001 288.293 52.3001 288.61C52.3001 288.871 52.3654 289.077 52.4961 289.226C52.6267 289.366 52.8227 289.487 53.0841 289.59C53.3454 289.683 53.6674 289.786 54.0501 289.898C54.6007 290.047 55.0814 290.201 55.4921 290.36C55.9027 290.509 56.2201 290.705 56.4441 290.948C56.6681 291.191 56.7801 291.531 56.7801 291.97C56.7801 292.651 56.5234 293.183 56.0101 293.566C55.4967 293.949 54.8201 294.14 53.9801 294.14ZM58.5637 290.99V286.706H59.5157V290.822C59.5157 291.653 59.6557 292.273 59.9357 292.684C60.225 293.095 60.6497 293.3 61.2097 293.3C61.583 293.3 61.9423 293.221 62.2877 293.062C62.6423 292.894 62.955 292.661 63.2257 292.362C63.4963 292.054 63.7017 291.699 63.8417 291.298V286.706H64.7937V292.852C64.7937 292.983 64.8217 293.081 64.8777 293.146C64.9337 293.202 65.0177 293.235 65.1297 293.244V294C65.0177 294.009 64.929 294.014 64.8637 294.014C64.7983 294.023 64.7377 294.028 64.6817 294.028C64.495 294.009 64.3317 293.935 64.1917 293.804C64.061 293.673 63.991 293.515 63.9817 293.328L63.9537 292.348C63.6363 292.908 63.2023 293.347 62.6517 293.664C62.1103 293.981 61.5223 294.14 60.8877 294.14C60.1223 294.14 59.5437 293.874 59.1517 293.342C58.7597 292.81 58.5637 292.026 58.5637 290.99ZM78.0762 294H77.1242V289.926C77.1242 289.077 76.9888 288.451 76.7182 288.05C76.4475 287.649 76.0462 287.448 75.5142 287.448C74.9635 287.448 74.4688 287.644 74.0302 288.036C73.6008 288.428 73.2975 288.932 73.1202 289.548V294H72.1682V289.926C72.1682 289.067 72.0375 288.442 71.7762 288.05C71.5148 287.649 71.1135 287.448 70.5722 287.448C70.0308 287.448 69.5408 287.639 69.1022 288.022C68.6635 288.405 68.3555 288.909 68.1782 289.534V294H67.2262V286.706H68.0942V288.358C68.4022 287.789 68.7942 287.35 69.2702 287.042C69.7555 286.734 70.2922 286.58 70.8802 286.58C71.4868 286.58 71.9768 286.753 72.3502 287.098C72.7235 287.443 72.9522 287.896 73.0362 288.456C73.3722 287.84 73.7735 287.373 74.2402 287.056C74.7162 286.739 75.2528 286.58 75.8502 286.58C76.2608 286.58 76.6062 286.655 76.8862 286.804C77.1755 286.953 77.4042 287.168 77.5722 287.448C77.7495 287.719 77.8755 288.05 77.9502 288.442C78.0342 288.825 78.0762 289.254 78.0762 289.73V294ZM83.4794 294.14C82.9567 294.14 82.4714 294.042 82.0234 293.846C81.5847 293.641 81.2021 293.365 80.8754 293.02C80.5581 292.665 80.3107 292.264 80.1334 291.816C79.9561 291.359 79.8674 290.878 79.8674 290.374C79.8674 289.851 79.9561 289.366 80.1334 288.918C80.3107 288.461 80.5627 288.059 80.8894 287.714C81.2161 287.359 81.5987 287.084 82.0374 286.888C82.4854 286.683 82.9707 286.58 83.4934 286.58C84.0161 286.58 84.4967 286.683 84.9354 286.888C85.3741 287.084 85.7567 287.359 86.0834 287.714C86.4101 288.059 86.6621 288.461 86.8394 288.918C87.0167 289.366 87.1054 289.851 87.1054 290.374C87.1054 290.878 87.0167 291.359 86.8394 291.816C86.6621 292.264 86.4101 292.665 86.0834 293.02C85.7661 293.365 85.3834 293.641 84.9354 293.846C84.4967 294.042 84.0114 294.14 83.4794 294.14ZM80.8334 290.388C80.8334 290.929 80.9501 291.424 81.1834 291.872C81.4261 292.311 81.7481 292.661 82.1494 292.922C82.5507 293.174 82.9941 293.3 83.4794 293.3C83.9647 293.3 84.4081 293.169 84.8094 292.908C85.2107 292.647 85.5327 292.292 85.7754 291.844C86.0181 291.387 86.1394 290.892 86.1394 290.36C86.1394 289.819 86.0181 289.324 85.7754 288.876C85.5327 288.428 85.2107 288.073 84.8094 287.812C84.4081 287.551 83.9647 287.42 83.4794 287.42C82.9941 287.42 82.5507 287.555 82.1494 287.826C81.7574 288.097 81.4401 288.456 81.1974 288.904C80.9547 289.343 80.8334 289.837 80.8334 290.388ZM103.676 294H102.724V289.926C102.724 289.077 102.589 288.451 102.318 288.05C102.047 287.649 101.646 287.448 101.114 287.448C100.563 287.448 100.069 287.644 99.6299 288.036C99.2006 288.428 98.8973 288.932 98.7199 289.548V294H97.7679V289.926C97.7679 289.067 97.6373 288.442 97.3759 288.05C97.1146 287.649 96.7133 287.448 96.1719 287.448C95.6306 287.448 95.1406 287.639 94.7019 288.022C94.2633 288.405 93.9553 288.909 93.7779 289.534V294H92.8259V286.706H93.6939V288.358C94.0019 287.789 94.3939 287.35 94.8699 287.042C95.3553 286.734 95.8919 286.58 96.4799 286.58C97.0866 286.58 97.5766 286.753 97.9499 287.098C98.3233 287.443 98.5519 287.896 98.6359 288.456C98.9719 287.84 99.3733 287.373 99.8399 287.056C100.316 286.739 100.853 286.58 101.45 286.58C101.861 286.58 102.206 286.655 102.486 286.804C102.775 286.953 103.004 287.168 103.172 287.448C103.349 287.719 103.475 288.05 103.55 288.442C103.634 288.825 103.676 289.254 103.676 289.73V294ZM109.121 294.14C108.598 294.14 108.113 294.042 107.665 293.846C107.217 293.641 106.83 293.365 106.503 293.02C106.176 292.665 105.92 292.259 105.733 291.802C105.556 291.345 105.467 290.855 105.467 290.332C105.467 289.651 105.621 289.025 105.929 288.456C106.246 287.887 106.68 287.434 107.231 287.098C107.782 286.753 108.407 286.58 109.107 286.58C109.826 286.58 110.451 286.753 110.983 287.098C111.524 287.443 111.949 287.901 112.257 288.47C112.565 289.03 112.719 289.646 112.719 290.318C112.719 290.393 112.719 290.467 112.719 290.542C112.719 290.607 112.714 290.659 112.705 290.696H106.461C106.508 291.219 106.652 291.685 106.895 292.096C107.147 292.497 107.469 292.819 107.861 293.062C108.262 293.295 108.696 293.412 109.163 293.412C109.639 293.412 110.087 293.291 110.507 293.048C110.936 292.805 111.235 292.488 111.403 292.096L112.229 292.32C112.08 292.665 111.851 292.978 111.543 293.258C111.235 293.538 110.871 293.757 110.451 293.916C110.04 294.065 109.597 294.14 109.121 294.14ZM106.433 290.01H111.823C111.786 289.478 111.641 289.011 111.389 288.61C111.146 288.209 110.824 287.896 110.423 287.672C110.031 287.439 109.597 287.322 109.121 287.322C108.645 287.322 108.211 287.439 107.819 287.672C107.427 287.896 107.105 288.213 106.853 288.624C106.61 289.025 106.47 289.487 106.433 290.01ZM120.6 294H119.648V289.926C119.648 289.067 119.522 288.442 119.27 288.05C119.018 287.649 118.621 287.448 118.08 287.448C117.707 287.448 117.338 287.541 116.974 287.728C116.61 287.905 116.288 288.153 116.008 288.47C115.737 288.778 115.541 289.133 115.42 289.534V294H114.468V286.706H115.336V288.358C115.532 288.003 115.789 287.695 116.106 287.434C116.423 287.163 116.783 286.953 117.184 286.804C117.585 286.655 118.001 286.58 118.43 286.58C118.831 286.58 119.172 286.655 119.452 286.804C119.732 286.953 119.956 287.168 120.124 287.448C120.292 287.719 120.413 288.05 120.488 288.442C120.563 288.825 120.6 289.254 120.6 289.73V294ZM125.304 294.14C124.707 294.14 124.151 294.042 123.638 293.846C123.125 293.65 122.681 293.351 122.308 292.95L122.7 292.278C123.111 292.661 123.521 292.941 123.932 293.118C124.352 293.286 124.795 293.37 125.262 293.37C125.831 293.37 126.293 293.258 126.648 293.034C127.003 292.801 127.18 292.469 127.18 292.04C127.18 291.751 127.091 291.531 126.914 291.382C126.746 291.223 126.499 291.097 126.172 291.004C125.855 290.901 125.472 290.794 125.024 290.682C124.52 290.542 124.095 290.397 123.75 290.248C123.414 290.089 123.157 289.893 122.98 289.66C122.812 289.417 122.728 289.105 122.728 288.722C122.728 288.246 122.845 287.854 123.078 287.546C123.321 287.229 123.647 286.991 124.058 286.832C124.478 286.664 124.945 286.58 125.458 286.58C126.018 286.58 126.513 286.669 126.942 286.846C127.371 287.023 127.721 287.271 127.992 287.588L127.53 288.232C127.269 287.933 126.956 287.714 126.592 287.574C126.237 287.425 125.841 287.35 125.402 287.35C125.103 287.35 124.819 287.392 124.548 287.476C124.277 287.551 124.053 287.681 123.876 287.868C123.708 288.045 123.624 288.293 123.624 288.61C123.624 288.871 123.689 289.077 123.82 289.226C123.951 289.366 124.147 289.487 124.408 289.59C124.669 289.683 124.991 289.786 125.374 289.898C125.925 290.047 126.405 290.201 126.816 290.36C127.227 290.509 127.544 290.705 127.768 290.948C127.992 291.191 128.104 291.531 128.104 291.97C128.104 292.651 127.847 293.183 127.334 293.566C126.821 293.949 126.144 294.14 125.304 294.14ZM129.37 291.9C129.37 291.443 129.5 291.051 129.762 290.724C130.023 290.388 130.382 290.131 130.84 289.954C131.306 289.767 131.843 289.674 132.45 289.674C132.804 289.674 133.173 289.702 133.556 289.758C133.938 289.814 134.279 289.898 134.578 290.01V289.394C134.578 288.778 134.396 288.288 134.032 287.924C133.668 287.56 133.164 287.378 132.52 287.378C132.128 287.378 131.74 287.453 131.358 287.602C130.984 287.742 130.592 287.952 130.182 288.232L129.818 287.56C130.294 287.233 130.76 286.991 131.218 286.832C131.675 286.664 132.142 286.58 132.618 286.58C133.514 286.58 134.223 286.837 134.746 287.35C135.268 287.863 135.53 288.573 135.53 289.478V292.852C135.53 292.983 135.558 293.081 135.614 293.146C135.67 293.202 135.758 293.235 135.88 293.244V294C135.777 294.009 135.688 294.019 135.614 294.028C135.539 294.037 135.483 294.037 135.446 294.028C135.212 294.019 135.035 293.944 134.914 293.804C134.792 293.664 134.727 293.515 134.718 293.356L134.704 292.824C134.377 293.244 133.952 293.571 133.43 293.804C132.907 294.028 132.375 294.14 131.834 294.14C131.367 294.14 130.942 294.042 130.56 293.846C130.186 293.641 129.892 293.37 129.678 293.034C129.472 292.689 129.37 292.311 129.37 291.9ZM134.256 292.46C134.358 292.329 134.438 292.203 134.494 292.082C134.55 291.961 134.578 291.853 134.578 291.76V290.696C134.26 290.575 133.929 290.481 133.584 290.416C133.248 290.351 132.907 290.318 132.562 290.318C131.88 290.318 131.33 290.453 130.91 290.724C130.49 290.995 130.28 291.363 130.28 291.83C130.28 292.101 130.35 292.357 130.49 292.6C130.63 292.833 130.835 293.029 131.106 293.188C131.376 293.337 131.694 293.412 132.058 293.412C132.515 293.412 132.94 293.323 133.332 293.146C133.733 292.969 134.041 292.74 134.256 292.46ZM137.909 283.78H138.861V292.348C138.861 292.712 138.926 292.95 139.057 293.062C139.187 293.174 139.346 293.23 139.533 293.23C139.701 293.23 139.869 293.211 140.037 293.174C140.205 293.137 140.349 293.099 140.471 293.062L140.639 293.832C140.461 293.907 140.242 293.967 139.981 294.014C139.729 294.061 139.509 294.084 139.323 294.084C138.893 294.084 138.548 293.958 138.287 293.706C138.035 293.454 137.909 293.109 137.909 292.67V283.78Z" fill="#717171"/>
<g opacity="0.5">
<path d="M72.5391 67H374.315" stroke="#5A5A5A" stroke-dasharray="4 4"/>
<path d="M72.5391 99H374.315" stroke="#5A5A5A" stroke-dasharray="4 4"/>
<path d="M72.5391 131H374.315" stroke="#5A5A5A" stroke-dasharray="4 4"/>
<path d="M72.5391 164H374.315" stroke="#5A5A5A" stroke-dasharray="4 4"/>
</g>
<path d="M72.7949 156.5L111.295 158L150.795 115L191.295 112L227.795 82L265.795 107L305.295 132.5L344.795 126.5L382.295 82" stroke="#BA9932" stroke-width="3"/>
<circle cx="72.7949" cy="156" r="5.5" fill="#BA9932" stroke="#BA9932"/>
<circle cx="111.795" cy="158" r="5.5" fill="#BA9932" stroke="#BA9932"/>
<circle cx="150.795" cy="115" r="5.5" fill="#BA9932" stroke="#BA9932"/>
<circle cx="189.795" cy="112" r="5.5" fill="#BA9932" stroke="#BA9932"/>
<circle cx="227.795" cy="82" r="5.5" fill="#BA9932" stroke="#BA9932"/>
<circle cx="265.795" cy="107" r="5.5" fill="#BA9932" stroke="#BA9932"/>
<circle cx="304.795" cy="132" r="5.5" fill="#BA9932" stroke="#BA9932"/>
<circle cx="343.795" cy="126" r="5.5" fill="#BA9932" stroke="#BA9932"/>
<circle cx="382.795" cy="82" r="5.5" fill="#BA9932" stroke="#BA9932"/>
<path d="M42.8506 61.0332H42.96V62.1064H42.8506C42.1807 62.1064 41.6201 62.2158 41.1689 62.4346C40.7178 62.6488 40.36 62.9382 40.0957 63.3027C39.8314 63.6628 39.64 64.0684 39.5215 64.5195C39.4076 64.9707 39.3506 65.4287 39.3506 65.8936V67.3564C39.3506 67.7985 39.403 68.1904 39.5078 68.5322C39.6126 68.8695 39.7562 69.1543 39.9385 69.3867C40.1208 69.6191 40.3258 69.7946 40.5537 69.9131C40.7861 70.0316 41.0277 70.0908 41.2783 70.0908C41.57 70.0908 41.8298 70.0361 42.0576 69.9268C42.2855 69.8128 42.4769 69.6556 42.6318 69.4551C42.7913 69.25 42.9121 69.0085 42.9941 68.7305C43.0762 68.4525 43.1172 68.1471 43.1172 67.8145C43.1172 67.5182 43.0807 67.2334 43.0078 66.96C42.9349 66.682 42.8232 66.4359 42.6729 66.2217C42.5225 66.0029 42.3333 65.832 42.1055 65.709C41.8822 65.5814 41.6156 65.5176 41.3057 65.5176C40.9548 65.5176 40.6266 65.6042 40.3213 65.7773C40.0205 65.946 39.7721 66.1693 39.5762 66.4473C39.3848 66.7207 39.2754 67.0192 39.248 67.3428L38.5781 67.3359C38.6419 66.8255 38.7604 66.3903 38.9336 66.0303C39.1113 65.6657 39.3301 65.3695 39.5898 65.1416C39.8542 64.9092 40.1481 64.7406 40.4717 64.6357C40.7998 64.5264 41.1462 64.4717 41.5107 64.4717C42.0075 64.4717 42.4359 64.5651 42.7959 64.752C43.1559 64.9388 43.4521 65.1895 43.6846 65.5039C43.917 65.8138 44.0879 66.1647 44.1973 66.5566C44.3112 66.944 44.3682 67.3428 44.3682 67.7529C44.3682 68.2223 44.3021 68.6621 44.1699 69.0723C44.0378 69.4824 43.8395 69.8424 43.5752 70.1523C43.3154 70.4622 42.9941 70.7038 42.6113 70.877C42.2285 71.0501 41.7842 71.1367 41.2783 71.1367C40.7406 71.1367 40.2712 71.0273 39.8701 70.8086C39.4691 70.5853 39.1364 70.2891 38.8721 69.9199C38.6077 69.5508 38.4095 69.1406 38.2773 68.6895C38.1452 68.2383 38.0791 67.7803 38.0791 67.3154V66.7207C38.0791 66.0189 38.1497 65.3307 38.291 64.6562C38.4323 63.9818 38.6761 63.3711 39.0225 62.8242C39.3734 62.2773 39.8587 61.8421 40.4785 61.5186C41.0983 61.195 41.889 61.0332 42.8506 61.0332ZM52.1201 65.2305V66.748C52.1201 67.5638 52.0472 68.252 51.9014 68.8125C51.7555 69.373 51.5459 69.8242 51.2725 70.166C50.999 70.5078 50.6686 70.7562 50.2812 70.9111C49.8984 71.0615 49.4655 71.1367 48.9824 71.1367C48.5996 71.1367 48.2464 71.0889 47.9229 70.9932C47.5993 70.8975 47.3076 70.7448 47.0479 70.5352C46.7926 70.321 46.5739 70.043 46.3916 69.7012C46.2093 69.3594 46.0703 68.9447 45.9746 68.457C45.8789 67.9694 45.8311 67.3997 45.8311 66.748V65.2305C45.8311 64.4147 45.904 63.7311 46.0498 63.1797C46.2002 62.6283 46.4121 62.1862 46.6855 61.8535C46.959 61.5163 47.2871 61.2747 47.6699 61.1289C48.0573 60.9831 48.4902 60.9102 48.9688 60.9102C49.3561 60.9102 49.7116 60.958 50.0352 61.0537C50.3633 61.1449 50.6549 61.293 50.9102 61.498C51.1654 61.6986 51.3818 61.9674 51.5596 62.3047C51.7419 62.6374 51.8809 63.0452 51.9766 63.5283C52.0723 64.0114 52.1201 64.5788 52.1201 65.2305ZM50.8486 66.9531V65.0186C50.8486 64.5719 50.8213 64.18 50.7666 63.8428C50.7165 63.501 50.6413 63.2093 50.541 62.9678C50.4408 62.7262 50.3132 62.5303 50.1582 62.3799C50.0078 62.2295 49.8324 62.1201 49.6318 62.0518C49.4359 61.9788 49.2148 61.9424 48.9688 61.9424C48.668 61.9424 48.4014 61.9993 48.1689 62.1133C47.9365 62.2227 47.7406 62.3981 47.5811 62.6396C47.4261 62.8812 47.3076 63.1979 47.2256 63.5898C47.1436 63.9818 47.1025 64.458 47.1025 65.0186V66.9531C47.1025 67.3997 47.1276 67.7939 47.1777 68.1357C47.2324 68.4775 47.3122 68.7738 47.417 69.0244C47.5218 69.2705 47.6494 69.4733 47.7998 69.6328C47.9502 69.7923 48.1234 69.9108 48.3193 69.9883C48.5199 70.0612 48.7409 70.0977 48.9824 70.0977C49.2923 70.0977 49.5635 70.0384 49.7959 69.9199C50.0283 69.8014 50.222 69.6169 50.377 69.3662C50.5365 69.111 50.6549 68.7852 50.7324 68.3887C50.8099 67.9876 50.8486 67.5091 50.8486 66.9531ZM59.9951 65.2305V66.748C59.9951 67.5638 59.9222 68.252 59.7764 68.8125C59.6305 69.373 59.4209 69.8242 59.1475 70.166C58.874 70.5078 58.5436 70.7562 58.1562 70.9111C57.7734 71.0615 57.3405 71.1367 56.8574 71.1367C56.4746 71.1367 56.1214 71.0889 55.7979 70.9932C55.4743 70.8975 55.1826 70.7448 54.9229 70.5352C54.6676 70.321 54.4489 70.043 54.2666 69.7012C54.0843 69.3594 53.9453 68.9447 53.8496 68.457C53.7539 67.9694 53.7061 67.3997 53.7061 66.748V65.2305C53.7061 64.4147 53.779 63.7311 53.9248 63.1797C54.0752 62.6283 54.2871 62.1862 54.5605 61.8535C54.834 61.5163 55.1621 61.2747 55.5449 61.1289C55.9323 60.9831 56.3652 60.9102 56.8438 60.9102C57.2311 60.9102 57.5866 60.958 57.9102 61.0537C58.2383 61.1449 58.5299 61.293 58.7852 61.498C59.0404 61.6986 59.2568 61.9674 59.4346 62.3047C59.6169 62.6374 59.7559 63.0452 59.8516 63.5283C59.9473 64.0114 59.9951 64.5788 59.9951 65.2305ZM58.7236 66.9531V65.0186C58.7236 64.5719 58.6963 64.18 58.6416 63.8428C58.5915 63.501 58.5163 63.2093 58.416 62.9678C58.3158 62.7262 58.1882 62.5303 58.0332 62.3799C57.8828 62.2295 57.7074 62.1201 57.5068 62.0518C57.3109 61.9788 57.0898 61.9424 56.8438 61.9424C56.543 61.9424 56.2764 61.9993 56.0439 62.1133C55.8115 62.2227 55.6156 62.3981 55.4561 62.6396C55.3011 62.8812 55.1826 63.1979 55.1006 63.5898C55.0186 63.9818 54.9775 64.458 54.9775 65.0186V66.9531C54.9775 67.3997 55.0026 67.7939 55.0527 68.1357C55.1074 68.4775 55.1872 68.7738 55.292 69.0244C55.3968 69.2705 55.5244 69.4733 55.6748 69.6328C55.8252 69.7923 55.9984 69.9108 56.1943 69.9883C56.3949 70.0612 56.6159 70.0977 56.8574 70.0977C57.1673 70.0977 57.4385 70.0384 57.6709 69.9199C57.9033 69.8014 58.097 69.6169 58.252 69.3662C58.4115 69.111 58.5299 68.7852 58.6074 68.3887C58.6849 67.9876 58.7236 67.5091 58.7236 66.9531Z" fill="#5A5A5A"/>
<path d="M44.7236 99.6504V100.689H37.5322V99.9443L41.9893 93.0469H43.0215L41.9141 95.043L38.9678 99.6504H44.7236ZM43.3359 93.0469V103H42.0713V93.0469H43.3359ZM52.1201 97.2305V98.748C52.1201 99.5638 52.0472 100.252 51.9014 100.812C51.7555 101.373 51.5459 101.824 51.2725 102.166C50.999 102.508 50.6686 102.756 50.2812 102.911C49.8984 103.062 49.4655 103.137 48.9824 103.137C48.5996 103.137 48.2464 103.089 47.9229 102.993C47.5993 102.897 47.3076 102.745 47.0479 102.535C46.7926 102.321 46.5739 102.043 46.3916 101.701C46.2093 101.359 46.0703 100.945 45.9746 100.457C45.8789 99.9694 45.8311 99.3997 45.8311 98.748V97.2305C45.8311 96.4147 45.904 95.7311 46.0498 95.1797C46.2002 94.6283 46.4121 94.1862 46.6855 93.8535C46.959 93.5163 47.2871 93.2747 47.6699 93.1289C48.0573 92.9831 48.4902 92.9102 48.9688 92.9102C49.3561 92.9102 49.7116 92.958 50.0352 93.0537C50.3633 93.1449 50.6549 93.293 50.9102 93.498C51.1654 93.6986 51.3818 93.9674 51.5596 94.3047C51.7419 94.6374 51.8809 95.0452 51.9766 95.5283C52.0723 96.0114 52.1201 96.5788 52.1201 97.2305ZM50.8486 98.9531V97.0186C50.8486 96.5719 50.8213 96.18 50.7666 95.8428C50.7165 95.501 50.6413 95.2093 50.541 94.9678C50.4408 94.7262 50.3132 94.5303 50.1582 94.3799C50.0078 94.2295 49.8324 94.1201 49.6318 94.0518C49.4359 93.9788 49.2148 93.9424 48.9688 93.9424C48.668 93.9424 48.4014 93.9993 48.1689 94.1133C47.9365 94.2227 47.7406 94.3981 47.5811 94.6396C47.4261 94.8812 47.3076 95.1979 47.2256 95.5898C47.1436 95.9818 47.1025 96.458 47.1025 97.0186V98.9531C47.1025 99.3997 47.1276 99.7939 47.1777 100.136C47.2324 100.478 47.3122 100.774 47.417 101.024C47.5218 101.271 47.6494 101.473 47.7998 101.633C47.9502 101.792 48.1234 101.911 48.3193 101.988C48.5199 102.061 48.7409 102.098 48.9824 102.098C49.2923 102.098 49.5635 102.038 49.7959 101.92C50.0283 101.801 50.222 101.617 50.377 101.366C50.5365 101.111 50.6549 100.785 50.7324 100.389C50.8099 99.9876 50.8486 99.5091 50.8486 98.9531ZM59.9951 97.2305V98.748C59.9951 99.5638 59.9222 100.252 59.7764 100.812C59.6305 101.373 59.4209 101.824 59.1475 102.166C58.874 102.508 58.5436 102.756 58.1562 102.911C57.7734 103.062 57.3405 103.137 56.8574 103.137C56.4746 103.137 56.1214 103.089 55.7979 102.993C55.4743 102.897 55.1826 102.745 54.9229 102.535C54.6676 102.321 54.4489 102.043 54.2666 101.701C54.0843 101.359 53.9453 100.945 53.8496 100.457C53.7539 99.9694 53.7061 99.3997 53.7061 98.748V97.2305C53.7061 96.4147 53.779 95.7311 53.9248 95.1797C54.0752 94.6283 54.2871 94.1862 54.5605 93.8535C54.834 93.5163 55.1621 93.2747 55.5449 93.1289C55.9323 92.9831 56.3652 92.9102 56.8438 92.9102C57.2311 92.9102 57.5866 92.958 57.9102 93.0537C58.2383 93.1449 58.5299 93.293 58.7852 93.498C59.0404 93.6986 59.2568 93.9674 59.4346 94.3047C59.6169 94.6374 59.7559 95.0452 59.8516 95.5283C59.9473 96.0114 59.9951 96.5788 59.9951 97.2305ZM58.7236 98.9531V97.0186C58.7236 96.5719 58.6963 96.18 58.6416 95.8428C58.5915 95.501 58.5163 95.2093 58.416 94.9678C58.3158 94.7262 58.1882 94.5303 58.0332 94.3799C57.8828 94.2295 57.7074 94.1201 57.5068 94.0518C57.3109 93.9788 57.0898 93.9424 56.8438 93.9424C56.543 93.9424 56.2764 93.9993 56.0439 94.1133C55.8115 94.2227 55.6156 94.3981 55.4561 94.6396C55.3011 94.8812 55.1826 95.1979 55.1006 95.5898C55.0186 95.9818 54.9775 96.458 54.9775 97.0186V98.9531C54.9775 99.3997 55.0026 99.7939 55.0527 100.136C55.1074 100.478 55.1872 100.774 55.292 101.024C55.3968 101.271 55.5244 101.473 55.6748 101.633C55.8252 101.792 55.9984 101.911 56.1943 101.988C56.3949 102.061 56.6159 102.098 56.8574 102.098C57.1673 102.098 57.4385 102.038 57.6709 101.92C57.9033 101.801 58.097 101.617 58.252 101.366C58.4115 101.111 58.5299 100.785 58.6074 100.389C58.6849 99.9876 58.7236 99.5091 58.7236 98.9531Z" fill="#5A5A5A"/>
<path d="M44.5186 133.961V135H38.0039V134.091L41.2646 130.461C41.6657 130.014 41.9756 129.636 42.1943 129.326C42.4176 129.012 42.5726 128.731 42.6592 128.485C42.7503 128.235 42.7959 127.979 42.7959 127.72C42.7959 127.392 42.7275 127.095 42.5908 126.831C42.4587 126.562 42.2627 126.348 42.0029 126.188C41.7432 126.029 41.4287 125.949 41.0596 125.949C40.6175 125.949 40.2484 126.036 39.9521 126.209C39.6605 126.378 39.4417 126.615 39.2959 126.92C39.1501 127.225 39.0771 127.576 39.0771 127.973H37.8125C37.8125 127.412 37.9355 126.899 38.1816 126.435C38.4277 125.97 38.7923 125.601 39.2754 125.327C39.7585 125.049 40.3532 124.91 41.0596 124.91C41.6885 124.91 42.2262 125.022 42.6729 125.245C43.1195 125.464 43.4613 125.774 43.6982 126.175C43.9398 126.571 44.0605 127.036 44.0605 127.569C44.0605 127.861 44.0104 128.157 43.9102 128.458C43.8145 128.754 43.68 129.05 43.5068 129.347C43.3382 129.643 43.14 129.935 42.9121 130.222C42.6888 130.509 42.4495 130.791 42.1943 131.069L39.5283 133.961H44.5186ZM52.1201 129.23V130.748C52.1201 131.564 52.0472 132.252 51.9014 132.812C51.7555 133.373 51.5459 133.824 51.2725 134.166C50.999 134.508 50.6686 134.756 50.2812 134.911C49.8984 135.062 49.4655 135.137 48.9824 135.137C48.5996 135.137 48.2464 135.089 47.9229 134.993C47.5993 134.897 47.3076 134.745 47.0479 134.535C46.7926 134.321 46.5739 134.043 46.3916 133.701C46.2093 133.359 46.0703 132.945 45.9746 132.457C45.8789 131.969 45.8311 131.4 45.8311 130.748V129.23C45.8311 128.415 45.904 127.731 46.0498 127.18C46.2002 126.628 46.4121 126.186 46.6855 125.854C46.959 125.516 47.2871 125.275 47.6699 125.129C48.0573 124.983 48.4902 124.91 48.9688 124.91C49.3561 124.91 49.7116 124.958 50.0352 125.054C50.3633 125.145 50.6549 125.293 50.9102 125.498C51.1654 125.699 51.3818 125.967 51.5596 126.305C51.7419 126.637 51.8809 127.045 51.9766 127.528C52.0723 128.011 52.1201 128.579 52.1201 129.23ZM50.8486 130.953V129.019C50.8486 128.572 50.8213 128.18 50.7666 127.843C50.7165 127.501 50.6413 127.209 50.541 126.968C50.4408 126.726 50.3132 126.53 50.1582 126.38C50.0078 126.229 49.8324 126.12 49.6318 126.052C49.4359 125.979 49.2148 125.942 48.9688 125.942C48.668 125.942 48.4014 125.999 48.1689 126.113C47.9365 126.223 47.7406 126.398 47.5811 126.64C47.4261 126.881 47.3076 127.198 47.2256 127.59C47.1436 127.982 47.1025 128.458 47.1025 129.019V130.953C47.1025 131.4 47.1276 131.794 47.1777 132.136C47.2324 132.478 47.3122 132.774 47.417 133.024C47.5218 133.271 47.6494 133.473 47.7998 133.633C47.9502 133.792 48.1234 133.911 48.3193 133.988C48.5199 134.061 48.7409 134.098 48.9824 134.098C49.2923 134.098 49.5635 134.038 49.7959 133.92C50.0283 133.801 50.222 133.617 50.377 133.366C50.5365 133.111 50.6549 132.785 50.7324 132.389C50.8099 131.988 50.8486 131.509 50.8486 130.953ZM59.9951 129.23V130.748C59.9951 131.564 59.9222 132.252 59.7764 132.812C59.6305 133.373 59.4209 133.824 59.1475 134.166C58.874 134.508 58.5436 134.756 58.1562 134.911C57.7734 135.062 57.3405 135.137 56.8574 135.137C56.4746 135.137 56.1214 135.089 55.7979 134.993C55.4743 134.897 55.1826 134.745 54.9229 134.535C54.6676 134.321 54.4489 134.043 54.2666 133.701C54.0843 133.359 53.9453 132.945 53.8496 132.457C53.7539 131.969 53.7061 131.4 53.7061 130.748V129.23C53.7061 128.415 53.779 127.731 53.9248 127.18C54.0752 126.628 54.2871 126.186 54.5605 125.854C54.834 125.516 55.1621 125.275 55.5449 125.129C55.9323 124.983 56.3652 124.91 56.8438 124.91C57.2311 124.91 57.5866 124.958 57.9102 125.054C58.2383 125.145 58.5299 125.293 58.7852 125.498C59.0404 125.699 59.2568 125.967 59.4346 126.305C59.6169 126.637 59.7559 127.045 59.8516 127.528C59.9473 128.011 59.9951 128.579 59.9951 129.23ZM58.7236 130.953V129.019C58.7236 128.572 58.6963 128.18 58.6416 127.843C58.5915 127.501 58.5163 127.209 58.416 126.968C58.3158 126.726 58.1882 126.53 58.0332 126.38C57.8828 126.229 57.7074 126.12 57.5068 126.052C57.3109 125.979 57.0898 125.942 56.8438 125.942C56.543 125.942 56.2764 125.999 56.0439 126.113C55.8115 126.223 55.6156 126.398 55.4561 126.64C55.3011 126.881 55.1826 127.198 55.1006 127.59C55.0186 127.982 54.9775 128.458 54.9775 129.019V130.953C54.9775 131.4 55.0026 131.794 55.0527 132.136C55.1074 132.478 55.1872 132.774 55.292 133.024C55.3968 133.271 55.5244 133.473 55.6748 133.633C55.8252 133.792 55.9984 133.911 56.1943 133.988C56.3949 134.061 56.6159 134.098 56.8574 134.098C57.1673 134.098 57.4385 134.038 57.6709 133.92C57.9033 133.801 58.097 133.617 58.252 133.366C58.4115 133.111 58.5299 132.785 58.6074 132.389C58.6849 131.988 58.7236 131.509 58.7236 130.953Z" fill="#5A5A5A"/>
<path d="M59.8779 161.23V162.748C59.8779 163.564 59.805 164.252 59.6592 164.812C59.5133 165.373 59.3037 165.824 59.0303 166.166C58.7568 166.508 58.4264 166.756 58.0391 166.911C57.6562 167.062 57.2233 167.137 56.7402 167.137C56.3574 167.137 56.0042 167.089 55.6807 166.993C55.3571 166.897 55.0654 166.745 54.8057 166.535C54.5505 166.321 54.3317 166.043 54.1494 165.701C53.9671 165.359 53.8281 164.945 53.7324 164.457C53.6367 163.969 53.5889 163.4 53.5889 162.748V161.23C53.5889 160.415 53.6618 159.731 53.8076 159.18C53.958 158.628 54.1699 158.186 54.4434 157.854C54.7168 157.516 55.0449 157.275 55.4277 157.129C55.8151 156.983 56.248 156.91 56.7266 156.91C57.1139 156.91 57.4694 156.958 57.793 157.054C58.1211 157.145 58.4128 157.293 58.668 157.498C58.9232 157.699 59.1396 157.967 59.3174 158.305C59.4997 158.637 59.6387 159.045 59.7344 159.528C59.8301 160.011 59.8779 160.579 59.8779 161.23ZM58.6064 162.953V161.019C58.6064 160.572 58.5791 160.18 58.5244 159.843C58.4743 159.501 58.3991 159.209 58.2988 158.968C58.1986 158.726 58.071 158.53 57.916 158.38C57.7656 158.229 57.5902 158.12 57.3896 158.052C57.1937 157.979 56.9727 157.942 56.7266 157.942C56.4258 157.942 56.1592 157.999 55.9268 158.113C55.6943 158.223 55.4984 158.398 55.3389 158.64C55.1839 158.881 55.0654 159.198 54.9834 159.59C54.9014 159.982 54.8604 160.458 54.8604 161.019V162.953C54.8604 163.4 54.8854 163.794 54.9355 164.136C54.9902 164.478 55.07 164.774 55.1748 165.024C55.2796 165.271 55.4072 165.473 55.5576 165.633C55.708 165.792 55.8812 165.911 56.0771 165.988C56.2777 166.061 56.4987 166.098 56.7402 166.098C57.0501 166.098 57.3213 166.038 57.5537 165.92C57.7861 165.801 57.9798 165.617 58.1348 165.366C58.2943 165.111 58.4128 164.785 58.4902 164.389C58.5677 163.988 58.6064 163.509 58.6064 162.953Z" fill="#5A5A5A"/>
<path d="M65.5898 182.929L62.2949 192H60.9482L64.7422 182.047H65.6104L65.5898 182.929ZM68.3516 192L65.0498 182.929L65.0293 182.047H65.8975L69.7051 192H68.3516ZM68.1807 188.315V189.396H62.5889V188.315H68.1807ZM70.8398 181.5H72.1113V190.564L72.002 192H70.8398V181.5ZM77.1084 188.24V188.384C77.1084 188.922 77.0446 189.421 76.917 189.881C76.7894 190.337 76.6025 190.733 76.3564 191.07C76.1104 191.408 75.8096 191.67 75.4541 191.856C75.0986 192.043 74.6908 192.137 74.2305 192.137C73.7611 192.137 73.3486 192.057 72.9932 191.897C72.6423 191.733 72.346 191.499 72.1045 191.193C71.863 190.888 71.6693 190.519 71.5234 190.086C71.3822 189.653 71.2842 189.165 71.2295 188.623V187.994C71.2842 187.447 71.3822 186.957 71.5234 186.524C71.6693 186.091 71.863 185.722 72.1045 185.417C72.346 185.107 72.6423 184.872 72.9932 184.713C73.3441 184.549 73.752 184.467 74.2168 184.467C74.6816 184.467 75.0941 184.558 75.4541 184.74C75.8141 184.918 76.1149 185.173 76.3564 185.506C76.6025 185.839 76.7894 186.237 76.917 186.702C77.0446 187.162 77.1084 187.675 77.1084 188.24ZM75.8369 188.384V188.24C75.8369 187.871 75.8027 187.525 75.7344 187.201C75.666 186.873 75.5566 186.586 75.4062 186.34C75.2559 186.089 75.0576 185.893 74.8115 185.752C74.5654 185.606 74.2624 185.533 73.9023 185.533C73.5833 185.533 73.3053 185.588 73.0684 185.697C72.8359 185.807 72.6377 185.955 72.4736 186.142C72.3096 186.324 72.1751 186.534 72.0703 186.771C71.9701 187.003 71.8949 187.244 71.8447 187.495V189.143C71.9176 189.462 72.0361 189.769 72.2002 190.065C72.3688 190.357 72.5921 190.596 72.8701 190.783C73.1527 190.97 73.5013 191.063 73.916 191.063C74.2578 191.063 74.5495 190.995 74.791 190.858C75.0371 190.717 75.2354 190.523 75.3857 190.277C75.5407 190.031 75.6546 189.746 75.7275 189.423C75.8005 189.099 75.8369 188.753 75.8369 188.384ZM79.9727 185.766V192H78.708V184.604H79.9385L79.9727 185.766ZM82.2832 184.562L82.2764 185.738C82.1715 185.715 82.0713 185.702 81.9756 185.697C81.8844 185.688 81.7796 185.684 81.6611 185.684C81.3695 185.684 81.112 185.729 80.8887 185.82C80.6654 185.911 80.4762 186.039 80.3213 186.203C80.1663 186.367 80.0433 186.563 79.9521 186.791C79.8656 187.014 79.8086 187.26 79.7812 187.529L79.4258 187.734C79.4258 187.288 79.4691 186.868 79.5557 186.477C79.6468 186.085 79.7858 185.738 79.9727 185.438C80.1595 185.132 80.3965 184.895 80.6836 184.727C80.9753 184.553 81.3216 184.467 81.7227 184.467C81.8138 184.467 81.9186 184.478 82.0371 184.501C82.1556 184.519 82.2376 184.54 82.2832 184.562Z" fill="#5A5A5A"/>
<path d="M101.3 182.047H102.578L105.839 190.161L109.093 182.047H110.378L106.331 192H105.333L101.3 182.047ZM100.883 182.047H102.011L102.195 188.117V192H100.883V182.047ZM109.66 182.047H110.788V192H109.476V188.117L109.66 182.047ZM117.275 190.735V186.928C117.275 186.636 117.216 186.383 117.098 186.169C116.984 185.95 116.811 185.782 116.578 185.663C116.346 185.545 116.059 185.485 115.717 185.485C115.398 185.485 115.118 185.54 114.876 185.649C114.639 185.759 114.452 185.902 114.315 186.08C114.183 186.258 114.117 186.449 114.117 186.654H112.853C112.853 186.39 112.921 186.128 113.058 185.868C113.194 185.608 113.39 185.374 113.646 185.164C113.905 184.95 114.215 184.781 114.575 184.658C114.94 184.531 115.345 184.467 115.792 184.467C116.33 184.467 116.804 184.558 117.214 184.74C117.629 184.923 117.952 185.198 118.185 185.567C118.422 185.932 118.54 186.39 118.54 186.941V190.387C118.54 190.633 118.561 190.895 118.602 191.173C118.647 191.451 118.713 191.69 118.8 191.891V192H117.48C117.417 191.854 117.367 191.66 117.33 191.419C117.294 191.173 117.275 190.945 117.275 190.735ZM117.494 187.516L117.508 188.404H116.229C115.869 188.404 115.548 188.434 115.266 188.493C114.983 188.548 114.746 188.632 114.555 188.746C114.363 188.86 114.217 189.004 114.117 189.177C114.017 189.345 113.967 189.544 113.967 189.771C113.967 190.004 114.019 190.216 114.124 190.407C114.229 190.599 114.386 190.751 114.596 190.865C114.81 190.975 115.072 191.029 115.382 191.029C115.769 191.029 116.111 190.947 116.407 190.783C116.703 190.619 116.938 190.419 117.111 190.182C117.289 189.945 117.385 189.715 117.398 189.491L117.938 190.1C117.907 190.291 117.82 190.503 117.679 190.735C117.537 190.968 117.348 191.191 117.111 191.405C116.879 191.615 116.601 191.79 116.277 191.932C115.958 192.068 115.598 192.137 115.197 192.137C114.696 192.137 114.256 192.039 113.878 191.843C113.504 191.647 113.213 191.385 113.003 191.057C112.798 190.724 112.695 190.353 112.695 189.942C112.695 189.546 112.773 189.197 112.928 188.896C113.083 188.591 113.306 188.338 113.598 188.138C113.889 187.933 114.24 187.778 114.65 187.673C115.061 187.568 115.519 187.516 116.024 187.516H117.494ZM121.903 184.604V192H120.632V184.604H121.903ZM120.536 182.642C120.536 182.437 120.598 182.263 120.721 182.122C120.848 181.981 121.035 181.91 121.281 181.91C121.523 181.91 121.707 181.981 121.835 182.122C121.967 182.263 122.033 182.437 122.033 182.642C122.033 182.838 121.967 183.006 121.835 183.147C121.707 183.284 121.523 183.353 121.281 183.353C121.035 183.353 120.848 183.284 120.721 183.147C120.598 183.006 120.536 182.838 120.536 182.642Z" fill="#5A5A5A"/>
<path d="M144.779 189.095V182.047H146.092V189.095C146.092 189.751 145.957 190.305 145.688 190.756C145.42 191.207 145.048 191.551 144.574 191.788C144.105 192.021 143.565 192.137 142.954 192.137C142.343 192.137 141.801 192.032 141.327 191.822C140.853 191.613 140.482 191.294 140.213 190.865C139.944 190.437 139.81 189.897 139.81 189.245H141.129C141.129 189.664 141.206 190.008 141.361 190.277C141.516 190.546 141.73 190.744 142.004 190.872C142.282 191 142.599 191.063 142.954 191.063C143.3 191.063 143.61 190.991 143.884 190.845C144.162 190.694 144.381 190.473 144.54 190.182C144.7 189.885 144.779 189.523 144.779 189.095ZM152.661 190.291V184.604H153.933V192H152.723L152.661 190.291ZM152.9 188.732L153.427 188.719C153.427 189.211 153.374 189.667 153.27 190.086C153.169 190.501 153.005 190.861 152.777 191.166C152.549 191.471 152.251 191.711 151.882 191.884C151.513 192.052 151.064 192.137 150.535 192.137C150.175 192.137 149.845 192.084 149.544 191.979C149.248 191.875 148.993 191.713 148.778 191.494C148.564 191.275 148.398 190.991 148.279 190.64C148.165 190.289 148.108 189.867 148.108 189.375V184.604H149.373V189.389C149.373 189.721 149.41 189.997 149.482 190.216C149.56 190.43 149.662 190.601 149.79 190.729C149.922 190.852 150.068 190.938 150.228 190.988C150.392 191.038 150.56 191.063 150.733 191.063C151.271 191.063 151.697 190.961 152.012 190.756C152.326 190.546 152.552 190.266 152.688 189.915C152.83 189.56 152.9 189.165 152.9 188.732ZM157.125 186.183V192H155.86V184.604H157.057L157.125 186.183ZM156.824 188.021L156.298 188.001C156.302 187.495 156.378 187.028 156.523 186.6C156.669 186.167 156.874 185.791 157.139 185.472C157.403 185.153 157.717 184.907 158.082 184.733C158.451 184.556 158.859 184.467 159.306 184.467C159.67 184.467 159.998 184.517 160.29 184.617C160.582 184.713 160.83 184.868 161.035 185.082C161.245 185.296 161.404 185.574 161.514 185.916C161.623 186.253 161.678 186.666 161.678 187.153V192H160.406V187.14C160.406 186.752 160.349 186.442 160.235 186.21C160.121 185.973 159.955 185.802 159.736 185.697C159.518 185.588 159.249 185.533 158.93 185.533C158.615 185.533 158.328 185.599 158.068 185.731C157.813 185.864 157.592 186.046 157.405 186.278C157.223 186.511 157.079 186.777 156.975 187.078C156.874 187.374 156.824 187.689 156.824 188.021Z" fill="#5A5A5A"/>
<path d="M184.161 189.095V182.047H185.474V189.095C185.474 189.751 185.339 190.305 185.07 190.756C184.801 191.207 184.43 191.551 183.956 191.788C183.487 192.021 182.947 192.137 182.336 192.137C181.725 192.137 181.183 192.032 180.709 191.822C180.235 191.613 179.864 191.294 179.595 190.865C179.326 190.437 179.191 189.897 179.191 189.245H180.511C180.511 189.664 180.588 190.008 180.743 190.277C180.898 190.546 181.112 190.744 181.386 190.872C181.664 191 181.98 191.063 182.336 191.063C182.682 191.063 182.992 190.991 183.266 190.845C183.544 190.694 183.762 190.473 183.922 190.182C184.081 189.885 184.161 189.523 184.161 189.095ZM192.043 190.291V184.604H193.314V192H192.104L192.043 190.291ZM192.282 188.732L192.809 188.719C192.809 189.211 192.756 189.667 192.651 190.086C192.551 190.501 192.387 190.861 192.159 191.166C191.931 191.471 191.633 191.711 191.264 191.884C190.895 192.052 190.446 192.137 189.917 192.137C189.557 192.137 189.227 192.084 188.926 191.979C188.63 191.875 188.374 191.713 188.16 191.494C187.946 191.275 187.78 190.991 187.661 190.64C187.547 190.289 187.49 189.867 187.49 189.375V184.604H188.755V189.389C188.755 189.721 188.791 189.997 188.864 190.216C188.942 190.43 189.044 190.601 189.172 190.729C189.304 190.852 189.45 190.938 189.609 190.988C189.773 191.038 189.942 191.063 190.115 191.063C190.653 191.063 191.079 190.961 191.394 190.756C191.708 190.546 191.934 190.266 192.07 189.915C192.212 189.56 192.282 189.165 192.282 188.732ZM196.616 181.5V192H195.345V181.5H196.616Z" fill="#5A5A5A"/>
<path d="M217.357 182.929L214.062 192H212.716L216.51 182.047H217.378L217.357 182.929ZM220.119 192L216.817 182.929L216.797 182.047H217.665L221.473 192H220.119ZM219.948 188.315V189.396H214.356V188.315H219.948ZM227.406 184.604H228.555V191.843C228.555 192.494 228.423 193.05 228.158 193.511C227.894 193.971 227.525 194.32 227.051 194.557C226.581 194.798 226.039 194.919 225.424 194.919C225.169 194.919 224.868 194.878 224.521 194.796C224.18 194.718 223.842 194.584 223.51 194.393C223.182 194.206 222.906 193.953 222.683 193.634L223.346 192.882C223.656 193.256 223.979 193.515 224.316 193.661C224.658 193.807 224.995 193.88 225.328 193.88C225.729 193.88 226.076 193.805 226.367 193.654C226.659 193.504 226.884 193.281 227.044 192.984C227.208 192.693 227.29 192.333 227.29 191.904V186.23L227.406 184.604ZM222.313 188.384V188.24C222.313 187.675 222.38 187.162 222.512 186.702C222.648 186.237 222.842 185.839 223.093 185.506C223.348 185.173 223.656 184.918 224.016 184.74C224.376 184.558 224.781 184.467 225.232 184.467C225.697 184.467 226.103 184.549 226.449 184.713C226.8 184.872 227.096 185.107 227.338 185.417C227.584 185.722 227.778 186.091 227.919 186.524C228.06 186.957 228.158 187.447 228.213 187.994V188.623C228.163 189.165 228.065 189.653 227.919 190.086C227.778 190.519 227.584 190.888 227.338 191.193C227.096 191.499 226.8 191.733 226.449 191.897C226.098 192.057 225.688 192.137 225.219 192.137C224.777 192.137 224.376 192.043 224.016 191.856C223.66 191.67 223.355 191.408 223.1 191.07C222.844 190.733 222.648 190.337 222.512 189.881C222.38 189.421 222.313 188.922 222.313 188.384ZM223.578 188.24V188.384C223.578 188.753 223.615 189.099 223.688 189.423C223.765 189.746 223.881 190.031 224.036 190.277C224.196 190.523 224.398 190.717 224.645 190.858C224.891 190.995 225.185 191.063 225.526 191.063C225.946 191.063 226.292 190.975 226.565 190.797C226.839 190.619 227.055 190.384 227.215 190.093C227.379 189.801 227.507 189.484 227.598 189.143V187.495C227.548 187.244 227.47 187.003 227.365 186.771C227.265 186.534 227.133 186.324 226.969 186.142C226.809 185.955 226.611 185.807 226.374 185.697C226.137 185.588 225.859 185.533 225.54 185.533C225.194 185.533 224.895 185.606 224.645 185.752C224.398 185.893 224.196 186.089 224.036 186.34C223.881 186.586 223.765 186.873 223.688 187.201C223.615 187.525 223.578 187.871 223.578 188.24ZM230.141 188.384V188.227C230.141 187.693 230.218 187.199 230.373 186.743C230.528 186.283 230.751 185.884 231.043 185.547C231.335 185.205 231.688 184.941 232.103 184.754C232.517 184.562 232.982 184.467 233.497 184.467C234.017 184.467 234.484 184.562 234.898 184.754C235.318 184.941 235.673 185.205 235.965 185.547C236.261 185.884 236.487 186.283 236.642 186.743C236.797 187.199 236.874 187.693 236.874 188.227V188.384C236.874 188.917 236.797 189.411 236.642 189.867C236.487 190.323 236.261 190.722 235.965 191.063C235.673 191.401 235.32 191.665 234.905 191.856C234.495 192.043 234.03 192.137 233.511 192.137C232.991 192.137 232.524 192.043 232.109 191.856C231.695 191.665 231.339 191.401 231.043 191.063C230.751 190.722 230.528 190.323 230.373 189.867C230.218 189.411 230.141 188.917 230.141 188.384ZM231.405 188.227V188.384C231.405 188.753 231.449 189.102 231.535 189.43C231.622 189.753 231.752 190.04 231.925 190.291C232.103 190.542 232.324 190.74 232.588 190.886C232.852 191.027 233.16 191.098 233.511 191.098C233.857 191.098 234.16 191.027 234.42 190.886C234.684 190.74 234.903 190.542 235.076 190.291C235.249 190.04 235.379 189.753 235.466 189.43C235.557 189.102 235.603 188.753 235.603 188.384V188.227C235.603 187.862 235.557 187.518 235.466 187.194C235.379 186.866 235.247 186.577 235.069 186.326C234.896 186.071 234.677 185.87 234.413 185.725C234.153 185.579 233.848 185.506 233.497 185.506C233.151 185.506 232.845 185.579 232.581 185.725C232.321 185.87 232.103 186.071 231.925 186.326C231.752 186.577 231.622 186.866 231.535 187.194C231.449 187.518 231.405 187.862 231.405 188.227Z" fill="#5A5A5A"/>
<path d="M260.016 189.484C260.016 189.252 259.98 189.047 259.907 188.869C259.838 188.687 259.715 188.523 259.538 188.377C259.364 188.231 259.123 188.092 258.813 187.96C258.508 187.828 258.12 187.693 257.651 187.557C257.159 187.411 256.714 187.249 256.318 187.071C255.921 186.889 255.582 186.682 255.299 186.449C255.017 186.217 254.8 185.95 254.65 185.649C254.5 185.349 254.424 185.005 254.424 184.617C254.424 184.23 254.504 183.872 254.664 183.544C254.823 183.216 255.051 182.931 255.347 182.689C255.648 182.443 256.006 182.252 256.42 182.115C256.835 181.979 257.298 181.91 257.808 181.91C258.556 181.91 259.189 182.054 259.708 182.341C260.233 182.623 260.631 182.995 260.905 183.455C261.178 183.911 261.315 184.398 261.315 184.918H260.002C260.002 184.544 259.923 184.214 259.763 183.927C259.604 183.635 259.362 183.407 259.039 183.243C258.715 183.075 258.305 182.99 257.808 182.99C257.339 182.99 256.951 183.061 256.646 183.202C256.341 183.343 256.113 183.535 255.962 183.776C255.817 184.018 255.744 184.294 255.744 184.604C255.744 184.813 255.787 185.005 255.874 185.178C255.965 185.346 256.104 185.504 256.291 185.649C256.482 185.795 256.723 185.93 257.015 186.053C257.311 186.176 257.665 186.294 258.075 186.408C258.64 186.568 259.127 186.745 259.538 186.941C259.948 187.137 260.285 187.358 260.549 187.604C260.818 187.846 261.016 188.122 261.144 188.432C261.276 188.737 261.342 189.083 261.342 189.471C261.342 189.876 261.26 190.243 261.096 190.571C260.932 190.899 260.697 191.18 260.392 191.412C260.087 191.645 259.72 191.825 259.292 191.952C258.868 192.075 258.394 192.137 257.87 192.137C257.409 192.137 256.956 192.073 256.509 191.945C256.067 191.818 255.664 191.626 255.299 191.371C254.939 191.116 254.65 190.801 254.431 190.428C254.217 190.049 254.11 189.612 254.11 189.115H255.422C255.422 189.457 255.488 189.751 255.621 189.997C255.753 190.239 255.933 190.439 256.161 190.599C256.393 190.758 256.655 190.877 256.947 190.954C257.243 191.027 257.551 191.063 257.87 191.063C258.33 191.063 258.72 191 259.039 190.872C259.358 190.744 259.599 190.562 259.763 190.325C259.932 190.088 260.016 189.808 260.016 189.484ZM265.902 192.137C265.387 192.137 264.92 192.05 264.5 191.877C264.086 191.699 263.728 191.451 263.427 191.132C263.131 190.813 262.903 190.435 262.744 189.997C262.584 189.56 262.504 189.081 262.504 188.562V188.274C262.504 187.673 262.593 187.137 262.771 186.668C262.949 186.194 263.19 185.793 263.496 185.465C263.801 185.137 264.147 184.888 264.535 184.72C264.922 184.551 265.323 184.467 265.738 184.467C266.266 184.467 266.722 184.558 267.105 184.74C267.492 184.923 267.809 185.178 268.055 185.506C268.301 185.829 268.484 186.212 268.602 186.654C268.721 187.092 268.78 187.57 268.78 188.09V188.657H263.256V187.625H267.515V187.529C267.497 187.201 267.429 186.882 267.31 186.572C267.196 186.262 267.014 186.007 266.763 185.807C266.513 185.606 266.171 185.506 265.738 185.506C265.451 185.506 265.186 185.567 264.945 185.69C264.703 185.809 264.496 185.987 264.323 186.224C264.15 186.461 264.015 186.75 263.919 187.092C263.824 187.434 263.776 187.828 263.776 188.274V188.562C263.776 188.912 263.824 189.243 263.919 189.553C264.02 189.858 264.163 190.127 264.35 190.359C264.542 190.592 264.772 190.774 265.041 190.906C265.314 191.038 265.624 191.104 265.97 191.104C266.417 191.104 266.795 191.013 267.105 190.831C267.415 190.649 267.686 190.405 267.918 190.1L268.684 190.708C268.525 190.95 268.322 191.18 268.076 191.398C267.83 191.617 267.527 191.795 267.167 191.932C266.811 192.068 266.389 192.137 265.902 192.137ZM273.353 184.604V185.574H269.354V184.604H273.353ZM270.708 182.806H271.972V190.168C271.972 190.419 272.011 190.608 272.088 190.735C272.166 190.863 272.266 190.947 272.389 190.988C272.512 191.029 272.644 191.05 272.786 191.05C272.89 191.05 273 191.041 273.114 191.022C273.232 191 273.321 190.981 273.38 190.968L273.387 192C273.287 192.032 273.155 192.062 272.991 192.089C272.831 192.121 272.638 192.137 272.41 192.137C272.1 192.137 271.815 192.075 271.555 191.952C271.295 191.829 271.088 191.624 270.933 191.337C270.783 191.045 270.708 190.653 270.708 190.161V182.806Z" fill="#5A5A5A"/>
<path d="M298.775 186.709V187.338C298.775 188.085 298.682 188.755 298.495 189.348C298.308 189.94 298.039 190.444 297.688 190.858C297.338 191.273 296.916 191.59 296.424 191.809C295.936 192.027 295.389 192.137 294.783 192.137C294.195 192.137 293.655 192.027 293.163 191.809C292.675 191.59 292.252 191.273 291.892 190.858C291.536 190.444 291.26 189.94 291.064 189.348C290.868 188.755 290.771 188.085 290.771 187.338V186.709C290.771 185.962 290.866 185.294 291.058 184.706C291.254 184.114 291.529 183.61 291.885 183.195C292.24 182.776 292.662 182.457 293.149 182.238C293.642 182.02 294.182 181.91 294.77 181.91C295.376 181.91 295.923 182.02 296.41 182.238C296.902 182.457 297.324 182.776 297.675 183.195C298.03 183.61 298.301 184.114 298.488 184.706C298.68 185.294 298.775 185.962 298.775 186.709ZM297.47 187.338V186.695C297.47 186.103 297.408 185.579 297.285 185.123C297.167 184.667 296.991 184.285 296.759 183.975C296.526 183.665 296.242 183.43 295.904 183.271C295.572 183.111 295.193 183.031 294.77 183.031C294.359 183.031 293.988 183.111 293.655 183.271C293.327 183.43 293.045 183.665 292.808 183.975C292.575 184.285 292.395 184.667 292.268 185.123C292.14 185.579 292.076 186.103 292.076 186.695V187.338C292.076 187.935 292.14 188.464 292.268 188.924C292.395 189.38 292.577 189.765 292.814 190.079C293.056 190.389 293.341 190.624 293.669 190.783C294.002 190.943 294.373 191.022 294.783 191.022C295.212 191.022 295.592 190.943 295.925 190.783C296.257 190.624 296.538 190.389 296.766 190.079C296.998 189.765 297.174 189.38 297.292 188.924C297.41 188.464 297.47 187.935 297.47 187.338ZM305.085 190.291V184.604H306.356V192H305.146L305.085 190.291ZM305.324 188.732L305.851 188.719C305.851 189.211 305.798 189.667 305.693 190.086C305.593 190.501 305.429 190.861 305.201 191.166C304.973 191.471 304.675 191.711 304.306 191.884C303.937 192.052 303.488 192.137 302.959 192.137C302.599 192.137 302.269 192.084 301.968 191.979C301.672 191.875 301.416 191.713 301.202 191.494C300.988 191.275 300.822 190.991 300.703 190.64C300.589 190.289 300.532 189.867 300.532 189.375V184.604H301.797V189.389C301.797 189.721 301.833 189.997 301.906 190.216C301.984 190.43 302.086 190.601 302.214 190.729C302.346 190.852 302.492 190.938 302.651 190.988C302.815 191.038 302.984 191.063 303.157 191.063C303.695 191.063 304.121 190.961 304.436 190.756C304.75 190.546 304.976 190.266 305.112 189.915C305.254 189.56 305.324 189.165 305.324 188.732ZM311.381 184.604V185.574H307.382V184.604H311.381ZM308.735 182.806H310V190.168C310 190.419 310.039 190.608 310.116 190.735C310.194 190.863 310.294 190.947 310.417 190.988C310.54 191.029 310.672 191.05 310.813 191.05C310.918 191.05 311.028 191.041 311.142 191.022C311.26 191 311.349 190.981 311.408 190.968L311.415 192C311.315 192.032 311.183 192.062 311.019 192.089C310.859 192.121 310.665 192.137 310.438 192.137C310.128 192.137 309.843 192.075 309.583 191.952C309.323 191.829 309.116 191.624 308.961 191.337C308.811 191.045 308.735 190.653 308.735 190.161V182.806Z" fill="#5A5A5A"/>
<path d="M336.645 182.047V192H335.318L330.308 184.323V192H328.988V182.047H330.308L335.339 189.744V182.047H336.645ZM338.456 188.384V188.227C338.456 187.693 338.534 187.199 338.688 186.743C338.843 186.283 339.067 185.884 339.358 185.547C339.65 185.205 340.003 184.941 340.418 184.754C340.833 184.562 341.298 184.467 341.812 184.467C342.332 184.467 342.799 184.562 343.214 184.754C343.633 184.941 343.989 185.205 344.28 185.547C344.576 185.884 344.802 186.283 344.957 186.743C345.112 187.199 345.189 187.693 345.189 188.227V188.384C345.189 188.917 345.112 189.411 344.957 189.867C344.802 190.323 344.576 190.722 344.28 191.063C343.989 191.401 343.635 191.665 343.221 191.856C342.811 192.043 342.346 192.137 341.826 192.137C341.307 192.137 340.84 192.043 340.425 191.856C340.01 191.665 339.655 191.401 339.358 191.063C339.067 190.722 338.843 190.323 338.688 189.867C338.534 189.411 338.456 188.917 338.456 188.384ZM339.721 188.227V188.384C339.721 188.753 339.764 189.102 339.851 189.43C339.937 189.753 340.067 190.04 340.24 190.291C340.418 190.542 340.639 190.74 340.903 190.886C341.168 191.027 341.475 191.098 341.826 191.098C342.173 191.098 342.476 191.027 342.735 190.886C343 190.74 343.218 190.542 343.392 190.291C343.565 190.04 343.695 189.753 343.781 189.43C343.872 189.102 343.918 188.753 343.918 188.384V188.227C343.918 187.862 343.872 187.518 343.781 187.194C343.695 186.866 343.562 186.577 343.385 186.326C343.212 186.071 342.993 185.87 342.729 185.725C342.469 185.579 342.163 185.506 341.812 185.506C341.466 185.506 341.161 185.579 340.896 185.725C340.637 185.87 340.418 186.071 340.24 186.326C340.067 186.577 339.937 186.866 339.851 187.194C339.764 187.518 339.721 187.862 339.721 188.227ZM348.915 190.858L350.938 184.604H352.23L349.571 192H348.724L348.915 190.858ZM347.227 184.604L349.312 190.893L349.455 192H348.607L345.928 184.604H347.227Z" fill="#5A5A5A"/>
<path d="M370.436 192H368.357L368.371 190.927H370.436C371.146 190.927 371.739 190.779 372.213 190.482C372.687 190.182 373.042 189.762 373.279 189.225C373.521 188.682 373.642 188.049 373.642 187.324V186.716C373.642 186.146 373.573 185.64 373.437 185.198C373.3 184.752 373.099 184.376 372.835 184.07C372.571 183.76 372.247 183.526 371.864 183.366C371.486 183.207 371.051 183.127 370.559 183.127H368.316V182.047H370.559C371.21 182.047 371.805 182.156 372.343 182.375C372.881 182.589 373.343 182.901 373.73 183.312C374.122 183.717 374.423 184.209 374.633 184.788C374.842 185.362 374.947 186.009 374.947 186.729V187.324C374.947 188.044 374.842 188.694 374.633 189.272C374.423 189.847 374.12 190.337 373.724 190.742C373.332 191.148 372.858 191.46 372.302 191.679C371.75 191.893 371.128 192 370.436 192ZM369.062 182.047V192H367.742V182.047H369.062ZM379.808 192.137C379.293 192.137 378.826 192.05 378.406 191.877C377.992 191.699 377.634 191.451 377.333 191.132C377.037 190.813 376.809 190.435 376.649 189.997C376.49 189.56 376.41 189.081 376.41 188.562V188.274C376.41 187.673 376.499 187.137 376.677 186.668C376.854 186.194 377.096 185.793 377.401 185.465C377.707 185.137 378.053 184.888 378.44 184.72C378.828 184.551 379.229 184.467 379.644 184.467C380.172 184.467 380.628 184.558 381.011 184.74C381.398 184.923 381.715 185.178 381.961 185.506C382.207 185.829 382.389 186.212 382.508 186.654C382.626 187.092 382.686 187.57 382.686 188.09V188.657H377.162V187.625H381.421V187.529C381.403 187.201 381.334 186.882 381.216 186.572C381.102 186.262 380.92 186.007 380.669 185.807C380.418 185.606 380.076 185.506 379.644 185.506C379.356 185.506 379.092 185.567 378.851 185.69C378.609 185.809 378.402 185.987 378.229 186.224C378.055 186.461 377.921 186.75 377.825 187.092C377.729 187.434 377.682 187.828 377.682 188.274V188.562C377.682 188.912 377.729 189.243 377.825 189.553C377.925 189.858 378.069 190.127 378.256 190.359C378.447 190.592 378.677 190.774 378.946 190.906C379.22 191.038 379.53 191.104 379.876 191.104C380.323 191.104 380.701 191.013 381.011 190.831C381.321 190.649 381.592 190.405 381.824 190.1L382.59 190.708C382.43 190.95 382.228 191.18 381.981 191.398C381.735 191.617 381.432 191.795 381.072 191.932C380.717 192.068 380.295 192.137 379.808 192.137ZM389.672 190.961V192H384.292V190.961H389.672ZM389.474 185.499L384.579 192H383.807V191.07L388.667 184.604H389.474V185.499ZM388.913 184.604V185.649H383.861V184.604H388.913Z" fill="#5A5A5A"/>
<defs>
<filter id="filter0_ddd_70_3723" x="0" y="0" width="427" height="326" filterUnits="userSpaceOnUse" color-interpolation-filters="sRGB">
<feFlood flood-opacity="0" result="BackgroundImageFix"/>
<feColorMatrix in="SourceAlpha" type="matrix" values="0 0 0 0 0 0 0 0 0 0 0 0 0 0 0 0 0 0 127 0" result="hardAlpha"/>
<feOffset dy="1"/>
<feGaussianBlur stdDeviation="5"/>
<feColorMatrix type="matrix" values="0 0 0 0 0 0 0 0 0 0 0 0 0 0 0 0 0 0 0.12 0"/>
<feBlend mode="normal" in2="BackgroundImageFix" result="effect1_dropShadow_70_3723"/>
<feColorMatrix in="SourceAlpha" type="matrix" values="0 0 0 0 0 0 0 0 0 0 0 0 0 0 0 0 0 0 127 0" result="hardAlpha"/>
<feOffset dy="4"/>
<feGaussianBlur stdDeviation="2.5"/>
<feColorMatrix type="matrix" values="0 0 0 0 0 0 0 0 0 0 0 0 0 0 0 0 0 0 0.14 0"/>
<feBlend mode="normal" in2="effect1_dropShadow_70_3723" result="effect2_dropShadow_70_3723"/>
<feColorMatrix in="SourceAlpha" type="matrix" values="0 0 0 0 0 0 0 0 0 0 0 0 0 0 0 0 0 0 127 0" result="hardAlpha"/>
<feMorphology radius="1" operator="erode" in="SourceAlpha" result="effect3_dropShadow_70_3723"/>
<feOffset dy="2"/>
<feGaussianBlur stdDeviation="2"/>
<feColorMatrix type="matrix" values="0 0 0 0 0 0 0 0 0 0 0 0 0 0 0 0 0 0 0.2 0"/>
<feBlend mode="normal" in2="effect2_dropShadow_70_3723" result="effect3_dropShadow_70_3723"/>
<feBlend mode="normal" in="SourceGraphic" in2="effect3_dropShadow_70_3723" result="shape"/>
</filter>
</defs>
</svg>
