<svg width="427" height="326" viewBox="0 0 427 326" fill="none" xmlns="http://www.w3.org/2000/svg">
<g filter="url(#filter0_ddd_70_3724)">
<rect x="10" y="9" width="407" height="306" rx="4" fill="white"/>
</g>
<path d="M38.4478 262.058L42.2183 251.203H44.0552L39.3179 264H38.0083L38.4478 262.058ZM34.9233 251.203L38.6587 262.058L39.1245 264H37.8149L33.0864 251.203H34.9233ZM50.7349 262.374V257.479C50.7349 257.104 50.6587 256.778 50.5063 256.503C50.3599 256.222 50.1372 256.005 49.8384 255.853C49.5396 255.7 49.1704 255.624 48.731 255.624C48.3208 255.624 47.9604 255.694 47.6499 255.835C47.3452 255.976 47.105 256.16 46.9292 256.389C46.7593 256.617 46.6743 256.863 46.6743 257.127H45.0483C45.0483 256.787 45.1362 256.45 45.312 256.116C45.4878 255.782 45.7397 255.48 46.0679 255.211C46.4019 254.936 46.8003 254.719 47.2632 254.561C47.7319 254.396 48.2534 254.314 48.8276 254.314C49.519 254.314 50.1284 254.432 50.6558 254.666C51.189 254.9 51.605 255.255 51.9038 255.729C52.2085 256.198 52.3608 256.787 52.3608 257.496V261.926C52.3608 262.242 52.3872 262.579 52.4399 262.937C52.4985 263.294 52.5835 263.602 52.6948 263.859V264H50.9985C50.9165 263.812 50.8521 263.563 50.8052 263.253C50.7583 262.937 50.7349 262.644 50.7349 262.374ZM51.0161 258.234L51.0337 259.377H49.3901C48.9272 259.377 48.5142 259.415 48.1509 259.491C47.7876 259.562 47.4829 259.67 47.2368 259.816C46.9907 259.963 46.8032 260.147 46.6743 260.37C46.5454 260.587 46.481 260.842 46.481 261.135C46.481 261.434 46.5483 261.706 46.6831 261.952C46.8179 262.198 47.02 262.395 47.2896 262.541C47.5649 262.682 47.9019 262.752 48.3003 262.752C48.7983 262.752 49.2378 262.646 49.6187 262.436C49.9995 262.225 50.3013 261.967 50.5239 261.662C50.7524 261.357 50.8755 261.062 50.8931 260.774L51.5874 261.557C51.5464 261.803 51.4351 262.075 51.2534 262.374C51.0718 262.673 50.8286 262.96 50.5239 263.235C50.2251 263.505 49.8677 263.73 49.4517 263.912C49.0415 264.088 48.5786 264.176 48.063 264.176C47.4185 264.176 46.853 264.05 46.3667 263.798C45.8862 263.546 45.5112 263.209 45.2417 262.787C44.978 262.359 44.8462 261.882 44.8462 261.354C44.8462 260.845 44.9458 260.396 45.145 260.01C45.3442 259.617 45.6313 259.292 46.0063 259.034C46.3813 258.771 46.8325 258.571 47.3599 258.437C47.8872 258.302 48.4761 258.234 49.1265 258.234H51.0161ZM56.5444 255.984V264H54.9185V254.49H56.5005L56.5444 255.984ZM59.5151 254.438L59.5063 255.949C59.3716 255.92 59.2427 255.902 59.1196 255.896C59.0024 255.885 58.8677 255.879 58.7153 255.879C58.3403 255.879 58.0093 255.938 57.7222 256.055C57.4351 256.172 57.1919 256.336 56.9927 256.547C56.7935 256.758 56.6353 257.01 56.5181 257.303C56.4067 257.59 56.3335 257.906 56.2983 258.252L55.8413 258.516C55.8413 257.941 55.897 257.402 56.0083 256.898C56.1255 256.395 56.3042 255.949 56.5444 255.562C56.7847 255.17 57.0894 254.865 57.4585 254.648C57.8335 254.426 58.2788 254.314 58.7944 254.314C58.9116 254.314 59.0464 254.329 59.1987 254.358C59.3511 254.382 59.4565 254.408 59.5151 254.438ZM62.7847 254.49V264H61.1499V254.49H62.7847ZM61.0269 251.968C61.0269 251.704 61.106 251.481 61.2642 251.3C61.4282 251.118 61.6685 251.027 61.9849 251.027C62.2954 251.027 62.5327 251.118 62.6968 251.3C62.8667 251.481 62.9517 251.704 62.9517 251.968C62.9517 252.22 62.8667 252.437 62.6968 252.618C62.5327 252.794 62.2954 252.882 61.9849 252.882C61.6685 252.882 61.4282 252.794 61.2642 252.618C61.106 252.437 61.0269 252.22 61.0269 251.968ZM71.0024 262.374V257.479C71.0024 257.104 70.9263 256.778 70.7739 256.503C70.6274 256.222 70.4048 256.005 70.106 255.853C69.8071 255.7 69.438 255.624 68.9985 255.624C68.5884 255.624 68.228 255.694 67.9175 255.835C67.6128 255.976 67.3726 256.16 67.1968 256.389C67.0269 256.617 66.9419 256.863 66.9419 257.127H65.3159C65.3159 256.787 65.4038 256.45 65.5796 256.116C65.7554 255.782 66.0073 255.48 66.3354 255.211C66.6694 254.936 67.0679 254.719 67.5308 254.561C67.9995 254.396 68.521 254.314 69.0952 254.314C69.7866 254.314 70.396 254.432 70.9233 254.666C71.4565 254.9 71.8726 255.255 72.1714 255.729C72.4761 256.198 72.6284 256.787 72.6284 257.496V261.926C72.6284 262.242 72.6548 262.579 72.7075 262.937C72.7661 263.294 72.8511 263.602 72.9624 263.859V264H71.2661C71.1841 263.812 71.1196 263.563 71.0728 263.253C71.0259 262.937 71.0024 262.644 71.0024 262.374ZM71.2837 258.234L71.3013 259.377H69.6577C69.1948 259.377 68.7817 259.415 68.4185 259.491C68.0552 259.562 67.7505 259.67 67.5044 259.816C67.2583 259.963 67.0708 260.147 66.9419 260.37C66.813 260.587 66.7485 260.842 66.7485 261.135C66.7485 261.434 66.8159 261.706 66.9507 261.952C67.0854 262.198 67.2876 262.395 67.5571 262.541C67.8325 262.682 68.1694 262.752 68.5679 262.752C69.0659 262.752 69.5054 262.646 69.8862 262.436C70.2671 262.225 70.5688 261.967 70.7915 261.662C71.02 261.357 71.1431 261.062 71.1606 260.774L71.855 261.557C71.814 261.803 71.7026 262.075 71.521 262.374C71.3394 262.673 71.0962 262.96 70.7915 263.235C70.4927 263.505 70.1353 263.73 69.7192 263.912C69.3091 264.088 68.8462 264.176 68.3306 264.176C67.686 264.176 67.1206 264.05 66.6343 263.798C66.1538 263.546 65.7788 263.209 65.5093 262.787C65.2456 262.359 65.1138 261.882 65.1138 261.354C65.1138 260.845 65.2134 260.396 65.4126 260.01C65.6118 259.617 65.8989 259.292 66.2739 259.034C66.6489 258.771 67.1001 258.571 67.6274 258.437C68.1548 258.302 68.7437 258.234 69.394 258.234H71.2837ZM78.9917 262.84C79.3784 262.84 79.7358 262.761 80.064 262.603C80.3921 262.444 80.6616 262.228 80.8726 261.952C81.0835 261.671 81.2036 261.352 81.2329 260.994H82.7798C82.7505 261.557 82.5601 262.081 82.2085 262.567C81.8628 263.048 81.4087 263.438 80.8462 263.736C80.2837 264.029 79.6655 264.176 78.9917 264.176C78.2769 264.176 77.6528 264.05 77.1196 263.798C76.5923 263.546 76.1528 263.2 75.8013 262.761C75.4556 262.321 75.1948 261.817 75.019 261.249C74.8491 260.675 74.7642 260.068 74.7642 259.43V259.061C74.7642 258.422 74.8491 257.818 75.019 257.25C75.1948 256.676 75.4556 256.169 75.8013 255.729C76.1528 255.29 76.5923 254.944 77.1196 254.692C77.6528 254.44 78.2769 254.314 78.9917 254.314C79.7358 254.314 80.3862 254.467 80.9429 254.771C81.4995 255.07 81.936 255.48 82.2524 256.002C82.5747 256.518 82.7505 257.104 82.7798 257.76H81.2329C81.2036 257.367 81.0923 257.013 80.8989 256.696C80.7114 256.38 80.4536 256.128 80.1255 255.94C79.8032 255.747 79.4253 255.65 78.9917 255.65C78.4937 255.65 78.0747 255.75 77.7349 255.949C77.4009 256.143 77.1343 256.406 76.9351 256.74C76.7417 257.068 76.6011 257.435 76.5132 257.839C76.4312 258.237 76.3901 258.645 76.3901 259.061V259.43C76.3901 259.846 76.4312 260.256 76.5132 260.66C76.5952 261.064 76.7329 261.431 76.9263 261.759C77.1255 262.087 77.3921 262.351 77.7261 262.55C78.0659 262.743 78.4878 262.84 78.9917 262.84ZM78.0952 264.088H79.2642L79.1587 264.554C79.4985 264.612 79.8062 264.753 80.0815 264.976C80.3628 265.198 80.5034 265.564 80.5034 266.074C80.5034 266.35 80.4448 266.599 80.3276 266.821C80.2163 267.05 80.0493 267.243 79.8267 267.401C79.604 267.565 79.3257 267.691 78.9917 267.779C78.6636 267.867 78.2798 267.911 77.8403 267.911L77.7788 266.971C78.0483 266.971 78.2915 266.941 78.5083 266.883C78.731 266.824 78.9067 266.73 79.0356 266.602C79.1704 266.473 79.2378 266.306 79.2378 266.101C79.2378 265.907 79.188 265.755 79.0884 265.644C78.9888 265.532 78.8335 265.447 78.6226 265.389C78.4175 265.336 78.1509 265.298 77.8228 265.274L78.0952 264.088ZM90.2153 262.374V257.479C90.2153 257.104 90.1392 256.778 89.9868 256.503C89.8403 256.222 89.6177 256.005 89.3188 255.853C89.02 255.7 88.6509 255.624 88.2114 255.624C87.8013 255.624 87.4409 255.694 87.1304 255.835C86.8257 255.976 86.5854 256.16 86.4097 256.389C86.2397 256.617 86.1548 256.863 86.1548 257.127H84.5288C84.5288 256.787 84.6167 256.45 84.7925 256.116C84.9683 255.782 85.2202 255.48 85.5483 255.211C85.8823 254.936 86.2808 254.719 86.7437 254.561C87.2124 254.396 87.7339 254.314 88.3081 254.314C88.9995 254.314 89.6089 254.432 90.1362 254.666C90.6694 254.9 91.0854 255.255 91.3843 255.729C91.689 256.198 91.8413 256.787 91.8413 257.496V261.926C91.8413 262.242 91.8677 262.579 91.9204 262.937C91.979 263.294 92.064 263.602 92.1753 263.859V264H90.479C90.397 263.812 90.3325 263.563 90.2856 263.253C90.2388 262.937 90.2153 262.644 90.2153 262.374ZM90.4966 258.234L90.5142 259.377H88.8706C88.4077 259.377 87.9946 259.415 87.6313 259.491C87.2681 259.562 86.9634 259.67 86.7173 259.816C86.4712 259.963 86.2837 260.147 86.1548 260.37C86.0259 260.587 85.9614 260.842 85.9614 261.135C85.9614 261.434 86.0288 261.706 86.1636 261.952C86.2983 262.198 86.5005 262.395 86.77 262.541C87.0454 262.682 87.3823 262.752 87.7808 262.752C88.2788 262.752 88.7183 262.646 89.0991 262.436C89.48 262.225 89.7817 261.967 90.0044 261.662C90.2329 261.357 90.356 261.062 90.3735 260.774L91.0679 261.557C91.0269 261.803 90.9155 262.075 90.7339 262.374C90.5522 262.673 90.3091 262.96 90.0044 263.235C89.7056 263.505 89.3481 263.73 88.9321 263.912C88.522 264.088 88.0591 264.176 87.5435 264.176C86.8989 264.176 86.3335 264.05 85.8472 263.798C85.3667 263.546 84.9917 263.209 84.7222 262.787C84.4585 262.359 84.3267 261.882 84.3267 261.354C84.3267 260.845 84.4263 260.396 84.6255 260.01C84.8247 259.617 85.1118 259.292 85.4868 259.034C85.8618 258.771 86.313 258.571 86.8403 258.437C87.3677 258.302 87.9565 258.234 88.6069 258.234H90.4966ZM90.5054 250.676L91.604 250.772C91.604 251.2 91.519 251.575 91.3491 251.897C91.1792 252.22 90.9507 252.469 90.6636 252.645C90.3823 252.82 90.063 252.908 89.7056 252.908C89.4067 252.908 89.1606 252.867 88.9673 252.785C88.7739 252.697 88.6011 252.601 88.4487 252.495C88.2964 252.384 88.1353 252.287 87.9653 252.205C87.8013 252.117 87.5962 252.073 87.3501 252.073C87.104 252.073 86.896 252.167 86.7261 252.354C86.562 252.542 86.48 252.773 86.48 253.049L85.3813 252.996C85.3813 252.568 85.4634 252.193 85.6274 251.871C85.7974 251.543 86.0259 251.288 86.313 251.106C86.6001 250.919 86.9194 250.825 87.271 250.825C87.5229 250.825 87.7427 250.869 87.9302 250.957C88.1235 251.039 88.3052 251.136 88.4751 251.247C88.645 251.353 88.8208 251.449 89.0024 251.537C89.1841 251.619 89.3921 251.66 89.6265 251.66C89.8726 251.66 90.0806 251.566 90.2505 251.379C90.4204 251.186 90.5054 250.951 90.5054 250.676ZM93.9683 259.351V259.148C93.9683 258.463 94.0679 257.827 94.2671 257.241C94.4663 256.649 94.7534 256.137 95.1284 255.703C95.5034 255.264 95.9575 254.924 96.4907 254.684C97.0239 254.438 97.6216 254.314 98.2837 254.314C98.9517 254.314 99.5522 254.438 100.085 254.684C100.625 254.924 101.082 255.264 101.457 255.703C101.837 256.137 102.127 256.649 102.327 257.241C102.526 257.827 102.625 258.463 102.625 259.148V259.351C102.625 260.036 102.526 260.672 102.327 261.258C102.127 261.844 101.837 262.356 101.457 262.796C101.082 263.229 100.627 263.569 100.094 263.815C99.5669 264.056 98.9692 264.176 98.3013 264.176C97.6333 264.176 97.0327 264.056 96.4995 263.815C95.9663 263.569 95.5093 263.229 95.1284 262.796C94.7534 262.356 94.4663 261.844 94.2671 261.258C94.0679 260.672 93.9683 260.036 93.9683 259.351ZM95.5942 259.148V259.351C95.5942 259.825 95.6499 260.273 95.7612 260.695C95.8726 261.111 96.0396 261.48 96.2622 261.803C96.4907 262.125 96.7749 262.38 97.1147 262.567C97.4546 262.749 97.8501 262.84 98.3013 262.84C98.7466 262.84 99.1362 262.749 99.4702 262.567C99.8101 262.38 100.091 262.125 100.314 261.803C100.537 261.48 100.704 261.111 100.815 260.695C100.932 260.273 100.991 259.825 100.991 259.351V259.148C100.991 258.68 100.932 258.237 100.815 257.821C100.704 257.399 100.534 257.027 100.305 256.705C100.083 256.377 99.8013 256.119 99.4614 255.932C99.1274 255.744 98.7349 255.65 98.2837 255.65C97.8384 255.65 97.4458 255.744 97.106 255.932C96.772 256.119 96.4907 256.377 96.2622 256.705C96.0396 257.027 95.8726 257.399 95.7612 257.821C95.6499 258.237 95.5942 258.68 95.5942 259.148ZM114.667 261.478C114.667 261.243 114.614 261.026 114.508 260.827C114.409 260.622 114.201 260.438 113.884 260.273C113.574 260.104 113.105 259.957 112.478 259.834C111.951 259.723 111.473 259.591 111.045 259.438C110.624 259.286 110.263 259.102 109.964 258.885C109.671 258.668 109.446 258.413 109.288 258.12C109.129 257.827 109.05 257.484 109.05 257.092C109.05 256.717 109.132 256.362 109.296 256.028C109.466 255.694 109.704 255.398 110.008 255.141C110.319 254.883 110.691 254.681 111.125 254.534C111.558 254.388 112.042 254.314 112.575 254.314C113.336 254.314 113.987 254.449 114.526 254.719C115.065 254.988 115.478 255.349 115.765 255.8C116.052 256.245 116.196 256.74 116.196 257.285H114.57C114.57 257.021 114.491 256.767 114.333 256.521C114.18 256.269 113.955 256.061 113.656 255.896C113.363 255.732 113.002 255.65 112.575 255.65C112.124 255.65 111.757 255.721 111.476 255.861C111.201 255.996 110.999 256.169 110.87 256.38C110.747 256.591 110.685 256.813 110.685 257.048C110.685 257.224 110.714 257.382 110.773 257.522C110.837 257.657 110.949 257.783 111.107 257.9C111.265 258.012 111.488 258.117 111.775 258.217C112.062 258.316 112.428 258.416 112.874 258.516C113.653 258.691 114.294 258.902 114.798 259.148C115.302 259.395 115.677 259.696 115.923 260.054C116.169 260.411 116.292 260.845 116.292 261.354C116.292 261.771 116.205 262.151 116.029 262.497C115.859 262.843 115.61 263.142 115.282 263.394C114.959 263.64 114.573 263.833 114.122 263.974C113.676 264.108 113.175 264.176 112.619 264.176C111.781 264.176 111.072 264.026 110.492 263.728C109.912 263.429 109.472 263.042 109.173 262.567C108.875 262.093 108.725 261.592 108.725 261.064H110.36C110.383 261.51 110.512 261.864 110.747 262.128C110.981 262.386 111.268 262.57 111.608 262.682C111.948 262.787 112.285 262.84 112.619 262.84C113.064 262.84 113.436 262.781 113.735 262.664C114.04 262.547 114.271 262.386 114.429 262.181C114.587 261.976 114.667 261.741 114.667 261.478ZM122.375 264.176C121.712 264.176 121.112 264.064 120.573 263.842C120.04 263.613 119.58 263.294 119.193 262.884C118.812 262.474 118.519 261.987 118.314 261.425C118.109 260.862 118.006 260.247 118.006 259.579V259.21C118.006 258.437 118.121 257.748 118.349 257.145C118.578 256.535 118.888 256.02 119.281 255.598C119.673 255.176 120.119 254.856 120.617 254.64C121.115 254.423 121.63 254.314 122.164 254.314C122.843 254.314 123.429 254.432 123.921 254.666C124.419 254.9 124.827 255.229 125.143 255.65C125.459 256.066 125.694 256.559 125.846 257.127C125.999 257.689 126.075 258.305 126.075 258.973V259.702H118.973V258.375H124.449V258.252C124.425 257.83 124.337 257.42 124.185 257.021C124.039 256.623 123.804 256.295 123.482 256.037C123.16 255.779 122.72 255.65 122.164 255.65C121.794 255.65 121.455 255.729 121.144 255.888C120.833 256.04 120.567 256.269 120.344 256.573C120.122 256.878 119.949 257.25 119.826 257.689C119.703 258.129 119.641 258.636 119.641 259.21V259.579C119.641 260.03 119.703 260.455 119.826 260.854C119.955 261.246 120.139 261.592 120.379 261.891C120.625 262.189 120.921 262.424 121.267 262.594C121.619 262.764 122.017 262.849 122.462 262.849C123.037 262.849 123.523 262.731 123.921 262.497C124.32 262.263 124.668 261.949 124.967 261.557L125.952 262.339C125.747 262.649 125.486 262.945 125.169 263.227C124.853 263.508 124.463 263.736 124 263.912C123.543 264.088 123.001 264.176 122.375 264.176ZM129.59 256.38V264H127.956V254.49H129.502L129.59 256.38ZM129.256 258.885L128.5 258.858C128.506 258.208 128.591 257.607 128.755 257.057C128.919 256.5 129.163 256.017 129.485 255.606C129.807 255.196 130.208 254.88 130.689 254.657C131.169 254.429 131.726 254.314 132.359 254.314C132.804 254.314 133.214 254.379 133.589 254.508C133.964 254.631 134.29 254.827 134.565 255.097C134.84 255.366 135.054 255.712 135.207 256.134C135.359 256.556 135.435 257.065 135.435 257.663V264H133.809V257.742C133.809 257.244 133.724 256.846 133.554 256.547C133.39 256.248 133.156 256.031 132.851 255.896C132.546 255.756 132.189 255.686 131.779 255.686C131.298 255.686 130.897 255.771 130.575 255.94C130.252 256.11 129.995 256.345 129.801 256.644C129.608 256.942 129.467 257.285 129.379 257.672C129.297 258.053 129.256 258.457 129.256 258.885ZM135.417 257.988L134.328 258.322C134.333 257.801 134.418 257.3 134.583 256.819C134.752 256.339 134.996 255.911 135.312 255.536C135.634 255.161 136.03 254.865 136.499 254.648C136.967 254.426 137.503 254.314 138.107 254.314C138.617 254.314 139.068 254.382 139.46 254.517C139.859 254.651 140.193 254.859 140.462 255.141C140.738 255.416 140.946 255.771 141.086 256.204C141.227 256.638 141.297 257.153 141.297 257.751V264H139.663V257.733C139.663 257.2 139.578 256.787 139.408 256.494C139.244 256.195 139.009 255.987 138.705 255.87C138.406 255.747 138.048 255.686 137.632 255.686C137.275 255.686 136.958 255.747 136.683 255.87C136.408 255.993 136.176 256.163 135.989 256.38C135.801 256.591 135.658 256.834 135.558 257.109C135.464 257.385 135.417 257.678 135.417 257.988ZM149.366 262.374V257.479C149.366 257.104 149.29 256.778 149.137 256.503C148.991 256.222 148.768 256.005 148.469 255.853C148.17 255.7 147.801 255.624 147.362 255.624C146.952 255.624 146.591 255.694 146.281 255.835C145.976 255.976 145.736 256.16 145.56 256.389C145.39 256.617 145.305 256.863 145.305 257.127H143.679C143.679 256.787 143.767 256.45 143.943 256.116C144.119 255.782 144.371 255.48 144.699 255.211C145.033 254.936 145.431 254.719 145.894 254.561C146.363 254.396 146.884 254.314 147.458 254.314C148.15 254.314 148.759 254.432 149.287 254.666C149.82 254.9 150.236 255.255 150.535 255.729C150.839 256.198 150.992 256.787 150.992 257.496V261.926C150.992 262.242 151.018 262.579 151.071 262.937C151.129 263.294 151.214 263.602 151.326 263.859V264H149.629C149.547 263.812 149.483 263.563 149.436 263.253C149.389 262.937 149.366 262.644 149.366 262.374ZM149.647 258.234L149.665 259.377H148.021C147.558 259.377 147.145 259.415 146.782 259.491C146.418 259.562 146.114 259.67 145.868 259.816C145.622 259.963 145.434 260.147 145.305 260.37C145.176 260.587 145.112 260.842 145.112 261.135C145.112 261.434 145.179 261.706 145.314 261.952C145.449 262.198 145.651 262.395 145.92 262.541C146.196 262.682 146.533 262.752 146.931 262.752C147.429 262.752 147.869 262.646 148.25 262.436C148.63 262.225 148.932 261.967 149.155 261.662C149.383 261.357 149.506 261.062 149.524 260.774L150.218 261.557C150.177 261.803 150.066 262.075 149.884 262.374C149.703 262.673 149.459 262.96 149.155 263.235C148.856 263.505 148.499 263.73 148.083 263.912C147.672 264.088 147.209 264.176 146.694 264.176C146.049 264.176 145.484 264.05 144.998 263.798C144.517 263.546 144.142 263.209 143.873 262.787C143.609 262.359 143.477 261.882 143.477 261.354C143.477 260.845 143.577 260.396 143.776 260.01C143.975 259.617 144.262 259.292 144.637 259.034C145.012 258.771 145.463 258.571 145.991 258.437C146.518 258.302 147.107 258.234 147.757 258.234H149.647ZM155.175 256.521V264H153.549V254.49H155.087L155.175 256.521ZM154.789 258.885L154.112 258.858C154.118 258.208 154.214 257.607 154.402 257.057C154.589 256.5 154.853 256.017 155.193 255.606C155.533 255.196 155.937 254.88 156.406 254.657C156.88 254.429 157.405 254.314 157.979 254.314C158.448 254.314 158.87 254.379 159.245 254.508C159.62 254.631 159.939 254.83 160.203 255.105C160.472 255.381 160.677 255.738 160.818 256.178C160.958 256.611 161.029 257.142 161.029 257.769V264H159.394V257.751C159.394 257.253 159.321 256.854 159.174 256.556C159.028 256.251 158.814 256.031 158.533 255.896C158.251 255.756 157.906 255.686 157.496 255.686C157.091 255.686 156.722 255.771 156.388 255.94C156.06 256.11 155.776 256.345 155.536 256.644C155.301 256.942 155.117 257.285 154.982 257.672C154.853 258.053 154.789 258.457 154.789 258.885ZM169.106 262.374V257.479C169.106 257.104 169.03 256.778 168.877 256.503C168.731 256.222 168.508 256.005 168.209 255.853C167.911 255.7 167.542 255.624 167.102 255.624C166.692 255.624 166.332 255.694 166.021 255.835C165.716 255.976 165.476 256.16 165.3 256.389C165.13 256.617 165.045 256.863 165.045 257.127H163.419C163.419 256.787 163.507 256.45 163.683 256.116C163.859 255.782 164.111 255.48 164.439 255.211C164.773 254.936 165.171 254.719 165.634 254.561C166.103 254.396 166.625 254.314 167.199 254.314C167.89 254.314 168.5 254.432 169.027 254.666C169.56 254.9 169.976 255.255 170.275 255.729C170.58 256.198 170.732 256.787 170.732 257.496V261.926C170.732 262.242 170.758 262.579 170.811 262.937C170.87 263.294 170.955 263.602 171.066 263.859V264H169.37C169.288 263.812 169.223 263.563 169.176 263.253C169.129 262.937 169.106 262.644 169.106 262.374ZM169.387 258.234L169.405 259.377H167.761C167.298 259.377 166.885 259.415 166.522 259.491C166.159 259.562 165.854 259.67 165.608 259.816C165.362 259.963 165.174 260.147 165.045 260.37C164.917 260.587 164.852 260.842 164.852 261.135C164.852 261.434 164.919 261.706 165.054 261.952C165.189 262.198 165.391 262.395 165.661 262.541C165.936 262.682 166.273 262.752 166.671 262.752C167.169 262.752 167.609 262.646 167.99 262.436C168.371 262.225 168.672 261.967 168.895 261.662C169.124 261.357 169.247 261.062 169.264 260.774L169.958 261.557C169.917 261.803 169.806 262.075 169.625 262.374C169.443 262.673 169.2 262.96 168.895 263.235C168.596 263.505 168.239 263.73 167.823 263.912C167.413 264.088 166.95 264.176 166.434 264.176C165.79 264.176 165.224 264.05 164.738 263.798C164.257 263.546 163.882 263.209 163.613 262.787C163.349 262.359 163.217 261.882 163.217 261.354C163.217 260.845 163.317 260.396 163.516 260.01C163.715 259.617 164.002 259.292 164.377 259.034C164.752 258.771 165.204 258.571 165.731 258.437C166.258 258.302 166.847 258.234 167.498 258.234H169.387ZM175.056 250.5V264H173.421V250.5H175.056Z" fill="#2A2A2A"/>
<path d="M34.0775 294V284.06H38.1935C38.6229 284.06 39.0149 284.149 39.3695 284.326C39.7335 284.503 40.0462 284.746 40.3075 285.054C40.5689 285.353 40.7742 285.689 40.9235 286.062C41.0729 286.426 41.1475 286.799 41.1475 287.182C41.1475 287.723 41.0262 288.237 40.7835 288.722C40.5502 289.198 40.2189 289.585 39.7895 289.884C39.3602 290.183 38.8562 290.332 38.2775 290.332H35.0575V294H34.0775ZM35.0575 289.464H38.2355C38.6275 289.464 38.9682 289.357 39.2575 289.142C39.5469 288.927 39.7709 288.647 39.9295 288.302C40.0882 287.957 40.1675 287.583 40.1675 287.182C40.1675 286.771 40.0742 286.393 39.8875 286.048C39.7009 285.703 39.4535 285.432 39.1455 285.236C38.8469 285.031 38.5155 284.928 38.1515 284.928H35.0575V289.464ZM45.8838 294.14C45.3611 294.14 44.8758 294.042 44.4278 293.846C43.9798 293.641 43.5925 293.365 43.2658 293.02C42.9391 292.665 42.6825 292.259 42.4958 291.802C42.3185 291.345 42.2298 290.855 42.2298 290.332C42.2298 289.651 42.3838 289.025 42.6918 288.456C43.0091 287.887 43.4431 287.434 43.9938 287.098C44.5445 286.753 45.1698 286.58 45.8698 286.58C46.5885 286.58 47.2138 286.753 47.7458 287.098C48.2871 287.443 48.7118 287.901 49.0198 288.47C49.3278 289.03 49.4818 289.646 49.4818 290.318C49.4818 290.393 49.4818 290.467 49.4818 290.542C49.4818 290.607 49.4771 290.659 49.4678 290.696H43.2238C43.2705 291.219 43.4151 291.685 43.6578 292.096C43.9098 292.497 44.2318 292.819 44.6238 293.062C45.0251 293.295 45.4591 293.412 45.9258 293.412C46.4018 293.412 46.8498 293.291 47.2698 293.048C47.6991 292.805 47.9978 292.488 48.1658 292.096L48.9918 292.32C48.8425 292.665 48.6138 292.978 48.3058 293.258C47.9978 293.538 47.6338 293.757 47.2138 293.916C46.8031 294.065 46.3598 294.14 45.8838 294.14ZM43.1958 290.01H48.5858C48.5485 289.478 48.4038 289.011 48.1518 288.61C47.9091 288.209 47.5871 287.896 47.1858 287.672C46.7938 287.439 46.3598 287.322 45.8838 287.322C45.4078 287.322 44.9738 287.439 44.5818 287.672C44.1898 287.896 43.8678 288.213 43.6158 288.624C43.3731 289.025 43.2331 289.487 43.1958 290.01ZM54.8706 287.546C54.2359 287.565 53.6759 287.742 53.1906 288.078C52.7146 288.414 52.3786 288.876 52.1826 289.464V294H51.2306V286.706H52.1266V288.456C52.3786 287.943 52.7099 287.527 53.1206 287.21C53.5406 286.893 53.9839 286.715 54.4506 286.678C54.5439 286.669 54.6233 286.664 54.6886 286.664C54.7633 286.664 54.8239 286.669 54.8706 286.678V287.546ZM56.7688 294V287.462H55.7608V286.706H56.7688V286.51C56.7688 285.913 56.8528 285.399 57.0208 284.97C57.1981 284.541 57.4455 284.214 57.7628 283.99C58.0895 283.757 58.4721 283.64 58.9108 283.64C59.2001 283.64 59.4801 283.682 59.7508 283.766C60.0215 283.85 60.2548 283.962 60.4508 284.102L60.1568 284.788C60.0355 284.685 59.8768 284.606 59.6808 284.55C59.4848 284.494 59.2888 284.466 59.0928 284.466C58.6541 284.466 58.3135 284.639 58.0708 284.984C57.8375 285.329 57.7208 285.829 57.7208 286.482V286.706H59.7368V287.462H57.7208V294H56.7688ZM64.1955 294.14C63.6728 294.14 63.1875 294.042 62.7395 293.846C62.3008 293.641 61.9181 293.365 61.5915 293.02C61.2741 292.665 61.0268 292.264 60.8495 291.816C60.6721 291.359 60.5835 290.878 60.5835 290.374C60.5835 289.851 60.6721 289.366 60.8495 288.918C61.0268 288.461 61.2788 288.059 61.6055 287.714C61.9321 287.359 62.3148 287.084 62.7535 286.888C63.2015 286.683 63.6868 286.58 64.2095 286.58C64.7321 286.58 65.2128 286.683 65.6515 286.888C66.0901 287.084 66.4728 287.359 66.7995 287.714C67.1261 288.059 67.3781 288.461 67.5555 288.918C67.7328 289.366 67.8215 289.851 67.8215 290.374C67.8215 290.878 67.7328 291.359 67.5555 291.816C67.3781 292.264 67.1261 292.665 66.7995 293.02C66.4821 293.365 66.0995 293.641 65.6515 293.846C65.2128 294.042 64.7275 294.14 64.1955 294.14ZM61.5495 290.388C61.5495 290.929 61.6661 291.424 61.8995 291.872C62.1421 292.311 62.4641 292.661 62.8655 292.922C63.2668 293.174 63.7101 293.3 64.1955 293.3C64.6808 293.3 65.1241 293.169 65.5255 292.908C65.9268 292.647 66.2488 292.292 66.4915 291.844C66.7341 291.387 66.8555 290.892 66.8555 290.36C66.8555 289.819 66.7341 289.324 66.4915 288.876C66.2488 288.428 65.9268 288.073 65.5255 287.812C65.1241 287.551 64.6808 287.42 64.1955 287.42C63.7101 287.42 63.2668 287.555 62.8655 287.826C62.4735 288.097 62.1561 288.456 61.9135 288.904C61.6708 289.343 61.5495 289.837 61.5495 290.388ZM73.3337 287.546C72.699 287.565 72.139 287.742 71.6537 288.078C71.1777 288.414 70.8417 288.876 70.6457 289.464V294H69.6937V286.706H70.5897V288.456C70.8417 287.943 71.173 287.527 71.5837 287.21C72.0037 286.893 72.447 286.715 72.9137 286.678C73.007 286.669 73.0863 286.664 73.1517 286.664C73.2263 286.664 73.287 286.669 73.3337 286.678V287.546ZM85.7319 294H84.7799V289.926C84.7799 289.077 84.6445 288.451 84.3739 288.05C84.1032 287.649 83.7019 287.448 83.1699 287.448C82.6192 287.448 82.1245 287.644 81.6859 288.036C81.2565 288.428 80.9532 288.932 80.7759 289.548V294H79.8239V289.926C79.8239 289.067 79.6932 288.442 79.4319 288.05C79.1705 287.649 78.7692 287.448 78.2279 287.448C77.6865 287.448 77.1965 287.639 76.7579 288.022C76.3192 288.405 76.0112 288.909 75.8339 289.534V294H74.8819V286.706H75.7499V288.358C76.0579 287.789 76.4499 287.35 76.9259 287.042C77.4112 286.734 77.9479 286.58 78.5359 286.58C79.1425 286.58 79.6325 286.753 80.0059 287.098C80.3792 287.443 80.6079 287.896 80.6919 288.456C81.0279 287.84 81.4292 287.373 81.8959 287.056C82.3719 286.739 82.9085 286.58 83.5059 286.58C83.9165 286.58 84.2619 286.655 84.5419 286.804C84.8312 286.953 85.0599 287.168 85.2279 287.448C85.4052 287.719 85.5312 288.05 85.6059 288.442C85.6899 288.825 85.7319 289.254 85.7319 289.73V294ZM87.4391 291.9C87.4391 291.443 87.5698 291.051 87.8311 290.724C88.0924 290.388 88.4518 290.131 88.9091 289.954C89.3758 289.767 89.9124 289.674 90.5191 289.674C90.8738 289.674 91.2424 289.702 91.6251 289.758C92.0078 289.814 92.3484 289.898 92.6471 290.01V289.394C92.6471 288.778 92.4651 288.288 92.1011 287.924C91.7371 287.56 91.2331 287.378 90.5891 287.378C90.1971 287.378 89.8098 287.453 89.4271 287.602C89.0538 287.742 88.6618 287.952 88.2511 288.232L87.8871 287.56C88.3631 287.233 88.8298 286.991 89.2871 286.832C89.7444 286.664 90.2111 286.58 90.6871 286.58C91.5831 286.58 92.2924 286.837 92.8151 287.35C93.3378 287.863 93.5991 288.573 93.5991 289.478V292.852C93.5991 292.983 93.6271 293.081 93.6831 293.146C93.7391 293.202 93.8278 293.235 93.9491 293.244V294C93.8464 294.009 93.7578 294.019 93.6831 294.028C93.6084 294.037 93.5524 294.037 93.5151 294.028C93.2818 294.019 93.1044 293.944 92.9831 293.804C92.8618 293.664 92.7964 293.515 92.7871 293.356L92.7731 292.824C92.4464 293.244 92.0218 293.571 91.4991 293.804C90.9764 294.028 90.4444 294.14 89.9031 294.14C89.4364 294.14 89.0118 294.042 88.6291 293.846C88.2558 293.641 87.9618 293.37 87.7471 293.034C87.5418 292.689 87.4391 292.311 87.4391 291.9ZM92.3251 292.46C92.4278 292.329 92.5071 292.203 92.5631 292.082C92.6191 291.961 92.6471 291.853 92.6471 291.76V290.696C92.3298 290.575 91.9984 290.481 91.6531 290.416C91.3171 290.351 90.9764 290.318 90.6311 290.318C89.9498 290.318 89.3991 290.453 88.9791 290.724C88.5591 290.995 88.3491 291.363 88.3491 291.83C88.3491 292.101 88.4191 292.357 88.5591 292.6C88.6991 292.833 88.9044 293.029 89.1751 293.188C89.4458 293.337 89.7631 293.412 90.1271 293.412C90.5844 293.412 91.0091 293.323 91.4011 293.146C91.8024 292.969 92.1104 292.74 92.3251 292.46ZM102.068 294H101.116V289.926C101.116 289.067 100.99 288.442 100.738 288.05C100.486 287.649 100.089 287.448 99.548 287.448C99.1747 287.448 98.806 287.541 98.442 287.728C98.078 287.905 97.756 288.153 97.476 288.47C97.2053 288.778 97.0093 289.133 96.888 289.534V294H95.936V286.706H96.804V288.358C97 288.003 97.2567 287.695 97.574 287.434C97.8913 287.163 98.2507 286.953 98.652 286.804C99.0533 286.655 99.4687 286.58 99.898 286.58C100.299 286.58 100.64 286.655 100.92 286.804C101.2 286.953 101.424 287.168 101.592 287.448C101.76 287.719 101.881 288.05 101.956 288.442C102.031 288.825 102.068 289.254 102.068 289.73V294ZM107.542 294.14C107.01 294.14 106.52 294.042 106.072 293.846C105.633 293.641 105.246 293.361 104.91 293.006C104.583 292.651 104.327 292.245 104.14 291.788C103.963 291.331 103.874 290.845 103.874 290.332C103.874 289.641 104.028 289.011 104.336 288.442C104.644 287.873 105.073 287.42 105.624 287.084C106.175 286.748 106.809 286.58 107.528 286.58C108.209 286.58 108.811 286.739 109.334 287.056C109.857 287.364 110.244 287.784 110.496 288.316L109.572 288.61C109.367 288.237 109.077 287.947 108.704 287.742C108.34 287.527 107.934 287.42 107.486 287.42C107.001 287.42 106.557 287.546 106.156 287.798C105.755 288.05 105.433 288.395 105.19 288.834C104.957 289.273 104.84 289.772 104.84 290.332C104.84 290.883 104.961 291.382 105.204 291.83C105.447 292.278 105.769 292.637 106.17 292.908C106.571 293.169 107.015 293.3 107.5 293.3C107.817 293.3 108.121 293.244 108.41 293.132C108.709 293.02 108.965 292.871 109.18 292.684C109.404 292.488 109.553 292.278 109.628 292.054L110.566 292.334C110.435 292.679 110.216 292.992 109.908 293.272C109.609 293.543 109.255 293.757 108.844 293.916C108.443 294.065 108.009 294.14 107.542 294.14ZM115.423 294.14C114.901 294.14 114.415 294.042 113.967 293.846C113.519 293.641 113.132 293.365 112.805 293.02C112.479 292.665 112.222 292.259 112.035 291.802C111.858 291.345 111.769 290.855 111.769 290.332C111.769 289.651 111.923 289.025 112.231 288.456C112.549 287.887 112.983 287.434 113.533 287.098C114.084 286.753 114.709 286.58 115.409 286.58C116.128 286.58 116.753 286.753 117.285 287.098C117.827 287.443 118.251 287.901 118.559 288.47C118.867 289.03 119.021 289.646 119.021 290.318C119.021 290.393 119.021 290.467 119.021 290.542C119.021 290.607 119.017 290.659 119.007 290.696H112.763C112.81 291.219 112.955 291.685 113.197 292.096C113.449 292.497 113.771 292.819 114.163 293.062C114.565 293.295 114.999 293.412 115.465 293.412C115.941 293.412 116.389 293.291 116.809 293.048C117.239 292.805 117.537 292.488 117.705 292.096L118.531 292.32C118.382 292.665 118.153 292.978 117.845 293.258C117.537 293.538 117.173 293.757 116.753 293.916C116.343 294.065 115.899 294.14 115.423 294.14ZM112.735 290.01H118.125C118.088 289.478 117.943 289.011 117.691 288.61C117.449 288.209 117.127 287.896 116.725 287.672C116.333 287.439 115.899 287.322 115.423 287.322C114.947 287.322 114.513 287.439 114.121 287.672C113.729 287.896 113.407 288.213 113.155 288.624C112.913 289.025 112.773 289.487 112.735 290.01ZM124.128 290.374C124.128 289.683 124.268 289.053 124.548 288.484C124.838 287.905 125.234 287.443 125.738 287.098C126.242 286.753 126.816 286.58 127.46 286.58C128.067 286.58 128.608 286.743 129.084 287.07C129.57 287.387 129.948 287.775 130.218 288.232V283.78H131.17V292.852C131.17 292.983 131.198 293.081 131.254 293.146C131.31 293.202 131.394 293.235 131.506 293.244V294C131.32 294.028 131.175 294.037 131.072 294.028C130.876 294.019 130.704 293.939 130.554 293.79C130.405 293.641 130.33 293.477 130.33 293.3V292.586C130.041 293.062 129.649 293.44 129.154 293.72C128.66 294 128.146 294.14 127.614 294.14C127.11 294.14 126.644 294.037 126.214 293.832C125.794 293.627 125.426 293.347 125.108 292.992C124.8 292.637 124.558 292.236 124.38 291.788C124.212 291.331 124.128 290.859 124.128 290.374ZM130.218 291.494V289.24C130.097 288.904 129.901 288.601 129.63 288.33C129.36 288.05 129.052 287.831 128.706 287.672C128.37 287.504 128.034 287.42 127.698 287.42C127.306 287.42 126.952 287.504 126.634 287.672C126.317 287.831 126.042 288.05 125.808 288.33C125.584 288.61 125.412 288.927 125.29 289.282C125.169 289.637 125.108 290.001 125.108 290.374C125.108 290.766 125.174 291.139 125.304 291.494C125.444 291.849 125.64 292.166 125.892 292.446C126.144 292.717 126.434 292.927 126.76 293.076C127.087 293.225 127.442 293.3 127.824 293.3C128.067 293.3 128.319 293.253 128.58 293.16C128.842 293.067 129.089 292.941 129.322 292.782C129.565 292.614 129.766 292.418 129.924 292.194C130.083 291.97 130.181 291.737 130.218 291.494ZM136.715 294.14C136.193 294.14 135.707 294.042 135.259 293.846C134.821 293.641 134.438 293.365 134.111 293.02C133.794 292.665 133.547 292.264 133.369 291.816C133.192 291.359 133.103 290.878 133.103 290.374C133.103 289.851 133.192 289.366 133.369 288.918C133.547 288.461 133.799 288.059 134.125 287.714C134.452 287.359 134.835 287.084 135.273 286.888C135.721 286.683 136.207 286.58 136.729 286.58C137.252 286.58 137.733 286.683 138.171 286.888C138.61 287.084 138.993 287.359 139.319 287.714C139.646 288.059 139.898 288.461 140.075 288.918C140.253 289.366 140.341 289.851 140.341 290.374C140.341 290.878 140.253 291.359 140.075 291.816C139.898 292.264 139.646 292.665 139.319 293.02C139.002 293.365 138.619 293.641 138.171 293.846C137.733 294.042 137.247 294.14 136.715 294.14ZM134.069 290.388C134.069 290.929 134.186 291.424 134.419 291.872C134.662 292.311 134.984 292.661 135.385 292.922C135.787 293.174 136.23 293.3 136.715 293.3C137.201 293.3 137.644 293.169 138.045 292.908C138.447 292.647 138.769 292.292 139.011 291.844C139.254 291.387 139.375 290.892 139.375 290.36C139.375 289.819 139.254 289.324 139.011 288.876C138.769 288.428 138.447 288.073 138.045 287.812C137.644 287.551 137.201 287.42 136.715 287.42C136.23 287.42 135.787 287.555 135.385 287.826C134.993 288.097 134.676 288.456 134.433 288.904C134.191 289.343 134.069 289.837 134.069 290.388ZM144.608 294.14C144.01 294.14 143.455 294.042 142.942 293.846C142.428 293.65 141.985 293.351 141.612 292.95L142.004 292.278C142.414 292.661 142.825 292.941 143.236 293.118C143.656 293.286 144.099 293.37 144.566 293.37C145.135 293.37 145.597 293.258 145.952 293.034C146.306 292.801 146.484 292.469 146.484 292.04C146.484 291.751 146.395 291.531 146.218 291.382C146.05 291.223 145.802 291.097 145.476 291.004C145.158 290.901 144.776 290.794 144.328 290.682C143.824 290.542 143.399 290.397 143.054 290.248C142.718 290.089 142.461 289.893 142.284 289.66C142.116 289.417 142.032 289.105 142.032 288.722C142.032 288.246 142.148 287.854 142.382 287.546C142.624 287.229 142.951 286.991 143.362 286.832C143.782 286.664 144.248 286.58 144.762 286.58C145.322 286.58 145.816 286.669 146.246 286.846C146.675 287.023 147.025 287.271 147.296 287.588L146.834 288.232C146.572 287.933 146.26 287.714 145.896 287.574C145.541 287.425 145.144 287.35 144.706 287.35C144.407 287.35 144.122 287.392 143.852 287.476C143.581 287.551 143.357 287.681 143.18 287.868C143.012 288.045 142.928 288.293 142.928 288.61C142.928 288.871 142.993 289.077 143.124 289.226C143.254 289.366 143.45 289.487 143.712 289.59C143.973 289.683 144.295 289.786 144.678 289.898C145.228 290.047 145.709 290.201 146.12 290.36C146.53 290.509 146.848 290.705 147.072 290.948C147.296 291.191 147.408 291.531 147.408 291.97C147.408 292.651 147.151 293.183 146.638 293.566C146.124 293.949 145.448 294.14 144.608 294.14ZM153.11 294V286.706H154.062V294H153.11ZM153.11 285.18V283.78H154.062V285.18H153.11ZM162.57 294H161.618V289.926C161.618 289.067 161.492 288.442 161.24 288.05C160.988 287.649 160.592 287.448 160.05 287.448C159.677 287.448 159.308 287.541 158.944 287.728C158.58 287.905 158.258 288.153 157.978 288.47C157.708 288.778 157.512 289.133 157.39 289.534V294H156.438V286.706H157.306V288.358C157.502 288.003 157.759 287.695 158.076 287.434C158.394 287.163 158.753 286.953 159.154 286.804C159.556 286.655 159.971 286.58 160.4 286.58C160.802 286.58 161.142 286.655 161.422 286.804C161.702 286.953 161.926 287.168 162.094 287.448C162.262 287.719 162.384 288.05 162.458 288.442C162.533 288.825 162.57 289.254 162.57 289.73V294ZM166.9 294L163.946 286.706H164.94L167.432 293.048L169.938 286.706H170.876L167.922 294H166.9ZM175.379 294.14C174.856 294.14 174.371 294.042 173.923 293.846C173.475 293.641 173.088 293.365 172.761 293.02C172.434 292.665 172.178 292.259 171.991 291.802C171.814 291.345 171.725 290.855 171.725 290.332C171.725 289.651 171.879 289.025 172.187 288.456C172.504 287.887 172.938 287.434 173.489 287.098C174.04 286.753 174.665 286.58 175.365 286.58C176.084 286.58 176.709 286.753 177.241 287.098C177.782 287.443 178.207 287.901 178.515 288.47C178.823 289.03 178.977 289.646 178.977 290.318C178.977 290.393 178.977 290.467 178.977 290.542C178.977 290.607 178.972 290.659 178.963 290.696H172.719C172.766 291.219 172.91 291.685 173.153 292.096C173.405 292.497 173.727 292.819 174.119 293.062C174.52 293.295 174.954 293.412 175.421 293.412C175.897 293.412 176.345 293.291 176.765 293.048C177.194 292.805 177.493 292.488 177.661 292.096L178.487 292.32C178.338 292.665 178.109 292.978 177.801 293.258C177.493 293.538 177.129 293.757 176.709 293.916C176.298 294.065 175.855 294.14 175.379 294.14ZM172.691 290.01H178.081C178.044 289.478 177.899 289.011 177.647 288.61C177.404 288.209 177.082 287.896 176.681 287.672C176.289 287.439 175.855 287.322 175.379 287.322C174.903 287.322 174.469 287.439 174.077 287.672C173.685 287.896 173.363 288.213 173.111 288.624C172.868 289.025 172.728 289.487 172.691 290.01ZM183.12 294.14C182.522 294.14 181.967 294.042 181.454 293.846C180.94 293.65 180.497 293.351 180.124 292.95L180.516 292.278C180.926 292.661 181.337 292.941 181.748 293.118C182.168 293.286 182.611 293.37 183.078 293.37C183.647 293.37 184.109 293.258 184.464 293.034C184.818 292.801 184.996 292.469 184.996 292.04C184.996 291.751 184.907 291.531 184.73 291.382C184.562 291.223 184.314 291.097 183.988 291.004C183.67 290.901 183.288 290.794 182.84 290.682C182.336 290.542 181.911 290.397 181.566 290.248C181.23 290.089 180.973 289.893 180.796 289.66C180.628 289.417 180.544 289.105 180.544 288.722C180.544 288.246 180.66 287.854 180.894 287.546C181.136 287.229 181.463 286.991 181.874 286.832C182.294 286.664 182.76 286.58 183.274 286.58C183.834 286.58 184.328 286.669 184.758 286.846C185.187 287.023 185.537 287.271 185.808 287.588L185.346 288.232C185.084 287.933 184.772 287.714 184.408 287.574C184.053 287.425 183.656 287.35 183.218 287.35C182.919 287.35 182.634 287.392 182.364 287.476C182.093 287.551 181.869 287.681 181.692 287.868C181.524 288.045 181.44 288.293 181.44 288.61C181.44 288.871 181.505 289.077 181.636 289.226C181.766 289.366 181.962 289.487 182.224 289.59C182.485 289.683 182.807 289.786 183.19 289.898C183.74 290.047 184.221 290.201 184.632 290.36C185.042 290.509 185.36 290.705 185.584 290.948C185.808 291.191 185.92 291.531 185.92 291.97C185.92 292.651 185.663 293.183 185.15 293.566C184.636 293.949 183.96 294.14 183.12 294.14ZM191.273 293.65C191.199 293.678 191.082 293.729 190.923 293.804C190.765 293.879 190.573 293.944 190.349 294C190.125 294.056 189.883 294.084 189.621 294.084C189.351 294.084 189.094 294.033 188.851 293.93C188.618 293.827 188.431 293.673 188.291 293.468C188.151 293.253 188.081 292.992 188.081 292.684V287.462H187.073V286.706H188.081V284.242H189.033V286.706H190.713V287.462H189.033V292.418C189.052 292.679 189.145 292.875 189.313 293.006C189.491 293.137 189.691 293.202 189.915 293.202C190.177 293.202 190.415 293.16 190.629 293.076C190.844 292.983 190.975 292.917 191.021 292.88L191.273 293.65ZM192.743 294V286.706H193.695V294H192.743ZM192.743 285.18V283.78H193.695V285.18H192.743ZM206.922 294H205.97V289.926C205.97 289.077 205.834 288.451 205.564 288.05C205.293 287.649 204.892 287.448 204.36 287.448C203.809 287.448 203.314 287.644 202.876 288.036C202.446 288.428 202.143 288.932 201.966 289.548V294H201.014V289.926C201.014 289.067 200.883 288.442 200.622 288.05C200.36 287.649 199.959 287.448 199.418 287.448C198.876 287.448 198.386 287.639 197.948 288.022C197.509 288.405 197.201 288.909 197.024 289.534V294H196.072V286.706H196.94V288.358C197.248 287.789 197.64 287.35 198.116 287.042C198.601 286.734 199.138 286.58 199.726 286.58C200.332 286.58 200.822 286.753 201.196 287.098C201.569 287.443 201.798 287.896 201.882 288.456C202.218 287.84 202.619 287.373 203.086 287.056C203.562 286.739 204.098 286.58 204.696 286.58C205.106 286.58 205.452 286.655 205.732 286.804C206.021 286.953 206.25 287.168 206.418 287.448C206.595 287.719 206.721 288.05 206.796 288.442C206.88 288.825 206.922 289.254 206.922 289.73V294ZM212.367 294.14C211.844 294.14 211.359 294.042 210.911 293.846C210.463 293.641 210.075 293.365 209.749 293.02C209.422 292.665 209.165 292.259 208.979 291.802C208.801 291.345 208.713 290.855 208.713 290.332C208.713 289.651 208.867 289.025 209.175 288.456C209.492 287.887 209.926 287.434 210.477 287.098C211.027 286.753 211.653 286.58 212.353 286.58C213.071 286.58 213.697 286.753 214.229 287.098C214.77 287.443 215.195 287.901 215.503 288.47C215.811 289.03 215.965 289.646 215.965 290.318C215.965 290.393 215.965 290.467 215.965 290.542C215.965 290.607 215.96 290.659 215.951 290.696H209.707C209.753 291.219 209.898 291.685 210.141 292.096C210.393 292.497 210.715 292.819 211.107 293.062C211.508 293.295 211.942 293.412 212.409 293.412C212.885 293.412 213.333 293.291 213.753 293.048C214.182 292.805 214.481 292.488 214.649 292.096L215.475 292.32C215.325 292.665 215.097 292.978 214.789 293.258C214.481 293.538 214.117 293.757 213.697 293.916C213.286 294.065 212.843 294.14 212.367 294.14ZM209.679 290.01H215.069C215.031 289.478 214.887 289.011 214.635 288.61C214.392 288.209 214.07 287.896 213.669 287.672C213.277 287.439 212.843 287.322 212.367 287.322C211.891 287.322 211.457 287.439 211.065 287.672C210.673 287.896 210.351 288.213 210.099 288.624C209.856 289.025 209.716 289.487 209.679 290.01ZM223.846 294H222.894V289.926C222.894 289.067 222.768 288.442 222.516 288.05C222.264 287.649 221.867 287.448 221.326 287.448C220.952 287.448 220.584 287.541 220.22 287.728C219.856 287.905 219.534 288.153 219.254 288.47C218.983 288.778 218.787 289.133 218.666 289.534V294H217.714V286.706H218.582V288.358C218.778 288.003 219.034 287.695 219.352 287.434C219.669 287.163 220.028 286.953 220.43 286.804C220.831 286.655 221.246 286.58 221.676 286.58C222.077 286.58 222.418 286.655 222.698 286.804C222.978 286.953 223.202 287.168 223.37 287.448C223.538 287.719 223.659 288.05 223.734 288.442C223.808 288.825 223.846 289.254 223.846 289.73V294ZM229.587 293.65C229.513 293.678 229.396 293.729 229.237 293.804C229.079 293.879 228.887 293.944 228.663 294C228.439 294.056 228.197 294.084 227.935 294.084C227.665 294.084 227.408 294.033 227.165 293.93C226.932 293.827 226.745 293.673 226.605 293.468C226.465 293.253 226.395 292.992 226.395 292.684V287.462H225.387V286.706H226.395V284.242H227.347V286.706H229.027V287.462H227.347V292.418C227.366 292.679 227.459 292.875 227.627 293.006C227.805 293.137 228.005 293.202 228.229 293.202C228.491 293.202 228.729 293.16 228.943 293.076C229.158 292.983 229.289 292.917 229.335 292.88L229.587 293.65ZM234.042 294.14C233.519 294.14 233.034 294.042 232.586 293.846C232.147 293.641 231.764 293.365 231.438 293.02C231.12 292.665 230.873 292.264 230.696 291.816C230.518 291.359 230.43 290.878 230.43 290.374C230.43 289.851 230.518 289.366 230.696 288.918C230.873 288.461 231.125 288.059 231.452 287.714C231.778 287.359 232.161 287.084 232.6 286.888C233.048 286.683 233.533 286.58 234.056 286.58C234.578 286.58 235.059 286.683 235.498 286.888C235.936 287.084 236.319 287.359 236.646 287.714C236.972 288.059 237.224 288.461 237.402 288.918C237.579 289.366 237.668 289.851 237.668 290.374C237.668 290.878 237.579 291.359 237.402 291.816C237.224 292.264 236.972 292.665 236.646 293.02C236.328 293.365 235.946 293.641 235.498 293.846C235.059 294.042 234.574 294.14 234.042 294.14ZM231.396 290.388C231.396 290.929 231.512 291.424 231.746 291.872C231.988 292.311 232.31 292.661 232.712 292.922C233.113 293.174 233.556 293.3 234.042 293.3C234.527 293.3 234.97 293.169 235.372 292.908C235.773 292.647 236.095 292.292 236.338 291.844C236.58 291.387 236.702 290.892 236.702 290.36C236.702 289.819 236.58 289.324 236.338 288.876C236.095 288.428 235.773 288.073 235.372 287.812C234.97 287.551 234.527 287.42 234.042 287.42C233.556 287.42 233.113 287.555 232.712 287.826C232.32 288.097 232.002 288.456 231.76 288.904C231.517 289.343 231.396 289.837 231.396 290.388ZM241.934 294.14C241.337 294.14 240.781 294.042 240.268 293.846C239.755 293.65 239.311 293.351 238.938 292.95L239.33 292.278C239.741 292.661 240.151 292.941 240.562 293.118C240.982 293.286 241.425 293.37 241.892 293.37C242.461 293.37 242.923 293.258 243.278 293.034C243.633 292.801 243.81 292.469 243.81 292.04C243.81 291.751 243.721 291.531 243.544 291.382C243.376 291.223 243.129 291.097 242.802 291.004C242.485 290.901 242.102 290.794 241.654 290.682C241.15 290.542 240.725 290.397 240.38 290.248C240.044 290.089 239.787 289.893 239.61 289.66C239.442 289.417 239.358 289.105 239.358 288.722C239.358 288.246 239.475 287.854 239.708 287.546C239.951 287.229 240.277 286.991 240.688 286.832C241.108 286.664 241.575 286.58 242.088 286.58C242.648 286.58 243.143 286.669 243.572 286.846C244.001 287.023 244.351 287.271 244.622 287.588L244.16 288.232C243.899 287.933 243.586 287.714 243.222 287.574C242.867 287.425 242.471 287.35 242.032 287.35C241.733 287.35 241.449 287.392 241.178 287.476C240.907 287.551 240.683 287.681 240.506 287.868C240.338 288.045 240.254 288.293 240.254 288.61C240.254 288.871 240.319 289.077 240.45 289.226C240.581 289.366 240.777 289.487 241.038 289.59C241.299 289.683 241.621 289.786 242.004 289.898C242.555 290.047 243.035 290.201 243.446 290.36C243.857 290.509 244.174 290.705 244.398 290.948C244.622 291.191 244.734 291.531 244.734 291.97C244.734 292.651 244.477 293.183 243.964 293.566C243.451 293.949 242.774 294.14 241.934 294.14Z" fill="#717171"/>
<g opacity="0.5">
<path d="M42.7256 61.0332H42.835V62.1064H42.7256C42.0557 62.1064 41.4951 62.2158 41.0439 62.4346C40.5928 62.6488 40.235 62.9382 39.9707 63.3027C39.7064 63.6628 39.515 64.0684 39.3965 64.5195C39.2826 64.9707 39.2256 65.4287 39.2256 65.8936V67.3564C39.2256 67.7985 39.278 68.1904 39.3828 68.5322C39.4876 68.8695 39.6312 69.1543 39.8135 69.3867C39.9958 69.6191 40.2008 69.7946 40.4287 69.9131C40.6611 70.0316 40.9027 70.0908 41.1533 70.0908C41.445 70.0908 41.7048 70.0361 41.9326 69.9268C42.1605 69.8128 42.3519 69.6556 42.5068 69.4551C42.6663 69.25 42.7871 69.0085 42.8691 68.7305C42.9512 68.4525 42.9922 68.1471 42.9922 67.8145C42.9922 67.5182 42.9557 67.2334 42.8828 66.96C42.8099 66.682 42.6982 66.4359 42.5479 66.2217C42.3975 66.0029 42.2083 65.832 41.9805 65.709C41.7572 65.5814 41.4906 65.5176 41.1807 65.5176C40.8298 65.5176 40.5016 65.6042 40.1963 65.7773C39.8955 65.946 39.6471 66.1693 39.4512 66.4473C39.2598 66.7207 39.1504 67.0192 39.123 67.3428L38.4531 67.3359C38.5169 66.8255 38.6354 66.3903 38.8086 66.0303C38.9863 65.6657 39.2051 65.3695 39.4648 65.1416C39.7292 64.9092 40.0231 64.7406 40.3467 64.6357C40.6748 64.5264 41.0212 64.4717 41.3857 64.4717C41.8825 64.4717 42.3109 64.5651 42.6709 64.752C43.0309 64.9388 43.3271 65.1895 43.5596 65.5039C43.792 65.8138 43.9629 66.1647 44.0723 66.5566C44.1862 66.944 44.2432 67.3428 44.2432 67.7529C44.2432 68.2223 44.1771 68.6621 44.0449 69.0723C43.9128 69.4824 43.7145 69.8424 43.4502 70.1523C43.1904 70.4622 42.8691 70.7038 42.4863 70.877C42.1035 71.0501 41.6592 71.1367 41.1533 71.1367C40.6156 71.1367 40.1462 71.0273 39.7451 70.8086C39.3441 70.5853 39.0114 70.2891 38.7471 69.9199C38.4827 69.5508 38.2845 69.1406 38.1523 68.6895C38.0202 68.2383 37.9541 67.7803 37.9541 67.3154V66.7207C37.9541 66.0189 38.0247 65.3307 38.166 64.6562C38.3073 63.9818 38.5511 63.3711 38.8975 62.8242C39.2484 62.2773 39.7337 61.8421 40.3535 61.5186C40.9733 61.195 41.764 61.0332 42.7256 61.0332ZM51.9951 65.2305V66.748C51.9951 67.5638 51.9222 68.252 51.7764 68.8125C51.6305 69.373 51.4209 69.8242 51.1475 70.166C50.874 70.5078 50.5436 70.7562 50.1562 70.9111C49.7734 71.0615 49.3405 71.1367 48.8574 71.1367C48.4746 71.1367 48.1214 71.0889 47.7979 70.9932C47.4743 70.8975 47.1826 70.7448 46.9229 70.5352C46.6676 70.321 46.4489 70.043 46.2666 69.7012C46.0843 69.3594 45.9453 68.9447 45.8496 68.457C45.7539 67.9694 45.7061 67.3997 45.7061 66.748V65.2305C45.7061 64.4147 45.779 63.7311 45.9248 63.1797C46.0752 62.6283 46.2871 62.1862 46.5605 61.8535C46.834 61.5163 47.1621 61.2747 47.5449 61.1289C47.9323 60.9831 48.3652 60.9102 48.8438 60.9102C49.2311 60.9102 49.5866 60.958 49.9102 61.0537C50.2383 61.1449 50.5299 61.293 50.7852 61.498C51.0404 61.6986 51.2568 61.9674 51.4346 62.3047C51.6169 62.6374 51.7559 63.0452 51.8516 63.5283C51.9473 64.0114 51.9951 64.5788 51.9951 65.2305ZM50.7236 66.9531V65.0186C50.7236 64.5719 50.6963 64.18 50.6416 63.8428C50.5915 63.501 50.5163 63.2093 50.416 62.9678C50.3158 62.7262 50.1882 62.5303 50.0332 62.3799C49.8828 62.2295 49.7074 62.1201 49.5068 62.0518C49.3109 61.9788 49.0898 61.9424 48.8438 61.9424C48.543 61.9424 48.2764 61.9993 48.0439 62.1133C47.8115 62.2227 47.6156 62.3981 47.4561 62.6396C47.3011 62.8812 47.1826 63.1979 47.1006 63.5898C47.0186 63.9818 46.9775 64.458 46.9775 65.0186V66.9531C46.9775 67.3997 47.0026 67.7939 47.0527 68.1357C47.1074 68.4775 47.1872 68.7738 47.292 69.0244C47.3968 69.2705 47.5244 69.4733 47.6748 69.6328C47.8252 69.7923 47.9984 69.9108 48.1943 69.9883C48.3949 70.0612 48.6159 70.0977 48.8574 70.0977C49.1673 70.0977 49.4385 70.0384 49.6709 69.9199C49.9033 69.8014 50.097 69.6169 50.252 69.3662C50.4115 69.111 50.5299 68.7852 50.6074 68.3887C50.6849 67.9876 50.7236 67.5091 50.7236 66.9531Z" fill="#5A5A5A"/>
<path d="M44.5986 99.6504V100.689H37.4072V99.9443L41.8643 93.0469H42.8965L41.7891 95.043L38.8428 99.6504H44.5986ZM43.2109 93.0469V103H41.9463V93.0469H43.2109ZM51.9951 97.2305V98.748C51.9951 99.5638 51.9222 100.252 51.7764 100.812C51.6305 101.373 51.4209 101.824 51.1475 102.166C50.874 102.508 50.5436 102.756 50.1562 102.911C49.7734 103.062 49.3405 103.137 48.8574 103.137C48.4746 103.137 48.1214 103.089 47.7979 102.993C47.4743 102.897 47.1826 102.745 46.9229 102.535C46.6676 102.321 46.4489 102.043 46.2666 101.701C46.0843 101.359 45.9453 100.945 45.8496 100.457C45.7539 99.9694 45.7061 99.3997 45.7061 98.748V97.2305C45.7061 96.4147 45.779 95.7311 45.9248 95.1797C46.0752 94.6283 46.2871 94.1862 46.5605 93.8535C46.834 93.5163 47.1621 93.2747 47.5449 93.1289C47.9323 92.9831 48.3652 92.9102 48.8438 92.9102C49.2311 92.9102 49.5866 92.958 49.9102 93.0537C50.2383 93.1449 50.5299 93.293 50.7852 93.498C51.0404 93.6986 51.2568 93.9674 51.4346 94.3047C51.6169 94.6374 51.7559 95.0452 51.8516 95.5283C51.9473 96.0114 51.9951 96.5788 51.9951 97.2305ZM50.7236 98.9531V97.0186C50.7236 96.5719 50.6963 96.18 50.6416 95.8428C50.5915 95.501 50.5163 95.2093 50.416 94.9678C50.3158 94.7262 50.1882 94.5303 50.0332 94.3799C49.8828 94.2295 49.7074 94.1201 49.5068 94.0518C49.3109 93.9788 49.0898 93.9424 48.8438 93.9424C48.543 93.9424 48.2764 93.9993 48.0439 94.1133C47.8115 94.2227 47.6156 94.3981 47.4561 94.6396C47.3011 94.8812 47.1826 95.1979 47.1006 95.5898C47.0186 95.9818 46.9775 96.458 46.9775 97.0186V98.9531C46.9775 99.3997 47.0026 99.7939 47.0527 100.136C47.1074 100.478 47.1872 100.774 47.292 101.024C47.3968 101.271 47.5244 101.473 47.6748 101.633C47.8252 101.792 47.9984 101.911 48.1943 101.988C48.3949 102.061 48.6159 102.098 48.8574 102.098C49.1673 102.098 49.4385 102.038 49.6709 101.92C49.9033 101.801 50.097 101.617 50.252 101.366C50.4115 101.111 50.5299 100.785 50.6074 100.389C50.6849 99.9876 50.7236 99.5091 50.7236 98.9531Z" fill="#5A5A5A"/>
<path d="M44.3936 133.961V135H37.8789V134.091L41.1396 130.461C41.5407 130.014 41.8506 129.636 42.0693 129.326C42.2926 129.012 42.4476 128.731 42.5342 128.485C42.6253 128.235 42.6709 127.979 42.6709 127.72C42.6709 127.392 42.6025 127.095 42.4658 126.831C42.3337 126.562 42.1377 126.348 41.8779 126.188C41.6182 126.029 41.3037 125.949 40.9346 125.949C40.4925 125.949 40.1234 126.036 39.8271 126.209C39.5355 126.378 39.3167 126.615 39.1709 126.92C39.0251 127.225 38.9521 127.576 38.9521 127.973H37.6875C37.6875 127.412 37.8105 126.899 38.0566 126.435C38.3027 125.97 38.6673 125.601 39.1504 125.327C39.6335 125.049 40.2282 124.91 40.9346 124.91C41.5635 124.91 42.1012 125.022 42.5479 125.245C42.9945 125.464 43.3363 125.774 43.5732 126.175C43.8148 126.571 43.9355 127.036 43.9355 127.569C43.9355 127.861 43.8854 128.157 43.7852 128.458C43.6895 128.754 43.555 129.05 43.3818 129.347C43.2132 129.643 43.015 129.935 42.7871 130.222C42.5638 130.509 42.3245 130.791 42.0693 131.069L39.4033 133.961H44.3936ZM51.9951 129.23V130.748C51.9951 131.564 51.9222 132.252 51.7764 132.812C51.6305 133.373 51.4209 133.824 51.1475 134.166C50.874 134.508 50.5436 134.756 50.1562 134.911C49.7734 135.062 49.3405 135.137 48.8574 135.137C48.4746 135.137 48.1214 135.089 47.7979 134.993C47.4743 134.897 47.1826 134.745 46.9229 134.535C46.6676 134.321 46.4489 134.043 46.2666 133.701C46.0843 133.359 45.9453 132.945 45.8496 132.457C45.7539 131.969 45.7061 131.4 45.7061 130.748V129.23C45.7061 128.415 45.779 127.731 45.9248 127.18C46.0752 126.628 46.2871 126.186 46.5605 125.854C46.834 125.516 47.1621 125.275 47.5449 125.129C47.9323 124.983 48.3652 124.91 48.8438 124.91C49.2311 124.91 49.5866 124.958 49.9102 125.054C50.2383 125.145 50.5299 125.293 50.7852 125.498C51.0404 125.699 51.2568 125.967 51.4346 126.305C51.6169 126.637 51.7559 127.045 51.8516 127.528C51.9473 128.011 51.9951 128.579 51.9951 129.23ZM50.7236 130.953V129.019C50.7236 128.572 50.6963 128.18 50.6416 127.843C50.5915 127.501 50.5163 127.209 50.416 126.968C50.3158 126.726 50.1882 126.53 50.0332 126.38C49.8828 126.229 49.7074 126.12 49.5068 126.052C49.3109 125.979 49.0898 125.942 48.8438 125.942C48.543 125.942 48.2764 125.999 48.0439 126.113C47.8115 126.223 47.6156 126.398 47.4561 126.64C47.3011 126.881 47.1826 127.198 47.1006 127.59C47.0186 127.982 46.9775 128.458 46.9775 129.019V130.953C46.9775 131.4 47.0026 131.794 47.0527 132.136C47.1074 132.478 47.1872 132.774 47.292 133.024C47.3968 133.271 47.5244 133.473 47.6748 133.633C47.8252 133.792 47.9984 133.911 48.1943 133.988C48.3949 134.061 48.6159 134.098 48.8574 134.098C49.1673 134.098 49.4385 134.038 49.6709 133.92C49.9033 133.801 50.097 133.617 50.252 133.366C50.4115 133.111 50.5299 132.785 50.6074 132.389C50.6849 131.988 50.7236 131.509 50.7236 130.953Z" fill="#5A5A5A"/>
<path d="M51.9365 161.23V162.748C51.9365 163.564 51.8636 164.252 51.7178 164.812C51.5719 165.373 51.3623 165.824 51.0889 166.166C50.8154 166.508 50.485 166.756 50.0977 166.911C49.7148 167.062 49.2819 167.137 48.7988 167.137C48.416 167.137 48.0628 167.089 47.7393 166.993C47.4157 166.897 47.124 166.745 46.8643 166.535C46.609 166.321 46.3903 166.043 46.208 165.701C46.0257 165.359 45.8867 164.945 45.791 164.457C45.6953 163.969 45.6475 163.4 45.6475 162.748V161.23C45.6475 160.415 45.7204 159.731 45.8662 159.18C46.0166 158.628 46.2285 158.186 46.502 157.854C46.7754 157.516 47.1035 157.275 47.4863 157.129C47.8737 156.983 48.3066 156.91 48.7852 156.91C49.1725 156.91 49.528 156.958 49.8516 157.054C50.1797 157.145 50.4714 157.293 50.7266 157.498C50.9818 157.699 51.1982 157.967 51.376 158.305C51.5583 158.637 51.6973 159.045 51.793 159.528C51.8887 160.011 51.9365 160.579 51.9365 161.23ZM50.665 162.953V161.019C50.665 160.572 50.6377 160.18 50.583 159.843C50.5329 159.501 50.4577 159.209 50.3574 158.968C50.2572 158.726 50.1296 158.53 49.9746 158.38C49.8242 158.229 49.6488 158.12 49.4482 158.052C49.2523 157.979 49.0312 157.942 48.7852 157.942C48.4844 157.942 48.2178 157.999 47.9854 158.113C47.7529 158.223 47.557 158.398 47.3975 158.64C47.2425 158.881 47.124 159.198 47.042 159.59C46.96 159.982 46.9189 160.458 46.9189 161.019V162.953C46.9189 163.4 46.944 163.794 46.9941 164.136C47.0488 164.478 47.1286 164.774 47.2334 165.024C47.3382 165.271 47.4658 165.473 47.6162 165.633C47.7666 165.792 47.9398 165.911 48.1357 165.988C48.3363 166.061 48.5573 166.098 48.7988 166.098C49.1087 166.098 49.3799 166.038 49.6123 165.92C49.8447 165.801 50.0384 165.617 50.1934 165.366C50.3529 165.111 50.4714 164.785 50.5488 164.389C50.6263 163.988 50.665 163.509 50.665 162.953Z" fill="#121212"/>
<path d="M100.204 190.484C100.204 190.252 100.167 190.047 100.094 189.869C100.026 189.687 99.9028 189.523 99.7251 189.377C99.5519 189.231 99.3104 189.092 99.0005 188.96C98.6951 188.828 98.3078 188.693 97.8384 188.557C97.3462 188.411 96.9019 188.249 96.5054 188.071C96.1089 187.889 95.7694 187.682 95.4868 187.449C95.2043 187.217 94.9878 186.95 94.8374 186.649C94.687 186.349 94.6118 186.005 94.6118 185.617C94.6118 185.23 94.6916 184.872 94.8511 184.544C95.0106 184.216 95.2384 183.931 95.5347 183.689C95.8354 183.443 96.1932 183.252 96.6079 183.115C97.0226 182.979 97.4852 182.91 97.9956 182.91C98.743 182.91 99.3765 183.054 99.896 183.341C100.42 183.623 100.819 183.995 101.092 184.455C101.366 184.911 101.502 185.398 101.502 185.918H100.19C100.19 185.544 100.11 185.214 99.9507 184.927C99.7912 184.635 99.5496 184.407 99.2261 184.243C98.9025 184.075 98.4924 183.99 97.9956 183.99C97.5262 183.99 97.1388 184.061 96.8335 184.202C96.5282 184.343 96.3003 184.535 96.1499 184.776C96.0041 185.018 95.9312 185.294 95.9312 185.604C95.9312 185.813 95.9744 186.005 96.061 186.178C96.1522 186.346 96.2912 186.504 96.478 186.649C96.6694 186.795 96.911 186.93 97.2026 187.053C97.4989 187.176 97.8521 187.294 98.2622 187.408C98.8273 187.568 99.3149 187.745 99.7251 187.941C100.135 188.137 100.472 188.358 100.737 188.604C101.006 188.846 101.204 189.122 101.332 189.432C101.464 189.737 101.53 190.083 101.53 190.471C101.53 190.876 101.448 191.243 101.284 191.571C101.12 191.899 100.885 192.18 100.58 192.412C100.274 192.645 99.9074 192.825 99.479 192.952C99.0552 193.075 98.5812 193.137 98.0571 193.137C97.5968 193.137 97.1434 193.073 96.6968 192.945C96.2547 192.818 95.8514 192.626 95.4868 192.371C95.1268 192.116 94.8374 191.801 94.6187 191.428C94.4045 191.049 94.2974 190.612 94.2974 190.115H95.6099C95.6099 190.457 95.6759 190.751 95.8081 190.997C95.9403 191.239 96.1203 191.439 96.3481 191.599C96.5806 191.758 96.8426 191.877 97.1343 191.954C97.4305 192.027 97.7381 192.063 98.0571 192.063C98.5174 192.063 98.9071 192 99.2261 191.872C99.5451 191.744 99.7866 191.562 99.9507 191.325C100.119 191.088 100.204 190.808 100.204 190.484Z" fill="#5A5A5A"/>
<path d="M161.081 183.047V193H159.782V183.047H161.081ZM164.28 183.047V184.127H156.589V183.047H164.28Z" fill="#5A5A5A"/>
<path d="M220.942 191.858L223.472 193.861L222.583 194.682L220.095 192.706L220.942 191.858ZM223.438 187.709V188.338C223.438 189.085 223.344 189.755 223.157 190.348C222.97 190.94 222.701 191.444 222.351 191.858C222 192.273 221.578 192.59 221.086 192.809C220.598 193.027 220.051 193.137 219.445 193.137C218.857 193.137 218.317 193.027 217.825 192.809C217.338 192.59 216.914 192.273 216.554 191.858C216.198 191.444 215.923 190.94 215.727 190.348C215.531 189.755 215.433 189.085 215.433 188.338V187.709C215.433 186.962 215.528 186.294 215.72 185.706C215.916 185.114 216.191 184.61 216.547 184.195C216.902 183.776 217.324 183.457 217.812 183.238C218.304 183.02 218.844 182.91 219.432 182.91C220.038 182.91 220.587 183.02 221.079 183.238C221.571 183.457 221.993 183.776 222.344 184.195C222.695 184.61 222.964 185.114 223.15 185.706C223.342 186.294 223.438 186.962 223.438 187.709ZM222.132 188.338V187.695C222.132 187.103 222.07 186.579 221.947 186.123C221.829 185.667 221.653 185.285 221.421 184.975C221.188 184.665 220.906 184.43 220.573 184.271C220.241 184.111 219.86 184.031 219.432 184.031C219.026 184.031 218.657 184.111 218.324 184.271C217.996 184.43 217.714 184.665 217.477 184.975C217.24 185.285 217.057 185.667 216.93 186.123C216.802 186.579 216.738 187.103 216.738 187.695V188.338C216.738 188.935 216.802 189.464 216.93 189.924C217.057 190.38 217.24 190.765 217.477 191.079C217.718 191.389 218.005 191.624 218.338 191.783C218.671 191.943 219.04 192.022 219.445 192.022C219.874 192.022 220.254 191.943 220.587 191.783C220.92 191.624 221.2 191.389 221.428 191.079C221.66 190.765 221.836 190.38 221.954 189.924C222.073 189.464 222.132 188.935 222.132 188.338Z" fill="#5A5A5A"/>
<path d="M281.481 191.858L284.011 193.861L283.122 194.682L280.634 192.706L281.481 191.858ZM283.977 187.709V188.338C283.977 189.085 283.883 189.755 283.696 190.348C283.509 190.94 283.241 191.444 282.89 191.858C282.539 192.273 282.117 192.59 281.625 192.809C281.137 193.027 280.59 193.137 279.984 193.137C279.396 193.137 278.856 193.027 278.364 192.809C277.877 192.59 277.453 192.273 277.093 191.858C276.737 191.444 276.462 190.94 276.266 190.348C276.07 189.755 275.972 189.085 275.972 188.338V187.709C275.972 186.962 276.067 186.294 276.259 185.706C276.455 185.114 276.73 184.61 277.086 184.195C277.441 183.776 277.863 183.457 278.351 183.238C278.843 183.02 279.383 182.91 279.971 182.91C280.577 182.91 281.126 183.02 281.618 183.238C282.11 183.457 282.532 183.776 282.883 184.195C283.234 184.61 283.503 185.114 283.689 185.706C283.881 186.294 283.977 186.962 283.977 187.709ZM282.671 188.338V187.695C282.671 187.103 282.609 186.579 282.486 186.123C282.368 185.667 282.192 185.285 281.96 184.975C281.728 184.665 281.445 184.43 281.112 184.271C280.78 184.111 280.399 184.031 279.971 184.031C279.565 184.031 279.196 184.111 278.863 184.271C278.535 184.43 278.253 184.665 278.016 184.975C277.779 185.285 277.596 185.667 277.469 186.123C277.341 186.579 277.277 187.103 277.277 187.695V188.338C277.277 188.935 277.341 189.464 277.469 189.924C277.596 190.38 277.779 190.765 278.016 191.079C278.257 191.389 278.544 191.624 278.877 191.783C279.21 191.943 279.579 192.022 279.984 192.022C280.413 192.022 280.793 191.943 281.126 191.783C281.459 191.624 281.739 191.389 281.967 191.079C282.199 190.765 282.375 190.38 282.493 189.924C282.612 189.464 282.671 188.935 282.671 188.338Z" fill="#5A5A5A"/>
<path d="M341.403 190.484C341.403 190.252 341.367 190.047 341.294 189.869C341.226 189.687 341.103 189.523 340.925 189.377C340.752 189.231 340.51 189.092 340.2 188.96C339.895 188.828 339.507 188.693 339.038 188.557C338.546 188.411 338.102 188.249 337.705 188.071C337.309 187.889 336.969 187.682 336.687 187.449C336.404 187.217 336.188 186.95 336.037 186.649C335.887 186.349 335.812 186.005 335.812 185.617C335.812 185.23 335.891 184.872 336.051 184.544C336.21 184.216 336.438 183.931 336.734 183.689C337.035 183.443 337.393 183.252 337.808 183.115C338.222 182.979 338.685 182.91 339.195 182.91C339.943 182.91 340.576 183.054 341.096 183.341C341.62 183.623 342.019 183.995 342.292 184.455C342.565 184.911 342.702 185.398 342.702 185.918H341.39C341.39 185.544 341.31 185.214 341.15 184.927C340.991 184.635 340.749 184.407 340.426 184.243C340.102 184.075 339.692 183.99 339.195 183.99C338.726 183.99 338.339 184.061 338.033 184.202C337.728 184.343 337.5 184.535 337.35 184.776C337.204 185.018 337.131 185.294 337.131 185.604C337.131 185.813 337.174 186.005 337.261 186.178C337.352 186.346 337.491 186.504 337.678 186.649C337.869 186.795 338.111 186.93 338.402 187.053C338.699 187.176 339.052 187.294 339.462 187.408C340.027 187.568 340.515 187.745 340.925 187.941C341.335 188.137 341.672 188.358 341.937 188.604C342.205 188.846 342.404 189.122 342.531 189.432C342.663 189.737 342.729 190.083 342.729 190.471C342.729 190.876 342.647 191.243 342.483 191.571C342.319 191.899 342.085 192.18 341.779 192.412C341.474 192.645 341.107 192.825 340.679 192.952C340.255 193.075 339.781 193.137 339.257 193.137C338.797 193.137 338.343 193.073 337.896 192.945C337.454 192.818 337.051 192.626 336.687 192.371C336.326 192.116 336.037 191.801 335.818 191.428C335.604 191.049 335.497 190.612 335.497 190.115H336.81C336.81 190.457 336.876 190.751 337.008 190.997C337.14 191.239 337.32 191.439 337.548 191.599C337.78 191.758 338.042 191.877 338.334 191.954C338.63 192.027 338.938 192.063 339.257 192.063C339.717 192.063 340.107 192 340.426 191.872C340.745 191.744 340.986 191.562 341.15 191.325C341.319 191.088 341.403 190.808 341.403 190.484Z" fill="#5A5A5A"/>
</g>
<g opacity="0.5">
<rect x="63.1118" y="67.5" width="306.732" height="98" stroke="#121212" stroke-dasharray="4 4"/>
<path d="M62.6118 132H370.344" stroke="#121212" stroke-dasharray="4 4"/>
<path d="M62.6118 101H370.344" stroke="#5A5A5A" stroke-dasharray="4 4"/>
<path d="M128.129 166L128.129 69" stroke="#5A5A5A" stroke-dasharray="4 4"/>
<path d="M188.683 166L188.683 69" stroke="#5A5A5A" stroke-dasharray="4 4"/>
<path d="M249.236 166L249.236 69" stroke="#5A5A5A" stroke-dasharray="4 4"/>
<path d="M309.79 166L309.79 69" stroke="#121212" stroke-dasharray="4 4"/>
</g>
<rect x="94.3779" y="83" width="8.00162" height="82" rx="3" fill="#BA9932"/>
<rect x="156.406" y="133" width="8.00163" height="32" rx="3" fill="#BA9932"/>
<rect x="215.485" y="147" width="8.00163" height="18" rx="3" fill="#BA9932"/>
<rect x="276.49" y="129" width="8.00165" height="36" rx="3" fill="#BA9932"/>
<rect x="335.54" y="83" width="8.00162" height="82" rx="3" fill="#BA9932"/>
<defs>
<filter id="filter0_ddd_70_3724" x="0" y="0" width="427" height="326" filterUnits="userSpaceOnUse" color-interpolation-filters="sRGB">
<feFlood flood-opacity="0" result="BackgroundImageFix"/>
<feColorMatrix in="SourceAlpha" type="matrix" values="0 0 0 0 0 0 0 0 0 0 0 0 0 0 0 0 0 0 127 0" result="hardAlpha"/>
<feOffset dy="1"/>
<feGaussianBlur stdDeviation="5"/>
<feColorMatrix type="matrix" values="0 0 0 0 0 0 0 0 0 0 0 0 0 0 0 0 0 0 0.12 0"/>
<feBlend mode="normal" in2="BackgroundImageFix" result="effect1_dropShadow_70_3724"/>
<feColorMatrix in="SourceAlpha" type="matrix" values="0 0 0 0 0 0 0 0 0 0 0 0 0 0 0 0 0 0 127 0" result="hardAlpha"/>
<feOffset dy="4"/>
<feGaussianBlur stdDeviation="2.5"/>
<feColorMatrix type="matrix" values="0 0 0 0 0 0 0 0 0 0 0 0 0 0 0 0 0 0 0.14 0"/>
<feBlend mode="normal" in2="effect1_dropShadow_70_3724" result="effect2_dropShadow_70_3724"/>
<feColorMatrix in="SourceAlpha" type="matrix" values="0 0 0 0 0 0 0 0 0 0 0 0 0 0 0 0 0 0 127 0" result="hardAlpha"/>
<feMorphology radius="1" operator="erode" in="SourceAlpha" result="effect3_dropShadow_70_3724"/>
<feOffset dy="2"/>
<feGaussianBlur stdDeviation="2"/>
<feColorMatrix type="matrix" values="0 0 0 0 0 0 0 0 0 0 0 0 0 0 0 0 0 0 0.2 0"/>
<feBlend mode="normal" in2="effect2_dropShadow_70_3724" result="effect3_dropShadow_70_3724"/>
<feBlend mode="normal" in="SourceGraphic" in2="effect3_dropShadow_70_3724" result="shape"/>
</filter>
</defs>
</svg>
