<svg width="442" height="50" viewBox="0 0 442 50" fill="none" xmlns="http://www.w3.org/2000/svg">
<rect width="50" height="50" rx="3" transform="matrix(-1 0 0 1 50 0)" fill="#F7CF47"/>
<path d="M29.6665 15.6666L20.3332 25L29.6665 34.3333" stroke="black" stroke-width="2"/>
<rect x="82" width="50" height="50" rx="3" fill="#F0F0F0"/>
<path d="M108.644 17.2734V33H106.656V19.7549L102.649 21.2158V19.4219L108.332 17.2734H108.644Z" fill="black"/>
<path d="M169.36 31.3672V33H159.123V31.5713L164.247 25.8672C164.877 25.1654 165.364 24.571 165.708 24.084C166.059 23.5898 166.302 23.1494 166.438 22.7627C166.582 22.3688 166.653 21.9678 166.653 21.5596C166.653 21.0439 166.546 20.5785 166.331 20.1631C166.123 19.7406 165.815 19.404 165.407 19.1533C164.999 18.9027 164.505 18.7773 163.925 18.7773C163.23 18.7773 162.65 18.9134 162.185 19.1855C161.726 19.4505 161.382 19.8229 161.153 20.3027C160.924 20.7826 160.81 21.334 160.81 21.957H158.822C158.822 21.0762 159.016 20.2705 159.402 19.54C159.789 18.8096 160.362 18.2295 161.121 17.7998C161.88 17.363 162.815 17.1445 163.925 17.1445C164.913 17.1445 165.758 17.32 166.46 17.6709C167.162 18.0146 167.699 18.5016 168.071 19.1318C168.451 19.7549 168.641 20.4854 168.641 21.3232C168.641 21.7816 168.562 22.2471 168.404 22.7197C168.254 23.1852 168.043 23.6507 167.771 24.1162C167.506 24.5817 167.194 25.04 166.836 25.4912C166.485 25.9424 166.109 26.3864 165.708 26.8232L161.519 31.3672H169.36Z" fill="black"/>
<path d="M219.013 24.2021H220.431C221.125 24.2021 221.698 24.0876 222.149 23.8584C222.608 23.6221 222.948 23.3034 223.17 22.9023C223.399 22.4941 223.514 22.0358 223.514 21.5273C223.514 20.9258 223.413 20.4209 223.213 20.0127C223.012 19.6045 222.712 19.2965 222.311 19.0889C221.91 18.8812 221.401 18.7773 220.785 18.7773C220.227 18.7773 219.732 18.8883 219.303 19.1104C218.88 19.3252 218.547 19.6331 218.304 20.0342C218.067 20.4352 217.949 20.9079 217.949 21.4521H215.962C215.962 20.6572 216.162 19.9339 216.563 19.2822C216.965 18.6305 217.527 18.1113 218.25 17.7246C218.98 17.3379 219.826 17.1445 220.785 17.1445C221.73 17.1445 222.558 17.3128 223.267 17.6494C223.976 17.9788 224.527 18.473 224.921 19.1318C225.315 19.7835 225.512 20.5964 225.512 21.5703C225.512 21.9642 225.419 22.3867 225.232 22.8379C225.053 23.2819 224.771 23.6973 224.384 24.084C224.004 24.4707 223.51 24.7894 222.901 25.04C222.293 25.2835 221.562 25.4053 220.71 25.4053H219.013V24.2021ZM219.013 25.835V24.6426H220.71C221.705 24.6426 222.529 24.7607 223.181 24.9971C223.832 25.2334 224.344 25.5485 224.717 25.9424C225.096 26.3363 225.361 26.7695 225.512 27.2422C225.669 27.7077 225.748 28.1732 225.748 28.6387C225.748 29.3691 225.623 30.0173 225.372 30.583C225.129 31.1488 224.781 31.6286 224.33 32.0225C223.886 32.4163 223.363 32.7135 222.762 32.9141C222.16 33.1146 221.505 33.2148 220.796 33.2148C220.116 33.2148 219.475 33.1182 218.873 32.9248C218.279 32.7314 217.752 32.4521 217.294 32.0869C216.836 31.7145 216.478 31.2598 216.22 30.7227C215.962 30.1784 215.833 29.5589 215.833 28.8643H217.82C217.82 29.4085 217.938 29.8848 218.175 30.293C218.418 30.7012 218.762 31.0199 219.206 31.249C219.657 31.471 220.187 31.582 220.796 31.582C221.405 31.582 221.927 31.4782 222.364 31.2705C222.808 31.0557 223.148 30.7334 223.385 30.3037C223.628 29.874 223.75 29.3333 223.75 28.6816C223.75 28.0299 223.614 27.4964 223.342 27.0811C223.07 26.6585 222.683 26.347 222.182 26.1465C221.688 25.9388 221.104 25.835 220.431 25.835H219.013Z" fill="black"/>
<path d="M270.846 31.9473C270.846 31.6107 270.95 31.3278 271.157 31.0986C271.372 30.8623 271.68 30.7441 272.081 30.7441C272.482 30.7441 272.786 30.8623 272.994 31.0986C273.209 31.3278 273.316 31.6107 273.316 31.9473C273.316 32.2767 273.209 32.556 272.994 32.7852C272.786 33.0143 272.482 33.1289 272.081 33.1289C271.68 33.1289 271.372 33.0143 271.157 32.7852C270.95 32.556 270.846 32.2767 270.846 31.9473ZM276.646 31.9473C276.646 31.6107 276.75 31.3278 276.958 31.0986C277.173 30.8623 277.481 30.7441 277.882 30.7441C278.283 30.7441 278.587 30.8623 278.795 31.0986C279.01 31.3278 279.117 31.6107 279.117 31.9473C279.117 32.2767 279.01 32.556 278.795 32.7852C278.587 33.0143 278.283 33.1289 277.882 33.1289C277.481 33.1289 277.173 33.0143 276.958 32.7852C276.75 32.556 276.646 32.2767 276.646 31.9473ZM282.447 31.9473C282.447 31.6107 282.551 31.3278 282.759 31.0986C282.974 30.8623 283.282 30.7441 283.683 30.7441C284.084 30.7441 284.388 30.8623 284.596 31.0986C284.811 31.3278 284.918 31.6107 284.918 31.9473C284.918 32.2767 284.811 32.556 284.596 32.7852C284.388 33.0143 284.084 33.1289 283.683 33.1289C283.282 33.1289 282.974 33.0143 282.759 32.7852C282.551 32.556 282.447 32.2767 282.447 31.9473Z" fill="black"/>
<path d="M330.456 17.2734V33H328.469V19.7549L324.462 21.2158V19.4219L330.145 17.2734H330.456ZM346.118 23.9336V26.3184C346.118 27.6003 346.004 28.6816 345.774 29.5625C345.545 30.4434 345.216 31.1523 344.786 31.6895C344.356 32.2266 343.837 32.6169 343.229 32.8604C342.627 33.0967 341.947 33.2148 341.188 33.2148C340.586 33.2148 340.031 33.1396 339.522 32.9893C339.014 32.8389 338.556 32.599 338.147 32.2695C337.746 31.9329 337.403 31.4961 337.116 30.959C336.83 30.4219 336.611 29.7702 336.461 29.0039C336.311 28.2376 336.235 27.3424 336.235 26.3184V23.9336C336.235 22.6517 336.35 21.5775 336.579 20.7109C336.815 19.8444 337.148 19.1497 337.578 18.627C338.008 18.097 338.523 17.7174 339.125 17.4883C339.734 17.2591 340.414 17.1445 341.166 17.1445C341.775 17.1445 342.333 17.2197 342.842 17.3701C343.357 17.5133 343.816 17.7461 344.217 18.0684C344.618 18.3835 344.958 18.806 345.237 19.3359C345.524 19.8587 345.742 20.4997 345.893 21.2588C346.043 22.0179 346.118 22.9095 346.118 23.9336ZM344.12 26.6406V23.6006C344.12 22.8988 344.077 22.2829 343.991 21.7529C343.912 21.2158 343.794 20.7575 343.637 20.3779C343.479 19.9984 343.279 19.6904 343.035 19.4541C342.799 19.2178 342.523 19.0459 342.208 18.9385C341.9 18.8239 341.553 18.7666 341.166 18.7666C340.693 18.7666 340.274 18.8561 339.909 19.0352C339.544 19.207 339.236 19.4827 338.985 19.8623C338.742 20.2419 338.556 20.7396 338.427 21.3555C338.298 21.9714 338.233 22.7197 338.233 23.6006V26.6406C338.233 27.3424 338.273 27.9619 338.352 28.499C338.438 29.0361 338.563 29.5016 338.728 29.8955C338.892 30.2822 339.093 30.6009 339.329 30.8516C339.565 31.1022 339.838 31.2884 340.146 31.4102C340.461 31.5247 340.808 31.582 341.188 31.582C341.674 31.582 342.101 31.4889 342.466 31.3027C342.831 31.1165 343.135 30.8265 343.379 30.4326C343.63 30.0316 343.816 29.5195 343.938 28.8965C344.059 28.2663 344.12 27.5143 344.12 26.6406Z" fill="black"/>
<rect x="392" width="50" height="50" rx="3" fill="#F7CF47"/>
<path d="M412.333 15.6666L421.667 25L412.333 34.3333" stroke="black" stroke-width="2"/>
</svg>
