<svg width="345" height="75" viewBox="0 0 345 75" fill="none" xmlns="http://www.w3.org/2000/svg">
<path d="M0 39C0 36.7909 1.79086 35 4 35C6.20914 35 8 36.7909 8 39V54H0V39Z" fill="#DCB73D"/>
<path d="M42.125 22C42.125 19.7909 43.9159 18 46.125 18C48.3341 18 50.125 19.7909 50.125 22V54H42.125V22Z" fill="#DCB73D"/>
<path d="M84.25 4C84.25 1.79086 86.0409 0 88.25 0C90.4591 0 92.25 1.79086 92.25 4V54H84.25V4Z" fill="#DCB73D"/>
<path d="M126.375 9C126.375 6.79086 128.166 5 130.375 5C132.584 5 134.375 6.79086 134.375 9V54H126.375V9Z" fill="#DCB73D"/>
<path d="M168.5 36C168.5 33.7909 170.291 32 172.5 32C174.709 32 176.5 33.7909 176.5 36V54H168.5V36Z" fill="#DCB73D"/>
<path d="M210.625 46C210.625 43.7909 212.416 42 214.625 42C216.834 42 218.625 43.7909 218.625 46V54H210.625V46Z" fill="#DCB73D"/>
<path d="M252.75 23C252.75 20.7909 254.541 19 256.75 19C258.959 19 260.75 20.7909 260.75 23V54H252.75V23Z" fill="#DCB73D"/>
<path d="M294.875 13C294.875 10.7909 296.666 9 298.875 9C301.084 9 302.875 10.7909 302.875 13V54H294.875V13Z" fill="#DCB73D"/>
<path d="M337 44C337 41.7909 338.791 40 341 40C343.209 40 345 41.7909 345 44V54H337V44Z" fill="#DCB73D"/>
<path d="M4.67969 67.5098V61.4688H5.80469V67.5098C5.80469 68.0723 5.68945 68.5469 5.45898 68.9336C5.22852 69.3203 4.91016 69.6152 4.50391 69.8184C4.10156 70.0176 3.63867 70.1172 3.11523 70.1172C2.5918 70.1172 2.12695 70.0273 1.7207 69.8477C1.31445 69.668 0.996094 69.3945 0.765625 69.0273C0.535156 68.6602 0.419922 68.1973 0.419922 67.6387H1.55078C1.55078 67.998 1.61719 68.293 1.75 68.5234C1.88281 68.7539 2.06641 68.9238 2.30078 69.0332C2.53906 69.1426 2.81055 69.1973 3.11523 69.1973C3.41211 69.1973 3.67773 69.1348 3.91211 69.0098C4.15039 68.8809 4.33789 68.6914 4.47461 68.4414C4.61133 68.1875 4.67969 67.877 4.67969 67.5098ZM11.2949 68.916V65.6523C11.2949 65.4023 11.2441 65.1855 11.1426 65.002C11.0449 64.8145 10.8965 64.6699 10.6973 64.5684C10.498 64.4668 10.252 64.416 9.95898 64.416C9.68555 64.416 9.44531 64.4629 9.23828 64.5566C9.03516 64.6504 8.875 64.7734 8.75781 64.9258C8.64453 65.0781 8.58789 65.2422 8.58789 65.418H7.50391C7.50391 65.1914 7.5625 64.9668 7.67969 64.7441C7.79688 64.5215 7.96484 64.3203 8.18359 64.1406C8.40625 63.957 8.67188 63.8125 8.98047 63.707C9.29297 63.5977 9.64062 63.543 10.0234 63.543C10.4844 63.543 10.8906 63.6211 11.2422 63.7773C11.5977 63.9336 11.875 64.1699 12.0742 64.4863C12.2773 64.7988 12.3789 65.1914 12.3789 65.6641V68.6172C12.3789 68.8281 12.3965 69.0527 12.4316 69.291C12.4707 69.5293 12.5273 69.7344 12.6016 69.9062V70H11.4707C11.416 69.875 11.373 69.709 11.3418 69.502C11.3105 69.291 11.2949 69.0957 11.2949 68.916ZM11.4824 66.1562L11.4941 66.918H10.3984C10.0898 66.918 9.81445 66.9434 9.57227 66.9941C9.33008 67.041 9.12695 67.1133 8.96289 67.2109C8.79883 67.3086 8.67383 67.4316 8.58789 67.5801C8.50195 67.7246 8.45898 67.8945 8.45898 68.0898C8.45898 68.2891 8.50391 68.4707 8.59375 68.6348C8.68359 68.7988 8.81836 68.9297 8.99805 69.0273C9.18164 69.1211 9.40625 69.168 9.67188 69.168C10.0039 69.168 10.2969 69.0977 10.5508 68.957C10.8047 68.8164 11.0059 68.6445 11.1543 68.4414C11.3066 68.2383 11.3887 68.041 11.4004 67.8496L11.8633 68.3711C11.8359 68.5352 11.7617 68.7168 11.6406 68.916C11.5195 69.1152 11.3574 69.3066 11.1543 69.4902C10.9551 69.6699 10.7168 69.8203 10.4395 69.9414C10.166 70.0586 9.85742 70.1172 9.51367 70.1172C9.08398 70.1172 8.70703 70.0332 8.38281 69.8652C8.0625 69.6973 7.8125 69.4727 7.63281 69.1914C7.45703 68.9062 7.36914 68.5879 7.36914 68.2363C7.36914 67.8965 7.43555 67.5977 7.56836 67.3398C7.70117 67.0781 7.89258 66.8613 8.14258 66.6895C8.39258 66.5137 8.69336 66.3809 9.04492 66.291C9.39648 66.2012 9.78906 66.1562 10.2227 66.1562H11.4824ZM15.168 65.0137V70H14.084V63.6602H15.1094L15.168 65.0137ZM14.9102 66.5898L14.459 66.5723C14.4629 66.1387 14.5273 65.7383 14.6523 65.3711C14.7773 65 14.9531 64.6777 15.1797 64.4043C15.4062 64.1309 15.6758 63.9199 15.9883 63.7715C16.3047 63.6191 16.6543 63.543 17.0371 63.543C17.3496 63.543 17.6309 63.5859 17.8809 63.6719C18.1309 63.7539 18.3438 63.8867 18.5195 64.0703C18.6992 64.2539 18.8359 64.4922 18.9297 64.7852C19.0234 65.0742 19.0703 65.4277 19.0703 65.8457V70H17.9805V65.834C17.9805 65.502 17.9316 65.2363 17.834 65.0371C17.7363 64.834 17.5938 64.6875 17.4062 64.5977C17.2188 64.5039 16.9883 64.457 16.7148 64.457C16.4453 64.457 16.1992 64.5137 15.9766 64.627C15.7578 64.7402 15.5684 64.8965 15.4082 65.0957C15.252 65.2949 15.1289 65.5234 15.0391 65.7812C14.9531 66.0352 14.9102 66.3047 14.9102 66.5898Z" fill="#414141"/>
<path d="M43.3223 61.4688V70H42.1914V61.4688H43.3223ZM46.8965 65.3066V66.2324H43.0762V65.3066H46.8965ZM47.4766 61.4688V62.3945H43.0762V61.4688H47.4766ZM51.1621 70.1172C50.7207 70.1172 50.3203 70.043 49.9609 69.8945C49.6055 69.7422 49.2988 69.5293 49.041 69.2559C48.7871 68.9824 48.5918 68.6582 48.4551 68.2832C48.3184 67.9082 48.25 67.498 48.25 67.0527V66.8066C48.25 66.291 48.3262 65.832 48.4785 65.4297C48.6309 65.0234 48.8379 64.6797 49.0996 64.3984C49.3613 64.1172 49.6582 63.9043 49.9902 63.7598C50.3223 63.6152 50.666 63.543 51.0215 63.543C51.4746 63.543 51.8652 63.6211 52.1934 63.7773C52.5254 63.9336 52.7969 64.1523 53.0078 64.4336C53.2188 64.7109 53.375 65.0391 53.4766 65.418C53.5781 65.793 53.6289 66.2031 53.6289 66.6484V67.1348H48.8945V66.25H52.5449V66.168C52.5293 65.8867 52.4707 65.6133 52.3691 65.3477C52.2715 65.082 52.1152 64.8633 51.9004 64.6914C51.6855 64.5195 51.3926 64.4336 51.0215 64.4336C50.7754 64.4336 50.5488 64.4863 50.3418 64.5918C50.1348 64.6934 49.957 64.8457 49.8086 65.0488C49.6602 65.252 49.5449 65.5 49.4629 65.793C49.3809 66.0859 49.3398 66.4238 49.3398 66.8066V67.0527C49.3398 67.3535 49.3809 67.6367 49.4629 67.9023C49.5488 68.1641 49.6719 68.3945 49.832 68.5938C49.9961 68.793 50.1934 68.9492 50.4238 69.0625C50.6582 69.1758 50.9238 69.2324 51.2207 69.2324C51.6035 69.2324 51.9277 69.1543 52.1934 68.998C52.459 68.8418 52.6914 68.6328 52.8906 68.3711L53.5469 68.8926C53.4102 69.0996 53.2363 69.2969 53.0254 69.4844C52.8145 69.6719 52.5547 69.8242 52.2461 69.9414C51.9414 70.0586 51.5801 70.1172 51.1621 70.1172ZM56.7402 69.0215L58.4746 63.6602H59.582L57.3027 70H56.5762L56.7402 69.0215ZM55.293 63.6602L57.0801 69.0508L57.2031 70H56.4766L54.1797 63.6602H55.293Z" fill="#414141"/>
<path d="M82.8125 61.4688H83.9082L86.7031 68.4238L89.4922 61.4688H90.5938L87.125 70H86.2695L82.8125 61.4688ZM82.4551 61.4688H83.4219L83.5801 66.6719V70H82.4551V61.4688ZM89.9785 61.4688H90.9453V70H89.8203V66.6719L89.9785 61.4688ZM96.5059 68.916V65.6523C96.5059 65.4023 96.4551 65.1855 96.3535 65.002C96.2559 64.8145 96.1074 64.6699 95.9082 64.5684C95.709 64.4668 95.4629 64.416 95.1699 64.416C94.8965 64.416 94.6562 64.4629 94.4492 64.5566C94.2461 64.6504 94.0859 64.7734 93.9688 64.9258C93.8555 65.0781 93.7988 65.2422 93.7988 65.418H92.7148C92.7148 65.1914 92.7734 64.9668 92.8906 64.7441C93.0078 64.5215 93.1758 64.3203 93.3945 64.1406C93.6172 63.957 93.8828 63.8125 94.1914 63.707C94.5039 63.5977 94.8516 63.543 95.2344 63.543C95.6953 63.543 96.1016 63.6211 96.4531 63.7773C96.8086 63.9336 97.0859 64.1699 97.2852 64.4863C97.4883 64.7988 97.5898 65.1914 97.5898 65.6641V68.6172C97.5898 68.8281 97.6074 69.0527 97.6426 69.291C97.6816 69.5293 97.7383 69.7344 97.8125 69.9062V70H96.6816C96.627 69.875 96.584 69.709 96.5527 69.502C96.5215 69.291 96.5059 69.0957 96.5059 68.916ZM96.6934 66.1562L96.7051 66.918H95.6094C95.3008 66.918 95.0254 66.9434 94.7832 66.9941C94.541 67.041 94.3379 67.1133 94.1738 67.2109C94.0098 67.3086 93.8848 67.4316 93.7988 67.5801C93.7129 67.7246 93.6699 67.8945 93.6699 68.0898C93.6699 68.2891 93.7148 68.4707 93.8047 68.6348C93.8945 68.7988 94.0293 68.9297 94.209 69.0273C94.3926 69.1211 94.6172 69.168 94.8828 69.168C95.2148 69.168 95.5078 69.0977 95.7617 68.957C96.0156 68.8164 96.2168 68.6445 96.3652 68.4414C96.5176 68.2383 96.5996 68.041 96.6113 67.8496L97.0742 68.3711C97.0469 68.5352 96.9727 68.7168 96.8516 68.916C96.7305 69.1152 96.5684 69.3066 96.3652 69.4902C96.166 69.6699 95.9277 69.8203 95.6504 69.9414C95.377 70.0586 95.0684 70.1172 94.7246 70.1172C94.2949 70.1172 93.918 70.0332 93.5938 69.8652C93.2734 69.6973 93.0234 69.4727 92.8438 69.1914C92.668 68.9062 92.5801 68.5879 92.5801 68.2363C92.5801 67.8965 92.6465 67.5977 92.7793 67.3398C92.9121 67.0781 93.1035 66.8613 93.3535 66.6895C93.6035 66.5137 93.9043 66.3809 94.2559 66.291C94.6074 66.2012 95 66.1562 95.4336 66.1562H96.6934ZM100.379 64.6562V70H99.2949V63.6602H100.35L100.379 64.6562ZM102.359 63.625L102.354 64.6328C102.264 64.6133 102.178 64.6016 102.096 64.5977C102.018 64.5898 101.928 64.5859 101.826 64.5859C101.576 64.5859 101.355 64.625 101.164 64.7031C100.973 64.7812 100.811 64.8906 100.678 65.0312C100.545 65.1719 100.439 65.3398 100.361 65.5352C100.287 65.7266 100.238 65.9375 100.215 66.168L99.9102 66.3438C99.9102 65.9609 99.9473 65.6016 100.021 65.2656C100.1 64.9297 100.219 64.6328 100.379 64.375C100.539 64.1133 100.742 63.9102 100.988 63.7656C101.238 63.6172 101.535 63.543 101.879 63.543C101.957 63.543 102.047 63.5527 102.148 63.5723C102.25 63.5879 102.32 63.6055 102.359 63.625Z" fill="#414141"/>
<path d="M128.332 62.2246L125.508 70H124.354L127.605 61.4688H128.35L128.332 62.2246ZM130.699 70L127.869 62.2246L127.852 61.4688H128.596L131.859 70H130.699ZM130.553 66.8418V67.7676H125.76V66.8418H130.553ZM132.832 61H133.922V68.7695L133.828 70H132.832V61ZM138.205 66.7773V66.9004C138.205 67.3613 138.15 67.7891 138.041 68.1836C137.932 68.5742 137.771 68.9141 137.561 69.2031C137.35 69.4922 137.092 69.7168 136.787 69.877C136.482 70.0371 136.133 70.1172 135.738 70.1172C135.336 70.1172 134.982 70.0488 134.678 69.9121C134.377 69.7715 134.123 69.5703 133.916 69.3086C133.709 69.0469 133.543 68.7305 133.418 68.3594C133.297 67.9883 133.213 67.5703 133.166 67.1055V66.5664C133.213 66.0977 133.297 65.6777 133.418 65.3066C133.543 64.9355 133.709 64.6191 133.916 64.3574C134.123 64.0918 134.377 63.8906 134.678 63.7539C134.979 63.6133 135.328 63.543 135.727 63.543C136.125 63.543 136.479 63.6211 136.787 63.7773C137.096 63.9297 137.354 64.1484 137.561 64.4336C137.771 64.7188 137.932 65.0605 138.041 65.459C138.15 65.8535 138.205 66.293 138.205 66.7773ZM137.115 66.9004V66.7773C137.115 66.4609 137.086 66.1641 137.027 65.8867C136.969 65.6055 136.875 65.3594 136.746 65.1484C136.617 64.9336 136.447 64.7656 136.236 64.6445C136.025 64.5195 135.766 64.457 135.457 64.457C135.184 64.457 134.945 64.5039 134.742 64.5977C134.543 64.6914 134.373 64.8184 134.232 64.9785C134.092 65.1348 133.977 65.3145 133.887 65.5176C133.801 65.7168 133.736 65.9238 133.693 66.1387V67.5508C133.756 67.8242 133.857 68.0879 133.998 68.3418C134.143 68.5918 134.334 68.7969 134.572 68.957C134.814 69.1172 135.113 69.1973 135.469 69.1973C135.762 69.1973 136.012 69.1387 136.219 69.0215C136.43 68.9004 136.6 68.7344 136.729 68.5234C136.861 68.3125 136.959 68.0684 137.021 67.791C137.084 67.5137 137.115 67.2168 137.115 66.9004ZM140.66 64.6562V70H139.576V63.6602H140.631L140.66 64.6562ZM142.641 63.625L142.635 64.6328C142.545 64.6133 142.459 64.6016 142.377 64.5977C142.299 64.5898 142.209 64.5859 142.107 64.5859C141.857 64.5859 141.637 64.625 141.445 64.7031C141.254 64.7812 141.092 64.8906 140.959 65.0312C140.826 65.1719 140.721 65.3398 140.643 65.5352C140.568 65.7266 140.52 65.9375 140.496 66.168L140.191 66.3438C140.191 65.9609 140.229 65.6016 140.303 65.2656C140.381 64.9297 140.5 64.6328 140.66 64.375C140.82 64.1133 141.023 63.9102 141.27 63.7656C141.52 63.6172 141.816 63.543 142.16 63.543C142.238 63.543 142.328 63.5527 142.43 63.5723C142.531 63.5879 142.602 63.6055 142.641 63.625Z" fill="#414141"/>
<path d="M165.387 61.4688H166.482L169.277 68.4238L172.066 61.4688H173.168L169.699 70H168.844L165.387 61.4688ZM165.029 61.4688H165.996L166.154 66.6719V70H165.029V61.4688ZM172.553 61.4688H173.52V70H172.395V66.6719L172.553 61.4688ZM179.08 68.916V65.6523C179.08 65.4023 179.029 65.1855 178.928 65.002C178.83 64.8145 178.682 64.6699 178.482 64.5684C178.283 64.4668 178.037 64.416 177.744 64.416C177.471 64.416 177.23 64.4629 177.023 64.5566C176.82 64.6504 176.66 64.7734 176.543 64.9258C176.43 65.0781 176.373 65.2422 176.373 65.418H175.289C175.289 65.1914 175.348 64.9668 175.465 64.7441C175.582 64.5215 175.75 64.3203 175.969 64.1406C176.191 63.957 176.457 63.8125 176.766 63.707C177.078 63.5977 177.426 63.543 177.809 63.543C178.27 63.543 178.676 63.6211 179.027 63.7773C179.383 63.9336 179.66 64.1699 179.859 64.4863C180.062 64.7988 180.164 65.1914 180.164 65.6641V68.6172C180.164 68.8281 180.182 69.0527 180.217 69.291C180.256 69.5293 180.312 69.7344 180.387 69.9062V70H179.256C179.201 69.875 179.158 69.709 179.127 69.502C179.096 69.291 179.08 69.0957 179.08 68.916ZM179.268 66.1562L179.279 66.918H178.184C177.875 66.918 177.6 66.9434 177.357 66.9941C177.115 67.041 176.912 67.1133 176.748 67.2109C176.584 67.3086 176.459 67.4316 176.373 67.5801C176.287 67.7246 176.244 67.8945 176.244 68.0898C176.244 68.2891 176.289 68.4707 176.379 68.6348C176.469 68.7988 176.604 68.9297 176.783 69.0273C176.967 69.1211 177.191 69.168 177.457 69.168C177.789 69.168 178.082 69.0977 178.336 68.957C178.59 68.8164 178.791 68.6445 178.939 68.4414C179.092 68.2383 179.174 68.041 179.186 67.8496L179.648 68.3711C179.621 68.5352 179.547 68.7168 179.426 68.916C179.305 69.1152 179.143 69.3066 178.939 69.4902C178.74 69.6699 178.502 69.8203 178.225 69.9414C177.951 70.0586 177.643 70.1172 177.299 70.1172C176.869 70.1172 176.492 70.0332 176.168 69.8652C175.848 69.6973 175.598 69.4727 175.418 69.1914C175.242 68.9062 175.154 68.5879 175.154 68.2363C175.154 67.8965 175.221 67.5977 175.354 67.3398C175.486 67.0781 175.678 66.8613 175.928 66.6895C176.178 66.5137 176.479 66.3809 176.83 66.291C177.182 66.2012 177.574 66.1562 178.008 66.1562H179.268ZM183.047 63.6602V70H181.957V63.6602H183.047ZM181.875 61.9785C181.875 61.8027 181.928 61.6543 182.033 61.5332C182.143 61.4121 182.303 61.3516 182.514 61.3516C182.721 61.3516 182.879 61.4121 182.988 61.5332C183.102 61.6543 183.158 61.8027 183.158 61.9785C183.158 62.1465 183.102 62.291 182.988 62.4121C182.879 62.5293 182.721 62.5879 182.514 62.5879C182.303 62.5879 182.143 62.5293 182.033 62.4121C181.928 62.291 181.875 62.1465 181.875 61.9785Z" fill="#414141"/>
<path d="M209.633 67.5098V61.4688H210.758V67.5098C210.758 68.0723 210.643 68.5469 210.412 68.9336C210.182 69.3203 209.863 69.6152 209.457 69.8184C209.055 70.0176 208.592 70.1172 208.068 70.1172C207.545 70.1172 207.08 70.0273 206.674 69.8477C206.268 69.668 205.949 69.3945 205.719 69.0273C205.488 68.6602 205.373 68.1973 205.373 67.6387H206.504C206.504 67.998 206.57 68.293 206.703 68.5234C206.836 68.7539 207.02 68.9238 207.254 69.0332C207.492 69.1426 207.764 69.1973 208.068 69.1973C208.365 69.1973 208.631 69.1348 208.865 69.0098C209.104 68.8809 209.291 68.6914 209.428 68.4414C209.564 68.1875 209.633 67.877 209.633 67.5098ZM216.389 68.5352V63.6602H217.479V70H216.441L216.389 68.5352ZM216.594 67.1992L217.045 67.1875C217.045 67.6094 217 68 216.91 68.3594C216.824 68.7148 216.684 69.0234 216.488 69.2852C216.293 69.5469 216.037 69.752 215.721 69.9004C215.404 70.0449 215.02 70.1172 214.566 70.1172C214.258 70.1172 213.975 70.0723 213.717 69.9824C213.463 69.8926 213.244 69.7539 213.061 69.5664C212.877 69.3789 212.734 69.1348 212.633 68.834C212.535 68.5332 212.486 68.1719 212.486 67.75V63.6602H213.57V67.7617C213.57 68.0469 213.602 68.2832 213.664 68.4707C213.73 68.6543 213.818 68.8008 213.928 68.9102C214.041 69.0156 214.166 69.0898 214.303 69.1328C214.443 69.1758 214.588 69.1973 214.736 69.1973C215.197 69.1973 215.562 69.1094 215.832 68.9336C216.102 68.7539 216.295 68.5137 216.412 68.2129C216.533 67.9082 216.594 67.5703 216.594 67.1992ZM220.215 65.0137V70H219.131V63.6602H220.156L220.215 65.0137ZM219.957 66.5898L219.506 66.5723C219.51 66.1387 219.574 65.7383 219.699 65.3711C219.824 65 220 64.6777 220.227 64.4043C220.453 64.1309 220.723 63.9199 221.035 63.7715C221.352 63.6191 221.701 63.543 222.084 63.543C222.396 63.543 222.678 63.5859 222.928 63.6719C223.178 63.7539 223.391 63.8867 223.566 64.0703C223.746 64.2539 223.883 64.4922 223.977 64.7852C224.07 65.0742 224.117 65.4277 224.117 65.8457V70H223.027V65.834C223.027 65.502 222.979 65.2363 222.881 65.0371C222.783 64.834 222.641 64.6875 222.453 64.5977C222.266 64.5039 222.035 64.457 221.762 64.457C221.492 64.457 221.246 64.5137 221.023 64.627C220.805 64.7402 220.615 64.8965 220.455 65.0957C220.299 65.2949 220.176 65.5234 220.086 65.7812C220 66.0352 219.957 66.3047 219.957 66.5898Z" fill="#414141"/>
<path d="M250.99 67.5098V61.4688H252.115V67.5098C252.115 68.0723 252 68.5469 251.77 68.9336C251.539 69.3203 251.221 69.6152 250.814 69.8184C250.412 70.0176 249.949 70.1172 249.426 70.1172C248.902 70.1172 248.438 70.0273 248.031 69.8477C247.625 69.668 247.307 69.3945 247.076 69.0273C246.846 68.6602 246.73 68.1973 246.73 67.6387H247.861C247.861 67.998 247.928 68.293 248.061 68.5234C248.193 68.7539 248.377 68.9238 248.611 69.0332C248.85 69.1426 249.121 69.1973 249.426 69.1973C249.723 69.1973 249.988 69.1348 250.223 69.0098C250.461 68.8809 250.648 68.6914 250.785 68.4414C250.922 68.1875 250.99 67.877 250.99 67.5098ZM257.746 68.5352V63.6602H258.836V70H257.799L257.746 68.5352ZM257.951 67.1992L258.402 67.1875C258.402 67.6094 258.357 68 258.268 68.3594C258.182 68.7148 258.041 69.0234 257.846 69.2852C257.65 69.5469 257.395 69.752 257.078 69.9004C256.762 70.0449 256.377 70.1172 255.924 70.1172C255.615 70.1172 255.332 70.0723 255.074 69.9824C254.82 69.8926 254.602 69.7539 254.418 69.5664C254.234 69.3789 254.092 69.1348 253.99 68.834C253.893 68.5332 253.844 68.1719 253.844 67.75V63.6602H254.928V67.7617C254.928 68.0469 254.959 68.2832 255.021 68.4707C255.088 68.6543 255.176 68.8008 255.285 68.9102C255.398 69.0156 255.523 69.0898 255.66 69.1328C255.801 69.1758 255.945 69.1973 256.094 69.1973C256.555 69.1973 256.92 69.1094 257.189 68.9336C257.459 68.7539 257.652 68.5137 257.77 68.2129C257.891 67.9082 257.951 67.5703 257.951 67.1992ZM261.666 61V70H260.576V61H261.666Z" fill="#414141"/>
<path d="M288.443 62.2246L285.619 70H284.465L287.717 61.4688H288.461L288.443 62.2246ZM290.811 70L287.98 62.2246L287.963 61.4688H288.707L291.971 70H290.811ZM290.664 66.8418V67.7676H285.871V66.8418H290.664ZM297.057 63.6602H298.041V69.8652C298.041 70.4238 297.928 70.9004 297.701 71.2949C297.475 71.6895 297.158 71.9883 296.752 72.1914C296.35 72.3984 295.885 72.502 295.357 72.502C295.139 72.502 294.881 72.4668 294.584 72.3965C294.291 72.3301 294.002 72.2148 293.717 72.0508C293.436 71.8906 293.199 71.6738 293.008 71.4004L293.576 70.7559C293.842 71.0762 294.119 71.2988 294.408 71.4238C294.701 71.5488 294.99 71.6113 295.275 71.6113C295.619 71.6113 295.916 71.5469 296.166 71.418C296.416 71.2891 296.609 71.0977 296.746 70.8438C296.887 70.5938 296.957 70.2852 296.957 69.918V65.0547L297.057 63.6602ZM292.691 66.9004V66.7773C292.691 66.293 292.748 65.8535 292.861 65.459C292.979 65.0605 293.145 64.7188 293.359 64.4336C293.578 64.1484 293.842 63.9297 294.15 63.7773C294.459 63.6211 294.807 63.543 295.193 63.543C295.592 63.543 295.939 63.6133 296.236 63.7539C296.537 63.8906 296.791 64.0918 296.998 64.3574C297.209 64.6191 297.375 64.9355 297.496 65.3066C297.617 65.6777 297.701 66.0977 297.748 66.5664V67.1055C297.705 67.5703 297.621 67.9883 297.496 68.3594C297.375 68.7305 297.209 69.0469 296.998 69.3086C296.791 69.5703 296.537 69.7715 296.236 69.9121C295.936 70.0488 295.584 70.1172 295.182 70.1172C294.803 70.1172 294.459 70.0371 294.15 69.877C293.846 69.7168 293.584 69.4922 293.365 69.2031C293.146 68.9141 292.979 68.5742 292.861 68.1836C292.748 67.7891 292.691 67.3613 292.691 66.9004ZM293.775 66.7773V66.9004C293.775 67.2168 293.807 67.5137 293.869 67.791C293.936 68.0684 294.035 68.3125 294.168 68.5234C294.305 68.7344 294.479 68.9004 294.689 69.0215C294.9 69.1387 295.152 69.1973 295.445 69.1973C295.805 69.1973 296.102 69.1211 296.336 68.9688C296.57 68.8164 296.756 68.6152 296.893 68.3652C297.033 68.1152 297.143 67.8438 297.221 67.5508V66.1387C297.178 65.9238 297.111 65.7168 297.021 65.5176C296.936 65.3145 296.822 65.1348 296.682 64.9785C296.545 64.8184 296.375 64.6914 296.172 64.5977C295.969 64.5039 295.73 64.457 295.457 64.457C295.16 64.457 294.904 64.5195 294.689 64.6445C294.479 64.7656 294.305 64.9336 294.168 65.1484C294.035 65.3594 293.936 65.6055 293.869 65.8867C293.807 66.1641 293.775 66.4609 293.775 66.7773ZM299.4 66.9004V66.7656C299.4 66.3086 299.467 65.8848 299.6 65.4941C299.732 65.0996 299.924 64.7578 300.174 64.4688C300.424 64.1758 300.727 63.9492 301.082 63.7891C301.438 63.625 301.836 63.543 302.277 63.543C302.723 63.543 303.123 63.625 303.479 63.7891C303.838 63.9492 304.143 64.1758 304.393 64.4688C304.646 64.7578 304.84 65.0996 304.973 65.4941C305.105 65.8848 305.172 66.3086 305.172 66.7656V66.9004C305.172 67.3574 305.105 67.7812 304.973 68.1719C304.84 68.5625 304.646 68.9043 304.393 69.1973C304.143 69.4863 303.84 69.7129 303.484 69.877C303.133 70.0371 302.734 70.1172 302.289 70.1172C301.844 70.1172 301.443 70.0371 301.088 69.877C300.732 69.7129 300.428 69.4863 300.174 69.1973C299.924 68.9043 299.732 68.5625 299.6 68.1719C299.467 67.7812 299.4 67.3574 299.4 66.9004ZM300.484 66.7656V66.9004C300.484 67.2168 300.521 67.5156 300.596 67.7969C300.67 68.0742 300.781 68.3203 300.93 68.5352C301.082 68.75 301.271 68.9199 301.498 69.0449C301.725 69.166 301.988 69.2266 302.289 69.2266C302.586 69.2266 302.846 69.166 303.068 69.0449C303.295 68.9199 303.482 68.75 303.631 68.5352C303.779 68.3203 303.891 68.0742 303.965 67.7969C304.043 67.5156 304.082 67.2168 304.082 66.9004V66.7656C304.082 66.4531 304.043 66.1582 303.965 65.8809C303.891 65.5996 303.777 65.3516 303.625 65.1367C303.477 64.918 303.289 64.7461 303.062 64.6211C302.84 64.4961 302.578 64.4336 302.277 64.4336C301.98 64.4336 301.719 64.4961 301.492 64.6211C301.27 64.7461 301.082 64.918 300.93 65.1367C300.781 65.3516 300.67 65.5996 300.596 65.8809C300.521 66.1582 300.484 66.4531 300.484 66.7656Z" fill="#414141"/>
<path d="M332.83 67.8438C332.83 67.6445 332.799 67.4688 332.736 67.3164C332.678 67.1602 332.572 67.0195 332.42 66.8945C332.271 66.7695 332.064 66.6504 331.799 66.5371C331.537 66.4238 331.205 66.3086 330.803 66.1914C330.381 66.0664 330 65.9277 329.66 65.7754C329.32 65.6191 329.029 65.4414 328.787 65.2422C328.545 65.043 328.359 64.8145 328.23 64.5566C328.102 64.2988 328.037 64.0039 328.037 63.6719C328.037 63.3398 328.105 63.0332 328.242 62.752C328.379 62.4707 328.574 62.2266 328.828 62.0195C329.086 61.8086 329.393 61.6445 329.748 61.5273C330.104 61.4102 330.5 61.3516 330.938 61.3516C331.578 61.3516 332.121 61.4746 332.566 61.7207C333.016 61.9629 333.357 62.2812 333.592 62.6758C333.826 63.0664 333.943 63.4844 333.943 63.9297H332.818C332.818 63.6094 332.75 63.3262 332.613 63.0801C332.477 62.8301 332.27 62.6348 331.992 62.4941C331.715 62.3496 331.363 62.2773 330.938 62.2773C330.535 62.2773 330.203 62.3379 329.941 62.459C329.68 62.5801 329.484 62.7441 329.355 62.9512C329.23 63.1582 329.168 63.3945 329.168 63.6602C329.168 63.8398 329.205 64.0039 329.279 64.1523C329.357 64.2969 329.477 64.4316 329.637 64.5566C329.801 64.6816 330.008 64.7969 330.258 64.9023C330.512 65.0078 330.814 65.1094 331.166 65.207C331.65 65.3438 332.068 65.4961 332.42 65.6641C332.771 65.832 333.061 66.0215 333.287 66.2324C333.518 66.4395 333.688 66.6758 333.797 66.9414C333.91 67.2031 333.967 67.5 333.967 67.832C333.967 68.1797 333.896 68.4941 333.756 68.7754C333.615 69.0566 333.414 69.2969 333.152 69.4961C332.891 69.6953 332.576 69.8496 332.209 69.959C331.846 70.0645 331.439 70.1172 330.99 70.1172C330.596 70.1172 330.207 70.0625 329.824 69.9531C329.445 69.8438 329.1 69.6797 328.787 69.4609C328.479 69.2422 328.23 68.9727 328.043 68.6523C327.859 68.3281 327.768 67.9531 327.768 67.5273H328.893C328.893 67.8203 328.949 68.0723 329.062 68.2832C329.176 68.4902 329.33 68.6621 329.525 68.7988C329.725 68.9355 329.949 69.0371 330.199 69.1035C330.453 69.166 330.717 69.1973 330.99 69.1973C331.385 69.1973 331.719 69.1426 331.992 69.0332C332.266 68.9238 332.473 68.7676 332.613 68.5645C332.758 68.3613 332.83 68.1211 332.83 67.8438ZM337.875 70.1172C337.434 70.1172 337.033 70.043 336.674 69.8945C336.318 69.7422 336.012 69.5293 335.754 69.2559C335.5 68.9824 335.305 68.6582 335.168 68.2832C335.031 67.9082 334.963 67.498 334.963 67.0527V66.8066C334.963 66.291 335.039 65.832 335.191 65.4297C335.344 65.0234 335.551 64.6797 335.812 64.3984C336.074 64.1172 336.371 63.9043 336.703 63.7598C337.035 63.6152 337.379 63.543 337.734 63.543C338.188 63.543 338.578 63.6211 338.906 63.7773C339.238 63.9336 339.51 64.1523 339.721 64.4336C339.932 64.7109 340.088 65.0391 340.189 65.418C340.291 65.793 340.342 66.2031 340.342 66.6484V67.1348H335.607V66.25H339.258V66.168C339.242 65.8867 339.184 65.6133 339.082 65.3477C338.984 65.082 338.828 64.8633 338.613 64.6914C338.398 64.5195 338.105 64.4336 337.734 64.4336C337.488 64.4336 337.262 64.4863 337.055 64.5918C336.848 64.6934 336.67 64.8457 336.521 65.0488C336.373 65.252 336.258 65.5 336.176 65.793C336.094 66.0859 336.053 66.4238 336.053 66.8066V67.0527C336.053 67.3535 336.094 67.6367 336.176 67.9023C336.262 68.1641 336.385 68.3945 336.545 68.5938C336.709 68.793 336.906 68.9492 337.137 69.0625C337.371 69.1758 337.637 69.2324 337.934 69.2324C338.316 69.2324 338.641 69.1543 338.906 68.998C339.172 68.8418 339.404 68.6328 339.604 68.3711L340.26 68.8926C340.123 69.0996 339.949 69.2969 339.738 69.4844C339.527 69.6719 339.268 69.8242 338.959 69.9414C338.654 70.0586 338.293 70.1172 337.875 70.1172ZM344.262 63.6602V64.4922H340.834V63.6602H344.262ZM341.994 62.1191H343.078V68.4297C343.078 68.6445 343.111 68.8066 343.178 68.916C343.244 69.0254 343.33 69.0977 343.436 69.1328C343.541 69.168 343.654 69.1855 343.775 69.1855C343.865 69.1855 343.959 69.1777 344.057 69.1621C344.158 69.1426 344.234 69.127 344.285 69.1152L344.291 70C344.205 70.0273 344.092 70.0527 343.951 70.0762C343.814 70.1035 343.648 70.1172 343.453 70.1172C343.188 70.1172 342.943 70.0645 342.721 69.959C342.498 69.8535 342.32 69.6777 342.188 69.4316C342.059 69.1816 341.994 68.8457 341.994 68.4238V62.1191Z" fill="#414141"/>
</svg>
