<svg width="1198" height="195" viewBox="0 0 1198 195" fill="none" xmlns="http://www.w3.org/2000/svg">
<path d="M159.131 129.715C96.2923 136.034 52.9855 173.629 0.321045 179.794V195H1197.68V103.263C1139.05 103.263 1131.22 131.281 1103.63 123.568C1076.04 115.855 1047.06 62.8252 1014.87 65.6299C982.686 68.4346 965.021 -5.98681 897.195 1.02493C829.37 8.03667 779.451 88.1218 725.421 53.7643C671.39 19.4067 659.906 37.5353 602.427 30.5236C544.947 23.5119 519.767 107.509 465.325 104.825C410.882 102.14 396.35 172.004 340.791 165.524C273.465 157.671 279.325 153.273 249.389 143.088C219.454 132.902 192.623 126.347 159.131 129.715Z" fill="url(#paint0_linear_129_118)"/>
<defs>
<linearGradient id="paint0_linear_129_118" x1="598.999" y1="0.558594" x2="598.999" y2="276.334" gradientUnits="userSpaceOnUse">
<stop stop-color="#F3CE5E" stop-opacity="0.06"/>
<stop offset="0.998978" stop-color="white" stop-opacity="0"/>
</linearGradient>
</defs>
</svg>
