<svg width="48" height="48" viewBox="0 0 48 48" fill="none" xmlns="http://www.w3.org/2000/svg">
<path d="M0 24C0 10.7452 10.7452 0 24 0C37.2548 0 48 10.7452 48 24C48 37.2548 37.2548 48 24 48C10.7452 48 0 37.2548 0 24Z" fill="#DCB73D"/>
<path d="M18.7031 27.1406C20.5469 26.3906 22.3125 26.0156 24 26.0156C25.6875 26.0156 27.4375 26.3906 29.25 27.1406C31.0938 27.8594 32.0156 28.8125 32.0156 30V32.0156H15.9844V30C15.9844 28.8125 16.8906 27.8594 18.7031 27.1406ZM26.8125 22.8281C26.0312 23.6094 25.0938 24 24 24C22.9062 24 21.9688 23.6094 21.1875 22.8281C20.4062 22.0469 20.0156 21.1094 20.0156 20.0156C20.0156 18.9219 20.4062 17.9844 21.1875 17.2031C21.9688 16.3906 22.9062 15.9844 24 15.9844C25.0938 15.9844 26.0312 16.3906 26.8125 17.2031C27.5938 17.9844 27.9844 18.9219 27.9844 20.0156C27.9844 21.1094 27.5938 22.0469 26.8125 22.8281Z" fill="white"/>
</svg>
