<svg width="32" height="32" viewBox="0 0 32 32" fill="none" xmlns="http://www.w3.org/2000/svg">
<path d="M24 13H15C13.8954 13 13 13.8954 13 15V24C13 25.1046 13.8954 26 15 26H24C25.1046 26 26 25.1046 26 24V15C26 13.8954 25.1046 13 24 13Z" stroke="#DCB73D" stroke-width="1.5"/>
<path d="M9 19H8C7.46957 19 6.96086 18.7893 6.58579 18.4142C6.21071 18.0391 6 17.5304 6 17V8C6 7.46957 6.21071 6.96086 6.58579 6.58579C6.96086 6.21071 7.46957 6 8 6H17C17.5304 6 18.0391 6.21071 18.4142 6.58579C18.7893 6.96086 19 7.46957 19 8V9" stroke="#DCB73D" stroke-width="1.5"/>
</svg>
