<svg width="32" height="32" viewBox="0 0 32 32" fill="none" xmlns="http://www.w3.org/2000/svg">
<path fill-rule="evenodd" clip-rule="evenodd" d="M23.6601 9.36429L23.6001 9.31963C21.847 8.11426 20.2277 7.2892 18.5924 6.81902C18.5812 6.81726 18.5813 6.81726 18.5696 6.8147C17.7275 6.61611 16.8653 6.51683 16.0028 6.51888C12.3859 6.51888 9.02628 8.25016 6.02343 11.4773C5.04875 12.5248 4.15882 13.6829 3.37597 14.9042C3.17076 15.2244 2.98129 15.5361 2.8102 15.834L2.52517 16.3303L2.80871 16.8275C3.48493 18.0132 4.26467 19.136 5.13877 20.1826C5.23126 20.2934 5.21694 20.461 5.10799 20.5534C5.00345 20.642 4.84972 20.6287 4.76093 20.5223C3.71309 19.2677 2.79809 17.9062 2.03081 16.4599C1.99069 16.3843 1.98947 16.293 2.02757 16.2162C2.21818 15.8321 2.54865 15.2582 2.95965 14.617C3.76031 13.3679 4.66753 12.1877 5.66378 11.117C8.7899 7.75734 12.2537 6.00004 16.0023 6.00003C16.784 5.99818 17.5658 6.07617 18.3677 6.23893C20.1407 6.53711 22.0814 7.41492 23.8269 8.84299C26.3562 10.8449 28.4474 13.3529 29.9688 16.2095C30.0091 16.2852 30.0104 16.3767 29.9723 16.4536C29.7817 16.8377 29.4512 17.4116 29.0402 18.0528C28.2395 19.3019 27.3323 20.4821 26.3361 21.5528C23.2099 24.9125 19.7461 26.6698 16.0163 26.6699C13.2601 26.6246 10.6071 25.6993 8.4262 24.0244C8.31329 23.9377 8.29097 23.7711 8.37823 23.6558C8.46208 23.5449 8.61513 23.5241 8.72355 23.6074C10.8182 25.2161 13.3695 26.1075 16.0204 26.1511C19.6175 26.1509 22.9762 24.4168 25.9764 21.1924C26.9511 20.145 27.841 18.9869 28.6239 17.7656C28.8288 17.4459 29.018 17.1345 29.1889 16.837L29.4746 16.3397L29.1896 15.842C27.7648 13.3538 25.8893 11.1565 23.6601 9.36429ZM16.3213 20.7324C13.9166 20.7324 11.9642 18.7652 11.9642 16.3349C11.9642 13.9045 13.9166 11.9373 16.3213 11.9373C18.726 11.9373 20.6785 13.9045 20.6785 16.3349C20.6785 18.7652 18.726 20.7324 16.3213 20.7324Z" stroke="#DCB73D" stroke-width="1.46251"/>
</svg>
