<svg width="32" height="32" viewBox="0 0 32 32" fill="none" xmlns="http://www.w3.org/2000/svg">
<path d="M24.5262 5.2H24.526C24.4854 5.19995 24.4453 5.20815 24.408 5.2241C24.3706 5.24005 24.337 5.26342 24.3089 5.2928C24.2809 5.32218 24.2591 5.35695 24.2449 5.39503C24.2307 5.43309 24.2244 5.47366 24.2263 5.51426L24.3929 8.96243L24.4213 9.55034L24.0406 9.10144C23.091 7.98172 21.909 7.08248 20.5768 6.46628C19.2447 5.85008 17.7944 5.53172 16.3268 5.53333L16.3266 5.53333C10.7468 5.53333 6.19592 10.0906 6.2 15.6744C6.20409 21.2675 10.7367 25.8 16.3266 25.8H16.3269C18.8342 25.8035 21.2531 24.8727 23.1119 23.1888L23.1128 23.1881C23.1432 23.1609 23.1677 23.1278 23.1848 23.0907C23.202 23.0537 23.2114 23.0136 23.2125 22.9728C23.2137 22.9319 23.2065 22.8913 23.1914 22.8534C23.1763 22.8155 23.1536 22.7811 23.1248 22.7522L23.1247 22.7522L21.709 21.3356C21.709 21.3355 21.709 21.3355 21.709 21.3355C21.6552 21.2818 21.5831 21.2505 21.5072 21.2479C21.4314 21.2454 21.3575 21.2717 21.3003 21.3216C21.3002 21.3217 21.3001 21.3217 21.3 21.3218L21.1684 21.1712C20.0497 22.1561 18.6577 22.7763 17.1777 22.9493C15.6978 23.1223 14.2004 22.8397 12.885 22.1394C11.5696 21.439 10.4989 20.354 9.81543 19.0292C9.132 17.7043 8.86837 16.2025 9.0597 14.7238C9.25102 13.2452 9.8882 11.8601 10.8863 10.7531C11.8844 9.64609 13.196 8.86982 14.6462 8.52776C16.0965 8.1857 17.6165 8.29411 19.0036 8.83854C20.3122 9.35218 21.444 10.2309 22.2657 11.3678L24.5262 5.2ZM24.5262 5.2H26.5003C26.5798 5.2 26.656 5.23158 26.7122 5.28782L26.8536 5.14645M24.5262 5.2V5H26.5003C26.6328 5 26.7599 5.05268 26.8536 5.14645M26.8536 5.14645L26.7122 5.28782C26.7684 5.34407 26.8 5.42039 26.8 5.5V13.8475C26.8 13.9271 26.7684 14.0034 26.7122 14.0597L26.8536 14.201V5.14645Z" fill="#DCB73D" stroke="white" stroke-width="0.4"/>
</svg>
