<svg width="232" height="91" viewBox="0 0 232 91" fill="none" xmlns="http://www.w3.org/2000/svg">
<path d="M2.42214 69.0188H3.35122V80.9329H10.6928V81.7709H2.42214V69.0188ZM15.9789 81.8437C15.0802 81.8437 14.2665 81.6373 13.5378 81.2244C12.8212 80.8114 12.2565 80.2406 11.8436 79.5119C11.4307 78.7711 11.2242 77.9392 11.2242 77.0162C11.2242 76.0932 11.4307 75.2673 11.8436 74.5386C12.2565 73.7978 12.8212 73.2209 13.5378 72.808C14.2665 72.3951 15.0802 72.1886 15.9789 72.1886C16.8776 72.1886 17.6852 72.3951 18.4018 72.808C19.1305 73.2209 19.7013 73.7978 20.1142 74.5386C20.5271 75.2673 20.7336 76.0932 20.7336 77.0162C20.7336 77.9392 20.5271 78.7711 20.1142 79.5119C19.7013 80.2406 19.1305 80.8114 18.4018 81.2244C17.6852 81.6373 16.8776 81.8437 15.9789 81.8437ZM15.9789 81.024C16.7076 81.024 17.3573 80.8539 17.9281 80.5139C18.5111 80.1738 18.9665 79.7002 19.2944 79.0929C19.6345 78.4857 19.8045 77.7934 19.8045 77.0162C19.8045 76.2389 19.6345 75.5467 19.2944 74.9394C18.9665 74.3322 18.5111 73.8585 17.9281 73.5185C17.3573 73.1784 16.7076 73.0084 15.9789 73.0084C15.2502 73.0084 14.5944 73.1784 14.0114 73.5185C13.4406 73.8585 12.9852 74.3322 12.6451 74.9394C12.3172 75.5467 12.1533 76.2389 12.1533 77.0162C12.1533 77.7934 12.3172 78.4857 12.6451 79.0929C12.9852 79.7002 13.4406 80.1738 14.0114 80.5139C14.5944 80.8539 15.2502 81.024 15.9789 81.024ZM26.966 81.8437C26.043 81.8437 25.2172 81.6373 24.4885 81.2244C23.7598 80.8114 23.189 80.2406 22.7761 79.5119C22.3631 78.7711 22.1567 77.9392 22.1567 77.0162C22.1567 76.081 22.3631 75.2491 22.7761 74.5204C23.189 73.7796 23.7598 73.2088 24.4885 72.808C25.2172 72.3951 26.043 72.1886 26.966 72.1886C27.7311 72.1886 28.4234 72.3404 29.0428 72.644C29.6743 72.9355 30.1844 73.3667 30.573 73.9375L29.899 74.4293C29.5589 73.9557 29.1339 73.6035 28.6238 73.3727C28.1259 73.1298 27.5733 73.0084 26.966 73.0084C26.2252 73.0084 25.5572 73.1784 24.9621 73.5185C24.3792 73.8464 23.9177 74.314 23.5776 74.9212C23.2497 75.5284 23.0858 76.2268 23.0858 77.0162C23.0858 77.8056 23.2497 78.5039 23.5776 79.1112C23.9177 79.7184 24.3792 80.192 24.9621 80.5321C25.5572 80.86 26.2252 81.024 26.966 81.024C27.5733 81.024 28.1259 80.9086 28.6238 80.6778C29.1339 80.4349 29.5589 80.0767 29.899 79.603L30.573 80.0949C30.1844 80.6657 29.6743 81.1029 29.0428 81.4065C28.4234 81.698 27.7311 81.8437 26.966 81.8437ZM36.1418 72.1886C37.3199 72.1886 38.2247 72.4922 38.8562 73.0995C39.4877 73.6946 39.8035 74.5751 39.8035 75.741V81.7709H38.9291V80.0767C38.6254 80.6353 38.1821 81.0725 37.5992 81.3883C37.0162 81.6919 36.3179 81.8437 35.5042 81.8437C34.4476 81.8437 33.6096 81.5948 32.9902 81.0968C32.383 80.5989 32.0794 79.9431 32.0794 79.1294C32.0794 78.34 32.3587 77.7024 32.9174 77.2166C33.4882 76.7186 34.393 76.4697 35.6317 76.4697H38.8926V75.7045C38.8926 74.818 38.6497 74.1439 38.1639 73.6824C37.6903 73.2209 36.992 72.9902 36.0689 72.9902C35.4374 72.9902 34.8302 73.0995 34.2472 73.3181C33.6764 73.5367 33.1906 73.8282 32.7898 74.1925L32.3344 73.5367C32.8081 73.1116 33.3789 72.7837 34.0468 72.553C34.7148 72.3101 35.4131 72.1886 36.1418 72.1886ZM35.6317 81.0968C36.4211 81.0968 37.0891 80.9147 37.6356 80.5503C38.1943 80.186 38.6133 79.6577 38.8926 78.9654V77.1801H35.65C34.7148 77.1801 34.0347 77.3502 33.6096 77.6902C33.1967 78.0303 32.9902 78.4978 32.9902 79.0929C32.9902 79.7123 33.221 80.2042 33.6825 80.5685C34.144 80.9207 34.7937 81.0968 35.6317 81.0968ZM43.192 68.2537H44.1029V81.7709H43.192V68.2537ZM47.5777 72.2615H48.4885V81.7709H47.5777V72.2615ZM48.0331 69.9479C47.8267 69.9479 47.6506 69.8811 47.5048 69.7475C47.3591 69.6018 47.2862 69.4257 47.2862 69.2192C47.2862 69.0127 47.3591 68.8366 47.5048 68.6909C47.6506 68.5452 47.8267 68.4723 48.0331 68.4723C48.2396 68.4723 48.4157 68.5452 48.5614 68.6909C48.7072 68.8245 48.78 68.9945 48.78 69.201C48.78 69.4074 48.7072 69.5835 48.5614 69.7293C48.4157 69.875 48.2396 69.9479 48.0331 69.9479ZM58.394 80.9875V81.7709H50.8339V81.1515L57.1006 73.0448H50.925V72.2615H58.2847V72.8809L51.9998 80.9875H58.394ZM63.9672 72.1886C65.1453 72.1886 66.0501 72.4922 66.6816 73.0995C67.3131 73.6946 67.6289 74.5751 67.6289 75.741V81.7709H66.7545V80.0767C66.4508 80.6353 66.0076 81.0725 65.4246 81.3883C64.8416 81.6919 64.1433 81.8437 63.3296 81.8437C62.273 81.8437 61.435 81.5948 60.8156 81.0968C60.2084 80.5989 59.9048 79.9431 59.9048 79.1294C59.9048 78.34 60.1841 77.7024 60.7428 77.2166C61.3136 76.7186 62.2184 76.4697 63.4571 76.4697H66.718V75.7045C66.718 74.818 66.4751 74.1439 65.9893 73.6824C65.5157 73.2209 64.8174 72.9902 63.8944 72.9902C63.2628 72.9902 62.6556 73.0995 62.0726 73.3181C61.5018 73.5367 61.016 73.8282 60.6152 74.1925L60.1598 73.5367C60.6335 73.1116 61.2043 72.7837 61.8722 72.553C62.5402 72.3101 63.2385 72.1886 63.9672 72.1886ZM63.4571 81.0968C64.2466 81.0968 64.9145 80.9147 65.461 80.5503C66.0197 80.186 66.4387 79.6577 66.718 78.9654V77.1801H63.4754C62.5402 77.1801 61.8601 77.3502 61.435 77.6902C61.0221 78.0303 60.8156 78.4978 60.8156 79.0929C60.8156 79.7123 61.0464 80.2042 61.5079 80.5685C61.9694 80.9207 62.6191 81.0968 63.4571 81.0968ZM75.6628 72.1886C76.853 72.1886 77.7942 72.5347 78.4865 73.227C79.1788 73.9192 79.5249 74.9151 79.5249 76.2146V81.7709H78.614V76.2875C78.614 75.2187 78.3408 74.405 77.7942 73.8464C77.2599 73.2877 76.5069 73.0084 75.5353 73.0084C74.418 73.0084 73.5375 73.3424 72.8938 74.0103C72.2501 74.6783 71.9283 75.577 71.9283 76.7065V81.7709H71.0174V72.2615H71.8919V74.32C72.2198 73.6521 72.7056 73.1298 73.3492 72.7533C74.0051 72.3769 74.7763 72.1886 75.6628 72.1886ZM91.3812 68.2537V81.7709H90.4885V79.5302C90.112 80.271 89.5837 80.8418 88.9036 81.2426C88.2235 81.6434 87.4523 81.8437 86.59 81.8437C85.7035 81.8437 84.9019 81.6373 84.1854 81.2244C83.4688 80.8114 82.9041 80.2406 82.4912 79.5119C82.0904 78.7832 81.89 77.9513 81.89 77.0162C81.89 76.081 82.0904 75.2491 82.4912 74.5204C82.9041 73.7796 83.4688 73.2088 84.1854 72.808C84.9019 72.3951 85.7035 72.1886 86.59 72.1886C87.4402 72.1886 88.1992 72.389 88.8672 72.7898C89.5473 73.1906 90.0817 73.7492 90.4703 74.4658V68.2537H91.3812ZM86.6447 81.024C87.3734 81.024 88.0231 80.8539 88.5939 80.5139C89.1769 80.1738 89.6323 79.7002 89.9602 79.0929C90.3003 78.4857 90.4703 77.7934 90.4703 77.0162C90.4703 76.2389 90.3003 75.5467 89.9602 74.9394C89.6323 74.3322 89.1769 73.8585 88.5939 73.5185C88.0231 73.1784 87.3734 73.0084 86.6447 73.0084C85.916 73.0084 85.2602 73.1784 84.6772 73.5185C84.1064 73.8585 83.651 74.3322 83.3109 74.9394C82.983 75.5467 82.8191 76.2389 82.8191 77.0162C82.8191 77.7934 82.983 78.4857 83.3109 79.0929C83.651 79.7002 84.1064 80.1738 84.6772 80.5139C85.2602 80.8539 85.916 81.024 86.6447 81.024ZM98.5734 81.8437C97.6747 81.8437 96.861 81.6373 96.1323 81.2244C95.4158 80.8114 94.851 80.2406 94.4381 79.5119C94.0252 78.7711 93.8187 77.9392 93.8187 77.0162C93.8187 76.0932 94.0252 75.2673 94.4381 74.5386C94.851 73.7978 95.4158 73.2209 96.1323 72.808C96.861 72.3951 97.6747 72.1886 98.5734 72.1886C99.4721 72.1886 100.28 72.3951 100.996 72.808C101.725 73.2209 102.296 73.7978 102.709 74.5386C103.122 75.2673 103.328 76.0932 103.328 77.0162C103.328 77.9392 103.122 78.7711 102.709 79.5119C102.296 80.2406 101.725 80.8114 100.996 81.2244C100.28 81.6373 99.4721 81.8437 98.5734 81.8437ZM98.5734 81.024C99.3021 81.024 99.9519 80.8539 100.523 80.5139C101.106 80.1738 101.561 79.7002 101.889 79.0929C102.229 78.4857 102.399 77.7934 102.399 77.0162C102.399 76.2389 102.229 75.5467 101.889 74.9394C101.561 74.3322 101.106 73.8585 100.523 73.5185C99.9519 73.1784 99.3021 73.0084 98.5734 73.0084C97.8447 73.0084 97.1889 73.1784 96.606 73.5185C96.0352 73.8585 95.5797 74.3322 95.2397 74.9394C94.9118 75.5467 94.7478 76.2389 94.7478 77.0162C94.7478 77.7934 94.9118 78.4857 95.2397 79.0929C95.5797 79.7002 96.0352 80.1738 96.606 80.5139C97.1889 80.8539 97.8447 81.024 98.5734 81.024ZM110.104 72.2615H111.015V81.7709H110.104V72.2615ZM110.56 69.9479C110.353 69.9479 110.177 69.8811 110.031 69.7475C109.885 69.6018 109.813 69.4257 109.813 69.2192C109.813 69.0127 109.885 68.8366 110.031 68.6909C110.177 68.5452 110.353 68.4723 110.56 68.4723C110.766 68.4723 110.942 68.5452 111.088 68.6909C111.234 68.8245 111.306 68.9945 111.306 69.201C111.306 69.4074 111.234 69.5835 111.088 69.7293C110.942 69.875 110.766 69.9479 110.56 69.9479ZM119.135 72.1886C120.325 72.1886 121.267 72.5347 121.959 73.227C122.651 73.9192 122.997 74.9151 122.997 76.2146V81.7709H122.086V76.2875C122.086 75.2187 121.813 74.405 121.267 73.8464C120.732 73.2877 119.979 73.0084 119.008 73.0084C117.89 73.0084 117.01 73.3424 116.366 74.0103C115.722 74.6783 115.401 75.577 115.401 76.7065V81.7709H114.49V72.2615H115.364V74.32C115.692 73.6521 116.178 73.1298 116.822 72.7533C117.477 72.3769 118.249 72.1886 119.135 72.1886ZM133.838 72.2615L129.539 81.7709H128.61L124.329 72.2615H125.294L129.083 80.7689L132.909 72.2615H133.838ZM143.232 77.2348H135.053C135.077 77.9756 135.265 78.6375 135.617 79.2205C135.97 79.7913 136.443 80.2346 137.038 80.5503C137.646 80.8661 138.326 81.024 139.079 81.024C139.698 81.024 140.269 80.9147 140.791 80.6961C141.325 80.4653 141.769 80.1313 142.121 79.6941L142.649 80.2953C142.236 80.7932 141.714 81.1758 141.082 81.443C140.463 81.7101 139.789 81.8437 139.06 81.8437C138.113 81.8437 137.269 81.6373 136.528 81.2244C135.787 80.8114 135.204 80.2406 134.779 79.5119C134.366 78.7832 134.16 77.9513 134.16 77.0162C134.16 76.0932 134.354 75.2673 134.743 74.5386C135.144 73.7978 135.69 73.2209 136.382 72.808C137.075 72.3951 137.852 72.1886 138.714 72.1886C139.577 72.1886 140.348 72.3951 141.028 72.808C141.72 73.2088 142.261 73.7735 142.649 74.5022C143.05 75.2309 143.25 76.0567 143.25 76.9797L143.232 77.2348ZM138.714 72.9902C138.046 72.9902 137.445 73.142 136.911 73.4456C136.376 73.7371 135.945 74.1561 135.617 74.7026C135.302 75.237 135.119 75.8442 135.071 76.5243H142.358C142.321 75.8442 142.139 75.237 141.811 74.7026C141.483 74.1682 141.052 73.7492 140.518 73.4456C139.983 73.142 139.382 72.9902 138.714 72.9902ZM148.108 81.8437C147.343 81.8437 146.615 81.7284 145.922 81.4976C145.23 81.2669 144.69 80.9754 144.301 80.6232L144.72 79.8945C145.109 80.2224 145.607 80.4957 146.214 80.7143C146.833 80.9329 147.477 81.0422 148.145 81.0422C149.104 81.0422 149.809 80.8843 150.258 80.5685C150.72 80.2528 150.95 79.8156 150.95 79.2569C150.95 78.8561 150.823 78.5404 150.568 78.3096C150.325 78.0788 150.021 77.9088 149.657 77.7995C149.293 77.6902 148.789 77.5748 148.145 77.4534C147.392 77.3198 146.785 77.1741 146.323 77.0162C145.862 76.8583 145.467 76.6033 145.139 76.2511C144.811 75.8989 144.647 75.4131 144.647 74.7937C144.647 74.0407 144.957 73.4213 145.576 72.9355C146.208 72.4376 147.1 72.1886 148.254 72.1886C148.861 72.1886 149.463 72.2736 150.058 72.4436C150.653 72.6137 151.139 72.8384 151.515 73.1177L151.096 73.8464C150.707 73.567 150.264 73.3545 149.766 73.2088C149.268 73.063 148.758 72.9902 148.236 72.9902C147.349 72.9902 146.681 73.1541 146.232 73.482C145.783 73.8099 145.558 74.2411 145.558 74.7755C145.558 75.2005 145.686 75.5345 145.941 75.7774C146.196 76.0082 146.505 76.1843 146.87 76.3057C147.246 76.415 147.768 76.5365 148.436 76.67C149.177 76.8036 149.772 76.9494 150.222 77.1073C150.683 77.253 151.072 77.4959 151.388 77.836C151.703 78.176 151.861 78.6436 151.861 79.2387C151.861 80.0281 151.533 80.6596 150.878 81.1333C150.222 81.6069 149.299 81.8437 148.108 81.8437ZM158.757 81.1697C158.526 81.3883 158.235 81.5583 157.883 81.6798C157.543 81.7891 157.184 81.8437 156.808 81.8437C155.982 81.8437 155.345 81.6191 154.895 81.1697C154.446 80.7082 154.221 80.0706 154.221 79.2569V73.0448H152.472V72.2615H154.221V70.1847H155.132V72.2615H158.156V73.0448H155.132V79.1658C155.132 79.7852 155.278 80.2588 155.569 80.5868C155.873 80.9025 156.316 81.0604 156.899 81.0604C157.494 81.0604 157.986 80.8843 158.375 80.5321L158.757 81.1697ZM160.933 72.2615H161.844V81.7709H160.933V72.2615ZM161.388 69.9479C161.182 69.9479 161.006 69.8811 160.86 69.7475C160.714 69.6018 160.642 69.4257 160.642 69.2192C160.642 69.0127 160.714 68.8366 160.86 68.6909C161.006 68.5452 161.182 68.4723 161.388 68.4723C161.595 68.4723 161.771 68.5452 161.917 68.6909C162.062 68.8245 162.135 68.9945 162.135 69.201C162.135 69.4074 162.062 69.5835 161.917 69.7293C161.771 69.875 161.595 69.9479 161.388 69.9479ZM177.16 72.1886C178.338 72.1886 179.261 72.5347 179.929 73.227C180.609 73.9192 180.949 74.9151 180.949 76.2146V81.7709H180.038V76.2875C180.038 75.2187 179.777 74.405 179.255 73.8464C178.733 73.2877 178.004 73.0084 177.069 73.0084C176 73.0084 175.15 73.3424 174.518 74.0103C173.899 74.6783 173.589 75.577 173.589 76.7065V81.7709H172.678V76.2875C172.678 75.2187 172.417 74.405 171.895 73.8464C171.373 73.2877 170.644 73.0084 169.709 73.0084C168.64 73.0084 167.79 73.3424 167.159 74.0103C166.539 74.6783 166.23 75.577 166.23 76.7065V81.7709H165.319V72.2615H166.193V74.3018C166.509 73.6338 166.976 73.1177 167.596 72.7533C168.227 72.3769 168.974 72.1886 169.837 72.1886C170.699 72.1886 171.428 72.3829 172.023 72.7716C172.63 73.1602 173.061 73.731 173.316 74.484C173.632 73.7796 174.124 73.2209 174.792 72.808C175.472 72.3951 176.261 72.1886 177.16 72.1886ZM192.397 77.2348H184.218C184.242 77.9756 184.43 78.6375 184.782 79.2205C185.135 79.7913 185.608 80.2346 186.203 80.5503C186.811 80.8661 187.491 81.024 188.244 81.024C188.863 81.024 189.434 80.9147 189.956 80.6961C190.491 80.4653 190.934 80.1313 191.286 79.6941L191.814 80.2953C191.401 80.7932 190.879 81.1758 190.248 81.443C189.628 81.7101 188.954 81.8437 188.226 81.8437C187.278 81.8437 186.434 81.6373 185.693 81.2244C184.953 80.8114 184.37 80.2406 183.944 79.5119C183.532 78.7832 183.325 77.9513 183.325 77.0162C183.325 76.0932 183.519 75.2673 183.908 74.5386C184.309 73.7978 184.855 73.2209 185.548 72.808C186.24 72.3951 187.017 72.1886 187.879 72.1886C188.742 72.1886 189.513 72.3951 190.193 72.808C190.885 73.2088 191.426 73.7735 191.814 74.5022C192.215 75.2309 192.416 76.0567 192.416 76.9797L192.397 77.2348ZM187.879 72.9902C187.211 72.9902 186.61 73.142 186.076 73.4456C185.542 73.7371 185.11 74.1561 184.782 74.7026C184.467 75.237 184.285 75.8442 184.236 76.5243H191.523C191.486 75.8442 191.304 75.237 190.976 74.7026C190.648 74.1682 190.217 73.7492 189.683 73.4456C189.149 73.142 188.547 72.9902 187.879 72.9902ZM199.514 72.1886C200.705 72.1886 201.646 72.5347 202.338 73.227C203.03 73.9192 203.376 74.9151 203.376 76.2146V81.7709H202.466V76.2875C202.466 75.2187 202.192 74.405 201.646 73.8464C201.111 73.2877 200.358 73.0084 199.387 73.0084C198.27 73.0084 197.389 73.3424 196.745 74.0103C196.102 74.6783 195.78 75.577 195.78 76.7065V81.7709H194.869V72.2615H195.743V74.32C196.071 73.6521 196.557 73.1298 197.201 72.7533C197.857 72.3769 198.628 72.1886 199.514 72.1886ZM211.48 81.1697C211.25 81.3883 210.958 81.5583 210.606 81.6798C210.266 81.7891 209.908 81.8437 209.531 81.8437C208.705 81.8437 208.068 81.6191 207.618 81.1697C207.169 80.7082 206.944 80.0706 206.944 79.2569V73.0448H205.195V72.2615H206.944V70.1847H207.855V72.2615H210.879V73.0448H207.855V79.1658C207.855 79.7852 208.001 80.2588 208.292 80.5868C208.596 80.9025 209.039 81.0604 209.622 81.0604C210.217 81.0604 210.709 80.8843 211.098 80.5321L211.48 81.1697ZM217.035 81.8437C216.136 81.8437 215.322 81.6373 214.593 81.2244C213.877 80.8114 213.312 80.2406 212.899 79.5119C212.486 78.7711 212.28 77.9392 212.28 77.0162C212.28 76.0932 212.486 75.2673 212.899 74.5386C213.312 73.7978 213.877 73.2209 214.593 72.808C215.322 72.3951 216.136 72.1886 217.035 72.1886C217.933 72.1886 218.741 72.3951 219.457 72.808C220.186 73.2209 220.757 73.7978 221.17 74.5386C221.583 75.2673 221.789 76.0932 221.789 77.0162C221.789 77.9392 221.583 78.7711 221.17 79.5119C220.757 80.2406 220.186 80.8114 219.457 81.2244C218.741 81.6373 217.933 81.8437 217.035 81.8437ZM217.035 81.024C217.763 81.024 218.413 80.8539 218.984 80.5139C219.567 80.1738 220.022 79.7002 220.35 79.0929C220.69 78.4857 220.86 77.7934 220.86 77.0162C220.86 76.2389 220.69 75.5467 220.35 74.9394C220.022 74.3322 219.567 73.8585 218.984 73.5185C218.413 73.1784 217.763 73.0084 217.035 73.0084C216.306 73.0084 215.65 73.1784 215.067 73.5185C214.496 73.8585 214.041 74.3322 213.701 74.9394C213.373 75.5467 213.209 76.2389 213.209 77.0162C213.209 77.7934 213.373 78.4857 213.701 79.0929C214.041 79.7002 214.496 80.1738 215.067 80.5139C215.65 80.8539 216.306 81.024 217.035 81.024ZM226.655 81.8437C225.89 81.8437 225.162 81.7284 224.469 81.4976C223.777 81.2669 223.237 80.9754 222.848 80.6232L223.267 79.8945C223.656 80.2224 224.154 80.4957 224.761 80.7143C225.38 80.9329 226.024 81.0422 226.692 81.0422C227.651 81.0422 228.356 80.8843 228.805 80.5685C229.267 80.2528 229.497 79.8156 229.497 79.2569C229.497 78.8561 229.37 78.5404 229.115 78.3096C228.872 78.0788 228.568 77.9088 228.204 77.7995C227.839 77.6902 227.335 77.5748 226.692 77.4534C225.939 77.3198 225.332 77.1741 224.87 77.0162C224.409 76.8583 224.014 76.6033 223.686 76.2511C223.358 75.8989 223.194 75.4131 223.194 74.7937C223.194 74.0407 223.504 73.4213 224.123 72.9355C224.755 72.4376 225.647 72.1886 226.801 72.1886C227.408 72.1886 228.01 72.2736 228.605 72.4436C229.2 72.6137 229.686 72.8384 230.062 73.1177L229.643 73.8464C229.254 73.567 228.811 73.3545 228.313 73.2088C227.815 73.063 227.305 72.9902 226.783 72.9902C225.896 72.9902 225.228 73.1541 224.779 73.482C224.33 73.8099 224.105 74.2411 224.105 74.7755C224.105 75.2005 224.232 75.5345 224.488 75.7774C224.743 76.0082 225.052 76.1843 225.417 76.3057C225.793 76.415 226.315 76.5365 226.983 76.67C227.724 76.8036 228.319 76.9494 228.769 77.1073C229.23 77.253 229.619 77.4959 229.934 77.836C230.25 78.176 230.408 78.6436 230.408 79.2387C230.408 80.0281 230.08 80.6596 229.424 81.1333C228.769 81.6069 227.846 81.8437 226.655 81.8437Z" fill="white"/>
<path d="M51.038 60V19.7962H68.1954C70.1206 19.7962 71.876 20.1926 73.4615 20.9854C75.0848 21.7404 76.4815 22.7785 77.6518 24.0997C78.822 25.3832 79.728 26.8366 80.3698 28.4599C81.0115 30.0831 81.3324 31.7441 81.3324 33.4429C81.3324 35.7456 80.785 37.9351 79.6903 40.0114C78.6333 42.0876 77.1421 43.7864 75.2169 45.1076C73.3294 46.3911 71.0833 47.0329 68.4785 47.0329H60.3245V60H51.038ZM60.3245 38.9355H67.9123C68.6295 38.9355 69.2901 38.7279 69.8941 38.3126C70.4981 37.8974 70.9889 37.2745 71.3664 36.444C71.7439 35.6135 71.9326 34.5942 71.9326 33.3862C71.9326 32.1405 71.7061 31.1212 71.2531 30.3285C70.8379 29.498 70.2905 28.894 69.611 28.5165C68.9693 28.139 68.2898 27.9502 67.5725 27.9502H60.3245V38.9355ZM114.574 51.846V60H86.318V19.7962H114.064V27.9502H95.6045V35.7645H111.46V43.2956H95.6045V51.846H114.574ZM129.502 37.0102V60H120.216V19.7962H127.577L146.206 43.4655V19.7962H155.493V60H147.905L129.502 37.0102ZM190.354 60H161.018V52.8113L170.889 42.83C172.935 40.6918 174.52 38.9776 175.644 37.6873C176.787 36.397 177.589 35.3003 178.05 34.3971C178.511 33.4939 178.741 32.5538 178.741 31.5769C178.741 30.3788 178.354 29.5124 177.58 28.9779C176.806 28.4434 175.893 28.1761 174.843 28.1761C173.571 28.1761 172.28 28.5447 170.972 29.282C169.681 30.0009 168.216 31.07 166.576 32.4893L160.576 25.4665C161.792 24.379 163.083 23.3467 164.447 22.3698C165.811 21.3744 167.423 20.5634 169.285 19.9367C171.147 19.31 173.414 18.9966 176.087 18.9966C178.833 18.9966 181.211 19.4759 183.22 20.4344C185.248 21.3929 186.815 22.7108 187.921 24.3882C189.027 26.0471 189.579 27.9365 189.579 30.0562C189.579 32.3972 189.146 34.4893 188.28 36.3325C187.432 38.1573 186.151 39.9914 184.437 41.8347C182.723 43.6595 180.584 45.7332 178.022 48.0557L175.064 50.71V50.9864H190.354V60ZM229.6 49.6942C229.6 51.997 228.977 53.9222 227.731 55.47C226.523 56.98 224.881 58.1125 222.805 58.8675C220.728 59.6225 218.445 60 215.953 60H196.361V19.7962H218.728C220.615 19.7962 222.238 20.3059 223.597 21.3251C224.994 22.3066 226.051 23.5901 226.768 25.1756C227.523 26.7611 227.901 28.4032 227.901 30.102C227.901 31.9895 227.41 33.8015 226.429 35.538C225.447 37.2367 224.013 38.5202 222.125 39.3885C224.428 40.068 226.24 41.276 227.561 43.0125C228.92 44.749 229.6 46.9762 229.6 49.6942ZM220.143 47.8256C220.143 46.9574 219.973 46.2024 219.634 45.5606C219.294 44.8811 218.841 44.3526 218.275 43.9751C217.746 43.5599 217.104 43.3522 216.349 43.3522H205.647V52.1291H215.953C216.746 52.1291 217.444 51.9404 218.048 51.5629C218.69 51.1854 219.2 50.6757 219.577 50.034C219.955 49.3922 220.143 48.6561 220.143 47.8256ZM205.647 27.7237V36.0476H214.764C215.443 36.0476 216.066 35.8966 216.633 35.5946C217.237 35.2926 217.727 34.8396 218.105 34.2356C218.482 33.5939 218.671 32.8011 218.671 31.8574C218.671 30.9514 218.501 30.1964 218.161 29.5924C217.859 28.9884 217.444 28.5354 216.916 28.2334C216.387 27.8936 215.783 27.7237 215.104 27.7237H205.647Z" fill="white"/>
<path fill-rule="evenodd" clip-rule="evenodd" d="M22.1894 58.1213C32.6358 58.1213 41.2329 49.4248 41.2329 38.5366C41.2329 27.6484 32.6358 18.9519 22.1894 18.9519C11.7429 18.9519 3.14583 27.6484 3.14583 38.5366C3.14583 49.4248 11.7429 58.1213 22.1894 58.1213ZM22.1894 61.2672C34.4442 61.2672 44.3787 51.0903 44.3787 38.5366C44.3787 25.9829 34.4442 15.806 22.1894 15.806C9.93452 15.806 0 25.9829 0 38.5366C0 51.0903 9.93452 61.2672 22.1894 61.2672Z" fill="white"/>
<path fill-rule="evenodd" clip-rule="evenodd" d="M30.8421 53.9964C33.0678 50.1015 34.4836 44.6382 34.4836 38.5366C34.4836 32.4349 33.0678 26.9717 30.8421 23.0768C28.5965 19.147 25.6825 17.0419 22.7306 17.0419C19.7787 17.0419 16.8647 19.147 14.6191 23.0768C12.3934 26.9717 10.9776 32.4349 10.9776 38.5366C10.9776 44.6382 12.3934 50.1015 14.6191 53.9964C16.8647 57.9262 19.7787 60.0313 22.7306 60.0313C25.6825 60.0313 28.5965 57.9262 30.8421 53.9964ZM22.7306 61.2672C29.9042 61.2672 35.7195 51.0903 35.7195 38.5366C35.7195 25.9829 29.9042 15.806 22.7306 15.806C15.557 15.806 9.7417 25.9829 9.7417 38.5366C9.7417 51.0903 15.557 61.2672 22.7306 61.2672Z" fill="white"/>
<path fill-rule="evenodd" clip-rule="evenodd" d="M36.9967 30.345C33.2297 28.1084 27.9452 26.6851 22.0418 26.6851C16.1383 26.6851 10.8538 28.1084 7.08684 30.345C3.29318 32.5975 1.23586 35.5336 1.23586 38.5365C1.23586 41.5393 3.29318 44.4755 7.08684 46.7279C10.8538 48.9646 16.1383 50.3879 22.0418 50.3879C27.9452 50.3879 33.2297 48.9646 36.9967 46.7279C40.7903 44.4755 42.8477 41.5393 42.8477 38.5365C42.8477 35.5336 40.7903 32.5975 36.9967 30.345ZM44.0835 38.5365C44.0835 31.3086 34.2151 25.4492 22.0418 25.4492C9.86843 25.4492 -8.88006e-07 31.3086 -5.72064e-07 38.5365C-2.56122e-07 45.7644 9.86843 51.6238 22.0418 51.6238C34.2151 51.6238 44.0835 45.7644 44.0835 38.5365Z" fill="white"/>
<path fill-rule="evenodd" clip-rule="evenodd" d="M32.9898 21.8036C30.232 19.7352 26.3654 18.4194 22.0419 18.4194C17.7185 18.4194 13.8519 19.7352 11.094 21.8036C8.33657 23.8717 6.74648 26.6344 6.74648 29.582C6.74648 32.5295 8.33657 35.2922 11.094 37.3603C13.8519 39.4287 17.7185 40.7446 22.0419 40.7446C26.3654 40.7446 30.232 39.4287 32.9898 37.3603C35.7473 35.2922 37.3374 32.5295 37.3374 29.582C37.3374 26.6344 35.7473 23.8717 32.9898 21.8036ZM38.5733 29.582C38.5733 22.7345 31.1719 17.1835 22.0419 17.1835C12.9119 17.1835 5.51062 22.7345 5.51062 29.582C5.51062 36.4295 12.9119 41.9805 22.0419 41.9805C31.1719 41.9805 38.5733 36.4295 38.5733 29.582Z" fill="white"/>
<path fill-rule="evenodd" clip-rule="evenodd" d="M21.6478 61.267L21.6478 16.8883L22.8837 16.8883L22.8837 61.267L21.6478 61.267Z" fill="white"/>
</svg>
