<svg width="32" height="32" viewBox="0 0 32 32" fill="none" xmlns="http://www.w3.org/2000/svg">
<path d="M16 29.3334C23.3637 29.3334 29.3333 23.3638 29.3333 16C29.3333 8.63622 23.3637 2.66669 16 2.66669C8.63616 2.66669 2.66663 8.63622 2.66663 16C2.66663 23.3638 8.63616 29.3334 16 29.3334Z" stroke="#E0AD00" stroke-width="1.5"/>
<path d="M12.12 12C12.4335 11.1089 13.0522 10.3574 13.8667 9.87881C14.6811 9.40018 15.6385 9.22522 16.5696 9.38491C17.5007 9.54462 18.3451 10.0287 18.9535 10.7513C19.5617 11.474 19.8948 12.3887 19.8933 13.3333C19.8933 16 15.8933 17.3333 15.8933 17.3333" stroke="#E0AD00" stroke-width="1.5"/>
<path d="M16 23.3333V21.3333" stroke="#E0AD00" stroke-width="1.5"/>
</svg>
