<svg width="32" height="32" viewBox="0 0 32 32" fill="none" xmlns="http://www.w3.org/2000/svg">
<path d="M24.2164 20.4956V20.5682L24.2678 20.6195L26.0122 22.3588C26.0122 22.3589 26.0123 22.3589 26.0124 22.359C26.4805 22.8282 26.6205 23.5329 26.3669 24.1453C26.1133 24.7577 25.516 25.1575 24.8532 25.1582H19.2128H19.0692L19.0412 25.299C18.7519 26.7528 17.476 27.7998 15.9938 27.7998C14.5114 27.7998 13.2355 26.7528 12.9462 25.299L12.9182 25.1582H12.7746H7.14465C6.48276 25.1565 5.88673 24.7572 5.63337 24.1458C5.37999 23.5342 5.51895 22.8304 5.98567 22.3611L7.72747 20.6193L7.77872 20.5681V20.4956L7.77873 14.6683L7.77871 14.6665C7.74294 11.1475 9.9935 8.01168 13.3389 6.9193L13.4596 6.8799V6.75295V6.71361C13.4704 5.813 13.9521 4.98373 14.729 4.52803L14.729 4.52804L14.7308 4.52698C15.4791 4.07611 16.4105 4.05717 17.1766 4.47723C18.0058 4.93859 18.5243 5.80872 18.5355 6.75752L18.5369 6.88156L18.6544 6.92126C21.9777 8.04389 24.2153 11.1605 24.2164 14.6683C24.2164 14.6683 24.2164 14.6683 24.2164 14.6683V20.4956ZM15.9988 26.1394L15.9999 26.1394C16.5103 26.1364 16.9808 25.8628 17.236 25.4207L17.3875 25.1582H17.0844H14.9055H14.6024L14.754 25.4207C15.0107 25.8654 15.4853 26.1394 15.9988 26.1394ZM24.4797 23.1895L22.7906 21.503C22.7906 21.5029 22.7906 21.5029 22.7905 21.5029C22.6341 21.3463 22.5463 21.1338 22.5465 20.9124V20.9123L22.5465 14.6694C22.5465 14.6693 22.5465 14.6692 22.5465 14.6691C22.5654 11.6338 20.4652 8.99621 17.5029 8.33474C17.1288 8.24359 16.8654 7.90829 16.8656 7.52313V7.52303V6.83894C16.876 6.48286 16.6949 6.14837 16.3908 5.96252C16.1435 5.80995 15.8314 5.80951 15.5837 5.9612C15.317 6.11498 15.1462 6.39321 15.1297 6.70067L15.1294 6.70066V6.71003V7.5104V7.5105C15.1297 7.89571 14.8663 8.23099 14.4922 8.32212C11.5262 8.98563 9.42601 11.6298 9.45111 14.669V20.9097L9.45111 20.9099C9.45129 21.1313 9.36344 21.3438 9.20688 21.5006L7.51785 23.1896L7.21909 23.4883H7.64159H24.356H24.779L24.4797 23.1895Z" fill="#E0AD00" stroke="white" stroke-width="0.35"/>
<mask id="mask0_7_310" style="mask-type:alpha" maskUnits="userSpaceOnUse" x="5" y="4" width="22" height="24">
<path fill-rule="evenodd" clip-rule="evenodd" d="M24.3914 20.4956V14.6683C24.3903 11.0854 22.1048 7.90212 18.7104 6.75547C18.6986 5.74371 18.1455 4.81587 17.2612 4.32406C16.4404 3.87376 15.4423 3.89396 14.6404 4.37708C13.8103 4.86399 13.2958 5.75019 13.2846 6.71255V6.75295C9.86658 7.86903 7.56718 11.0729 7.60372 14.6683V20.4956L5.86159 22.2377C5.34507 22.7571 5.1913 23.536 5.4717 24.2128C5.7521 24.8895 6.41171 25.3313 7.1442 25.3332H12.7746C13.0802 26.8688 14.4279 27.9748 15.9938 27.9748C17.5595 27.9748 18.9072 26.8688 19.2128 25.3332H24.8534C25.587 25.3324 26.2479 24.89 26.5286 24.2123C26.8092 23.5344 26.6543 22.7544 26.136 22.2352L24.3914 20.4956ZM15.9988 25.9644C15.5478 25.9644 15.131 25.7237 14.9055 25.3332H17.0844C16.8603 25.7215 16.4471 25.9617 15.9988 25.9644ZM9.33071 21.6243L7.64159 23.3133H24.356L22.6668 21.6267C22.4775 21.4372 22.3712 21.1801 22.3715 20.9123V14.6683C22.39 11.7147 20.346 9.14815 17.4632 8.50519C17.0098 8.39555 16.6903 7.98956 16.6906 7.52303V6.83627C16.7 6.54188 16.5506 6.26512 16.2992 6.11164C16.1074 5.99314 15.865 5.99314 15.6731 6.11164C15.4566 6.23559 15.3178 6.46092 15.3044 6.71003V7.5104C15.3047 7.97694 14.9854 8.38292 14.5319 8.49256C11.6454 9.13755 9.60135 11.7107 9.62611 14.6683V20.9097C9.62632 21.1776 9.52006 21.4347 9.33071 21.6243Z" fill="white"/>
</mask>
<g mask="url(#mask0_7_310)">
</g>
</svg>
