<svg width="32" height="32" viewBox="0 0 32 32" fill="none" xmlns="http://www.w3.org/2000/svg">
<path fill-rule="evenodd" clip-rule="evenodd" d="M15.25 5.91701V1.33301H16.75V5.91701H21.556V7.41701H13.222C12.439 7.41701 11.652 7.78901 11.049 8.51401C10.442 9.24201 10.084 10.254 10.084 11.334C10.084 12.412 10.442 13.424 11.049 14.154C11.652 14.877 12.439 15.25 13.222 15.25H18.778C20.057 15.25 21.249 15.86 22.104 16.887C22.956 17.909 23.417 19.27 23.417 20.667C23.417 22.064 22.956 23.425 22.104 24.447C21.249 25.473 20.057 26.083 18.778 26.083H16.75V30.667H15.25V26.083H9.33401V24.583H18.778C19.562 24.583 20.348 24.211 20.952 23.486C21.559 22.758 21.917 21.746 21.917 20.666C21.917 19.588 21.559 18.576 20.952 17.847C20.348 17.123 19.562 16.75 18.778 16.75H13.222C11.943 16.75 10.752 16.14 9.89601 15.113C9.04501 14.091 8.58301 12.73 8.58301 11.333C8.58301 9.93701 9.04501 8.57501 9.89601 7.55301C10.751 6.52701 11.943 5.91701 13.222 5.91701H15.25Z" fill="#E0AD00"/>
</svg>
