<svg width="25" height="24" viewBox="0 0 25 24" fill="none" xmlns="http://www.w3.org/2000/svg">
<path d="M0.75 13.0416C0.75 12.0204 1.58289 11.1876 2.604 11.1876H6.5412V23.0372C6.29444 23.1599 6.01936 23.2283 5.7288 23.2283H2.604C1.58288 23.2283 0.75 22.3954 0.75 21.3744V13.0416Z" stroke="#E0AD00" stroke-width="1.5"/>
<path d="M23.7659 12.1983L23.2822 12.7276L23.7892 13.2346C24.0803 13.5257 24.2476 13.9189 24.2476 14.3438C24.2476 14.9544 23.8989 15.4929 23.3741 15.7571L22.7053 16.0938L23.0409 16.7632C23.1486 16.9779 23.206 17.2158 23.206 17.4686C23.206 18.0798 22.8566 18.6185 22.3314 18.8829L21.6622 19.2198L21.9984 19.8893C22.1585 20.2082 22.2079 20.5788 22.1248 20.9556C21.9728 21.6424 21.3052 22.187 20.4969 22.187H10.936C10.4699 22.187 9.7417 22.0601 9.08203 21.8209V11.5295L9.13798 11.4083L12.1378 4.90972L12.2068 4.76014V4.59539V1.18242C12.415 1.04687 12.9139 0.77179 13.54 0.77179C13.6555 0.77179 13.8649 0.823071 14.1449 0.994599C14.4156 1.16051 14.7078 1.41237 14.9774 1.73698C15.5205 2.39092 15.9148 3.26835 15.9148 4.18819C15.9148 5.48232 15.4409 7.15591 15.1234 8.11998L14.7991 9.10459H15.8357H22.2696C23.3168 9.10459 24.1559 9.87841 24.2393 10.7846C24.2875 11.3153 24.1112 11.8206 23.7659 12.1983Z" stroke="#E0AD00" stroke-width="1.5"/>
</svg>
