<svg width="48" height="48" viewBox="0 0 48 48" fill="none" xmlns="http://www.w3.org/2000/svg">
<path fill-rule="evenodd" clip-rule="evenodd" d="M24 44.6785C35.2988 44.6785 44.5975 35.4963 44.5975 24C44.5975 12.5037 35.2988 3.32152 24 3.32152C12.7012 3.32152 3.40253 12.5037 3.40253 24C3.40253 35.4963 12.7012 44.6785 24 44.6785ZM24 48C37.2548 48 48 37.2548 48 24C48 10.7452 37.2548 0 24 0C10.7452 0 0 10.7452 0 24C0 37.2548 10.7452 48 24 48Z" fill="#FFC804"/>
<path fill-rule="evenodd" clip-rule="evenodd" d="M33.3587 40.3232C35.7659 36.2107 37.2973 30.4424 37.2973 24C37.2973 17.5576 35.7659 11.7893 33.3587 7.67684C30.9298 3.52751 27.778 1.30488 24.5853 1.30488C21.3925 1.30488 18.2408 3.52751 15.8119 7.67684C13.4046 11.7893 11.8732 17.5576 11.8732 24C11.8732 30.4424 13.4046 36.2107 15.8119 40.3232C18.2408 44.4725 21.3925 46.6951 24.5853 46.6951C27.778 46.6951 30.9298 44.4725 33.3587 40.3232ZM24.5853 48C32.3442 48 38.6341 37.2548 38.6341 24C38.6341 10.7452 32.3442 0 24.5853 0C16.8264 0 10.5365 10.7452 10.5365 24C10.5365 37.2548 16.8264 48 24.5853 48Z" fill="#FFC804"/>
<path fill-rule="evenodd" clip-rule="evenodd" d="M40.0156 15.3511C35.9412 12.9895 30.2255 11.4867 23.8404 11.4867C17.4552 11.4867 11.7395 12.9895 7.66512 15.3511C3.5619 17.7294 1.33671 20.8294 1.33671 24C1.33671 27.1706 3.5619 30.2706 7.66512 32.6489C11.7395 35.0105 17.4552 36.5133 23.8404 36.5133C30.2255 36.5133 35.9412 35.0105 40.0156 32.6489C44.1188 30.2706 46.344 27.1706 46.344 24C46.344 20.8294 44.1188 17.7294 40.0156 15.3511ZM47.6807 24C47.6807 16.3684 37.007 10.1818 23.8404 10.1818C10.6737 10.1818 -9.60467e-07 16.3684 -6.18744e-07 24C-2.77021e-07 31.6316 10.6737 37.8182 23.8404 37.8182C37.007 37.8182 47.6807 31.6316 47.6807 24Z" fill="#FFC804"/>
<path fill-rule="evenodd" clip-rule="evenodd" d="M35.6816 6.3327C32.6987 4.14879 28.5166 2.75943 23.8403 2.75943C19.1641 2.75944 14.982 4.14879 11.9991 6.3327C9.01663 8.5163 7.29679 11.4333 7.29679 14.5455C7.29679 17.6576 9.01663 20.5746 11.9991 22.7582C14.982 24.9421 19.1641 26.3315 23.8403 26.3315C28.5166 26.3315 32.6987 24.9421 35.6816 22.7582C38.6641 20.5746 40.3839 17.6576 40.3839 14.5455C40.3839 11.4333 38.6641 8.5163 35.6816 6.3327ZM41.7206 14.5455C41.7206 7.31555 33.7153 1.45455 23.8403 1.45455C13.9653 1.45455 5.96008 7.31555 5.96008 14.5455C5.96008 21.7754 13.9654 27.6364 23.8403 27.6364C33.7153 27.6364 41.7206 21.7754 41.7206 14.5455Z" fill="#FFC804"/>
<path fill-rule="evenodd" clip-rule="evenodd" d="M23.4144 47.9999L23.4144 1.14276L24.7511 1.14276L24.7511 47.9999L23.4144 47.9999Z" fill="#FFC804"/>
</svg>
