<svg width="32" height="32" viewBox="0 0 32 32" fill="none" xmlns="http://www.w3.org/2000/svg">
<path d="M0 16C0 7.16344 7.16344 0 16 0C24.8366 0 32 7.16344 32 16C32 24.8366 24.8366 32 16 32C7.16344 32 0 24.8366 0 16Z" fill="#DCB73D"/>
<path d="M10.7031 19.1406C12.5469 18.3906 14.3125 18.0156 16 18.0156C17.6875 18.0156 19.4375 18.3906 21.25 19.1406C23.0938 19.8594 24.0156 20.8125 24.0156 22V24.0156H7.98438V22C7.98438 20.8125 8.89062 19.8594 10.7031 19.1406ZM18.8125 14.8281C18.0312 15.6094 17.0938 16 16 16C14.9062 16 13.9688 15.6094 13.1875 14.8281C12.4062 14.0469 12.0156 13.1094 12.0156 12.0156C12.0156 10.9219 12.4062 9.98438 13.1875 9.20312C13.9688 8.39062 14.9062 7.98438 16 7.98438C17.0938 7.98438 18.0312 8.39062 18.8125 9.20312C19.5938 9.98438 19.9844 10.9219 19.9844 12.0156C19.9844 13.1094 19.5938 14.0469 18.8125 14.8281Z" fill="white"/>
</svg>
