<svg width="32" height="32" viewBox="0 0 32 32" fill="none" xmlns="http://www.w3.org/2000/svg">
<path d="M17.08 6.75L17.6103 6.21967C17.4697 6.07902 17.2789 6 17.08 6V6.75ZM7.75 6.75V6C7.33579 6 7 6.33579 7 6.75H7.75ZM7.75 26.17H7C7 26.5842 7.33579 26.92 7.75 26.92V26.17ZM23.33 26.17V26.92C23.7442 26.92 24.08 26.5842 24.08 26.17H23.33ZM23.33 13H24.08C24.08 12.8011 24.001 12.6103 23.8603 12.4697L23.33 13ZM16.77 12.82H16.02C16.02 13.2342 16.3558 13.57 16.77 13.57V12.82ZM16.77 6.82L17.2834 6.27325C17.0654 6.06854 16.7466 6.01291 16.4721 6.13169C16.1977 6.25047 16.02 6.52094 16.02 6.82H16.77ZM23.16 12.82V13.57C23.4676 13.57 23.7441 13.3821 23.8573 13.0961C23.9706 12.81 23.8977 12.4838 23.6734 12.2732L23.16 12.82ZM17.08 6H7.75V7.5H17.08V6ZM7 6.75V26.17H8.5V6.75H7ZM7.75 26.92H23.33V25.42H7.75V26.92ZM24.08 26.17V13H22.58V26.17H24.08ZM23.8603 12.4697L17.6103 6.21967L16.5497 7.28033L22.7997 13.5303L23.8603 12.4697ZM17.52 12.82V6.82H16.02V12.82H17.52ZM16.2566 7.36675L22.6466 13.3668L23.6734 12.2732L17.2834 6.27325L16.2566 7.36675ZM23.16 12.07H16.77V13.57H23.16V12.07Z" fill="#DCB73D"/>
<path d="M11.238 22.6733V24H10.2954V20.0898H11.8557C12.1547 20.0898 12.4188 20.1453 12.648 20.2563C12.8789 20.3656 13.0571 20.5222 13.1824 20.7263C13.3095 20.9286 13.373 21.1587 13.373 21.4165C13.373 21.7979 13.2361 22.1031 12.9622 22.3323C12.69 22.5597 12.3158 22.6733 11.8396 22.6733H11.238ZM11.238 21.9456H11.8557C12.0383 21.9456 12.1771 21.8999 12.272 21.8086C12.3686 21.7173 12.417 21.5884 12.417 21.4219C12.417 21.2393 12.3678 21.0933 12.2693 20.9841C12.1708 20.8749 12.0365 20.8194 11.8665 20.8176H11.238V21.9456ZM13.8779 24V20.0898H15.1375C15.483 20.0898 15.7936 20.1686 16.0693 20.3262C16.3451 20.4819 16.5599 20.703 16.7139 20.9895C16.8696 21.2742 16.9484 21.5938 16.9502 21.9482V22.1282C16.9502 22.4862 16.8741 22.8076 16.7219 23.0923C16.5715 23.3752 16.3585 23.5972 16.0828 23.7583C15.8088 23.9176 15.5027 23.9982 15.1643 24H13.8779ZM14.8206 20.8176V23.2749H15.1482C15.4185 23.2749 15.6262 23.1791 15.7712 22.9875C15.9163 22.7942 15.9888 22.5077 15.9888 22.1282V21.959C15.9888 21.5812 15.9163 21.2965 15.7712 21.105C15.6262 20.9134 15.415 20.8176 15.1375 20.8176H14.8206ZM19.8962 22.4424H18.3762V24H17.4336V20.0898H20.0493V20.8176H18.3762V21.7173H19.8962V22.4424Z" fill="#DCB73D"/>
</svg>
